<?xml version="1.0" encoding="UTF-8" standalone="no"?>
<svg
   width="1000"
   height="1000"
   viewBox="0 0 264.58334 264.58334"
   version="1.1"
   id="svg8"
   sodipodi:docname="penguin_goofy.svg"
   inkscape:version="1.2.1 (9c6d41e410, 2022-07-14)"
   xml:space="preserve"
   inkscape:export-filename="penguin_goofy_small.png"
   inkscape:export-xdpi="9.6000004"
   inkscape:export-ydpi="9.6000004"
   xmlns:inkscape="http://www.inkscape.org/namespaces/inkscape"
   xmlns:sodipodi="http://sodipodi.sourceforge.net/DTD/sodipodi-0.dtd"
   xmlns="http://www.w3.org/2000/svg"
   xmlns:svg="http://www.w3.org/2000/svg"
   xmlns:rdf="http://www.w3.org/1999/02/22-rdf-syntax-ns#"
   xmlns:cc="http://creativecommons.org/ns#"
   xmlns:dc="http://purl.org/dc/elements/1.1/"><defs
     id="defs2" /><sodipodi:namedview
     id="base"
     pagecolor="#ffffff"
     bordercolor="#666666"
     borderopacity="1.0"
     inkscape:pageopacity="0"
     inkscape:pageshadow="2"
     inkscape:zoom="0.87500002"
     inkscape:cx="330.85714"
     inkscape:cy="777.14284"
     inkscape:document-units="mm"
     inkscape:current-layer="layer2"
     showgrid="false"
     showborder="true"
     inkscape:window-width="3840"
     inkscape:window-height="2126"
     inkscape:window-x="3829"
     inkscape:window-y="-11"
     inkscape:window-maximized="1"
     inkscape:document-rotation="0"
     units="mm"
     inkscape:showpageshadow="0"
     inkscape:pagecheckerboard="0"
     inkscape:deskcolor="#272822" /><metadata
     id="metadata5"><rdf:RDF><cc:Work
         rdf:about=""><dc:format>image/svg+xml</dc:format><dc:type
           rdf:resource="http://purl.org/dc/dcmitype/StillImage" /></cc:Work></rdf:RDF></metadata><g
     inkscape:groupmode="layer"
     id="layer1"
     inkscape:label="background"
     sodipodi:insensitive="true"
     style="display:inline"><rect
       style="display:inline;fill:#ffe1a4;fill-opacity:1;stroke:#272822;stroke-width:0.264583"
       id="rect31081"
       width="264.58334"
       height="264.58334"
       x="-5.0862632e-06"
       y="-5.0862632e-06"
       rx="0.52916664"
       ry="0.52916664" /></g><g
     inkscape:groupmode="layer"
     id="layer2"
     inkscape:label="main"
     style="display:inline"><g
       id="g24424"
       style="fill:#4b4d42;fill-opacity:1"
       transform="translate(3.1400401,-1.38158)"><path
         style="display:inline;fill:#4b4d42;fill-opacity:1;stroke:#272822;stroke-width:0.999999"
         d="m 44.125946,170.95795 c -0.89786,-3.8364 -1.32167,-23.05065 -0.76731,-34.78819 0.26696,-5.65243 0.14486,-5.5382 -2.39562,2.24101 -1.93926,5.9382 -3.06329,10.11258 -4.11641,15.28195 -0.64708,3.17626 -1.39435,6.3898 -1.34571,9.63094 0.0343,2.28745 -0.16339,4.89471 1.15328,6.76553 0.93415,1.32732 2.62021,2.33116 4.24222,2.39025 1.18921,0.0433 3.48531,-0.39503 3.22955,-1.52149 z"
         id="path15611-3"
         sodipodi:nodetypes="saaaacss" /><path
         style="display:inline;fill:#4b4d42;fill-opacity:1;stroke:#272822;stroke-width:0.999999"
         d="m 176.16484,239.01597 c 9.88362,-2.77963 16.90969,-6.71316 23.13843,-12.95397 4.76664,-4.77588 7.11391,-8.80729 8.33547,-14.3161 l 0.65256,-2.94279 -1.1626,-0.80257 c -3.29928,-2.27761 -6.32286,-4.70056 -8.40297,-6.73378 -6.09117,-5.95388 -11.57371,-15.12909 -14.84889,-24.85011 -1.00606,-2.98608 -1.44686,-5.20438 -1.03262,-5.19667 0.12693,0.002 2.11659,3.26278 4.42147,7.24539 6.8234,11.79014 10.65011,16.83913 16.6106,21.91615 3.70911,3.15934 6.28783,4.85457 9.7778,6.71135 1.57426,0.83754 3.26614,1.45722 4.97517,1.96612 0.82608,0.246 2.41852,0.58046 2.53295,0.52002 0.3042,-0.16066 0.54185,-1.72892 0.76624,-5.05631 0.30613,-4.53952 0.29292,-4.67077 -2.06198,-20.49028 -0.68795,-4.6214 -1.6076,-10.99086 -2.04368,-14.15436 -0.43607,-3.16349 -1.00103,-6.99789 -1.25546,-8.52086 -1.03125,-7.36183 -3.76238,-14.95177 -6.10622,-23.27729 -0.7074,-2.55434 -1.19629,-4.84169 -1.08642,-5.083 0.35056,-0.76998 1.51337,0.72692 2.64146,3.40041 0.56805,1.34624 1.10029,2.44771 1.18274,2.44771 0.0824,0 0.0679,-0.81261 -0.0324,-1.8058 -0.32865,-3.25582 -0.50619,-5.99207 -0.82884,-12.77437 -1.53977,-32.366903 -4.70908,-49.675433 -11.95103,-65.268083 -6.90201,-14.860736 -20.30621,-28.44734 -32.83409,-33.280869 -2.30117,-0.887842 -9.51188,-3.054895 -14.37176,-4.185122 -3.56708,-0.829569 -7.18265,-1.485601 -10.82161,-1.898111 -3.57611,-0.405385 -7.18591,-0.427301 -10.78238,-0.562494 -3.07706,-0.115668 -6.15914,-0.351328 -9.23525,-0.21268 -1.25901,0.05675 -2.37925,0.272192 -3.75671,0.42674 -1.37746,0.154547 -3.5119,0.456548 -5.25048,0.78701 -3.36825,0.640221 -6.82289,1.080675 -10.02206,2.313683 C 94.6996,25.704393 86.71782,29.15437 79.12997,35.87526 74.25885,40.189823 71.7734,43.157378 68.35534,48.739851 61.3423,60.193727 53.14855,86.093217 50.82339,104.1563 c -1.18955,9.24107 -2.38745,30.79156 -2.65685,47.79748 l -0.15469,9.76472 c 0,0 0.3973,-1.69789 0.61718,-2.54151 0.25682,-0.98536 0.49213,-1.97867 0.81982,-2.94279 1.84016,-5.41408 3.54806,-10.96342 6.41997,-15.90819 5.50102,-9.47151 15.38261,-16.5579 25.75451,-17.96206 4.42261,-0.59874 5.91818,-0.83464 8.89318,-0.77423 14.60545,0.29651 25.20763,4.20928 34.09809,12.00373 11.49798,10.08053 14.82915,11.75015 26.20071,33.62963 7.16267,13.78136 11.3873,27.46016 12.22791,44.96159 0.30531,6.35659 1.03428,9.44969 0.78916,18.93968 -0.0599,2.3201 0.0553,4.94973 0.0858,7.50265 0.009,0.72979 0.21182,2.67658 1.21197,2.54718 4.55138,-0.54309 7.76919,-1.45369 11.0347,-2.15821 z"
         id="path15611-95"
         sodipodi:nodetypes="csscssscssaassssccssscsssaaaasaasssscaassssssssccc" /></g><path
       d="m 93.54951,109.64338 c -3.1091,-0.29167 -4.67156,-0.75481 -6.11955,-1.81397 -2.01616,-1.47476 -3.99312,-5.37034 -3.61504,-7.12342 0.0984,-0.45617 -0.0412,-1.43134 -0.31021,-2.16704 -1.05708,-2.89108 -1.38186,-4.23461 -1.38186,-5.71634 0,-3.08611 1.64939,-6.05582 4.1478,-7.46804 1.2473,-0.70503 1.41966,-0.72695 5.69133,-0.72375 4.13766,0.003 4.53809,0.0502 6.59648,0.77605 7.18407,2.53329 12.50434,7.68166 14.38892,13.92399 0.59522,1.97153 0.62281,4.95538 0.0565,6.11357 -0.89516,1.83082 -3.36556,3.2775 -6.61896,3.8761 -2.06974,0.38082 -10.07191,0.5821 -12.83543,0.32285 z m 10.64401,-2.69065 c 2.66817,-0.32513 5.20986,-1.33078 5.81489,-2.30072 1.05861,-1.69709 0.0478,-5.75994 -2.60981,-10.49013 -1.21907,-2.16977 -1.90408,-2.85212 -4.69191,-4.67363 -2.59419,-1.695 -6.00608,-2.9592 -9.20475,-3.41063 -4.0211,-0.56748 -7.03841,0.66294 -8.21483,3.34991 -0.34525,0.78854 -0.65106,1.95732 -0.67958,2.59729 -0.0939,2.10673 0.41507,6.10701 0.83753,6.58253 0.38253,0.43057 0.41535,0.41924 0.42454,-0.14657 0.0243,-1.49903 2.82421,-3.26592 5.17526,-3.26592 2.53928,0 7.08527,1.91749 9.30502,3.92484 1.27285,1.15106 2.48554,3.32516 2.08485,3.73773 -1.53031,1.57573 -10.8207,1.14966 -13.84783,-0.63507 -0.69091,-0.40734 -1.47704,-1.07092 -1.74697,-1.47463 -0.26993,-0.4037 -0.66688,-0.73476 -0.88211,-0.73569 -1.07887,-0.005 0.22953,3.09967 2.19251,5.20197 1.12791,1.20796 2.54864,1.71011 5.9189,2.092 2.87897,0.32621 5.2178,0.2446 10.12429,-0.35328 z M 98.85975,101.0647 C 97.01,99.45327 95.94249,98.85772 93.34366,97.98738 c -1.93261,-0.64722 -3.39433,-0.84024 -3.39433,-0.44821 0,0.11225 -0.31352,0.32293 -0.6967,0.46817 -0.38319,0.14525 -0.9068,0.58692 -1.16359,0.9815 -0.4203,0.64583 -0.41436,0.76702 0.0595,1.21451 1.09617,1.03508 6.18524,2.15938 9.92852,2.19346 l 2.33618,0.0213 z"
       style="fill:#121310;fill-opacity:1;stroke-width:0.999999"
       id="path15732" /><path
       style="display:inline;fill:#fc9cbf;fill-opacity:1;stroke-width:0.999999"
       d="M 98.85975,101.06471 C 97.01,99.45328 95.94249,98.85773 93.34366,97.98738 c -1.93261,-0.64722 -3.39433,-0.84024 -3.39433,-0.44821 0,0.11225 -0.31352,0.32293 -0.6967,0.46817 -0.38319,0.14525 -0.9068,0.58692 -1.16359,0.98151 -0.4203,0.64583 -0.41436,0.76702 0.0595,1.21451 1.09617,1.03508 6.18524,2.15938 9.92852,2.19346 l 2.33618,0.0213 z"
       id="path16387" /><path
       style="display:inline;fill:#ffc756;fill-opacity:1;stroke-width:0.999999"
       d="m 104.19352,106.95274 c 2.66817,-0.32513 5.20986,-1.33078 5.81489,-2.30073 1.05861,-1.69709 0.0478,-5.75994 -2.60981,-10.49013 -1.21907,-2.16977 -1.90408,-2.85212 -4.69191,-4.67363 -2.59419,-1.695 -6.00608,-2.9592 -9.20475,-3.41063 -4.0211,-0.56748 -7.03841,0.66294 -8.21483,3.34991 -0.34525,0.78854 -0.65106,1.95732 -0.67958,2.59729 -0.0939,2.10673 0.41507,6.10701 0.83753,6.58253 0.38253,0.43058 0.41535,0.41925 0.42454,-0.14657 0.0243,-1.49903 2.82421,-3.26592 5.17526,-3.26592 2.53928,0 7.08527,1.91749 9.30502,3.92485 1.27285,1.15106 2.48554,3.32516 2.08485,3.73773 -1.53031,1.57573 -10.8207,1.14966 -13.84783,-0.63507 -0.69091,-0.40734 -1.47704,-1.07092 -1.74697,-1.47463 -0.26993,-0.4037 -0.66688,-0.73476 -0.88211,-0.73569 -1.07887,-0.005 0.22953,3.09967 2.19251,5.20197 1.12791,1.20796 2.54864,1.71011 5.9189,2.092 2.87897,0.32621 5.2178,0.2446 10.12429,-0.35328 z"
       id="path15732-7" /><path
       style="fill:#fc9cbf;fill-opacity:1;stroke-width:0.999999"
       d="m 134.52438,99.44059 c 0.9396,-0.36585 1.58674,-1.5853 1.32115,-2.48958 -0.2963,-1.00886 -2.18978,-2.07993 -4.36614,-2.46976 -3.24697,-0.58159 -4.18795,-0.48526 -5.40303,0.5531 -0.66131,0.56513 -1.0644,1.1714 -1.0644,1.60093 0,0.95706 1.44488,2.19264 3.13059,2.67712 1.67424,0.48117 5.28878,0.55378 6.38183,0.12819 z M 75.981866,94.0786 c 1.56382,-0.38069 2.38427,-0.93601 2.38427,-1.61377 0,-1.45792 -2.43252,-3.46535 -4.8223,-3.97958 -1.96433,-0.42269 -4.69738,-0.2047 -5.53266,0.44127 -0.80542,0.62289 -0.66808,1.85172 0.34254,3.06459 0.78745,0.94501 1.87034,1.46506 4.13634,1.98639 2.07653,0.47774 1.95861,0.47433 3.49181,0.1011 z"
       id="path15613"
       sodipodi:nodetypes="ssssssssssssss" /><path
       d="m 130.18172,82.84367 c -1.79,-1.20323 -2.08377,-3.11623 -1.26665,-8.24844 0.61769,-3.87959 1.59445,-7.67287 2.16856,-8.42164 0.26422,-0.3446 0.98764,-0.7696 1.6076,-0.94446 1.65569,-0.46695 3.06666,-0.13975 4.21438,0.97732 0.97488,0.94884 0.98292,0.98048 0.83147,3.26893 -0.26694,4.03345 -1.17706,9.81527 -1.80884,11.49118 -0.42896,1.1379 -2.51059,2.45708 -3.8772,2.45708 -0.55847,0 -1.39059,-0.25817 -1.86932,-0.57997 z M 77.58777,77.22559 c -1.79,-1.20323 -2.08376,-3.11623 -1.26664,-8.24844 0.61768,-3.8796 1.59444,-7.67288 2.16855,-8.42164 0.26422,-0.3446 0.98764,-0.76961 1.6076,-0.94446 1.6443,-0.46374 3.06732,-0.13911 4.19307,0.95658 0.88562,0.86196 0.96294,1.09264 0.96124,2.86764 -9.4e-4,1.06164 -0.216,3.13413 -0.47775,4.60553 -0.26175,1.47141 -0.61579,3.51799 -0.78674,4.54798 -0.46833,2.82162 -0.84271,3.55727 -2.25534,4.43174 -1.52769,0.94571 -2.93832,1.01551 -4.14399,0.20507 z"
       style="fill:#121310;fill-opacity:1;stroke-width:0.999999"
       id="path15768" /><g
       id="g16529"
       style="fill:#ffc756"
       transform="translate(3.1400401,-1.38158)"><path
         style="display:inline;fill:#ffc756;fill-opacity:1;stroke-width:0.999999"
         d="m 158.51559,249.20847 c 4.59445,-0.45927 7.22571,-0.94789 10.12306,-1.87983 3.70909,-1.19305 7.53976,-3.04859 7.07946,-3.42923 -0.0861,-0.0712 -2.83319,0.21313 -6.10466,0.63182 -3.27147,0.4187 -7.84996,0.90066 -10.17442,1.07104 -5.35049,0.39218 -18.7538,0.39531 -24.88821,0.006 -5.39475,-0.34252 -17.00528,-1.52943 -18.62702,-1.90418 -0.60264,-0.13925 -1.51834,-0.25003 -2.03489,-0.24617 -0.91245,0.007 -0.92136,0.0191 -0.31306,0.43203 1.1496,0.78035 5.60781,2.4576 8.29779,3.12176 4.35457,1.07515 11.31477,1.90407 20.1906,2.4046 4.46503,0.25179 12.92319,0.14502 16.45135,-0.20766 z"
         id="path15611-0"
         sodipodi:nodetypes="csssscsccsscc" /><path
         style="display:inline;fill:#ffc756;fill-opacity:1;stroke-width:0.999999"
         d="m 89.811437,238.40358 c -0.091,-0.12577 -1.05019,-0.50278 -2.13162,-0.83779 -4.501981,-1.39465 -13.009091,-5.47436 -17.681361,-8.47936 -3.16459,-2.03533 -6.89176,-5.18892 -7.43782,-6.2932 -0.23969,-0.48474 -1.02612,-1.36289 -1.74762,-1.95145 l -1.31181,-1.0701 0.14172,2.00644 c 0.18364,2.60008 0.99758,4.1381 3.28194,6.20154 4.72382,4.267 11.01745,7.12994 21.37994,9.72563 3.477481,0.87107 5.849091,1.17181 5.506631,0.69829 z"
         id="path15611-9"
         sodipodi:nodetypes="csssscsssc" /></g><path
       style="display:inline;fill:#f1f1e4;fill-opacity:1;stroke-width:0.999999"
       d="m 163.18306,240.24797 c 1.54552,-0.17066 1.72385,-0.26049 1.96584,-0.99027 0.44649,-1.34645 0.056,-22.45292 -0.50941,-27.53826 -1.98339,-17.83705 -6.16423,-32.50761 -13.07677,-45.88633 -5.53691,-10.71628 -14.18377,-21.73985 -23.01506,-29.34104 -8.92695,-7.68355 -17.69121,-12.14684 -27.33882,-13.92259 -1.978143,-0.3641 -3.920853,-0.48301 -7.659333,-0.4688 -4.32881,0.0164 -5.44509,0.11408 -8.22096,0.71908 -10.38456,2.26327 -18.92193,8.07186 -24.47295,16.6507 -3.34695,5.17257 -6.50699,13.20936 -8.67012,22.05039 -1.13573,4.64185 -1.16404,5.3324 -0.45061,10.98909 0.36186,2.86921 0.94737,7.5041 1.30111,10.29975 0.79007,6.24395 1.54387,10.0894 2.94932,15.04573 2.99649,10.56716 7.41583,16.81135 18.24698,25.78154 4.73404,3.92067 7.07973,5.28202 12.89951,7.48642 13.306413,5.04014 35.651983,8.68193 57.759433,9.41337 3.5646,0.11794 16.45101,-0.0855 18.29184,-0.28878 z"
       id="path15611-5"
       sodipodi:nodetypes="sscsssccsssssscss" /><path
       style="display:inline;fill:#121310;fill-opacity:1;stroke-width:0.999999"
       d="m 145.20428,250.17537 c -12.037,-0.67839 -19.902,-1.92072 -25.10824,-3.96601 -2.75032,-1.08048 -4.19867,-1.95033 -6.04115,-3.62822 l -1.40877,-1.28292 -5.00895,-0.97865 c -7.20422,-1.92136 -13.42077,-0.17954 -20.868084,-1.44843 -8.77767,-1.5989 -16.26874,-4.82156 -21.38051,-9.19788 -4.2435,-3.63298 -5.46922,-6.6238 -4.43604,-10.82419 l 0.47948,-1.94932 -1.66931,-2.19733 c -3.37871,-4.44744 -5.56134,-8.97854 -7.37297,-15.30612 -2.25592,-7.87936 -3.22847,-13.01899 -4.2523,-22.47219 -0.56958,-5.25894 -0.62101,-5.47452 -1.16411,-4.87982 -1.19836,1.31221 -4.27156,1.93727 -6.29408,1.28015 -1.37608,-0.44709 -3.2255,-2.1101 -3.95783,-3.55889 -0.91766,-1.81546 -1.12501,-5.01091 -0.64451,-9.93252 0.93056,-9.53147 5.44622,-24.23631 9.84519,-32.06 1.68612,-2.99879 1.69728,-3.03539 1.89991,-6.22683 0.5431,-8.5541 2.49298,-26.32392 2.9727,-27.0911 0.15962,-0.25526 0.52396,-1.78838 0.80963,-3.40692 1.11513,-6.3179 4.07097,-17.41235 6.73561,-25.28136 5.63166,-16.63101 11.27056,-25.80654 20.79805,-33.84224 6.72598,-5.67284 13.83274,-9.70208 21.677484,-12.29022 6.23148,-2.0559 15.63389,-4.1627 22.31813,-5.00082 6.15319,-0.77154 22.47696,-0.25704 27.33859,0.86166 0.71713,0.16502 1.51575,0.34101 1.77469,0.39109 13.73875,2.65714 22.99991,5.57182 28.24395,8.88895 1.15626,0.73139 2.77955,1.70119 3.60731,2.15511 1.53603,0.84231 7.27012,6.07409 11.17365,10.19483 4.3487,4.59067 8.5079,10.5482 11.71794,16.78445 13.92244,24.76931 10.55405,51.66451 11.81098,77.98333 0.25686,5.37837 1.06084,10.9266 1.87632,16.35214 1.87002,12.44162 4.8851,24.01507 6.91061,37.10608 1.0644,6.87923 1.17867,8.19978 1.16905,13.51007 -0.009,5.19227 -0.0905,6.13334 -0.6887,7.98892 -0.93361,2.8962 -1.66365,3.83086 -3.2901,4.21229 -1.58671,0.37212 -4.09396,0.005 -6.7051,-0.98184 -0.949,-0.35865 -1.90091,-0.65209 -2.11536,-0.65209 -0.22862,0 -0.54875,0.69166 -0.77391,1.67204 -0.65513,2.85254 -1.78188,7.00721 -3.78288,9.92983 -8.88694,12.98012 -15.73766,13.60755 -26.3919,19.95716 -1.08941,0.64926 -2.13685,1.05695 -3.27418,1.93774 -4.76507,3.69022 -11.55134,6.09027 -19.91825,7.04432 -3.11477,0.35518 -12.00663,0.4653 -16.61204,0.20575 z m 16.45135,-2.34792 c 4.59445,-0.45927 7.22571,-0.94789 10.12306,-1.87983 3.70909,-1.19305 7.53976,-3.04859 7.07946,-3.42923 -0.0861,-0.0712 -2.83319,0.21313 -6.10466,0.63182 -3.27147,0.4187 -7.84996,0.90066 -10.17442,1.07104 -5.35049,0.39218 -18.7538,0.39531 -24.88821,0.006 -5.39475,-0.34252 -17.00528,-1.52943 -18.62702,-1.90418 -0.60264,-0.13925 -1.51834,-0.25003 -2.03489,-0.24617 -0.91245,0.007 -0.92136,0.0191 -0.31306,0.43203 1.1496,0.78035 5.60781,2.4576 8.29779,3.12176 4.35457,1.07515 11.31477,1.90407 20.1906,2.4046 4.46503,0.25179 12.92319,0.14502 16.45135,-0.20766 z m 1.52743,-7.57949 c 1.54552,-0.17066 1.72385,-0.26049 1.96584,-0.99027 0.44649,-1.34645 0.056,-22.45292 -0.50941,-27.53826 -1.98339,-17.83705 -6.16423,-32.50761 -13.07677,-45.88633 -5.53691,-10.71628 -14.18377,-21.73985 -23.01506,-29.34104 -8.92695,-7.68355 -17.69121,-12.14684 -27.33882,-13.92259 -1.978144,-0.3641 -3.920854,-0.48301 -7.659334,-0.4688 -4.32881,0.0164 -5.44509,0.11408 -8.22096,0.71908 -10.38456,2.26327 -18.92193,8.07186 -24.47295,16.6507 -3.34695,5.17257 -6.50699,13.20936 -8.67012,22.05039 -1.13573,4.64185 -1.16404,5.3324 -0.45061,10.98909 0.36186,2.86921 0.94737,7.5041 1.30111,10.29975 0.79007,6.24395 1.54387,10.0894 2.94932,15.04573 2.99649,10.56716 7.41583,16.81135 18.24698,25.78154 4.73404,3.92067 7.07973,5.28202 12.89951,7.48642 13.306414,5.04014 35.651984,8.68193 57.759434,9.41337 3.5646,0.11794 16.45101,-0.0855 18.29184,-0.28878 z m 16.12182,-2.61302 c 9.88362,-2.77963 16.90969,-6.71315 23.13843,-12.95397 4.76664,-4.77588 7.11391,-8.80729 8.33547,-14.3161 l 0.65256,-2.94279 -1.1626,-0.80257 c -3.29928,-2.2776 -6.32286,-4.70056 -8.40297,-6.73378 -6.09117,-5.95388 -11.57371,-15.12909 -14.84889,-24.85011 -1.00606,-2.98608 -1.44686,-5.20437 -1.03262,-5.19666 0.12693,0.002 2.11659,3.26278 4.42147,7.24538 6.8234,11.79014 10.65011,16.83913 16.6106,21.91616 3.70911,3.15934 6.28783,4.85457 9.7778,6.71134 1.57426,0.83755 3.26614,1.45722 4.97517,1.96613 0.82608,0.24599 2.41852,0.58045 2.53295,0.52001 0.3042,-0.16066 0.54185,-1.72891 0.76624,-5.05631 0.30613,-4.53952 0.29292,-4.67077 -2.06198,-20.49028 -0.68795,-4.6214 -1.6076,-10.99086 -2.04368,-14.15436 -0.43607,-3.16349 -1.00103,-6.99788 -1.25546,-8.52086 -1.03125,-7.36183 -3.76238,-14.95176 -6.10622,-23.27729 -0.7074,-2.55434 -1.19629,-4.84169 -1.08642,-5.083 0.35056,-0.76998 1.51337,0.72692 2.64146,3.40041 0.56805,1.34624 1.10029,2.44771 1.18274,2.44771 0.0824,0 0.0679,-0.81261 -0.0324,-1.8058 -0.32865,-3.25582 -0.50619,-5.99206 -0.82884,-12.77437 -1.53977,-32.36693 -4.70908,-49.67556 -11.95103,-65.2683 -6.90201,-14.86082 -20.30621,-28.4475 -32.83409,-33.28106 -2.30117,-0.88784 -9.51188,-3.05491 -14.37176,-4.18514 -3.56708,-0.82957 -7.18265,-1.48561 -10.82161,-1.89812 -3.57611,-0.40539 -7.18591,-0.42731 -10.78238,-0.5625 -3.07706,-0.11567 -6.15914,-0.35133 -9.23525,-0.21268 -1.25901,0.0567 -2.37925,0.27219 -3.75671,0.42674 -1.37746,0.15455 -3.5119,0.45655 -5.25048,0.78701 -3.36825,0.64023 -6.82289,1.08069 -10.02206,2.3137 -8.612678,3.31948 -16.594464,6.76948 -24.182314,13.4904 -4.87112,4.31459 -7.35657,7.28216 -10.77463,12.86467 -7.01304,11.45394 -15.20679,37.35358 -17.53195,55.41672 -1.18955,9.24107 -2.38745,30.79157 -2.65685,47.79749 l -0.15469,9.76471 c 0,0 0.397306,-1.69789 0.61718,-2.5415 0.256821,-0.98537 0.492131,-1.97867 0.81982,-2.94279 1.840168,-5.41408 3.548069,-10.96343 6.41997,-15.90819 5.501023,-9.47152 15.382616,-16.55791 25.75451,-17.96207 4.422616,-0.59874 5.918187,-0.83463 8.89318,-0.77423 14.605454,0.29651 25.207634,4.20928 34.098094,12.00374 11.49798,10.08052 14.82915,11.75015 26.20071,33.62963 7.16267,13.78136 11.3873,27.46016 12.22791,44.96159 0.30531,6.35659 1.03428,9.44969 0.78916,18.93968 -0.0599,2.3201 0.0553,4.94972 0.0858,7.50264 0.009,0.72979 0.21182,2.67658 1.21197,2.54718 4.55138,-0.54309 7.76919,-1.45369 11.0347,-2.15821 z m -86.353404,-0.61238 c -0.091,-0.12577 -1.05019,-0.50278 -2.13162,-0.83779 -4.50198,-1.39465 -13.00909,-5.47436 -17.68136,-8.47936 -3.16459,-2.03533 -6.89176,-5.18892 -7.43782,-6.2932 -0.23969,-0.48474 -1.02612,-1.36289 -1.74762,-1.95145 l -1.31181,-1.0701 0.14172,2.00644 c 0.18364,2.60008 0.99758,4.1381 3.28194,6.20154 4.72382,4.267 11.01745,7.12994 21.37994,9.72563 3.47748,0.87107 5.84909,1.17181 5.50663,0.69829 z m -45.68549,-67.44563 c -0.89786,-3.8364 -1.32167,-23.05065 -0.76731,-34.78819 0.26696,-5.65243 0.14486,-5.5382 -2.39562,2.24101 -1.93926,5.9382 -3.063284,10.11258 -4.11641,15.28195 -0.647081,3.17626 -1.394351,6.3898 -1.34571,9.63094 0.03433,2.28745 -0.163391,4.89471 1.15328,6.76553 0.934155,1.32732 2.620211,2.33116 4.242224,2.39025 1.189211,0.0433 3.485311,-0.39503 3.229546,-1.52149 z"
       id="path15611"
       sodipodi:nodetypes="ssscccsscsssssssssssssssssssscsasccssssssssscsssscsccssccsscsssccsssssscsscsscssscssaassssccssscsssaaaasaasssscaasssssssscccssscsssccssaaaacss" /></g></svg>
