<?xml version="1.0" encoding="UTF-8" standalone="no"?>
<svg
   version="1.1"
   id="Capa_1"
   x="0px"
   y="0px"
   viewBox="0 0 499.99999 500.00001"
   xml:space="preserve"
   sodipodi:docname="penguin_minimal.svg"
   inkscape:version="1.2.1 (9c6d41e410, 2022-07-14)"
   width="500"
   height="500"
   inkscape:export-filename="C:\Users\jak\ALL\DV\Aesthetics\penguin_minimal.png"
   inkscape:export-xdpi="354.39999"
   inkscape:export-ydpi="354.39999"
   xmlns:inkscape="http://www.inkscape.org/namespaces/inkscape"
   xmlns:sodipodi="http://sodipodi.sourceforge.net/DTD/sodipodi-0.dtd"
   xmlns="http://www.w3.org/2000/svg"
   xmlns:svg="http://www.w3.org/2000/svg"
   xmlns:rdf="http://www.w3.org/1999/02/22-rdf-syntax-ns#"
   xmlns:cc="http://creativecommons.org/ns#"
   xmlns:dc="http://purl.org/dc/elements/1.1/"><metadata
   id="metadata77"><rdf:RDF><cc:Work
       rdf:about=""><dc:format>image/svg+xml</dc:format><dc:type
         rdf:resource="http://purl.org/dc/dcmitype/StillImage" /></cc:Work></rdf:RDF></metadata><defs
   id="defs75">
	
	
</defs><sodipodi:namedview
   pagecolor="#ffffff"
   bordercolor="#666666"
   borderopacity="1"
   objecttolerance="10"
   gridtolerance="10"
   guidetolerance="10"
   inkscape:pageopacity="0"
   inkscape:pageshadow="2"
   inkscape:window-width="3840"
   inkscape:window-height="2054"
   id="namedview73"
   showgrid="false"
   inkscape:zoom="1.4355469"
   inkscape:cx="375.81496"
   inkscape:cy="262.61768"
   inkscape:window-x="3829"
   inkscape:window-y="2149"
   inkscape:window-maximized="1"
   inkscape:current-layer="Capa_1"
   fit-margin-top="0"
   fit-margin-left="0"
   fit-margin-right="0"
   fit-margin-bottom="0"
   inkscape:document-rotation="0"
   inkscape:showpageshadow="0"
   inkscape:pagecheckerboard="0"
   inkscape:deskcolor="#d1d1d1" />













<path
   style="fill:#272822;stroke-width:1"
   d="m 250,479.35885 c 109.95413,0 198.8204,-22.17566 225.80133,-111.25359 C 511.19919,251.23794 441.68324,3.269749e-6 250,3.269749e-6 58.31676,3.269749e-6 -11.199193,251.23794 24.198668,368.10526 51.179598,457.18319 140.04587,479.35885 250,479.35885 Z"
   id="path14"
   inkscape:export-xdpi="236.26465"
   inkscape:export-ydpi="236.26465" /><path
   style="fill:#f8f8f2;stroke-width:1"
   d="m 385.46456,307.21543 c -6.71386,-13.69104 -3.87991,-30.05114 6.8369,-40.89963 18.37573,-18.60092 29.50848,-44.3673 28.80953,-72.74121 -1.29946,-52.76454 -44.24671,-95.893917 -97.0051,-97.406257 -23.64616,-0.67803 -45.50064,6.865207 -62.935,19.974207 -6.58342,4.95048 -15.75713,4.95048 -22.34178,0 -17.43436,-13.109 -39.28884,-20.652237 -62.935,-19.974207 -52.75839,1.51234 -95.705641,44.641717 -97.005097,97.406257 -0.69895,28.37268 10.433792,54.13906 28.809517,72.73998 10.71682,10.84849 13.55077,27.20859 6.83691,40.89963 C 94.659679,347.74343 82.072433,395.38891 76.440228,441.02983 118.81036,470.39925 180.14564,479.35762 250,479.35762 c 69.85435,0 131.18964,-8.95837 173.55977,-38.32779 -5.6322,-45.63969 -18.21945,-93.28393 -38.09521,-133.8144 z"
   id="path16" /><path
   style="fill:#ffc756;stroke-width:1"
   d="m 250,259.76192 c 15.68576,0 32.49992,-14.2091 35.87162,-38.38931 4.08541,-29.30174 -16.05985,-35.54553 -35.87162,-35.54553 -19.81178,0 -39.95703,6.24379 -35.87162,35.54553 3.37169,24.18021 20.18586,38.38931 35.87162,38.38931 z"
   id="path18" /><path
   style="fill:#ffb217;stroke-width:1"
   d="m 257.39804,258.73195 c -24.93823,-9.33737 -32.68082,-55.04843 -21.86802,-71.48482 -13.86578,3.11574 -24.47062,12.11472 -21.40164,34.12548 3.37169,24.18021 20.18586,38.38931 35.87162,38.38931 2.4574,0 4.94187,-0.34947 7.39804,-1.02997 z"
   id="path20" /><g
   id="g26"
   transform="matrix(1.2305451,0,0,1.2305451,-65.019545,-65.019539)"
   style="fill:#fa7aa9;stroke-width:0.812648;fill-opacity:1">
	<ellipse
   style="fill:#fa7aa9;stroke-width:0.812648;fill-opacity:1"
   cx="173.23"
   cy="217.87"
   rx="27.332001"
   ry="21.766001"
   id="ellipse22" />
	<ellipse
   style="fill:#fa7aa9;stroke-width:0.812648;fill-opacity:1"
   cx="338.76999"
   cy="217.87"
   rx="27.332001"
   ry="21.766001"
   id="ellipse24" />
</g><g
   id="g32"
   transform="matrix(1.2305451,0,0,1.2305451,-65.019545,-65.019539)"
   style="fill:#272822;stroke-width:0.812648">
	<path
   style="fill:#272822;stroke-width:0.812648"
   d="m 202.168,201.689 c -4.142,0 -7.5,-3.358 -7.5,-7.5 0,-3.038 -2.472,-5.509 -5.51,-5.509 -3.038,0 -5.509,2.472 -5.509,5.509 0,4.142 -3.358,7.5 -7.5,7.5 -4.142,0 -7.5,-3.358 -7.5,-7.5 0,-11.309 9.2,-20.509 20.509,-20.509 11.309,0 20.51,9.2 20.51,20.509 0,4.142 -3.358,7.5 -7.5,7.5 z"
   id="path28" />
	<path
   style="fill:#272822;stroke-width:0.812648"
   d="m 335.852,201.689 c -4.143,0 -7.5,-3.358 -7.5,-7.5 0,-3.038 -2.472,-5.509 -5.51,-5.509 -3.037,0 -5.509,2.472 -5.509,5.509 0,4.142 -3.357,7.5 -7.5,7.5 -4.143,0 -7.5,-3.358 -7.5,-7.5 0,-11.309 9.2,-20.509 20.509,-20.509 11.31,0 20.51,9.2 20.51,20.509 0,4.142 -3.358,7.5 -7.5,7.5 z"
   id="path30" />
</g><path
   style="opacity:0.1;fill:#272822;stroke-width:1;enable-background:new"
   d="M 165.2179,18.695675 C 38.279794,79.052682 -5.3737927,270.47012 24.198668,368.10526 51.179598,457.18319 140.04587,479.35885 250,479.35885 c 43.83571,0 84.31203,-3.53167 118.85958,-13.41541 C 106.38308,476.40923 103.5233,138.99253 165.2179,18.695675 Z"
   id="path34" /><path
   style="fill:#ffc756;stroke-width:1"
   d="m 203.71427,500 h -40.35449 c -12.22178,0 -22.13012,-9.90835 -22.13012,-22.13012 v 0 c 0,-12.22178 9.90834,-22.13013 22.13012,-22.13013 h 40.35449 c 12.22178,0 22.13013,9.90835 22.13013,22.13013 v 0 C 225.84317,490.09165 215.93605,500 203.71427,500 Z"
   id="path36" /><path
   style="fill:#ffc756;stroke-width:1"
   d="m 296.28572,500 h 40.3545 c 12.22177,0 22.13012,-9.90835 22.13012,-22.13012 v 0 c 0,-12.22178 -9.90835,-22.13013 -22.13012,-22.13013 h -40.3545 c -12.22177,0 -22.13012,9.90835 -22.13012,22.13013 v 0 C 274.15683,490.09165 284.06395,500 296.28572,500 Z"
   id="path38" />
<g
   id="g42"
   transform="translate(-65.28973,134.51399)">
</g>
<g
   id="g44"
   transform="translate(-65.28973,134.51399)">
</g>
<g
   id="g46"
   transform="translate(-65.28973,134.51399)">
</g>
<g
   id="g48"
   transform="translate(-65.28973,134.51399)">
</g>
<g
   id="g50"
   transform="translate(-65.28973,134.51399)">
</g>
<g
   id="g52"
   transform="translate(-65.28973,134.51399)">
</g>
<g
   id="g54"
   transform="translate(-65.28973,134.51399)">
</g>
<g
   id="g56"
   transform="translate(-65.28973,134.51399)">
</g>
<g
   id="g58"
   transform="translate(-65.28973,134.51399)">
</g>
<g
   id="g60"
   transform="translate(-65.28973,134.51399)">
</g>
<g
   id="g62"
   transform="translate(-65.28973,134.51399)">
</g>
<g
   id="g64"
   transform="translate(-65.28973,134.51399)">
</g>
<g
   id="g66"
   transform="translate(-65.28973,134.51399)">
</g>
<g
   id="g68"
   transform="translate(-65.28973,134.51399)">
</g>
<g
   id="g70"
   transform="translate(-65.28973,134.51399)">
</g>
<g
   inkscape:groupmode="layer"
   id="layer1"
   inkscape:label="main" /></svg>
