<?xml version="1.0" encoding="UTF-8" standalone="no"?>
<svg
   width="3840"
   height="2160"
   viewBox="0 0 1016 571.50002"
   version="1.1"
   id="svg8"
   sodipodi:docname="hollow_knight.svg"
   inkscape:version="1.2 (dc2aedaf03, 2022-05-15)"
   xml:space="preserve"
   inkscape:export-filename="hollow_knight.png"
   inkscape:export-xdpi="96"
   inkscape:export-ydpi="96"
   xmlns:inkscape="http://www.inkscape.org/namespaces/inkscape"
   xmlns:sodipodi="http://sodipodi.sourceforge.net/DTD/sodipodi-0.dtd"
   xmlns="http://www.w3.org/2000/svg"
   xmlns:svg="http://www.w3.org/2000/svg"
   xmlns:rdf="http://www.w3.org/1999/02/22-rdf-syntax-ns#"
   xmlns:cc="http://creativecommons.org/ns#"
   xmlns:dc="http://purl.org/dc/elements/1.1/"><defs
     id="defs2" /><sodipodi:namedview
     id="base"
     pagecolor="#272822"
     bordercolor="#49483e"
     borderopacity="0.41176471"
     inkscape:pageopacity="0"
     inkscape:pageshadow="2"
     inkscape:zoom="0.43750002"
     inkscape:cx="1176"
     inkscape:cy="785.14282"
     inkscape:document-units="px"
     inkscape:current-layer="layer1"
     showgrid="false"
     showborder="true"
     inkscape:window-width="3836"
     inkscape:window-height="2041"
     inkscape:window-x="3831"
     inkscape:window-y="2160"
     inkscape:window-maximized="0"
     inkscape:document-rotation="0"
     units="mm"
     inkscape:showpageshadow="0"
     inkscape:pagecheckerboard="0"
     inkscape:deskcolor="#1d1e19" /><metadata
     id="metadata5"><rdf:RDF><cc:Work
         rdf:about=""><dc:format>image/svg+xml</dc:format><dc:type
           rdf:resource="http://purl.org/dc/dcmitype/StillImage" /></cc:Work></rdf:RDF></metadata><g
     inkscape:label="Layer 1"
     inkscape:groupmode="layer"
     id="layer1"
     transform="translate(0,274.50001)"><rect
       style="fill:#121310;stroke-width:0.499999;fill-opacity:1;stroke:#121310;stroke-opacity:1"
       id="rect2189"
       width="1016"
       height="571.5"
       x="8.8888883e-06"
       y="-274.5" /><rect
       style="display:none;fill:#88b926;fill-opacity:1;stroke:#121310;stroke-width:0.499999;stroke-opacity:1"
       id="rect2189-8"
       width="1016"
       height="19.049997"
       x="4.4444441e-06"
       y="277.95001" /><path
       style="fill:#f1f1e4;fill-opacity:1;stroke-width:1"
       d="m 516.45387,30.568688 c 2.5538,-0.26895 5.97425,-0.97602 9.01872,-1.86433 1.30252,-0.38005 2.39385,-1.00388 4.49792,-2.57119 3.14512,-2.34278 3.93726,-3.18823 5.04698,-5.38658 1.43387,-2.84048 1.64435,-4.41465 1.48053,-11.0730737 -0.0805,-3.2742182 -0.34393,-7.4414058 -0.58527,-9.26041456 -0.24134,-1.81900904 -0.45668,-5.03484964 -0.47854,-7.14629964 -0.0396,-3.8236401 -0.0363,-3.8458801 0.80952,-5.5562511 0.62863,-1.271101 1.62732,-2.507752 3.84404,-4.759953 2.52738,-2.567831 3.16669,-3.393712 4.09629,-5.291673 1.57277,-3.211159 2.02815,-5.142749 1.99602,-8.466659 -0.0481,-4.981061 -1.40145,-10.106379 -3.5291,-13.36562 -1.74534,-2.673583 -4.95588,-5.836282 -7.05907,-6.953877 -2.57793,-1.369862 -7.07912,-2.044509 -9.32557,-1.397738 -0.59667,0.171786 -0.46177,0.288554 1.37717,1.19208 1.12125,0.550902 2.49047,1.396421 3.04271,1.878933 1.36497,1.192612 1.04424,1.744986 -1.2259,2.111296 l -1.64923,0.266123 1.7316,1.387615 c 2.83518,2.271977 5.37293,5.61303 6.6492,8.753946 0.86354,2.125184 1.34358,6.352772 0.96524,8.500652 -0.63509,3.60544 -2.83641,7.59405 -5.60671,10.158861 -1.32296,1.224831 -1.94465,1.582841 -3.72548,2.145402 -2.58928,0.81795 -5.57075,1.30383 -11.34818,1.849351 -19.8892,1.878001 -27.16997,1.572671 -31.43917,-1.318421 -1.58083,-1.070531 -3.88894,-3.489842 -4.63208,-4.855243 -1.62082,-2.97797 -1.98697,-7.99041 -0.84711,-11.59648 0.8475,-2.681148 2.57562,-6.034649 4.45858,-8.652087 0.82694,-1.149499 1.50353,-2.171325 1.50353,-2.270726 0,-0.0994 -0.65467,-0.126444 -1.45481,-0.06009 -3.42837,0.284308 -2.91605,-2.081869 1.03823,-4.795145 l 1.6072,-1.102796 -1.00019,-0.0826 c -2.55922,-0.211339 -7.19838,1.938342 -9.87947,4.577929 -2.04033,2.008735 -4.42289,5.426056 -4.86208,6.97371 -1.26594,4.460981 -1.52581,11.015305 -0.58907,14.856994 1.11332,4.565812 2.54272,6.658194 7.006,10.255476 3.36097,2.7088611 5.45222,4.7997111 6.14974,6.1485711 0.86192,1.66677 1.70022,4.5266209 2.77943,9.4820778 2.34671,10.7754201 4.14412,16.8077601 5.77123,19.3689801 1.46265,2.30235 5.94949,5.31802 10.38305,6.9786 2.97653,1.11485 8.68447,1.49881 13.9841,0.94065 z m -19.35219,-9.71354 c -0.85359,-0.586 -3.64367,-3.6195 -3.64367,-3.96155 0,-0.13052 -0.3716,-0.82328 -0.82578,-1.53943 -0.81201,-1.28042 -0.82376,-1.34633 -0.70461,-3.954414 0.14614,-3.1989888 0.59672,-4.2366382 2.65755,-6.1201273 4.60326,-4.2071076 11.55804,-2.2495385 13.41951,3.7772179 1.56659,5.0720134 -0.37326,9.8769234 -4.6248,11.4554534 -2.23848,0.83111 -5.3217,0.99949 -6.2782,0.34285 z m 27.12183,-2.45184 c -2.04508,-1.02619 -3.49737,-2.63919 -4.47407,-4.96917 -0.63115,-1.505694 -0.74405,-2.138994 -0.74113,-4.1575034 0.005,-3.5440079 0.2088,-4.2160576 1.78659,-5.8952067 1.55838,-1.6585091 2.88519,-2.3482488 4.99379,-2.59608848 1.90551,-0.22394 3.16076,0.20108 4.65121,1.57492908 2.95274,2.7217485 4.37942,6.6187661 3.24621,8.8671655 -0.23725,0.47072 -0.81914,3.231864 -0.8919,4.232124 -0.0703,0.96678 -2.79038,2.99177 -4.35509,3.24217 -0.68571,0.10975 -1.54439,0.27334 -1.9082,0.36351 -0.45749,0.11343 -1.16901,-0.0907 -2.30741,-0.66193 z"
       id="path1582"
       sodipodi:nodetypes="ssssssssssssssssscssssssssssssscsssssssssssssssssssscssssssss" /></g></svg>
