<?xml version="1.0" encoding="UTF-8" standalone="no"?>
<svg
   width="3840"
   height="2160"
   viewBox="0 0 1016 571.50001"
   version="1.1"
   id="svg8"
   sodipodi:docname="knight.svg"
   inkscape:version="1.2.1 (9c6d41e410, 2022-07-14)"
   xml:space="preserve"
   inkscape:export-filename="knight.png"
   inkscape:export-xdpi="96"
   inkscape:export-ydpi="96"
   xmlns:inkscape="http://www.inkscape.org/namespaces/inkscape"
   xmlns:sodipodi="http://sodipodi.sourceforge.net/DTD/sodipodi-0.dtd"
   xmlns="http://www.w3.org/2000/svg"
   xmlns:svg="http://www.w3.org/2000/svg"
   xmlns:rdf="http://www.w3.org/1999/02/22-rdf-syntax-ns#"
   xmlns:cc="http://creativecommons.org/ns#"
   xmlns:dc="http://purl.org/dc/elements/1.1/"><defs
     id="defs2" /><sodipodi:namedview
     id="base"
     pagecolor="#272822"
     bordercolor="#49483e"
     borderopacity="0.41176471"
     inkscape:pageopacity="0"
     inkscape:pageshadow="2"
     inkscape:zoom="0.47736412"
     inkscape:cx="2734.8096"
     inkscape:cy="985.62078"
     inkscape:document-units="px"
     inkscape:current-layer="layer1"
     showgrid="false"
     showborder="true"
     inkscape:window-width="3836"
     inkscape:window-height="2113"
     inkscape:window-x="3831"
     inkscape:window-y="2160"
     inkscape:window-maximized="0"
     inkscape:document-rotation="0"
     units="mm"
     inkscape:showpageshadow="0"
     inkscape:pagecheckerboard="0"
     inkscape:deskcolor="#1d1e19" /><metadata
     id="metadata5"><rdf:RDF><cc:Work
         rdf:about=""><dc:format>image/svg+xml</dc:format><dc:type
           rdf:resource="http://purl.org/dc/dcmitype/StillImage" /></cc:Work></rdf:RDF></metadata><g
     inkscape:label="Layer 1"
     inkscape:groupmode="layer"
     id="layer1"
     transform="translate(-484.54722,880.94502)"><rect
       style="display:none;fill:#88b926;fill-opacity:1;stroke:#121310;stroke-width:0.499999;stroke-opacity:1"
       id="rect2189-8"
       width="1016"
       height="19.049997"
       x="4.4444441e-06"
       y="277.95001" /><path
       id="path1582-5-4"
       style="fill:#1f2335;fill-opacity:1;stroke-width:1"
       d="m 1434.9493,-518.96676 c -1.7042,0.0138 -3.2428,0.18747 -4.4726,0.54156 -1.3067,0.37619 -1.0112,0.63156 3.0158,2.61018 2.4555,1.20643 5.4538,3.05836 6.6632,4.115 2.9891,2.61168 2.2868,3.8213 -2.6846,4.62349 l -3.6117,0.58239 3.792,3.03909 c 6.2087,4.97539 11.7659,12.29164 14.5609,19.16989 1.8911,4.6539 2.9427,13.91231 2.1141,18.61592 -1.3907,7.89551 -6.2119,16.63007 -12.2783,22.2467 -2.8972,2.68226 -4.2584,3.46597 -8.1582,4.69791 -5.6703,1.7912 -12.1993,2.85524 -24.8512,4.04988 -43.5552,4.1126 -59.4994,3.444 -68.8485,-2.88716 -3.4618,-2.34435 -8.5163,-7.64235 -10.1436,-10.63243 -3.5495,-6.52141 -4.3513,-17.49796 -1.8552,-25.39483 1.856,-5.87144 5.6404,-13.21527 9.7638,-18.94717 1.811,-2.51727 3.2924,-4.75515 3.2923,-4.97282 -2e-4,-0.21766 -1.4336,-0.27657 -3.1859,-0.13126 -7.5077,0.6226 -6.3856,-4.55938 2.2738,-10.50117 l 3.5197,-2.41484 -2.1906,-0.18086 c -5.6043,-0.46281 -15.7635,4.24482 -21.6348,10.02523 -4.4681,4.39889 -9.6859,11.88223 -10.6474,15.27141 -2.7723,9.76905 -3.3413,24.12263 -1.2899,32.53549 2.438,9.99862 5.5681,14.58042 15.3422,22.45806 7.3602,5.93209 11.9399,10.51095 13.4674,13.46481 1.8875,3.65005 3.7231,9.91272 6.0865,20.76462 5.139,23.59696 9.0753,36.80723 12.6385,42.41602 3.203,5.04188 13.0286,11.64578 22.7376,15.28227 6.5183,2.44141 19.0179,3.28265 30.6235,2.06034 h 5e-4 c 11.9137,-1.51723 21.4698,-3.68715 29.5997,-9.71362 6.8875,-5.13042 8.6224,-6.98204 11.0526,-11.79618 3.14,-6.22032 3.6009,-9.66744 3.2422,-24.24865 -0.1763,-7.17016 -0.7536,-16.29595 -1.2821,-20.27938 -0.5285,-3.98343 -0.9997,-11.02586 -1.0475,-15.64969 -0.087,-8.37333 -0.08,-8.4217 1.7725,-12.16722 1.3767,-2.78356 3.5638,-5.4921 8.4181,-10.42417 5.5347,-5.62324 6.9347,-7.43159 8.9705,-11.58792 3.4442,-7.03207 4.4411,-11.26201 4.3708,-18.54099 -0.1054,-10.90796 -3.0689,-22.13216 -7.7282,-29.26953 -3.8221,-5.85483 -10.8527,-12.7806 -15.4585,-15.22801 -4.2341,-2.24989 -10.8371,-3.64375 -15.9494,-3.60236 z m -4.6871,117.22333 c 3.334,-0.0217 6.792,0.91552 10.034,2.97501 10.1905,7.13183 9.6829,40.8334 -13.1744,36.19521 -9.7692,-1.78756 -15.7797,-11.41226 -14.3298,-22.9464 1.2381,-9.85068 8.9499,-16.16826 17.4702,-16.22382 z m -57.057,4.98833 c 7.4802,-0.0658 14.6687,4.73239 17.2801,13.18731 3.4307,11.10714 -0.8171,21.62951 -10.1275,25.08632 -21.7047,8.53684 -28.0566,-24.56515 -19.2593,-33.35817 3.6227,-3.31096 7.9106,-4.87857 12.1067,-4.91546 z" /></g></svg>
