<?xml version="1.0" encoding="UTF-8" standalone="no"?>
<svg
   width="3840"
   height="2160"
   viewBox="0 0 1016 571.50002"
   version="1.1"
   id="svg8"
   sodipodi:docname="bg_enso_tn.svg"
   inkscape:version="1.2.1 (9c6d41e410, 2022-07-14)"
   xml:space="preserve"
   inkscape:export-filename="enso_tn.png"
   inkscape:export-xdpi="96"
   inkscape:export-ydpi="96"
   xmlns:inkscape="http://www.inkscape.org/namespaces/inkscape"
   xmlns:sodipodi="http://sodipodi.sourceforge.net/DTD/sodipodi-0.dtd"
   xmlns:xlink="http://www.w3.org/1999/xlink"
   xmlns="http://www.w3.org/2000/svg"
   xmlns:svg="http://www.w3.org/2000/svg"
   xmlns:rdf="http://www.w3.org/1999/02/22-rdf-syntax-ns#"
   xmlns:cc="http://creativecommons.org/ns#"
   xmlns:dc="http://purl.org/dc/elements/1.1/"><defs
     id="defs2"><linearGradient
       inkscape:collect="always"
       id="linearGradient6579"><stop
         style="stop-color:#73daca;stop-opacity:1;"
         offset="0.57242584"
         id="stop6575" /><stop
         style="stop-color:#bb9af7;stop-opacity:1;"
         offset="1"
         id="stop6577" /></linearGradient><linearGradient
       inkscape:collect="always"
       xlink:href="#linearGradient6579"
       id="linearGradient6581"
       x1="530.9275"
       y1="143.38309"
       x2="687.55717"
       y2="143.38309"
       gradientUnits="userSpaceOnUse"
       gradientTransform="matrix(0.475723,0.2746588,-0.2746588,0.475723,255.49241,-227.80048)" /></defs><sodipodi:namedview
     id="base"
     pagecolor="#272822"
     bordercolor="#49483e"
     borderopacity="0.41176471"
     inkscape:pageopacity="0"
     inkscape:pageshadow="2"
     inkscape:zoom="0.60177734"
     inkscape:cx="1810.4703"
     inkscape:cy="944.70158"
     inkscape:document-units="px"
     inkscape:current-layer="layer1"
     showgrid="false"
     showborder="true"
     inkscape:window-width="3836"
     inkscape:window-height="2113"
     inkscape:window-x="3840"
     inkscape:window-y="2160"
     inkscape:window-maximized="0"
     inkscape:document-rotation="0"
     units="mm"
     inkscape:showpageshadow="0"
     inkscape:pagecheckerboard="0"
     inkscape:deskcolor="#1d1e19" /><metadata
     id="metadata5"><rdf:RDF><cc:Work
         rdf:about=""><dc:format>image/svg+xml</dc:format><dc:type
           rdf:resource="http://purl.org/dc/dcmitype/StillImage" /></cc:Work></rdf:RDF></metadata><g
     inkscape:groupmode="layer"
     id="layer4"
     inkscape:label="bg"
     style="display:inline"
     sodipodi:insensitive="true"><rect
       style="fill:#13131a;fill-opacity:1;stroke:#121310;stroke-width:0.499999;stroke-opacity:1"
       id="rect2189"
       width="1016"
       height="571.5"
       x="8.8888892e-06"
       y="-274.5"
       transform="translate(0,274.5)" /></g><g
     inkscape:label="enso"
     inkscape:groupmode="layer"
     id="layer1"
     transform="translate(0,274.50001)"
     style="display:inline"><rect
       style="display:none;fill:#88b926;fill-opacity:1;stroke:#121310;stroke-width:0.499999;stroke-opacity:1"
       id="rect2189-8"
       width="1016"
       height="19.049997"
       x="4.4444441e-06"
       y="277.95001" /><path
       style="fill:url(#linearGradient6581);fill-opacity:1;stroke-width:0.999998"
       d="m 503.13475,50.499177 c -1.01594,-0.130029 -1.14029,-0.217574 -0.50812,-0.357705 l 0.47741,-0.10582 -0.43601,-0.197502 c -0.34237,-0.155039 -0.37273,-0.198886 -0.14135,-0.204027 0.16207,-0.0039 0.45451,0.105386 0.64987,0.242215 l 0.35518,0.24877 -0.35918,0.100081 c -0.26483,0.0738 -0.16828,0.104485 0.36752,0.116806 0.39969,0.0092 0.82481,0.08011 0.94471,0.157594 0.25815,0.166866 -0.0437,0.166729 -1.35001,-4.28e-4 z m -3.66422,-0.808727 c -0.53867,-0.209729 -1.03874,-0.311057 -1.30806,-0.265051 -0.29295,0.05004 -0.37212,0.03037 -0.24128,-0.06001 0.1373,-0.09481 -0.0985,-0.20963 -0.79937,-0.389274 -0.54676,-0.140142 -1.25574,-0.342576 -1.57548,-0.449863 -1.29449,-0.434302 -2.70117,-0.797599 -2.81528,-0.727077 -0.0667,0.0412 -0.37613,-0.05599 -0.68772,-0.215975 -0.32469,-0.166719 -0.70622,-0.256554 -0.89379,-0.210477 -0.40336,0.09911 -1.42836,-0.399919 -1.9255,-0.937454 -0.19986,-0.21608 -1.0828,-0.738723 -1.96212,-1.161434 -1.76221,-0.847157 -3.88859,-2.068098 -4.39595,-2.524119 -0.17955,-0.161379 -0.36277,-0.257075 -0.40717,-0.21268 -0.0444,0.04439 0.16791,0.290738 0.47178,0.547417 0.47505,0.401266 0.50156,0.452446 0.18916,0.365 -0.46482,-0.13009 -1.33829,-0.64948 -2.21645,-1.317912 -0.3797,-0.289035 -0.69037,-0.468639 -0.69037,-0.399129 0,0.14379 1.21999,1.07051 2.61613,1.987255 0.5196,0.34116 1.42611,0.956753 2.0145,1.36795 0.58839,0.411192 1.14432,0.778383 1.2354,0.815984 0.11771,0.04856 0.11106,0.106803 -0.023,0.201253 -0.15263,0.107589 -0.14863,0.166037 0.021,0.306849 0.11529,0.09567 0.29527,0.155303 0.39997,0.132512 0.10471,-0.0228 0.19335,0.0512 0.19697,0.164465 0.004,0.113248 0.0975,0.236191 0.20852,0.273198 0.13068,0.04356 0.16293,0.0044 0.0914,-0.111396 -0.0858,-0.138906 -0.0418,-0.14196 0.19778,-0.01374 0.40843,0.218557 0.38875,0.262882 -0.0915,0.206011 -0.95956,-0.113615 -1.1256,-0.155606 -1.1125,-0.281339 0.0294,-0.28169 -2.47181,-1.93869 -2.65293,-1.757558 -0.0371,0.03708 0.23085,0.281641 0.59543,0.543468 0.68444,0.491523 0.75868,0.572103 0.52707,0.572103 -0.18066,0 -2.7335,-1.711168 -2.86128,-1.917915 -0.11149,-0.180385 0.0644,-0.0927 0.70796,0.352925 0.75377,0.521913 0.39861,0.147294 -0.94471,-0.996473 -0.73942,-0.629589 -1.57777,-1.373607 -1.86303,-1.653385 -0.28525,-0.279784 -1.11374,-1.020221 -1.84111,-1.645415 -1.48537,-1.276735 -3.18062,-3.111731 -3.01801,-3.266825 0.0588,-0.05609 0.18101,0.02642 0.27157,0.183368 0.24153,0.418695 1.71255,1.967386 1.86871,1.967386 0.0736,-1.6e-5 -0.002,-0.172326 -0.16746,-0.382956 -0.16568,-0.210615 -0.30123,-0.452034 -0.30123,-0.536464 -2e-5,-0.08445 0.10222,-0.02653 0.22714,0.128606 0.12493,0.155166 0.20668,0.208526 0.18167,0.118581 -0.0424,-0.152282 -0.8454,-1.107699 -1.98163,-2.357556 -0.44348,-0.487832 -0.4621,-0.495555 -0.22888,-0.09504 0.14281,0.245276 -0.0905,0.05455 -0.53332,-0.436021 -0.43296,-0.47962 -1.21797,-1.297164 -1.74448,-1.816752 -0.80888,-0.798246 -3.22476,-4.199132 -3.90222,-5.493242 -0.16314,-0.311633 -0.15559,-0.321747 0.11432,-0.153188 0.15896,0.09926 0.36152,0.339626 0.45013,0.534128 0.0886,0.194492 0.19293,0.321824 0.2318,0.282954 0.11074,-0.110715 -0.70723,-1.555393 -0.8357,-1.476 -0.063,0.03895 -0.073,-0.03768 -0.0219,-0.170662 0.0853,-0.22238 0.10316,-0.222726 0.22529,-0.0044 0.0729,0.130336 0.19399,0.199034 0.26897,0.152754 0.075,-0.04636 0.14186,-0.03142 0.14852,0.03329 0.007,0.06465 0.0278,0.256993 0.0471,0.427385 0.0426,0.37708 0.99479,1.860265 1.56088,2.431302 0.22663,0.228615 0.3853,0.458955 0.35261,0.511865 -0.0325,0.05301 0.22949,0.385764 0.58266,0.739662 0.35316,0.353903 0.6421,0.725264 0.64211,0.825245 0,0.521143 1.38396,2.085787 1.84493,2.085787 0.11384,0 0.17275,0.0554 0.13093,0.123041 -0.0976,0.157979 0.75916,1.03966 1.01032,1.03966 0.10461,1.7e-5 0.33488,0.179842 0.51168,0.399684 l 0.32146,0.399684 -0.104,-0.436016 -0.104,-0.436026 0.47334,0.436026 0.47333,0.436016 -0.32451,-0.428946 c -0.17847,-0.235927 -0.87699,-1.005954 -1.55228,-1.711185 -0.67528,-0.70523 -1.22778,-1.320466 -1.22779,-1.367197 -2e-5,-0.04675 -0.31785,-0.486656 -0.70635,-0.977609 -0.7368,-0.931148 -1.15891,-1.592082 -3.16264,-4.952159 -1.21851,-2.043335 -2.83724,-5.622704 -3.02805,-6.69567 -0.0569,-0.319747 -0.20272,-0.810276 -0.32416,-1.090049 -0.34224,-0.788502 -0.43038,-1.040259 -0.61061,-1.744084 -0.59275,-2.314747 -0.90811,-3.836615 -0.97881,-4.723565 -0.0446,-0.559557 -0.13929,-1.213591 -0.21041,-1.453401 -0.1793,-0.604634 -0.17676,-7.8807345 0.003,-9.3017751 0.081,-0.6394991 0.17506,-1.62054185 0.20901,-2.18010428 0.034,-0.55956234 0.13086,-1.19554032 0.21535,-1.41327882 0.0845,-0.217744 0.18176,-0.7409689 0.21618,-1.1627185 0.0345,-0.4217611 0.10823,-0.8976406 0.16401,-1.057509 0.0558,-0.1598842 0.15886,-0.4541919 0.22907,-0.6540394 0.0702,-0.1998368 0.23512,-0.8475313 0.36644,-1.4392947 0.13132,-0.5917798 0.33037,-1.2952035 0.44234,-1.5631714 0.11196,-0.2679736 0.30566,-0.9283409 0.43045,-1.4675016 0.12479,-0.5391557 0.3117,-1.0783935 0.41535,-1.1982982 0.10366,-0.119899 0.23122,-0.45696 0.28349,-0.749011 0.27075,-1.512848 3.88216,-7.838135 5.52123,-9.67029 0.34404,-0.384575 0.71182,-0.862734 0.81728,-1.062573 0.29273,-0.554697 1.63289,-2.029741 1.76817,-1.946136 0.0658,0.04053 0.11951,-0.02032 0.1195,-0.135465 10e-6,-0.11513 1.0301,-1.207274 2.28912,-2.426989 1.83723,-1.779896 2.08851,-2.066208 1.27292,-1.450395 -0.5589,0.422003 -1.09312,0.872503 -1.18717,1.001114 -0.094,0.128619 -0.22144,0.183396 -0.28311,0.12173 -0.0617,-0.06167 0.0348,-0.215036 0.21441,-0.340827 0.17959,-0.125786 0.73156,-0.57116 1.22662,-0.989708 1.08318,-0.915799 2.42968,-1.871975 2.5154,-1.78625 0.0341,0.03409 -0.20092,0.236018 -0.5223,0.448694 -0.65297,0.432116 -0.8096,0.67473 -0.18465,0.285974 0.62395,-0.388103 0.90809,-0.658362 0.82816,-0.787686 -0.0404,-0.0653 0.40266,-0.4374 0.98447,-0.826917 1.28967,-0.863415 1.4212,-0.941945 1.4212,-0.848628 0,0.04041 -0.35984,0.312321 -0.79964,0.604242 -0.4398,0.291926 -0.84232,0.599841 -0.8945,0.684258 -0.11614,0.187974 -0.155,0.211335 2.13015,-1.282167 1.54076,-1.006988 2.21904,-1.380341 2.61613,-1.440024 0.04,-0.006 0.23618,-0.117227 0.43602,-0.247151 0.19985,-0.129929 0.75577,-0.435746 1.23539,-0.679597 1.20518,-0.612744 0.77403,-0.57084 -0.60964,0.05924 -0.62394,0.284127 -1.06552,0.447386 -0.98128,0.362796 0.59174,-0.594196 6.39531,-2.744472 9.22129,-3.416574 0.91928,-0.21863 1.73983,-0.453578 1.82345,-0.522105 0.0836,-0.06852 0.27983,-0.129837 0.43602,-0.136235 0.15619,-0.0064 1.03612,-0.06715 1.9554,-0.135019 2.64981,-0.195593 5.17918,-0.304547 4.03371,-0.173744 -0.53928,0.06158 -1.01083,0.142275 -1.04787,0.179316 -0.037,0.03702 1.09092,0.08011 2.5066,0.0957 2.87428,0.03164 5.2606,0.160384 5.48075,0.295649 0.0799,0.04913 0.40695,0.137866 0.7267,0.197237 0.42203,0.07837 0.34237,0.0881 -0.29068,0.03554 -3.91391,-0.324975 -4.76114,-0.348718 -7.14764,-0.200285 -1.39352,0.08667 -2.80798,0.21693 -3.14327,0.289467 -0.54827,0.118613 -0.52187,0.124865 0.26243,0.06209 1.53147,-0.122591 5.63541,-0.07727 6.61299,0.07304 0.51958,0.07989 1.30048,0.146565 1.73533,0.148174 0.82715,0.0033 2.34528,0.243468 2.84288,0.450198 0.15987,0.06643 0.84661,0.227506 1.52608,0.357958 1.73619,0.333347 2.08311,0.416359 3.56084,0.852068 2.17832,0.642285 4.58592,1.610506 4.76373,1.91575 0.062,0.106545 0.21255,0.155462 0.33442,0.108699 0.12185,-0.04675 0.36539,0.04653 0.54117,0.207308 0.17579,0.160781 0.74804,0.496606 1.27165,0.746287 0.52363,0.24968 1.19416,0.682333 1.49008,0.961451 0.29593,0.279124 0.67195,0.507497 0.8356,0.507498 0.44435,1e-6 1.18098,0.422008 1.0648,0.610007 -0.0593,0.09616 -0.034,0.120859 0.0628,0.06105 0.14169,-0.08757 1.33561,0.571753 1.33561,0.737562 10e-6,0.06909 -0.15981,-0.01681 -0.79937,-0.429702 -0.38589,-0.24912 -0.37361,-0.221285 0.10687,0.241838 0.48914,0.471518 1.13368,0.739083 0.91051,0.377984 -0.14621,-0.236573 0.0206,-0.165651 0.23655,0.100571 0.17172,0.211701 0.16914,0.230462 -0.0185,0.13482 -0.41719,-0.212571 0.5801,0.57307 1.05148,0.828333 0.45828,0.248163 0.46238,0.248039 0.11913,-0.0038 -0.53816,-0.394664 -0.98077,-0.805651 -0.73459,-0.682114 0.32223,0.1617 1.88942,1.370931 1.88942,1.457862 0,0.04108 -0.17119,-0.05994 -0.38043,-0.224528 -0.39918,-0.314002 -0.71206,-0.272577 -0.5781,0.07653 0.0433,0.112755 -0.28996,-0.06732 -0.74052,-0.40017 -0.47941,-0.354157 -0.73213,-0.480863 -0.60928,-0.305474 0.11546,0.164839 0.63133,0.616261 1.14639,1.003169 1.48881,1.118367 4.43357,3.899139 5.33473,5.037655 0.45424,0.573866 1.19437,1.468518 1.64473,1.988111 2.60196,3.001922 5.11132,7.527324 6.57462,11.8567591 0.333,0.9852397 0.63089,1.7659186 0.66198,1.7348327 0.0311,-0.031093 -0.11858,-0.5822984 -0.3326,-1.224923 -0.21401,-0.6426303 -0.34339,-1.2423918 -0.28751,-1.3327984 0.15168,-0.2454899 0.36885,0.1672674 0.26438,0.5025377 -0.0548,0.1761606 -0.0286,0.2377449 0.0743,0.1741281 0.10308,-0.063699 0.12549,-0.01044 0.0635,0.1509854 -0.0686,0.1788414 -0.0432,0.2169477 0.0899,0.1346874 0.13907,-0.085957 0.15958,-0.032684 0.0818,0.2123664 -0.0658,0.2074334 -0.0499,0.2937693 0.0436,0.236014 0.0873,-0.054 0.11822,0.020325 0.0758,0.1823958 -0.0393,0.1504027 0.13027,0.9773785 0.3769,1.8377196 0.24663,0.8603367 0.44842,1.6877685 0.44842,1.838732 0,0.150958 0.0981,0.3121168 0.21801,0.3581331 0.11991,0.046033 0.21802,0.1786222 0.21801,0.2946984 0,0.1160709 -0.0654,0.1706181 -0.14534,0.121207 -0.0799,-0.049383 -0.14534,-0.018512 -0.14534,0.068654 -2e-5,0.087155 0.0895,0.192816 0.19885,0.2347893 0.11796,0.045264 0.27599,0.5272459 0.38846,1.1847461 0.13462,0.78702378 0.22151,1.02697674 0.29962,0.82750854 0.12526,-0.31988966 0.14968,-0.21816146 0.19396,0.80912288 0.0155,0.35970964 0.11379,1.92939018 0.21837,3.48816668 0.19223,2.8647184 0.17081,3.4782838 -0.28067,8.0423382 -0.17384,1.757321 -1.03013,5.674455 -1.62561,7.436403 -0.84834,2.510129 -2.3714,6.008457 -2.54173,5.838125 -0.0424,-0.0424 0.0292,-0.261453 0.15904,-0.486811 0.86073,-1.494138 2.82243,-7.882707 3.34333,-10.889013 0.66715,-3.850458 1.03644,-8.9912006 0.68889,-9.5899348 -0.12578,-0.2166893 -0.16261,0.079519 -0.16605,1.3355338 -0.008,3.0482277 -0.52304,7.65742 -1.11813,10.013245 -0.59026,2.336633 -2.16945,6.79112 -3.22035,9.083769 -2.35981,5.148183 -6.8503,10.636744 -10.92667,13.355234 -0.49228,0.328305 -0.48995,0.322494 0.0727,-0.180242 0.31976,-0.285711 0.51597,-0.517907 0.43603,-0.515995 -0.24831,0.006 -2.32545,1.512002 -2.32545,1.686091 2e-5,0.0906 -0.0595,0.219216 -0.13229,0.285838 -0.0769,0.07038 -0.0885,0.04499 -0.0277,-0.06053 0.0575,-0.09992 0.0658,-0.181671 0.0184,-0.181676 -0.13468,5e-6 -1.40976,0.679593 -1.89318,1.009019 -0.51317,0.349718 -0.38597,0.393378 0.22523,0.07732 0.23584,-0.121954 0.4288,-0.188697 0.4288,-0.1483 2e-5,0.09202 -0.97336,0.587292 -1.43527,0.730312 -0.2352,0.07282 -0.31385,0.05613 -0.2468,-0.05235 0.0614,-0.09978 0.0143,-0.126997 -0.1263,-0.07302 -0.1236,0.0474 -0.18229,0.154891 -0.13045,0.2388 0.0523,0.08446 0.0253,0.109896 -0.0603,0.05698 -0.20331,-0.125634 -0.63799,0.04439 -0.53588,0.209581 0.0437,0.07064 -0.008,0.09505 -0.11404,0.05422 -0.10639,-0.04081 -0.57835,0.0582 -1.04878,0.220051 -0.47044,0.161857 -0.87799,0.271643 -0.90565,0.243979 -0.0528,-0.05284 0.34088,-0.230768 2.13276,-0.963733 1.39169,-0.569269 2.50647,-1.186048 2.58503,-1.430226 0.0337,-0.104903 -0.53061,0.106579 -1.25414,0.469947 -1.20343,0.604403 -4.23735,1.835325 -4.49341,1.82307 -0.0592,-0.0028 0.0557,-0.09871 0.25572,-0.212861 0.19984,-0.114236 0.31347,-0.210026 0.2525,-0.212855 -0.15584,-0.0073 -1.98739,0.514299 -2.46894,0.703033 -0.21983,0.08617 -0.39969,0.100328 -0.39969,0.03148 0,-0.16802 0.64443,-0.456593 2.47078,-1.106408 0.83934,-0.298636 1.65688,-0.640647 1.81676,-0.760036 l 0.29068,-0.217052 -0.29068,0.111781 c -1.78286,0.685554 -3.59923,1.242441 -4.26249,1.306853 -0.44886,0.04362 -1.1777,0.171882 -1.61964,0.285086 -3.78913,0.970595 -6.87703,1.293648 -11.3407,1.186438 -1.95845,-0.04702 -3.82244,-0.146685 -4.14219,-0.221436 -0.31975,-0.07476 -1.23539,-0.266842 -2.03476,-0.426869 -0.79938,-0.160021 -1.64961,-0.334661 -1.88943,-0.388082 l -0.43601,-0.09712 0.47235,0.316545 c 0.5055,0.338786 0.60828,0.476395 0.25435,0.340571 -0.11992,-0.04603 -0.21801,-0.02719 -0.21801,0.04175 0,0.217057 0.85094,0.512794 1.19591,0.415658 0.25776,-0.07259 0.28235,-0.05951 0.11214,0.05967 -0.1912,0.133863 -0.1894,0.152908 0.0146,0.154864 0.12797,0.0011 0.54288,0.167146 0.922,0.368729 0.37913,0.201566 1.02654,0.419981 1.43872,0.485349 0.66869,0.106041 0.70722,0.130667 0.3577,0.228599 -0.21543,0.06037 -0.72778,0.03768 -1.13853,-0.05043 -0.41076,-0.08809 -0.81516,-0.117927 -0.89868,-0.06631 -0.21582,0.133379 0.1218,0.290616 0.89967,0.418992 1.23723,0.204187 1.82384,0.933444 0.76622,0.952533 -0.43738,0.0079 -0.48762,0.03455 -0.25435,0.134973 0.15987,0.06883 0.48689,0.170574 0.7267,0.226093 0.25601,0.05928 0.35193,0.13159 0.23234,0.175172 -0.1473,0.05367 -0.10706,0.129496 0.14533,0.27395 l 0.34908,0.199639 -0.39968,-0.08961 c -0.23907,-0.05362 -0.39968,-0.02829 -0.39969,0.06293 2e-5,0.08391 0.27798,0.214783 0.6177,0.290868 0.33973,0.07609 0.48688,0.14463 0.32701,0.152332 -0.15987,0.0077 -0.61769,-0.08293 -1.01738,-0.201391 -0.72348,-0.214432 -0.72513,-0.214168 -0.37086,0.06027 0.19571,0.151617 0.59597,0.314078 0.8895,0.360995 0.29351,0.04691 0.61556,0.184027 0.71568,0.304646 0.15424,0.185856 0.12496,0.219304 -0.19199,0.219304 -0.61524,5e-6 -1.89006,-0.304157 -2.2613,-0.539534 -0.19082,-0.120954 -0.91024,-0.275373 -1.59874,-0.343093 -0.68849,-0.06774 -1.56248,-0.166965 -1.94219,-0.220518 -1.08498,-0.153034 -0.82288,0.149447 0.39154,0.451863 0.59504,0.148173 1.05103,0.319346 1.01331,0.380386 -0.11305,0.182939 0.44447,0.406858 1.61645,0.649228 1.14797,0.237415 1.62759,0.188723 0.77349,-0.07852 -0.48222,-0.150881 -0.48061,-0.151869 0.12937,-0.07924 0.69493,0.08273 1.92686,0.46658 2.13653,0.665696 0.25005,0.237443 -0.81555,0.142707 -2.92038,-0.25963 -1.51888,-0.290341 -2.03661,-0.442414 -1.98287,-0.582457 0.04,-0.104222 3.3e-4,-0.18952 -0.0882,-0.18952 -0.0885,2.7e-5 -0.16089,0.07303 -0.16089,0.16229 10e-6,0.09489 -0.15145,0.13333 -0.36462,0.09258 -0.28302,-0.05411 -0.33026,-0.02829 -0.21107,0.115323 0.15967,0.192394 0.0922,0.217008 -1.21151,0.441662 -0.66602,0.114764 -0.63547,0.165916 0.2004,0.335381 0.35314,0.0716 1.31727,0.267891 2.1425,0.436191 1.64289,0.335062 2.31964,0.385621 1.40638,0.105068 -0.56702,-0.174183 -0.57178,-0.181066 -0.19322,-0.279372 0.21348,-0.05544 0.50779,-0.06281 0.65404,-0.01637 0.23749,0.0754 0.23485,0.05777 -0.0248,-0.165026 -0.25953,-0.222705 -0.26207,-0.239509 -0.0236,-0.156886 0.14688,0.05092 0.51427,0.132067 0.81641,0.180385 0.30215,0.04834 0.73791,0.248539 0.96834,0.444931 l 0.41898,0.357095 -0.79937,-0.08532 c -0.94477,-0.100827 -0.73177,0.147992 0.25435,0.297126 0.70748,0.106985 0.83343,0.287403 0.18168,0.260256 -0.23982,-0.01 -0.71399,-0.02736 -1.05372,-0.03856 -0.42682,-0.01412 -0.55397,-0.06074 -0.41148,-0.150919 0.14458,-0.09152 -0.008,-0.156704 -0.50869,-0.21808 -0.71919,-0.08807 -2.7384,-0.49956 -3.07668,-0.62699 -0.0999,-0.03763 -0.18169,-0.0011 -0.18169,0.0818 0,0.08262 0.11446,0.182302 0.25435,0.221507 0.13989,0.03922 -0.10537,0.03587 -0.54503,-0.0074 -0.93687,-0.0922 -0.85807,0.07453 0.21801,0.461212 0.39969,0.143636 0.78884,0.317951 0.86478,0.387379 0.21023,0.19219 -0.0384,0.131424 -1.01011,-0.246924 z m 0.78716,-3.93569 c -2.02728,-0.502203 -2.46963,-0.574499 -2.2333,-0.364989 0.0759,0.06732 0.85751,0.292292 1.73682,0.499945 2.05125,0.484388 2.15414,0.50301 2.31323,0.418657 0.0732,-0.03884 -0.74431,-0.287953 -1.81675,-0.553613 z m -0.13313,-0.794561 c 0,-0.07087 0.11444,-0.134165 0.25434,-0.140653 0.16708,-0.0077 0.10967,-0.07567 -0.16732,-0.197936 -0.3723,-0.164327 -0.46105,-0.15188 -0.75808,0.106376 -0.18502,0.160878 -0.30882,0.337149 -0.27511,0.391702 0.087,0.140817 0.94616,-0.0038 0.94616,-0.1595 z m 15.64482,-2.8928 c 2.58128,-0.407396 5.988,-1.231554 5.81322,-1.406341 -0.0407,-0.04065 -0.55235,0.02807 -1.13717,0.152656 -3.54748,0.755789 -6.37402,1.163746 -6.58536,0.950467 -0.0987,-0.09951 -0.0634,-0.116037 0.10815,-0.05071 0.13989,0.05323 0.25435,0.03631 0.25434,-0.03768 10e-6,-0.07791 -0.87171,-0.119033 -2.07109,-0.09771 l -2.0711,0.03681 1.74409,-0.1937 c 2.09751,-0.232938 4.50279,-0.69092 5.59559,-1.065418 0.43966,-0.150672 1.2042,-0.362489 1.699,-0.470688 0.49479,-0.108205 0.87291,-0.239964 0.84026,-0.292787 -0.0753,-0.121909 0.58907,-0.429236 0.92797,-0.429236 0.14083,0 0.38302,-0.103442 0.53819,-0.229873 0.27818,-0.226676 0.27807,-0.22856 -0.009,-0.135303 -0.15987,0.05202 -0.94471,0.258405 -1.74408,0.458631 -0.79937,0.200227 -1.71502,0.448501 -2.03476,0.551718 -0.31975,0.103223 -0.77758,0.229401 -1.01739,0.280399 l -0.43602,0.09274 0.36336,-0.200479 c 0.19983,-0.110259 1.24629,-0.442135 2.32544,-0.737497 4.64475,-1.271264 8.07883,-2.638499 10.32025,-4.108885 6.01638,-3.946764 9.84428,-9.370166 13.00571,-18.426518 0.5572,-1.596191 0.54902,-1.166064 -0.0162,0.852508 -0.19845,0.708691 -0.33358,1.315769 -0.30028,1.349058 0.18223,0.182236 1.10871,-3.169117 1.93455,-6.997795 0.28981,-1.34362 0.35781,-2.1669758 0.42612,-5.1595801 0.0451,-1.9744448 0.0199,-3.9817227 -0.0566,-4.505552 l -0.13782,-0.9447109 1.2e-4,1.4979067 c 6e-5,0.82385 -0.0336,1.5315798 -0.0747,1.5727292 -0.0412,0.041144 -0.11957,-0.5021038 -0.17428,-1.2072352 -0.14903,-1.9209143 -0.61891,-5.0736293 -0.92756,-6.2236095 -0.58466,-2.1783583 -1.79993,-5.3873949 -2.77936,-7.3391252 -0.40065,-0.798401 -0.75875,-1.688212 -0.79577,-1.977368 -0.0715,-0.558585 -0.29713,-0.929275 -0.5667,-0.931115 -0.18596,-0.0011 -0.81791,-1.041825 -0.81791,-1.34674 0,-0.110117 -0.15917,-0.349745 -0.35371,-0.532509 -0.19455,-0.182763 -0.63027,-0.73374 -0.96828,-1.224389 l -0.61457,-0.892098 0.56227,0.50869 c 0.53164,0.480977 0.47568,0.297523 -0.11616,-0.380819 -0.14787,-0.169488 -0.27853,-0.436548 -0.29035,-0.593473 -0.0251,-0.333159 -0.34938,-0.382803 -0.46875,-0.07175 -0.0687,0.179144 -0.13179,0.169384 -0.39116,-0.06056 -0.27326,-0.242256 0.12791,0.358938 1.05363,1.578956 0.1668,0.219833 0.27328,0.399689 0.23664,0.399689 -0.0366,-6e-6 -0.4828,-0.539577 -0.99143,-1.199056 -1.06791,-1.384626 -3.96787,-4.323875 -4.26607,-4.323875 -0.11107,0 -0.33321,-0.16686 -0.49363,-0.370807 -0.34054,-0.432938 -2.92476,-2.387854 -3.15872,-2.389525 -0.0875,-5.49e-4 -0.27789,-0.132334 -0.42302,-0.292699 -0.2432,-0.268738 -2.16844,-1.452516 -2.3623,-1.452516 -0.0466,7e-6 -0.18805,-0.08885 -0.31425,-0.19743 -0.1262,-0.108592 -0.44931,-0.271238 -0.71802,-0.361442 -0.41401,-0.138983 -0.46283,-0.13301 -0.31996,0.03917 0.12832,0.154601 0.12682,0.228988 -0.006,0.311226 -0.11716,0.07241 -0.13679,0.04647 -0.0595,-0.07859 0.0773,-0.125097 0.0488,-0.16272 -0.0866,-0.114092 -0.11105,0.03994 -0.31917,-0.02972 -0.46251,-0.15467 -0.23754,-0.207128 -0.25243,-0.205935 -0.16825,0.01346 0.0909,0.236987 0.48155,0.427068 0.96715,0.470624 0.13617,0.01225 0.21406,-0.03203 0.17308,-0.09834 -0.12911,-0.208912 0.0473,-0.135293 0.96618,0.403263 0.63591,0.372721 0.84882,0.568777 0.73795,0.679645 -0.17688,0.17688 0.0473,0.543896 0.32742,0.535997 0.0901,-0.0028 0.0455,-0.09437 -0.0992,-0.204056 -0.16624,-0.126035 -0.20635,-0.234476 -0.10901,-0.294637 0.21251,-0.131335 0.47163,0.05153 0.35057,0.247375 -0.0611,0.0992 -0.0167,0.128463 0.11707,0.07713 0.12405,-0.04757 0.29085,0.03708 0.39195,0.198952 0.0968,0.155002 0.22963,0.248676 0.29517,0.208165 0.0656,-0.04049 0.23102,0.0081 0.36771,0.108073 0.21044,0.153884 0.1564,0.172945 -0.35276,0.124393 -0.33278,-0.03175 -0.63569,-0.147042 -0.67836,-0.258223 -0.0424,-0.110487 -0.1332,-0.166196 -0.20179,-0.123809 -0.0686,0.04242 -0.37984,-0.08399 -0.69166,-0.280833 -1.08662,-0.685951 -4.77399,-2.520131 -5.5579,-2.764628 -0.4343,-0.135451 -0.90229,-0.307627 -1.04,-0.382621 -0.34537,-0.188064 -3.75993,-1.045874 -3.84088,-0.964908 -0.0677,0.0677 2.17529,0.826086 2.4432,0.826084 0.0829,2e-6 0.38953,0.106777 0.68139,0.237277 1.72909,0.77315 3.12438,1.337407 3.51013,1.419508 0.19985,0.04252 0.72087,0.308487 1.15782,0.591006 0.43696,0.282523 0.83904,0.513671 0.89353,0.51366 0.3298,-10e-7 3.47927,2.092118 4.88899,3.247625 0.89748,0.735635 1.02703,0.897381 0.87205,1.088852 -0.10014,0.123665 -0.11656,0.185849 -0.0366,0.138148 0.08,-0.04768 0.3416,0.07799 0.58136,0.279332 0.23977,0.201334 0.32097,0.327766 0.18043,0.280959 -0.14052,-0.0468 0.34615,0.534372 1.0815,1.291512 0.73537,0.757142 1.3703,1.376617 1.41097,1.376617 0.0407,4e-6 -0.004,-0.07849 -0.10045,-0.174408 -0.0959,-0.09592 -0.17232,-0.243077 -0.16978,-0.327013 0.003,-0.08394 0.0985,-0.02851 0.21335,0.123149 0.11481,0.15167 0.18012,0.322067 0.14512,0.378672 -0.0928,0.149826 0.94678,1.323703 1.09248,1.233655 0.0677,-0.04187 0.1704,4.37e-4 0.22825,0.09409 0.0657,0.106275 0.0422,0.131231 -0.0626,0.06647 -0.29737,-0.183782 -0.1798,0.06769 0.32183,0.688359 0.26929,0.333204 0.66536,0.900133 0.88016,1.259854 0.34642,0.580156 0.35269,0.611588 0.0554,0.278296 -0.18432,-0.206654 -0.74752,-0.90437 -1.25154,-1.550482 -0.50402,-0.646109 -1.23592,-1.523479 -1.62643,-1.949711 -0.39052,-0.426228 -0.7819,-0.856712 -0.86975,-0.956631 -0.25229,-0.286982 -0.50479,-0.220271 -0.27504,0.07267 0.17996,0.229481 0.17505,0.235221 -0.0502,0.05873 -0.13734,-0.107585 -0.24405,-0.238393 -0.23714,-0.290678 0.0484,-0.365867 -0.10022,-0.584011 -0.65508,-0.961745 -0.34792,-0.236862 -0.69114,-0.56388 -0.76272,-0.726704 -0.0716,-0.162823 -0.20643,-0.296044 -0.29969,-0.296043 -0.0933,-1e-6 -0.21862,-0.04905 -0.27857,-0.109007 -0.17827,-0.178264 -0.37682,-0.123751 -0.26467,0.07268 0.0571,0.09992 -0.1026,-0.01043 -0.35478,-0.245205 -0.25217,-0.234784 -0.45849,-0.458741 -0.45849,-0.497694 -3e-5,-0.03896 0.16351,0.0828 0.36335,0.270539 0.19984,0.187747 0.36336,0.270366 0.36335,0.1836 0,-0.201798 -0.83671,-0.910301 -1.07503,-0.910302 -0.0994,-1e-6 -0.40045,-0.196205 -0.66905,-0.436019 -0.50707,-0.452704 -0.89773,-0.599203 -0.58136,-0.218007 0.21864,0.263445 -0.005,0.291367 -0.29095,0.03631 -0.17403,-0.155187 -0.17487,-0.143626 -0.006,0.0793 0.10887,0.143525 0.29089,0.225292 0.40448,0.181701 0.1136,-0.04362 0.34658,0.01884 0.51775,0.138723 0.21442,0.150189 0.24464,0.219422 0.0972,0.222606 -0.15603,0.0033 -0.13526,0.06365 0.0767,0.222493 0.15987,0.119823 0.48689,0.397489 0.7267,0.617036 0.23981,0.219544 1.03733,0.909357 1.77226,1.532915 1.26635,1.074449 3.80501,3.819746 4.16514,4.504174 0.0918,0.174452 0.32423,0.545181 0.51654,0.823834 0.54271,0.786403 0.006,0.209032 -1.21834,-1.310106 -1.97908,-2.456046 -4.73619,-5.10614 -6.5585,-6.303944 -1.41888,-0.932626 -3.04638,-1.794407 -3.17032,-1.678714 -0.0755,0.0705 -0.22154,0.01642 -0.33779,-0.125119 -0.11264,-0.137103 -0.16337,-0.167529 -0.11274,-0.06763 0.0506,0.09992 0.0391,0.181241 -0.0256,0.180715 -0.20168,-0.0016 -0.92356,-0.525338 -0.83972,-0.609188 0.0438,-0.04378 -0.56975,-0.356834 -1.36337,-0.695706 -1.18684,-0.506778 -1.49096,-0.586214 -1.71348,-0.447571 -0.25709,0.160184 -0.25609,0.164991 0.0201,0.09674 0.15987,-0.03949 0.4869,0.01747 0.7267,0.126598 0.23981,0.109129 0.33792,0.20605 0.21801,0.215369 -0.13875,0.01077 -0.0859,0.09246 0.14534,0.224667 0.25,0.142943 0.28957,0.209317 0.1268,0.212859 -0.2886,0.0062 -0.60121,-0.340491 -0.45256,-0.502038 0.0593,-0.0644 -0.0395,-0.08083 -0.21947,-0.03653 -0.17997,0.04433 -0.29486,0.02823 -0.2553,-0.03576 0.0395,-0.06402 -0.0748,-0.122591 -0.25415,-0.13022 -2.02362,-0.08605 -2.50743,-0.162339 -2.90806,-0.458543 -0.26533,-0.196165 -0.55774,-0.288407 -0.7797,-0.245978 -0.19534,0.03736 -0.74872,-0.01423 -1.22971,-0.114605 -0.88825,-0.185361 -1.2703,-0.3606 -0.78617,-0.360599 0.14655,1e-6 0.2333,-0.03313 0.19278,-0.07367 -0.12962,-0.129619 -0.99078,0.103651 -0.90358,0.244748 0.0513,0.08304 -0.443,0.0963 -1.27409,0.03417 -0.74687,-0.05584 -1.45605,-0.08629 -1.57595,-0.06767 -0.1199,0.01862 -0.93659,0.05455 -1.81486,0.07986 -5.65087,0.162756 -10.99316,1.406868 -15.11729,3.52051 -2.61319,1.339278 -4.38086,2.497355 -6.16326,4.037787 -0.73994,0.639501 -1.4256,1.146383 -1.52369,1.126418 -0.0981,-0.01996 -0.56696,0.399168 -1.04192,0.931411 -0.47497,0.532243 -1.10884,1.242632 -1.40861,1.578633 -0.29977,0.336001 -0.54502,0.644426 -0.54502,0.685394 0,0.04098 -0.23832,0.327949 -0.52953,0.63778 -0.61404,0.653188 -0.5201,0.436834 0.26599,-0.612637 0.30482,-0.406952 0.55422,-0.794105 0.5542,-0.860358 0,-0.160939 2.72986,-2.717052 3.10117,-2.903784 0.16059,-0.08077 0.39512,-0.32254 0.52117,-0.537276 0.12592,-0.214801 0.60927,-0.695779 1.07382,-1.068994 0.46457,-0.373207 0.81087,-0.712358 0.76956,-0.753663 -0.27187,-0.271869 -5.68027,5.013607 -6.72615,6.57329 -1.10021,1.640702 -2.16072,3.48804 -2.84827,4.9615899 -0.69938,1.49883 -0.82002,1.895783 -0.51972,1.7101908 0.1048,-0.064765 0.12831,-0.039823 0.0626,0.066473 -0.0578,0.093592 -0.15872,0.1370709 -0.22418,0.096619 -0.19228,-0.1188169 -1.0555,2.2689519 -1.10575,3.0586294 -0.0105,0.1655586 -0.12402,0.7541908 -0.25219,1.3080628 -0.61955,2.67746733 -0.98145,5.3189818 -0.95437,6.9659897 0.0179,1.088775 0.0913,0.826701 0.26446,-0.9447108 0.18157,-1.8572538 0.53747,-4.15699397 0.75347,-4.8688985 0.097,-0.3197523 0.18204,-0.6467666 0.18893,-0.7267033 0.007,-0.079926 0.16526,-0.5898242 0.35194,-1.1330778 0.18667,-0.5432586 0.30234,-1.1353961 0.25705,-1.3158635 -0.0562,-0.2240172 0.0127,-0.4094895 0.21719,-0.584601 0.22196,-0.1900416 0.27615,-0.3574404 0.20921,-0.6462333 -0.0675,-0.2909844 -0.053,-0.3345071 0.0572,-0.1717497 0.10784,0.1593571 0.14813,0.1668225 0.14976,0.027742 10e-4,-0.1046342 0.0669,-0.1503043 0.1459,-0.1014478 0.0795,0.049052 0.10831,-0.00328 0.0646,-0.1174497 -0.0988,-0.2573667 1.38516,-3.43273 1.78289,-3.8151265 0.36926,-0.3550127 0.90181,-1.1781867 0.6697,-1.0351667 -0.0954,0.05874 -0.008,-0.189333 0.19447,-0.551312 0.20233,-0.361973 0.42008,-0.625859 0.48392,-0.586407 0.0639,0.03939 0.20523,-0.03818 0.31422,-0.172574 0.10897,-0.134368 0.12378,-0.199792 0.0329,-0.145338 -0.20049,0.120108 0.30739,-0.906572 0.55613,-1.124217 0.0987,-0.08628 0.0903,-0.04065 -0.0189,0.103508 -0.10745,0.141828 -0.15866,0.294577 -0.11377,0.339462 0.0449,0.04488 0.15461,-0.05482 0.24384,-0.221524 0.0892,-0.166717 0.1249,-0.303141 0.0793,-0.30313 -0.0456,-5e-6 -0.0119,-0.132632 0.0749,-0.294741 0.0867,-0.16212 0.21249,-0.260926 0.27938,-0.219585 0.067,0.0412 0.11267,-0.03697 0.10176,-0.174062 -0.0109,-0.137104 0.0564,-0.250857 0.14972,-0.252736 0.0933,-0.0022 0.22407,-0.06305 0.29068,-0.135818 0.0717,-0.07833 0.0379,-0.08399 -0.083,-0.01384 -0.1384,0.08029 -0.17027,0.06363 -0.0988,-0.05197 0.0578,-0.09359 0.15606,-0.138719 0.21824,-0.100295 0.0622,0.03845 0.29658,-0.121679 0.52089,-0.355815 0.22431,-0.234119 0.45448,-0.396849 0.5115,-0.361604 0.0569,0.03543 0.22687,-0.08154 0.37745,-0.259509 l 0.27376,-0.323587 -0.327,0.276867 c -0.17987,0.152282 -0.32702,0.203633 -0.32702,0.114121 -2e-5,-0.08952 0.13063,-0.232855 0.29068,-0.318318 0.15986,-0.08556 0.29068,-0.11043 0.29068,-0.05526 -2e-5,0.05517 0.14288,-0.02428 0.31753,-0.176559 0.24221,-0.211189 0.21832,-0.138951 -0.10069,0.304489 l -0.41823,0.58136 0.68667,-0.65249 c 0.37768,-0.358868 0.61842,-0.675243 0.53498,-0.703053 -0.0834,-0.02781 0.17367,-0.349347 0.57136,-0.714499 0.39768,-0.365169 0.68791,-0.720799 0.64496,-0.790288 -0.043,-0.06946 -0.0242,-0.10918 0.0417,-0.08822 0.15045,0.04792 1.34705,-0.801913 2.13737,-1.51793 0.73582,-0.666633 1.49581,-1.177251 2.47079,-1.660074 0.40915,-0.202614 0.97281,-0.496803 1.25259,-0.653757 0.27978,-0.156956 0.7376,-0.387079 1.01738,-0.511383 0.27978,-0.124306 0.54139,-0.270823 0.58136,-0.325601 0.04,-0.05476 1.08642,-0.405848 2.32545,-0.780173 2.63325,-0.795537 5.17412,-1.337768 7.70303,-1.643852 0.35972,-0.04356 0.73579,-0.10546 0.83571,-0.13761 0.0999,-0.03214 0.18167,0.0049 0.18167,0.08233 2e-5,0.07744 -0.17986,0.150579 -0.39968,0.162561 l -0.39968,0.02175 0.40034,0.06061 c 0.23995,0.03631 0.49159,-0.03065 0.62808,-0.16712 0.23537,-0.235363 1.36968,-0.324436 1.36968,-0.107555 2e-5,0.0661 -0.18846,0.0925 -0.4188,0.0587 -0.23035,-0.03384 -0.46312,0.01022 -0.51726,0.09784 -0.0691,0.111902 0.43447,0.16501 1.69053,0.178444 0.98394,0.01049 1.56008,0.05957 1.2803,0.109003 -0.43073,0.0761 -0.30824,0.119339 0.79937,0.282141 2.43112,0.357328 3.77607,0.608774 4.43289,0.828739 0.3597,0.12047 0.45782,0.18256 0.218,0.137973 -0.23981,-0.0446 -0.76304,-0.1193 -1.16272,-0.166047 -0.39969,-0.04675 -0.80103,-0.14396 -0.89185,-0.216029 -0.0908,-0.07207 -0.67947,-0.116654 -1.30808,-0.09907 -0.62859,0.01758 -2.12394,0.01307 -3.323,-0.01 -2.37058,-0.04565 -3.60529,0.04691 -3.68163,0.275877 -0.0268,0.08048 -0.2005,0.14633 -0.38595,0.14633 -0.18546,-1e-6 -0.9485,0.124194 -1.69565,0.275997 -0.74714,0.151805 -1.55466,0.31576 -1.79447,0.364357 -0.40367,0.0818 -0.3956,0.06854 0.10888,-0.178692 1.12028,-0.549446 0.86948,-0.573648 -0.90807,-0.08764 -2.24921,0.614971 -2.72799,0.81271 -2.65389,1.096086 0.0521,0.199131 -0.006,0.274077 -0.21089,0.274083 -0.15542,3e-6 -0.68496,0.163508 -1.17678,0.363349 -1.01235,0.411355 -1.24561,0.450625 -0.83588,0.140719 0.44668,-0.337849 0.1473,-0.250735 -0.83129,0.241717 -1.26585,0.637105 -3.23788,1.825948 -4.11493,2.480693 -0.40695,0.303801 -0.83591,0.552366 -0.95327,0.552368 -0.29002,-4e-6 -0.7776,0.371282 -0.7776,0.592126 0,0.09875 -0.1224,0.197501 -0.27201,0.219456 -0.1496,0.02197 -0.44751,0.208054 -0.66199,0.413541 -0.21449,0.205492 -0.45765,0.373619 -0.54036,0.373621 -0.0827,4e-6 -0.22489,0.16351 -0.31596,0.363354 -0.0911,0.199821 -0.26508,0.363337 -0.38667,0.363347 -0.13692,-5e-6 -0.22113,0.133699 -0.22112,0.35113 0,0.347042 -0.93307,1.247604 -1.29265,1.247604 -0.0884,1.2e-5 -0.16075,0.0641 -0.16075,0.142449 -10e-6,0.07834 -0.39244,0.575449 -0.87204,1.104706 -0.80161,0.884532 -1.1154,1.391184 -0.70426,1.137082 0.1048,-0.06477 0.12831,-0.03982 0.0626,0.06647 -0.0578,0.09359 -0.16106,0.135632 -0.22935,0.09342 -0.19783,-0.122273 -0.59603,0.497939 -1.99279,3.1038471 -0.90101,1.6810383 -0.42129,1.0522725 0.65201,-0.8545744 0.57968,-1.0298547 1.11752,-1.9117447 1.19517,-1.9597447 0.20567,-0.127117 0.002,0.382941 -0.29121,0.727192 -0.13588,0.159885 -0.39989,0.617708 -0.58673,1.0173587 -0.1868,0.3996722 -0.46906,0.9044892 -0.62726,1.1218106 -0.15819,0.2173156 -0.30412,0.544324 -0.32425,0.7267033 -0.0201,0.182373 -0.0421,0.3844948 -0.0487,0.4491713 -0.007,0.064672 -0.0677,0.083249 -0.13555,0.041307 -0.13372,-0.082909 -0.22776,0.092478 -0.79568,1.4839434 -0.20564,0.5038722 -0.33347,1.0214726 -0.28406,1.1502323 0.0598,0.1558526 0.033,0.1989745 -0.0802,0.1290186 -0.095,-0.058665 -0.17953,-0.021146 -0.19156,0.085161 -0.0118,0.1046342 -0.032,0.2883586 -0.0449,0.4082637 -0.0129,0.1199108 -0.0919,0.3815173 -0.17562,0.5813598 -0.0837,0.1998418 -0.19354,0.4614543 -0.24405,0.5813593 -0.0505,0.1199216 -0.0523,-0.010876 -0.004,-0.2906769 0.0484,-0.2797784 0.0387,-0.461592 -0.0216,-0.4040178 -0.0603,0.057566 -0.13221,0.4499847 -0.15991,0.872037 -0.0696,1.0612485 -0.12809,1.4369762 -0.4699,3.02014801 -0.16394,0.75940412 -0.37482,2.23097109 -0.46861,3.27015359 -0.14593,1.6167515 -0.13583,2.1433164 0.0699,3.6486987 0.13226,0.9676005 0.36728,2.2027075 0.52226,2.7446865 0.29043,1.0155509 0.53206,1.4725769 0.40359,0.7633529 -0.0619,-0.341988 -0.0408,-0.374579 0.14353,-0.221572 0.1894,0.157182 0.20309,0.04944 0.11068,-0.8707674 -0.0735,-0.7315481 -0.0569,-1.0501467 0.0547,-1.0501522 0.0881,-2.2e-5 0.1601,-0.098108 0.16007,-0.218024 0,-0.1199051 -0.0981,-0.2180075 -0.21801,-0.2180075 -0.17333,0 -0.21263,-0.1861967 -0.19182,-0.908384 0.0252,-0.8764358 0.0282,-0.8828243 0.0814,-0.1816593 0.0304,0.3996888 0.12519,0.7921046 0.21074,0.8720411 0.10967,0.1024587 0.129,-0.026147 0.0656,-0.4360205 -0.0495,-0.3197466 -0.0907,-0.765078 -0.0916,-0.9896226 -10e-4,-0.2245444 -0.0617,-0.3711296 -0.13511,-0.3257505 -0.14873,0.091923 -0.38029,-0.7627276 -0.24367,-0.8993429 0.0476,-0.047571 0.0865,0.022522 0.0865,0.1557315 0,0.133226 0.0654,0.2422326 0.14534,0.2422326 0.0799,-2.2e-5 0.14535,-0.3270087 0.14534,-0.7267032 0,-0.3996834 0.0654,-0.7266977 0.14534,-0.7266977 0.0799,-2.2e-5 0.14433,-0.1471567 0.14313,-0.3270088 -0.002,-0.2644415 -0.0292,-0.285299 -0.14312,-0.1090175 -0.10484,0.1622684 -0.14585,0.069362 -0.1603,-0.3633517 -0.0191,-0.5721856 -0.0214,-0.5744763 -0.14207,-0.1453274 -0.0845,0.300603 -0.0955,0.1877787 -0.0354,-0.3633516 0.048,-0.4396573 0.0995,-0.930187 0.11452,-1.0900549 0.015,-0.1598734 0.0993,-0.4621079 0.18725,-0.6716231 0.088,-0.2095098 0.15333,-0.73274578 0.14526,-1.16272418 -0.01,-0.51105214 0.12517,-1.18441662 0.38911,-1.94449632 0.39909,-1.1493102 0.75945,-1.9267435 0.60631,-1.308063 -0.40058,1.6182626 -0.52167,2.1856253 -0.66695,3.12481552 -0.0927,0.59952531 -0.20347,1.21269553 -0.24606,1.36259888 -0.05,0.1759958 -0.0204,0.2373107 0.0835,0.1730954 0.10184,-0.062941 0.1609,0.038782 0.16091,0.2770429 0,0.2070707 -0.0981,0.414136 -0.21802,0.4601413 -0.14783,0.056717 -0.21473,0.2775263 -0.2078,0.6858011 0.008,0.4906999 0.0357,0.5483453 0.14786,0.3114686 0.0917,-0.1937059 0.10573,0.072971 0.042,0.7993723 -0.19252,2.1948426 -0.0708,3.736463 0.5191,6.5734681 0.20907,1.005487 0.57077,2.187503 0.74592,2.437629 0.12083,0.172552 0.1343,0.152365 0.0646,-0.09678 -0.0485,-0.173139 -0.0201,-0.356853 0.0632,-0.408264 0.0925,-0.05718 0.15517,0.09339 0.16147,0.387456 0.0115,0.541313 0.25207,1.260541 0.27025,0.807941 0.0107,-0.266369 0.28757,-0.360962 0.31907,-0.109001 0.0239,0.19091 0.0607,0.317369 0.16929,0.581365 0.0493,0.119905 0.1953,0.545022 0.32438,0.944711 0.12908,0.399684 0.34468,0.930676 0.47913,1.179984 0.75731,1.404412 0.92655,1.674496 1.00196,1.599074 0.0458,-0.04576 0.02,-0.166575 -0.0573,-0.268429 -0.13541,-0.178413 -0.91826,-1.955275 -0.91826,-2.084188 -1e-5,-0.03472 0.0654,-0.06308 0.14533,-0.06309 0.0799,-1.6e-5 0.14529,0.08578 0.14535,0.190393 0,0.17615 0.7944,1.829184 1.20066,2.498402 0.77699,1.279915 1.606,2.471703 2.27474,3.270153 1.47925,1.766199 1.5155,1.720336 0.10605,-0.134138 -0.45099,-0.593367 -0.81997,-1.147497 -0.81997,-1.231394 -2e-5,-0.0839 0.11026,0.0092 0.24501,0.206812 1.11126,1.62993 3.7306,4.111006 4.02707,3.814528 0.1462,-0.146207 0.0993,-0.330349 -0.0842,-0.330355 -0.22945,0 -0.84507,-0.586506 -0.84507,-0.805107 10e-6,-0.09517 -0.13556,-0.3454 -0.30123,-0.556024 -0.16568,-0.21062 -0.25577,-0.382952 -0.20022,-0.382952 0.0555,-1.1e-5 0.0193,-0.11445 -0.0805,-0.254345 -0.0998,-0.139889 0.072,0.02461 0.3819,0.365598 0.53006,0.583249 0.93066,0.835287 0.68944,0.433758 -0.0871,-0.14491 -0.064,-0.145162 0.1138,-0.0011 0.12263,0.09922 0.25657,0.146865 0.29787,0.105501 0.0412,-0.0412 0.15765,0.02478 0.25865,0.146795 0.10111,0.121839 0.24311,0.221523 0.31554,0.221501 0.0724,1.1e-5 0.34228,0.198891 0.5999,0.441657 0.25752,0.242908 1.02693,0.880589 1.7098,1.417063 2.04437,1.606112 2.75513,2.267216 2.75521,2.562715 4e-5,0.153589 0.11453,0.408363 0.25441,0.566182 0.24797,0.279729 0.24522,0.28258 -0.10901,0.113341 -0.28878,-0.137994 -0.26011,-0.08266 0.13985,0.269528 0.27676,0.243716 0.43193,0.443123 0.34481,0.443123 -0.0871,6e-6 -0.2398,-0.09811 -0.33933,-0.217991 -0.0995,-0.119921 -0.25141,-0.218007 -0.33754,-0.218024 -0.10204,1.1e-5 -0.0958,0.06076 0.0178,0.174408 0.21038,0.210373 0.23439,0.606513 0.029,0.479615 -0.2473,-0.152864 -0.16152,0.07087 0.21801,0.568445 0.49749,0.652254 0.46181,0.812287 -0.18113,0.812287 l -0.54448,6e-6 0.81963,0.781316 c 0.45081,0.429714 0.85891,0.905028 0.9069,1.056239 0.048,0.151205 0.37777,0.43362 0.73283,0.627589 0.35507,0.193964 0.64207,0.389027 0.63776,0.433495 -0.004,0.04444 0.005,0.113538 0.0205,0.153506 0.0156,0.03999 0.0497,0.170778 0.0758,0.290683 0.0261,0.119899 0.0904,0.324449 0.14294,0.454543 0.0742,0.183846 -0.0198,0.258158 -0.42199,0.333601 -0.28456,0.05339 -0.76266,0.05764 -1.06243,0.0094 -0.4369,-0.07022 -0.49396,-0.05535 -0.28762,0.07501 0.15194,0.09603 0.21149,0.233394 0.14534,0.335375 -0.0616,0.09506 -0.11206,0.401699 -0.11206,0.681478 0,0.487486 -0.0239,0.51064 -0.57338,0.555492 -0.55291,0.04516 -1.17787,0.505812 -1.02398,0.7548 0.0374,0.06055 -0.062,0.14407 -0.22103,0.185648 -0.37664,0.0985 -0.36995,0.348212 0.0126,0.469628 0.16591,0.05268 0.26961,0.127749 0.23045,0.166921 -0.0391,0.03917 -0.2082,-0.0022 -0.37568,-0.09178 -0.26264,-0.140603 -0.32298,-0.114373 -0.43894,0.190636 -0.23496,0.617976 -0.0389,0.932592 0.74317,1.192348 0.39651,0.131693 0.76027,0.200072 0.80839,0.151969 0.0481,-0.04812 2.7e-4,-0.08749 -0.10632,-0.08746 -0.10658,-6e-6 -0.16079,-0.03301 -0.12045,-0.07334 0.0403,-0.04032 0.28644,0.0011 0.54692,0.09177 0.35653,0.124289 0.4252,0.198683 0.27791,0.300856 -0.13953,0.0968 -0.11015,0.112011 0.10244,0.05279 0.32205,-0.08946 2.39483,0.575581 3.32989,1.068368 0.31666,0.166899 0.70909,0.306382 0.87205,0.309985 0.16296,0.0039 0.49249,0.100893 0.73231,0.21619 l 0.43603,0.209625 -0.43603,-0.07125 c -0.2398,-0.03917 -0.62399,-0.0195 -0.85374,0.04372 -0.34141,0.09396 -0.0494,0.186422 1.59874,0.506125 5.15099,0.999208 9.62904,1.123244 14.2458,0.394585 z m -10.92125,-0.436724 c -0.25087,-0.06568 0.0886,-0.08074 0.79936,-0.03549 0.67947,0.04323 1.26265,0.102348 1.29595,0.131325 0.11427,0.09947 -1.6592,0.01835 -2.09532,-0.09582 z m 2.79455,0.04362 c 0.25802,-0.03213 0.71583,-0.03263 1.01738,-0.0011 0.30155,0.03147 0.0904,0.05788 -0.46911,0.05837 -0.55956,5.49e-4 -0.80628,-0.0251 -0.54827,-0.05721 z m -9.08658,-1.802822 c -0.34304,-0.169832 -0.59784,-0.334644 -0.56623,-0.366246 0.0316,-0.03164 0.39024,0.01384 0.79693,0.101074 0.54381,0.116626 0.71833,0.213547 0.6597,0.366351 -0.10365,0.27005 -0.15148,0.264563 -0.8904,-0.101179 z m -1.64395,-1.152995 c -1.30108,-0.468453 -2.07974,-0.852025 -1.96419,-0.967574 0.0455,-0.04548 0.1694,-0.01065 0.27541,0.07731 0.10601,0.08797 0.35286,0.124328 0.54854,0.08077 0.25532,-0.05683 0.29958,-0.03939 0.15673,0.06175 -0.15204,0.107639 -0.0834,0.176825 0.29068,0.292896 0.91325,0.283365 1.47808,0.360918 1.37139,0.188284 -0.11009,-0.178133 0.45887,-0.222968 0.86273,-0.06799 0.1931,0.07413 0.20287,0.117763 0.0482,0.215789 -0.14362,0.09104 -0.11853,0.124662 0.0968,0.129743 0.15988,0.0038 0.40065,0.09044 0.53506,0.19263 0.47201,0.35883 -1.04559,0.219754 -2.22138,-0.203589 z m 26.03084,-1.753653 c 0.19984,-0.09323 0.93563,-0.454286 1.63511,-0.802327 0.69947,-0.348043 1.30445,-0.632837 1.34439,-0.632875 0.04,-4.4e-5 0.16607,-7.2e-5 0.28027,-6.6e-5 0.11419,0 0.29406,-0.08175 0.39968,-0.181675 0.18646,-0.176381 1.13677,-0.569621 1.13677,-0.470397 1e-5,0.09799 -1.54663,0.916151 -2.47078,1.307051 -0.51959,0.219771 -1.14093,0.484273 -1.38074,0.587797 -0.23981,0.103519 -0.63223,0.227314 -0.87204,0.27511 -0.4264,0.08498 -0.428,0.08316 -0.0727,-0.08261 z m -24.19916,-1.393569 c -0.15987,-0.03845 -0.35608,-0.133594 -0.43601,-0.211449 -0.0946,-0.09208 0.007,-0.104123 0.29067,-0.03444 0.39495,0.09697 0.41724,0.08424 0.23656,-0.135061 -0.26758,-0.324778 -0.0741,-0.306926 0.3581,0.03307 0.29228,0.229895 0.31203,0.289688 0.12005,0.363358 -0.12638,0.0485 -0.24078,0.08059 -0.25424,0.07132 -0.0136,-0.0091 -0.15525,-0.04834 -0.31512,-0.08678 z m 29.34153,-0.948007 c 2.32054,-1.559106 5.14476,-4.025009 4.95728,-4.328354 -0.0486,-0.07862 0.003,-0.142932 0.1143,-0.142921 0.24423,0 1.90538,-2.055272 3.09474,-3.82898 1.63884,-2.444051 1.92685,-2.934613 2.46821,-4.204103 0.29899,-0.70111 0.57008,-1.248286 0.60243,-1.215931 0.0929,0.09288 -1.04424,2.742056 -1.45902,3.399111 -0.37333,0.591357 -0.64057,1.344362 -0.47714,1.344356 0.0473,3.4e-5 0.25172,-0.326998 0.45425,-0.726686 0.35963,-0.709691 0.5922,-0.979906 0.40654,-0.472353 -0.10417,0.284788 -1.43807,2.51321 -1.99463,3.33226 -0.19863,0.292308 -0.32648,0.587571 -0.2841,0.656143 0.0423,0.06859 0.002,0.106683 -0.0908,0.08473 -0.0923,-0.02197 -0.27481,0.123569 -0.40555,0.323422 -0.23227,0.355063 -0.23102,0.358386 0.0547,0.145333 0.16082,-0.119905 -0.0703,0.122805 -0.51363,0.539359 -0.81615,0.76688 -1.30029,1.038913 -0.79222,0.445134 0.38668,-0.451908 -1.04646,0.768544 -2.34265,1.994983 -0.97758,0.924986 -2.75456,2.217315 -3.59779,2.616532 -0.25759,0.121954 -0.34528,0.139055 -0.19487,0.03801 z m -7.3357,-1.414591 c 1.38762,-0.477122 2.97584,-1.093411 3.52936,-1.369526 0.55352,-0.276115 0.93774,-0.4193 0.85382,-0.318187 -0.0839,0.101102 -0.11835,0.218062 -0.0765,0.25991 0.0418,0.04186 -0.13857,0.165201 -0.40095,0.274126 -0.47165,0.195815 -0.53445,0.211652 -1.01166,0.254954 -0.13418,0.0122 -0.33173,0.109913 -0.43902,0.21719 -0.31523,0.315231 -0.83732,0.55236 -0.9978,0.453187 -0.0819,-0.05043 -0.22759,-0.03 -0.32401,0.04571 -0.26455,0.207636 -2.92376,1.050153 -3.31455,1.050158 -0.1879,0 0.79368,-0.390378 2.18131,-0.867499 z m 5.3908,-0.140412 c 0.19985,-0.161527 0.41167,-0.295142 0.47072,-0.296922 0.14592,-0.0044 2.46669,-1.643861 3.45348,-2.439657 l 0.79937,-0.644652 -0.79938,0.755334 c -1.03369,0.976752 -3.02737,2.417865 -3.73434,2.699341 l -0.5532,0.220249 z m 3.63352,-0.936438 c 0,-0.129667 0.0775,-0.235751 0.1722,-0.235756 0.25306,-5e-6 2.89429,-2.777696 4.05607,-4.265649 3.0332,-3.884768 5.24729,-8.822529 6.31319,-14.07934 0.59863,-2.952383 0.80841,-4.8430913 0.80133,-7.2223545 -0.003,-0.9923038 0.0328,-1.7660341 0.0794,-1.7193861 0.14592,0.1458988 0.20049,4.2276016 0.0627,4.686315 -0.0721,0.2398045 -0.23982,1.2535536 -0.3728,2.2527736 -0.50181,3.77056 -2.13429,9.011105 -3.6636,11.760747 -0.96061,1.727088 -2.52565,4.136702 -3.31166,5.098728 -1.24971,1.529525 -4.13685,4.128478 -4.13685,3.723917 z m -6.48976,-0.470545 c 0.38751,-0.201627 0.73632,-0.334853 0.77511,-0.296061 0.0684,0.06841 -1.20709,0.683033 -1.38916,0.669421 -0.0497,-0.0038 0.22652,-0.171733 0.61405,-0.37336 z m 2.05688,-0.02153 c 0.08,-0.07325 0.40695,-0.284349 0.7267,-0.469079 0.49639,-0.286787 0.53887,-0.294039 0.29068,-0.04966 -0.15987,0.157428 -0.48689,0.368509 -0.7267,0.469067 -0.23981,0.100575 -0.37062,0.122916 -0.29068,0.04966 z m 1.52607,-0.06854 c 0.04,-0.04444 0.59589,-0.470754 1.23539,-0.947419 0.6395,-0.476654 1.44344,-1.137533 1.78655,-1.468607 0.34309,-0.331079 0.65375,-0.601958 0.69037,-0.601958 0.22134,0 -0.0409,0.304821 -0.80107,0.931104 -0.47604,0.392207 -0.83683,0.759531 -0.80176,0.816286 0.035,0.05677 -0.0819,0.226374 -0.25982,0.376953 l -0.32358,0.273763 0.27686,-0.327009 c 0.1523,-0.179846 0.21146,-0.327025 0.13153,-0.327019 -0.18935,5e-6 -0.64997,0.509344 -0.55055,0.608781 0.0421,0.04208 -0.0396,0.16758 -0.18136,0.278877 -0.23447,0.184033 -0.23977,0.179319 -0.0584,-0.05197 0.25827,-0.329333 0.0915,-0.324048 -0.39505,0.01252 -0.45411,0.314105 -0.85236,0.540413 -0.74914,0.425693 z m -2.32544,-0.484553 c 2e-5,-0.07056 1.41416,-0.934686 1.52965,-0.934686 0.30821,0 -0.73123,0.849849 -1.10689,0.904978 -0.23252,0.03411 -0.42276,0.04752 -0.42276,0.02972 z m 3.77884,-1.338407 c 10e-6,-0.06779 0.19555,-0.310574 0.43452,-0.53954 0.58036,-0.55603 0.41781,-0.677886 -0.18167,-0.13622 l -0.47084,0.425419 0.40172,-0.44609 c 0.22094,-0.245358 0.3681,-0.490623 0.32704,-0.545016 -0.0411,-0.05444 -0.0299,-0.06506 0.0247,-0.02368 0.0547,0.04136 0.33252,-0.138483 0.61739,-0.399689 l 0.51795,-0.474907 -0.42513,0.470837 c -0.23381,0.258964 -0.38163,0.514331 -0.32832,0.567577 0.14162,0.141635 2.29382,-2.346432 2.23433,-2.583001 -0.0147,-0.05842 0.10407,-0.212559 0.26396,-0.342511 0.28455,-0.231296 0.28377,-0.232938 -0.0363,-0.0778 -0.41879,0.202945 -0.44183,-0.04697 -0.0363,-0.394173 0.15987,-0.136891 0.29068,-0.307761 0.29068,-0.379722 0,-0.07196 -0.0981,-0.04944 -0.21801,0.0501 -0.33323,0.276555 -0.26113,0.03351 0.18776,-0.632956 0.62958,-0.934752 0.67749,-1.023659 0.48871,-0.907011 -0.0923,0.05704 -0.1678,0.03675 -0.16779,-0.0451 1e-5,-0.158956 0.58451,-0.530992 0.7578,-0.482333 0.0571,0.01604 0.0715,-0.05488 0.0321,-0.157583 -0.0394,-0.102695 0.10063,-0.510679 0.31119,-0.906638 0.56381,-1.060266 2.11891,-5.016088 2.04686,-5.206768 -0.0341,-0.09023 -0.11113,-0.03323 -0.17115,0.126635 -0.9445,2.514984 -2.47307,5.711782 -2.64764,5.537209 -0.0277,-0.02763 0.0859,-0.28113 0.25232,-0.563254 0.16663,-0.282014 0.4263,-0.862637 0.57744,-1.290039 0.15113,-0.427413 0.44367,-1.157193 0.65009,-1.62174 0.45031,-1.013441 1.57157,-4.723175 1.88239,-6.227959 0.12249,-0.593038 0.29789,-1.664218 0.38977,-2.380413 0.28286,-2.2046586 0.38212,-2.7815736 0.40389,-2.3473162 0.0112,0.2245389 0.0707,0.3771996 0.13214,0.3392362 0.0614,-0.037958 0.0903,0.2034398 0.0641,0.5364525 -0.0345,0.4397945 -0.008,0.5469661 0.0984,0.391669 0.22586,-0.3306565 0.35222,-0.072686 0.13556,0.2767569 -0.16035,0.258619 -0.15838,0.3300243 0.0121,0.4361361 0.19827,0.1233496 0.13349,0.8947845 -0.23573,2.8074035 -0.0425,0.21982 -0.0142,0.399684 0.0628,0.399678 0.14216,0 0.5575,-2.376776 0.76195,-4.3602087 0.0972,-0.9432437 0.11493,-0.9921824 0.13142,-0.363346 0.0105,0.3996888 -0.11675,1.6096376 -0.28276,2.6887947 -0.166,1.079156 -0.32834,2.28911 -0.36076,2.688794 l -0.059,0.726703 0.28894,-0.872042 c 0.41005,-1.237552 1.01986,-5.7104743 1.0167,-7.4572648 -5.5e-4,-0.431566 0.0574,-0.7352946 0.13196,-0.6891959 0.16921,0.1046065 0.0788,3.096024 -0.12492,4.133108 -0.0846,0.4305771 -0.15378,1.1336597 -0.15379,1.5624077 10e-6,0.428737 -0.0491,0.779531 -0.10915,0.779531 -0.06,-3.3e-5 -0.12868,0.373849 -0.15252,0.830772 -0.0578,1.107413 0.0647,0.929588 0.32891,-0.477632 0.42261,-2.2503896 0.68058,-5.1138 0.70617,-7.838184 0.0245,-2.6065943 0.0334,-2.6881021 0.15894,-1.4533955 0.18801,1.8492612 -0.11161,7.3747525 -0.51622,9.5197875 -0.17339,0.919273 -0.32162,1.845817 -0.32937,2.058986 -0.008,0.213168 -0.0439,0.357781 -0.0803,0.321367 -0.10015,-0.10013 -0.72801,2.28003 -0.73314,2.779228 -0.004,0.349366 -0.0354,0.392691 -0.16019,0.218014 -0.12499,-0.17498 -0.1415,-0.153194 -0.0837,0.11038 0.085,0.387351 -0.52285,2.024378 -1.42793,3.845838 -1.44769,2.913443 -3.17262,5.381016 -4.95596,7.089641 -1.02147,0.978681 -1.01836,0.844939 0.007,-0.288238 0.32419,-0.358369 0.40983,-0.494364 0.19029,-0.302234 -0.81665,0.71486 -0.51553,0.137203 0.90896,-1.743694 1.96701,-2.597234 3.69042,-5.504607 3.42206,-5.772965 -0.0397,-0.03977 -0.14235,0.112099 -0.228,0.33744 -0.0857,0.225314 -0.31246,0.566363 -0.50396,0.757883 -0.19151,0.191514 -0.3157,0.432906 -0.27597,0.536436 0.0397,0.103524 -0.0297,0.227319 -0.15432,0.274983 -0.1245,0.04779 -0.22636,0.197622 -0.22638,0.332991 0,0.312358 -0.69382,1.507074 -0.87519,1.507085 -0.0749,-5e-6 -0.27628,0.27796 -0.44742,0.617691 -0.44289,0.879211 -1.15334,1.739014 -2.64661,3.203027 -1.269,1.244128 -1.84437,1.694552 -1.84437,1.443838 z m 8.28032,-17.291887 c 0.26161,-1.880935 0.13337,-1.769939 -0.29437,0.254774 -0.4901,2.319884 -0.50439,2.482592 -0.13486,1.536161 0.15389,-0.394135 0.34705,-1.200055 0.42923,-1.790935 z m -38.80177,16.502885 c -0.47467,-0.423831 -0.47954,-0.436526 -0.0727,-0.189816 0.84632,0.513167 1.02131,0.656165 0.79538,0.64993 -0.11771,-0.0033 -0.44292,-0.210306 -0.7227,-0.46013 z m 34.17379,-0.496155 c 0.70586,-0.754553 2.40385,-3.083434 3.16631,-4.342745 1.70129,-2.809941 3.26683,-6.772932 3.96164,-10.028479 0.3589,-1.681549 0.98772,-5.6730833 0.99029,-6.2859674 10e-4,-0.2597998 0.0743,-0.4723581 0.1626,-0.4723581 0.10543,-2.19e-5 0.13131,0.2122177 0.0753,0.6176964 -0.0469,0.3397307 -0.14727,1.1409214 -0.22307,1.7804146 -0.58376,4.9250775 -1.88331,9.4722625 -3.58075,12.5291385 -0.21283,0.383253 -0.62061,1.121942 -0.90619,1.641525 -0.65674,1.194876 -1.20621,2.013755 -2.12309,3.163806 -0.39946,0.50106 -0.74176,1.016485 -0.76068,1.145382 -0.0189,0.128887 -0.10821,0.307563 -0.19841,0.397047 -0.12145,0.120482 -0.13891,0.09668 -0.0672,-0.09169 0.0561,-0.147376 0.0292,-0.25435 -0.0641,-0.25435 -0.0885,2.7e-5 -0.1609,0.05788 -0.16089,0.128628 0,0.07075 -0.17986,0.242744 -0.39969,0.382226 -0.34769,0.220606 -0.33107,0.180242 0.12784,-0.310298 z m -4.08836,0.333953 c -3e-5,-0.02577 0.44147,-0.429089 0.98105,-0.896256 l 0.98105,-0.849388 -0.8675,0.89625 c -0.74442,0.769095 -1.0946,1.040831 -1.0946,0.849394 z m 2.70631,-2.09691 c 0.3691,-0.757421 0.53455,-0.900255 0.71141,-0.614093 0.0506,0.08189 0.006,0.130968 -0.10042,0.109006 -0.10586,-0.02197 -0.17943,0.03191 -0.16349,0.119696 0.0159,0.08779 -0.16188,0.382112 -0.39518,0.654029 l -0.42415,0.494397 z m -2.61179,-0.799372 c 2.0803,-2.2221 4.11236,-5.611401 5.20656,-8.68408 0.72214,-2.027894 0.82759,-2.250576 0.74485,-1.573004 -0.0706,0.578146 -1.21899,3.448418 -2.08312,5.206509 -0.76735,1.561199 -2.10736,3.490167 -3.18256,4.581364 -0.94148,0.955483 -1.49654,1.335281 -0.68573,0.469211 z m 2.58686,-0.763036 c 0.14511,-0.239826 0.37882,-0.566835 0.51933,-0.726703 0.14045,-0.159884 0.49354,-0.666745 0.78459,-1.126386 0.29106,-0.459637 0.56189,-0.83571 0.60186,-0.83571 0.04,-1.2e-5 -0.1669,0.376068 -0.45967,0.83571 -0.8009,1.257338 -2.06928,2.88267 -1.44611,1.853089 z m -1.08263,0.142026 c 0,-0.131446 2.14916,-3.319356 2.5333,-3.757711 0.20156,-0.23001 0.49684,-0.766622 0.65619,-1.192475 0.15933,-0.425853 0.54579,-1.284113 0.8588,-1.907242 0.31302,-0.623135 0.71419,-1.578612 0.89149,-2.123294 0.1773,-0.544681 0.34928,-0.96342 0.38216,-0.930533 0.0329,0.0329 -0.2049,0.838259 -0.52844,1.789705 -0.59602,1.752811 -1.99155,4.6769 -2.80248,5.872095 -1.07395,1.582869 -1.99101,2.618965 -1.99101,2.249467 z m 10.68996,-6.537 c 0.54526,-1.878051 0.72042,-2.398112 0.80771,-2.398112 0.12351,0 -0.31483,1.465651 -0.65202,2.180104 -0.13204,0.279779 -0.20212,0.377876 -0.15568,0.218008 z m 0.84615,-2.943139 c 0.28463,-0.980801 0.46304,-1.797708 0.75387,-3.45183 0.1827,-1.039182 0.33723,-1.721006 0.3434,-1.515166 0.0256,0.856243 -0.89306,5.221341 -1.09894,5.221341 -0.0396,5e-6 -0.0389,-0.114456 0.002,-0.254345 z m -59.32742,-1.806072 c -0.17626,-0.489882 -0.29561,-0.915554 -0.26522,-0.945936 0.0304,-0.03037 0.2036,0.341417 0.38492,0.826245 0.18131,0.484827 0.30066,0.910505 0.26521,0.945947 -0.0354,0.03543 -0.20864,-0.336375 -0.38491,-0.826256 z M 542.2382,8.2055639 c 0.0415,-0.919277 0.0991,-1.6986648 0.12794,-1.7319699 0.10363,-0.1196302 0.0331,2.2532281 -0.0839,2.8220248 -0.0752,0.3654719 -0.0915,-0.039331 -0.044,-1.0900549 z m -7.23401,-0.043011 0.0706,-0.9016769 0.0467,0.783788 c 0.0257,0.4310767 -0.006,0.8368409 -0.0706,0.9016769 -0.0645,0.064841 -0.0855,-0.2878698 -0.0467,-0.783788 z m 1.83996,-0.5019936 c -0.047,-0.1398945 -0.16519,-0.3632086 -0.26271,-0.4962642 -0.1338,-0.1825492 -0.13726,-0.3252233 -0.0141,-0.5813644 0.15513,-0.3225316 0.16385,-0.3141161 0.17532,0.1692556 0.009,0.3839508 0.0466,0.4552303 0.15295,0.2906822 0.1048,-0.1621694 0.14147,-0.078399 0.14312,0.3270141 0.002,0.5929276 -0.0612,0.687976 -0.1946,0.2906877 z m -57.55698,-1.380731 c -0.0482,-0.1798576 -0.0844,-0.5559258 -0.0804,-0.8357043 0.006,-0.4187228 0.0287,-0.4555711 0.12883,-0.2083067 0.1116,0.275708 0.17585,1.3710361 0.0804,1.3710361 -0.0227,-5.5e-6 -0.0806,-0.1471622 -0.12883,-0.3270196 z m 57.23036,-0.2217374 c -0.0903,-0.059381 -0.20003,-0.8021686 -0.25168,-1.7040218 -0.0504,-0.8793146 -0.12436,-1.9911608 -0.16445,-2.470781 -0.058,-0.6929752 -0.0464,-0.7675889 0.0562,-0.3633516 0.071,0.2797729 0.16233,0.7702971 0.20301,1.0900493 0.0406,0.3197523 0.15048,1.1139282 0.244,1.7648311 0.18806,1.308848 0.16029,1.8458938 -0.087,1.683274 z m 3.70403,-0.4322911 c -0.0566,-1.8238882 -0.10326,-2.6827902 -0.18389,-3.3857848 -0.0748,-0.6519411 -0.0623,-0.7282139 0.0703,-0.4294016 0.1739,0.391993 0.37734,4.3602138 0.22353,4.3602138 -0.0511,-1.65e-5 -0.10061,-0.2452647 -0.10992,-0.5450274 z m 1.99649,-3.081743 c -0.0496,-0.243518 -0.13027,-0.6389718 -0.17932,-0.8787818 -0.0517,-0.2528345 -0.0281,-0.4360209 0.0559,-0.4360209 0.0798,1.64e-5 0.19072,0.3652248 0.24649,0.8116112 0.10954,0.8767109 0.024,1.226011 -0.1231,0.5031915 z M 479.54538,1.1704912 c 0.11076,-1.12385444 0.37359,-2.4637389 0.46532,-2.3720193 0.0938,0.093823 -0.33211,3.1598781 -0.45481,3.2738779 -0.0602,0.055888 -0.0649,-0.3499372 -0.0105,-0.9018586 z m 55.19194,-0.34948687 c -0.012,-0.18457619 -0.0872,-0.29517033 -0.16711,-0.2457702 -0.0905,0.0559589 -0.13993,-0.2011161 -0.13097,-0.68178559 l 0.0144,-0.77161546 0.20745,0.65403406 c 0.11409,0.3597097 0.18283,0.81753845 0.15275,1.01737471 -0.0519,0.34477915 -0.0558,0.34619635 -0.0765,0.0277405 z m 2.12196,-0.3911086 c -0.0508,-0.15987345 -0.12653,-0.6177022 -0.16822,-1.01738565 l -0.0758,-0.72669778 0.21096,0.79937238 c 0.20521,0.77763061 0.2331,1.57379502 0.0331,0.94470556 z m 1.5192,-2.26294683 c -0.2636,-1.1904376 -0.61471,-2.5090366 -0.78026,-2.9302212 -0.47581,-1.2105857 -2.00736,-4.807139 -2.17585,-5.109571 -0.83415,-1.4972577 -1.36029,-2.3324787 -2.31512,-3.6751537 -0.88856,-1.249478 -1.20382,-1.775307 -0.72555,-1.210169 1.91972,2.268429 4.24527,6.4221652 5.0857,9.0837684 0.17668,0.5595621 0.37496,1.1481897 0.44059,1.3080631 0.17926,0.4366083 0.67972,2.4847622 0.88055,3.60370558 0.31634,1.76248555 0.0815,1.14937025 -0.41006,-1.07042218 z m -1.23993,0.7236984 c -0.14619,-0.6722164 -0.30253,-1.3857249 -0.34746,-1.5855667 -0.0449,-0.1998422 -0.0443,-0.3296295 0.002,-0.2884142 0.16325,0.1469046 0.69812,2.37871588 0.65527,2.7342123 -0.0251,0.20828472 -0.15647,-0.15695106 -0.30941,-0.8602369 z m 2.4159,0.086523 c -0.0951,-0.5549591 -0.14927,-1.0325853 -0.12045,-1.061397 0.0863,-0.086358 0.39331,1.55100368 0.34136,1.82079004 -0.0265,0.13728546 -0.12585,-0.20443401 -0.22091,-0.75939304 z m 0.7037,-1.3291452 c -0.1749,-0.6906906 -0.29094,-1.2828496 -0.25787,-1.3159075 0.0331,-0.033069 0.13936,0.2702863 0.23623,0.6741062 0.0969,0.4038204 0.2282,0.7020394 0.29183,0.6627138 0.12274,-0.075855 0.29841,0.2716649 0.28128,0.5564091 -0.006,0.09339 -0.0717,0.039001 -0.1469,-0.1208993 -0.10169,-0.2162718 -0.11599,-0.1511667 -0.0559,0.254345 0.13587,0.91628928 -0.0141,0.6105446 -0.3487,-0.7107673 z m -4.12174,-2.3807715 c -0.12743,-0.398442 -0.174,-0.6887952 -0.10352,-0.6452283 0.14093,0.087072 0.47921,1.2256375 0.39051,1.3143247 -0.0304,0.030431 -0.15958,-0.2706594 -0.28699,-0.6690964 z m -56.98514,0.00164 c -0.0643,-0.2410404 -0.0252,-0.4154324 0.11697,-0.5217633 0.11741,-0.087841 0.17745,-0.1957439 0.13337,-0.2398101 -0.0441,-0.044059 -0.0104,-0.1231899 0.0749,-0.1758917 0.20907,-0.1292105 0.1862,0.3261574 -0.0434,0.864769 l -0.18533,0.4347247 z m 60.15884,-0.8160824 c -0.27958,-0.8205488 -0.27634,-0.781355 -0.0648,-0.781355 0.0933,0 0.13095,0.038618 0.0838,0.085809 -0.0472,0.047183 0.008,0.3517115 0.12267,0.6767044 0.11467,0.3249872 0.18243,0.616933 0.15061,0.6487663 -0.0319,0.031864 -0.16334,-0.2516315 -0.29224,-0.6299246 z m -3.65786,-2.1924092 c -0.69203,-1.5177752 -0.72855,-1.614576 -0.53691,-1.4230839 0.19239,0.1922502 1.24166,2.5491906 1.16775,2.6230961 -0.0316,0.031643 -0.3155,-0.5083828 -0.63084,-1.2000122 z m -5.13288,-1.0305967 c -0.25009,-0.3897351 -0.45472,-0.8130116 -0.45472,-0.9406066 10e-6,-0.127601 -0.32701,-0.6394657 -0.72669,-1.1374827 -0.75383,-0.939284 -0.81928,-1.074158 -0.59007,-1.215821 0.33621,-0.207791 2.04347,1.836528 2.04347,2.4469067 0,0.135704 0.10696,0.4099831 0.2377,0.6095062 0.13073,0.1995287 0.20359,0.3968766 0.16192,0.4385536 -0.0417,0.041692 -0.21939,-0.1565778 -0.3949,-0.4405584 -0.46476,-0.7520104 -0.53043,-0.6323464 -0.0878,0.1597416 0.50815,0.9091918 0.37838,0.9639205 -0.18901,0.079706 z m 6.41078,-0.4204531 c -0.15835,-0.2244287 -0.46241,-0.7677695 -0.6757,-1.2074272 l -0.38781,-0.799366 0.36279,0.430406 c 0.44366,0.526356 1.15771,1.8153516 1.05984,1.9132179 -0.0391,0.039167 -0.20077,-0.112429 -0.35912,-0.3368307 z m 0.76555,-0.3339025 c -0.14456,-0.32056 -0.31831,-0.5828417 -0.3861,-0.5828417 -0.0678,0 -0.12327,-0.124234 -0.12327,-0.276076 0,-0.151842 -0.22891,-0.616235 -0.50868,-1.031987 -0.27979,-0.415751 -0.50871,-0.799559 -0.50871,-0.852909 -10e-6,-0.05334 -0.17208,-0.350256 -0.38242,-0.659796 -0.21033,-0.309541 -0.31227,-0.51944 -0.22652,-0.466437 0.0858,0.05301 0.38928,0.480533 0.67452,0.950073 0.28523,0.46954 0.61607,0.891114 0.73521,0.936828 0.11912,0.04571 0.2166,0.252538 0.2166,0.459608 0,0.260058 0.0562,0.344159 0.18168,0.27194 0.0999,-0.0575 0.13653,-0.05439 0.0814,0.007 -0.0552,0.06131 0.0602,0.474281 0.25623,0.9176837 0.1961,0.4434041 0.33322,0.8295027 0.30472,0.8579963 -0.0285,0.028512 -0.17008,-0.2104658 -0.31462,-0.5310313 z m -58.79082,0.1541712 c 0,-0.2534652 0.47052,-1.0276959 0.62455,-1.0277009 0.0692,5e-6 -0.0216,0.24527 -0.20192,0.5450327 -0.41882,0.6964187 -0.42262,0.7007861 -0.42264,0.4826682 z m 3.05796,0.087715 c -0.009,-0.1940292 1.09989,-2.0170819 1.55334,-2.5527989 0.39696,-0.468985 0.41661,-0.475973 0.40866,-0.145344 -0.008,0.330244 -0.80509,1.670464 -0.80508,1.353574 -3e-5,-0.08323 0.096,-0.278252 0.21339,-0.433429 0.24111,-0.318741 0.29026,-0.5591 0.089,-0.434664 -0.10776,0.06659 -0.8837,1.343906 -0.8837,1.454692 -2e-5,0.01659 0.089,0.03016 0.19782,0.03016 0.1088,2.2e-5 0.19056,-0.101969 0.18171,-0.226604 -0.009,-0.124641 0.0622,-0.228192 0.15798,-0.230131 0.25124,-0.0049 1.36094,-1.54038 1.25177,-1.731889 -0.0505,-0.08858 -0.0376,-0.111841 0.0286,-0.05175 0.0663,0.06014 0.25152,-0.0055 0.41164,-0.145338 0.37756,-0.330272 0.21368,-0.02467 -0.40903,0.762727 -0.25287,0.319741 -0.6704,0.891175 -0.92785,1.26983 -0.25744,0.3786607 -0.52632,0.6729737 -0.5975,0.6540337 -0.0712,-0.01895 -0.23572,0.09636 -0.36568,0.2562399 -0.22979,0.2826954 -0.23175,0.2813547 -0.0712,-0.04878 0.24071,-0.494814 0.0591,-0.5596666 -0.20457,-0.07307 -0.12295,0.2269052 -0.22617,0.3585489 -0.22941,0.292538 z m 51.41055,-0.7157222 c -0.19229,-0.3397307 -0.59231,-0.9937637 -0.88894,-1.4534007 -0.29661,-0.459641 -0.50327,-0.835709 -0.45924,-0.835709 0.0948,-6e-6 1.23786,1.756476 1.58435,2.4344487 0.35166,0.6880967 0.17352,0.5784583 -0.23617,-0.145339 z m 5.1602,-0.7267027 c -0.25256,-0.499604 -0.69385,-1.333496 -0.98064,-1.85309 -0.28679,-0.519588 -0.41838,-0.813902 -0.29243,-0.654028 0.12595,0.159873 0.27223,0.290682 0.32506,0.290682 0.0528,-5e-6 0.1049,0.0981 0.11569,0.218008 0.0292,0.324756 1.04016,2.081155 1.11608,1.93913 0.0358,-0.06743 0.0455,-0.04065 0.0212,0.05929 -0.0244,0.09992 0.003,0.181726 0.0602,0.181781 0.0574,5.4e-5 0.11388,0.163564 0.1254,0.363351 0.0115,0.1997867 0.009,0.3632477 -0.005,0.3632477 -0.0143,0 -0.23275,-0.4087697 -0.48531,-0.9083797 z m -4.9022,-0.699984 c -0.29122,-0.496885 -0.9225,-1.456428 -1.40287,-2.132325 -0.96907,-1.36356 -0.92859,-1.511134 0.0586,-0.213492 0.75686,0.994907 2.03368,3.089312 1.94029,3.182708 -0.0366,0.03659 -0.3048,-0.340006 -0.59601,-0.836891 z m 2.08433,0.04598 c -0.009,-0.05997 -0.009,-0.15806 0,-0.218013 0.009,-0.05997 -0.0465,-0.109006 -0.1244,-0.109006 -0.0779,0 -0.24413,-0.212558 -0.36943,-0.472353 l -0.22783,-0.472358 0.41788,0.474187 c 0.22984,0.2608 0.41788,0.571467 0.41788,0.690366 0,0.222661 -0.0835,0.301081 -0.11409,0.107189 z m -52.4797,-0.937448 c 0.0959,-0.09593 0.17442,-0.23981 0.1744,-0.319753 0,-0.08075 -0.0775,-0.06783 -0.17441,0.02906 -0.0959,0.09593 -0.23923,0.174409 -0.31846,0.174409 -0.0792,-6e-6 -0.0178,-0.09231 0.13645,-0.205132 0.15429,-0.112819 0.32176,-0.179638 0.37217,-0.148492 0.0504,0.03104 0.40921,-0.350717 0.79736,-0.848591 0.77965,-1.000082 0.70856,-0.918036 1.74363,-2.01232 0.40701,-0.430281 0.75583,-0.847737 0.77515,-0.927676 0.0193,-0.07994 0.0729,-0.178044 0.11902,-0.217998 0.0461,-0.04 0.0368,0.0091 -0.0207,0.109018 -0.1695,0.294532 0.0526,0.210169 0.61839,-0.234943 0.29128,-0.229138 0.69311,-0.466052 0.89296,-0.52648 0.4725,-0.142865 0.74389,-0.36491 0.64384,-0.526779 -0.0438,-0.07088 0.0262,-0.128873 0.15553,-0.12887 0.12933,0 0.19476,0.06538 0.14532,0.145365 -0.13349,0.21606 -0.001,0.179044 0.57428,-0.160421 0.78283,-0.461875 0.52222,-0.01516 -0.52023,0.891183 -0.47788,0.415646 -0.83448,0.790123 -0.79243,0.832168 0.042,0.04203 0.32344,-0.146159 0.62531,-0.418243 0.68277,-0.615377 2.6472,-1.92907 2.74235,-1.833922 0.0387,0.03869 -0.26366,0.28468 -0.67188,0.546638 -0.44761,0.287229 -0.67713,0.516529 -0.57822,0.577663 0.10416,0.06458 0.0152,0.197172 -0.24432,0.364286 l -0.40836,0.262908 0.29068,-0.334413 c 0.43637,-0.502005 0.0398,-0.301266 -0.85878,0.434757 -0.80309,0.657782 -1.03028,0.985934 -0.55829,0.806395 0.1399,-0.05323 -0.004,0.168696 -0.32017,0.493134 -0.40136,0.412098 -0.69705,0.589895 -0.98105,0.58989 -0.26816,5e-6 -0.40652,0.07575 -0.40652,0.222573 0,0.12242 -0.11445,0.262496 -0.25434,0.311287 -0.13989,0.04878 -0.53232,0.354678 -0.87205,0.679731 -0.90042,0.861533 -0.7558,0.508366 0.2038,-0.497682 0.45182,-0.473687 0.78632,-0.861247 0.74332,-0.861247 -0.28579,5e-6 -0.95297,0.531366 -1.92368,1.532052 -0.98643,1.016902 -1.08489,1.086468 -0.81444,0.575383 l 0.30763,-0.581376 -0.59968,0.690366 c -0.32982,0.379704 -0.67135,0.690371 -0.75896,0.690371 -0.1071,1.7e-5 -0.10217,-0.05709 0.0151,-0.174408 z m 47.72248,-1.751345 c -0.0999,-0.09993 -0.23041,-0.181677 -0.28998,-0.181677 -0.0596,6e-6 -1.0537,-0.945216 -2.20918,-2.100479 -1.15548,-1.15526 -1.76402,-1.825018 -1.35234,-1.488349 0.41169,0.336665 1.28992,1.183776 1.95161,1.882461 0.66169,0.698688 1.27319,1.258366 1.35891,1.243732 0.0857,-0.01461 0.30796,0.165218 0.4939,0.399684 0.34627,0.436647 0.37182,0.569362 0.0471,0.244628 z m -5.8758,-2.099579 c -0.5418,-0.446177 -0.95212,-0.844201 -0.91182,-0.884506 0.0694,-0.06942 1.96958,1.524345 1.96958,1.651979 3e-5,0.100053 -0.0362,0.07374 -1.05776,-0.767473 z m 5.854,-0.117247 c -1.47825,-1.707119 -4.21806,-4.025536 -6.17696,-5.226916 -0.6395,-0.392204 -1.35893,-0.857209 -1.59874,-1.033359 -0.23982,-0.176149 -0.8448,-0.524632 -1.3444,-0.774411 -0.99058,-0.495234 -1.22779,-0.732653 -0.37672,-0.377059 2.37967,0.9943 5.54183,3.239607 8.16305,5.796238 1.31366,1.281281 2.45128,2.56715 2.25569,2.549621 -0.0674,-0.0061 -0.48227,-0.426396 -0.92192,-0.934119 z m 3.53259,-0.828457 c -0.62396,-0.65571 -1.72966,-1.816616 -2.45712,-2.579787 -1.14817,-1.204544 -1.82303,-2.105979 -1.36448,-1.822588 0.079,0.04885 0.14367,0.169768 0.14367,0.268733 0,0.254845 1.05718,1.256311 1.3262,1.25631 0.21916,2e-6 1.14458,1.025786 1.14458,1.268698 10e-6,0.06766 0.20124,0.349461 0.44719,0.626217 0.31225,0.35136 0.42195,0.415488 0.36351,0.212535 -0.0622,-0.216111 0.0109,-0.17883 0.28507,0.145346 0.52127,0.616378 1.38694,1.816751 1.31018,1.816751 -0.0354,-5e-6 -0.57485,-0.536489 -1.19882,-1.192198 z m -9.01919,-1.873372 c -0.41967,-0.317955 -0.76303,-0.612581 -0.76303,-0.654721 0,-0.09955 1.27337,0.814567 1.47776,1.060848 0.24444,0.294533 0.107,0.216438 -0.71473,-0.406127 z m 4.97791,-1.823256 c -0.83623,-0.796889 -0.99351,-0.983466 -0.43603,-0.517247 0.84628,0.707718 1.94028,1.777079 1.80894,1.768171 -0.0357,-0.0022 -0.65348,-0.565338 -1.37291,-1.250924 z m -34.95434,-0.164179 c 0,-0.161809 2.75052,-1.110679 2.87082,-0.990378 0.043,0.04303 -0.0786,0.146088 -0.26993,0.229302 -0.29082,0.126247 -0.25372,0.136755 0.22542,0.06386 0.31544,-0.04801 0.86669,-0.114736 1.225,-0.14833 0.35831,-0.03356 0.88506,-0.125957 1.17055,-0.205261 0.65887,-0.183035 0.88244,-0.183154 0.88243,-4.78e-4 2e-5,0.07995 -0.11444,0.145927 -0.25434,0.146638 -0.13989,5.5e-4 -0.90838,0.228268 -1.70775,0.505684 -1.62786,0.564927 -1.89208,0.601171 -2.19251,0.300745 -0.18265,-0.18265 -0.17663,-0.228886 0.0467,-0.358929 0.141,-0.08211 0.21747,-0.151268 0.16993,-0.153701 -0.0949,-0.0049 -1.50645,0.470968 -1.91198,0.644531 -0.14334,0.06134 -0.25435,0.04663 -0.25435,-0.03368 z m 27.35976,-0.968651 c -0.57986,-0.339155 -1.10308,-0.671085 -1.16272,-0.737613 -0.16581,-0.184926 1.89632,0.954802 2.13912,1.182285 0.31307,0.293311 0.18769,0.236213 -0.9764,-0.444672 z m 7.12843,0.209678 c -0.0416,-0.158976 -0.12101,-0.260974 -0.17654,-0.226657 -0.14764,0.09125 -0.95606,-0.587589 -0.95605,-0.802805 -10e-6,-0.100842 -0.0909,-0.213626 -0.20191,-0.250644 -0.1364,-0.04548 -0.1637,-0.0055 -0.0841,0.123279 0.0648,0.104809 -0.12234,0.0074 -0.41579,-0.21641 -0.29347,-0.22383 -0.53357,-0.428573 -0.53357,-0.454974 0,-0.07602 1.07067,0.387752 1.27013,0.550169 0.099,0.08065 0.147,0.20015 0.10657,0.265563 -0.0875,0.141678 0.51366,0.591419 0.66528,0.497703 0.0579,-0.03575 0.16785,0.01604 0.24443,0.115068 0.18576,0.240213 0.34132,0.688767 0.23887,0.688766 -0.0449,1.1e-5 -0.11572,-0.130072 -0.1573,-0.289045 z m -9.67134,-0.446972 c -0.45963,-0.237252 -0.8357,-0.457749 -0.8357,-0.490012 0,-0.115009 1.09649,0.374949 1.4534,0.649438 0.4955,0.381087 0.36346,0.347009 -0.6177,-0.159424 z m -16.8958,0.185334 c 0.0799,-0.07624 0.57046,-0.174418 1.09005,-0.218215 1.01538,-0.08559 0.68826,0.0747 -0.51155,0.250641 -0.46033,0.06751 -0.67093,0.0557 -0.5785,-0.03241 z m -4.35069,-0.19142 c 0.0352,-0.05663 0.7994,-0.333898 1.69854,-0.615905 2.59622,-0.814303 4.05988,-0.913039 8.8291,-0.595593 1.06454,0.07086 3.92059,0.589127 4.05464,0.735773 0.0482,0.05268 -0.33755,0.04988 -0.85714,-0.0062 -0.5196,-0.05613 -1.69685,-0.160928 -2.61613,-0.232879 -0.91927,-0.07195 -2.20308,-0.174797 -2.85292,-0.228538 -1.29566,-0.10715 -5.1598,0.315698 -7.20268,0.788175 -0.61444,0.142112 -1.08847,0.211962 -1.05342,0.155221 z m 20.19278,-0.880989 c -0.6395,-0.238927 -1.93121,-0.699139 -2.87048,-1.022683 -0.93926,-0.323547 -1.70774,-0.652441 -1.70774,-0.730877 2e-5,-0.07892 0.11356,-0.09572 0.25434,-0.03758 0.1399,0.05777 0.49981,0.163242 0.79982,0.234394 0.77856,0.184638 4.21037,1.537705 4.54834,1.793275 0.3707,0.280333 0.34033,0.27332 -1.02428,-0.236531 z m -21.47403,65.175624 c -0.5341,-0.219129 -0.72324,-0.469261 -0.36335,-0.480538 0.2776,-0.0087 -0.84084,-0.515463 -1.23539,-0.559727 -0.13524,-0.01516 -0.13079,-0.05262 0.0174,-0.146531 0.16063,-0.101761 0.14656,-0.155539 -0.0727,-0.278229 -0.14943,-0.08374 -0.26275,-0.205741 -0.25168,-0.271324 0.0273,-0.161906 -1.67878,-0.834447 -1.80263,-0.710598 -0.0542,0.05417 -0.0164,0.149206 0.0839,0.211202 0.10224,0.06347 0.14033,0.222292 0.0866,0.362434 -0.0605,0.157566 0.005,0.330536 0.17674,0.468755 0.25814,0.207455 0.25578,0.210916 -0.0449,0.06568 -0.40119,-0.193826 -0.62725,-0.195392 -0.62725,-0.0044 1e-5,0.08194 0.19515,0.188004 0.43365,0.235718 0.23852,0.04768 0.40146,0.13885 0.36207,0.202566 -0.0393,0.06373 0.14155,0.161395 0.40206,0.217096 0.2605,0.05569 0.54823,0.161202 0.63942,0.234448 0.0912,0.07326 0.38551,0.161428 0.65403,0.195958 0.26853,0.03455 0.74985,0.158649 1.0696,0.275824 0.77134,0.282657 1.16843,0.267243 0.47236,-0.01835 z m 0.87608,-1.224583 c -0.12422,-0.07882 -0.0654,-0.120059 0.17764,-0.124509 0.34071,-0.0062 0.34572,-0.01687 0.0804,-0.170788 -0.21177,-0.122861 -0.29708,-0.121723 -0.33912,0.0044 -0.0836,0.25061 -0.38264,0.204869 -0.79832,-0.122113 -0.20327,-0.159851 -0.4106,-0.29066 -0.46074,-0.290682 -0.0502,-3.3e-5 -0.0212,0.130792 0.0644,0.290682 0.0856,0.159874 0.25523,0.290677 0.37704,0.290677 0.12182,0 0.19141,0.04905 0.15466,0.109018 -0.0366,0.06006 0.15742,0.113978 0.43148,0.120081 0.3071,0.0068 0.42703,-0.03417 0.31258,-0.106782 z m -1.93942,-0.283218 c -0.0678,-0.109616 0.005,-0.12782 0.22764,-0.0571 0.22281,0.07073 0.29538,0.05252 0.22763,-0.05709 -0.11994,-0.194052 -0.75872,-0.214509 -0.874,-0.02801 -0.0453,0.07304 10e-6,0.166048 0.10043,0.206532 0.31144,0.125579 0.42187,0.103244 0.3183,-0.06435 z m 34.92717,-2.33238 c 2.01002,-1.35331 3.69338,-2.803091 5.12093,-4.410372 l 0.64543,-0.726703 -0.63112,0.581365 c -0.34713,0.319746 -0.9659,0.905687 -1.37505,1.302102 -0.70067,0.678835 -1.66255,1.399414 -3.86874,2.898172 -0.96725,0.657099 -1.7253,1.385423 -1.25356,1.204396 0.12941,-0.04966 0.74235,-0.431687 1.36211,-0.84896 z M 545.61384,6.4008678 c 10e-4,-1.0325135 -0.0338,-1.8413013 -0.0778,-1.7972955 -0.044,0.044 -0.10851,0.986904 -0.14334,2.0953222 -0.0419,1.3339456 -0.0156,1.9416005 0.0778,1.7973002 0.0776,-0.1199104 0.14212,-1.0628025 0.14334,-2.0953269 z M 476.79772,0.50247707 c 0.51762,-3.00386077 0.69044,-3.76362807 1.19017,-5.23225157 0.28561,-0.8393356 0.5762,-1.6364722 0.64576,-1.7714064 0.0981,-0.1903389 0.0648,-0.2406895 -0.14853,-0.2246163 -0.15125,0.011374 -0.24563,0.097251 -0.20973,0.1908003 0.0359,0.093543 -0.0994,0.5753494 -0.30068,1.070675 -0.43418,1.0685218 -0.95925,2.9273698 -0.95925,3.3958992 0,0.1829667 -0.0579,0.3947945 -0.1286,0.4707377 -0.35928,0.3857418 -0.85531,6.9895445 -0.63469,8.4497292 0.0761,0.5038887 0.13391,-0.092928 0.20665,-2.1347027 0.0555,-1.5587656 0.20805,-3.4554604 0.3389,-4.21486443 z M 544.9664,3.5546229 c -0.0398,-0.2797784 -0.1097,-1.0646159 -0.15542,-1.7440833 -0.2399,-3.5647417 -1.59784,-8.9900787 -2.8375,-11.3365439 -0.35221,-0.6666627 -0.36239,-0.294829 -0.0111,0.4054792 0.30763,0.6133023 1.16376,3.3133791 1.59956,5.044785 0.48778,1.9379056 1.05439,5.5687356 1.14539,7.3396861 0.065,1.2645621 0.11576,1.565275 0.20862,1.2353933 0.0675,-0.2398156 0.0902,-0.6649325 0.0504,-0.9447164 z m 3.13478,-0.445502 c -0.23137,-0.7722691 -0.35598,-0.6476619 -0.2251,0.2250993 0.0706,0.4708641 0.14807,0.6319185 0.25332,0.5266802 0.10523,-0.1052547 0.0966,-0.3351386 -0.0282,-0.7517795 z M 545.3895,0.96443666 c -0.23317,-2.21562306 -0.64587,-4.18544346 -1.38982,-6.63356116 -0.6984,-2.2982622 -1.17162,-3.6237436 -1.66923,-4.6756155 -0.60852,-1.286314 -0.56041,-0.790418 0.0673,0.6931617 1.15858,2.7384638 2.46245,7.3938607 2.53017,9.03379898 0.0188,0.45491735 0.0754,0.82767333 0.12588,0.82834898 0.0504,5.4934e-4 0.13879,0.62905108 0.19632,1.39638734 0.0576,0.7673308 0.15483,1.3396098 0.21624,1.2717251 0.0614,-0.06789 0.0269,-0.929297 -0.0768,-1.91424544 z m -1.22683,-0.25252677 c 0,-0.30783213 -0.0588,-0.48089463 -0.14535,-0.42744055 -0.24095,0.14891453 -0.15933,0.94471096 0.0969,0.94471096 0.0266,0 0.0485,-0.23276788 0.0485,-0.51727041 z m 2.97221,-2.33651699 c -0.35026,-1.9453153 -0.43959,-1.5758388 -0.1167,0.4827458 0.14811,0.94435386 0.29059,1.53100313 0.31661,1.30365706 0.026,-0.22734613 -0.0639,-1.03122848 -0.19991,-1.78640286 z m -0.99184,1.38275876 c -0.046,-0.23012008 -0.0338,-0.41839328 0.027,-0.41839328 0.14603,0 -0.0369,-1.46294808 -0.30897,-2.47078698 -0.47908,-1.7747746 -0.67488,-2.4493531 -1.03306,-3.5590735 -0.4331,-1.3418734 -0.48773,-1.8334079 -0.0743,-0.6688382 0.31881,0.8981393 0.49768,1.1647949 0.34979,0.5214343 -0.18956,-0.8245318 -1.41654,-3.775504 -1.63677,-3.936547 -0.13434,-0.09824 -0.17467,-0.235448 -0.1032,-0.351097 0.0749,-0.120921 0.0603,-0.154583 -0.04,-0.09261 -0.16411,0.10142 -0.40714,-0.423024 -0.34521,-0.744941 0.0472,-0.24516 -0.43754,-1.054332 -0.57913,-0.96682 -0.0612,0.03785 -0.19078,-0.08016 -0.28781,-0.26225 -0.16487,-0.309403 -0.15922,-0.31689 0.0862,-0.114308 0.22884,0.188861 0.22253,0.138093 -0.049,-0.394141 -0.17143,-0.336012 -0.44026,-0.730729 -0.59743,-0.87715 -0.15716,-0.146415 -0.46776,-0.623612 -0.69024,-1.060441 -0.39825,-0.781952 -1.90685,-3.044642 -2.02996,-3.04464 -0.0743,0 0.0457,0.21688 0.41721,0.753779 0.14858,0.214732 0.49374,0.842833 0.76701,1.395782 0.27327,0.552942 0.66421,1.204229 0.86874,1.447308 0.20454,0.243073 0.37188,0.513475 0.37189,0.600899 -10e-6,0.14207 1.3041,2.959052 1.62273,3.505267 0.28392,0.4867 0.58462,1.2323717 0.61612,1.5278879 0.0184,0.1726832 0.18015,0.5512894 0.35941,0.8413403 0.17926,0.2900503 0.35783,0.7032911 0.39682,0.9183104 0.039,0.2150136 0.12454,0.4952756 0.19011,0.6228001 0.11016,0.2142448 0.49527,1.6426681 0.53274,1.9759444 0.0201,0.1789241 0.18334,0.6233663 0.3819,1.0398592 0.0821,0.1722325 0.1069,0.3817868 0.055,0.465673 -0.11245,0.1819343 0.0502,0.9158341 0.18449,0.8327388 0.0514,-0.031805 0.0883,0.2978016 0.082,0.732471 -0.007,0.4834709 0.0368,0.7179196 0.113,0.6038648 0.079,-0.1181967 0.1135,-2.911e-4 0.0944,0.3222517 -0.056,0.94535908 0.0144,1.47532978 0.18211,1.37168453 0.091,-0.0562334 0.12386,-0.27937203 0.0763,-0.51727045 z m -2.33886,-1.54477996 c -0.12711,-0.6917061 -0.36821,-0.9662001 -0.36821,-0.4192007 0,0.4000625 0.22504,0.9642227 0.38463,0.9642227 0.046,5.5e-6 0.0387,-0.2452594 -0.0164,-0.545022 z m 2.68047,-1.4418767 c -0.28704,-1.3959656 -1.1372,-4.2055932 -1.69203,-5.5918345 -0.57241,-1.4301645 -0.83052,-1.6819555 -0.33106,-0.3229547 0.66549,1.8107594 1.45195,4.3790227 1.5963,5.2128926 0.15985,0.9234858 0.42539,1.7247264 0.53518,1.6149344 0.0362,-0.0362 -0.0126,-0.4470621 -0.10839,-0.9130378 z m -3.26907,-0.9741934 c -0.13675,-0.4897336 -0.34362,-1.0753667 -0.45971,-1.3014107 -0.18817,-0.3663456 -0.26045,-0.6809727 -0.32294,-1.4057698 -0.0167,-0.1937828 -0.0345,-0.1937828 -0.15969,0 -0.12394,0.1918273 -0.14116,0.1907833 -0.14311,-0.00857 -10e-4,-0.1246127 -0.0972,-0.3535244 -0.21319,-0.5086902 -0.11604,-0.155171 0.12034,0.7316255 0.52528,1.9706498 0.96646,2.9572417 0.88095,2.7414752 0.95768,2.4164984 0.0354,-0.1497825 -0.0476,-0.672991 -0.18432,-1.1627246 z M 476.0864,-7.9873816 c 0.11344,-0.3128478 0.27878,-0.6562153 0.36744,-0.7630353 0.11605,-0.1398123 0.11656,-0.1942114 0.002,-0.1942278 -0.0877,0 -0.25996,0.1944588 -0.38287,0.4321431 -0.26713,0.5165342 -0.95022,2.3837688 -0.93834,2.5649229 0.0102,0.1547701 0.66516,-1.2486591 0.95199,-2.0398029 z m 2.29715,-2.5322274 c 0.6517,-1.194926 2.62543,-3.995846 3.70377,-5.256025 1.18235,-1.381741 3.73217,-3.829936 5.5717,-5.349643 0.53814,-0.444571 0.94848,-0.838265 0.91189,-0.874864 -0.0366,-0.0366 -0.16336,0.01378 -0.2817,0.112018 -0.11835,0.0982 -0.27624,0.140818 -0.35089,0.09468 -0.34646,-0.214107 -4.41465,3.345381 -6.04729,5.291114 -1.31832,1.571137 -3.33527,4.719513 -4.17478,6.5166657 -0.39817,0.8523431 -0.88224,1.8832529 -1.07572,2.2909018 -0.19349,0.4076483 -0.34782,0.8654773 -0.34299,1.0173855 0.005,0.1519081 0.41667,-0.5413473 0.91515,-1.5405778 0.4985,-0.999209 1.02538,-2.0349582 1.17083,-2.3016682 z m 1.1657,1.6966273 c 0.0498,-0.1868174 -0.10437,0.020047 -0.34269,0.4597018 -0.2383,0.4396627 -0.43263,0.9301759 -0.43179,1.090055 0.002,0.2931925 0.6049,-0.9141797 0.77448,-1.5497568 z m 62.07305,0.3506952 c -0.0554,-0.1398892 -0.12382,-0.4275118 -0.15211,-0.6391586 -0.0928,-0.6942602 -2.70415,-5.6070979 -3.11553,-5.8613559 -0.19755,-0.122086 0.43236,1.107546 0.84425,1.648085 0.20487,0.268858 0.37543,0.6321 0.37902,0.807206 0.008,0.387829 1.84562,4.2976403 2.02049,4.2987664 0.0685,4.399e-4 0.0793,-0.1136479 0.0239,-0.2535429 z m -64.4155,-2.1074285 c 0.36091,-0.739421 0.85795,-1.568731 1.10449,-1.842928 0.24654,-0.274187 0.44827,-0.556019 0.44827,-0.626277 2e-5,-0.07024 0.0609,-0.0901 0.1353,-0.04411 0.0743,0.04609 0.18261,0.007 0.24046,-0.08655 0.0658,-0.106221 0.0422,-0.13122 -0.0626,-0.06647 -0.42263,0.261207 -0.10634,-0.228378 0.41356,-0.640163 0.31974,-0.253236 0.58136,-0.527593 0.58136,-0.609672 0,-0.08207 -0.1345,0.0049 -0.29889,0.193888 l -0.29889,0.343114 0.17286,-0.363334 c 0.26437,-0.555789 0.459,-0.761393 0.56245,-0.594038 0.0507,0.08208 0.17836,0.0055 0.29052,-0.174793 0.18272,-0.293407 0.17926,-0.303877 -0.0413,-0.12175 -0.34462,0.28482 -0.29975,-0.0289 0.0493,-0.344807 0.15988,-0.144685 0.29067,-0.210087 0.29067,-0.145344 -10e-6,0.06474 0.13082,-5.5e-4 0.29069,-0.145333 0.15987,-0.144685 0.29068,-0.375726 0.29071,-0.51341 -1e-5,-0.137696 0.11445,-0.340118 0.25456,-0.449705 0.23052,-0.180781 0.23566,-0.175644 0.0548,0.05489 -0.12373,0.157748 -0.13948,0.254335 -0.0414,0.254346 0.0869,4e-6 0.23372,-0.14716 0.32623,-0.327014 0.0925,-0.179873 0.33087,-0.501567 0.52968,-0.714889 0.19881,-0.213333 0.32291,-0.450298 0.27575,-0.526601 -0.10657,-0.172428 1.41249,-1.62898 1.69889,-1.628978 0.11491,10e-7 0.29869,-0.108486 0.40839,-0.241073 0.10973,-0.132586 0.7227,-0.658172 1.3622,-1.167965 0.63949,-0.509786 1.40564,-1.137087 1.70253,-1.394 0.2969,-0.256914 0.91823,-0.674701 1.38074,-0.928414 0.4625,-0.253714 1.14923,-0.629695 1.52606,-0.835514 0.37683,-0.205811 0.75521,-0.505102 0.84082,-0.665084 0.20624,-0.38535 -0.0627,-0.390617 -0.3906,-0.0076 -0.13338,0.155776 -0.30059,0.247337 -0.37159,0.203455 -0.0709,-0.0441 -0.20761,0.02758 -0.30357,0.158843 -0.0959,0.131243 -0.31165,0.317643 -0.47932,0.414241 -1.01088,0.582402 -1.51649,0.827517 -1.6388,0.794483 -0.25851,-0.06983 -3.95448,2.796478 -3.84709,2.983498 0.0557,0.09706 0.0482,0.128323 -0.0168,0.06946 -0.32053,-0.290195 -4.46589,4.2428 -5.81306,6.35665 -1.08838,1.70779 -1.85046,3.056437 -1.88892,3.342812 -0.0215,0.159885 -0.14479,0.486899 -0.27404,0.7267087 -0.23152,0.4295716 -0.29279,0.6540288 -0.17852,0.6540338 0.032,2.78e-5 0.35367,-0.6049028 0.71446,-1.3443945 z m 63.82726,-1.071126 c -0.56342,-1.087929 -1.12283,-1.959811 -0.92136,-1.435998 0.20771,0.540012 1.46512,2.851299 1.52088,2.795548 0.0379,-0.0379 -0.23189,-0.649689 -0.59952,-1.35955 z m 1.32438,-2.355979 c -0.2037,-0.401974 -0.44693,-0.778186 -0.54051,-0.836023 -0.0936,-0.05783 0.0496,0.294544 0.31816,0.783069 0.58121,1.057211 0.75184,1.097855 0.22235,0.05295 z m -2.62516,0.01159 c -0.2079,-0.379704 -0.51405,-0.853875 -0.68035,-1.053712 l -0.30235,-0.363351 0.26417,0.436015 c 0.1453,0.23981 0.42026,0.713981 0.61104,1.053717 0.19077,0.339731 0.37805,0.617703 0.41617,0.617697 0.0381,0 -0.10078,-0.310666 -0.30868,-0.690366 z m -56.0684,-0.605392 c -0.0201,-0.123086 0.042,-0.225264 0.13799,-0.227038 0.0959,-0.0016 0.25943,-0.09461 0.36335,-0.206258 0.10955,-0.117675 0.11778,-0.163136 0.0197,-0.108106 -0.0931,0.05218 -0.19567,0.01565 -0.22794,-0.08117 -0.075,-0.224983 -0.76121,0.690905 -0.76367,1.019281 -10e-4,0.134347 -0.0836,0.252626 -0.18352,0.262811 -0.32304,0.03296 -0.34569,0.0524 -0.24698,0.212141 0.13142,0.212651 0.94891,-0.578119 0.90111,-0.871652 z m 57.72078,-1.138691 c -0.67154,-1.109402 -1.70129,-2.594243 -1.93177,-2.78552 -0.13071,-0.108485 0.28715,0.59651 0.92861,1.56665 0.64143,0.970144 1.20379,1.763892 1.24967,1.763892 0.0459,0 -0.0651,-0.245254 -0.24651,-0.545022 z m -3.43509,0.204873 c 0.0869,0.05372 0.0504,-0.05604 -0.0812,-0.243902 -0.25086,-0.35813 -0.93497,-0.59041 -0.74246,-0.252087 0.22984,0.403918 0.56307,0.705933 0.61314,0.555706 0.0288,-0.08656 0.12359,-0.113434 0.21052,-0.05972 z m -2.56926,-2.847593 c 0.13529,0.112281 0.20627,0.118014 0.20627,0.01664 0,-0.248307 -0.28711,-0.355605 -0.49341,-0.184395 -0.14599,0.121165 -0.3632,-0.04147 -0.93791,-0.702219 -0.41136,-0.472946 -0.67554,-0.884034 -0.58707,-0.91352 0.10021,-0.0334 0.0727,-0.1268 -0.0731,-0.247775 -0.19571,-0.162419 -0.23448,-0.161547 -0.23719,0.0055 -0.002,0.11467 -0.1212,0.04592 -0.28073,-0.161709 -0.15263,-0.198642 -0.31062,-0.328069 -0.35108,-0.287606 -0.0405,0.04048 0.46193,0.669235 1.11645,1.397271 0.90085,1.002055 1.21935,1.273051 1.31075,1.115255 0.0941,-0.162368 0.16633,-0.170604 0.32702,-0.03724 z m 0.85086,-0.475527 c -0.31455,-0.333182 -0.65367,-0.696368 -0.75359,-0.807085 -0.0999,-0.11071 -0.18168,-0.159281 -0.18167,-0.107934 0,0.151701 1.36891,1.659082 1.44111,1.586887 0.0363,-0.03638 -0.19129,-0.338682 -0.50585,-0.671872 z m -53.10746,-1.815416 c 0.43692,-0.455301 0.66359,-0.73679 0.50372,-0.625542 -0.71723,0.499083 -1.5967,1.453343 -1.33943,1.453345 0.0227,3.2e-5 0.39878,-0.372515 0.83571,-0.827803 z m 0.20631,-0.559842 c 0.55586,-0.51579 0.93398,-0.937805 0.84028,-0.937801 -0.0937,-2e-6 -0.13276,-0.09808 -0.0867,-0.21801 0.12991,-0.338533 0.006,-0.263354 -0.53662,0.325636 -0.27547,0.299004 -0.33314,0.397114 -0.12835,0.2179 0.205,-0.179105 0.43391,-0.32507 0.50869,-0.324367 0.0748,5.5e-4 -0.32185,0.422794 -0.8814,0.937983 -0.55957,0.515192 -0.95199,0.936632 -0.87205,0.936528 0.0799,-9.3e-5 0.60013,-0.422196 1.15599,-0.937984 z m 45.24147,-0.317684 c -0.2931,-0.293098 -0.58414,-0.481036 -0.64676,-0.417637 -0.0626,0.06341 0.14623,0.334184 0.46411,0.601724 0.7481,0.629649 0.87176,0.505025 0.18265,-0.184087 z m -0.88172,-0.554339 c 0,-0.205785 -0.67442,-0.690871 -3.28658,-2.363901 -0.5153,-0.33004 -0.96767,-0.569311 -1.00527,-0.531708 -0.0376,0.03762 -0.0411,0.08695 -0.008,0.109631 0.0333,0.02269 0.92668,0.620417 1.98528,1.328262 1.0586,0.707845 1.99859,1.376006 2.0889,1.484805 0.20737,0.249885 0.22546,0.247709 0.22546,-0.02708 z m -35.48869,-0.935518 c 0.0486,-0.07868 0.29775,-0.20358 0.55362,-0.277575 0.28401,-0.08214 0.35199,-0.137263 0.17451,-0.141547 -0.15987,-0.0039 -0.51959,0.118304 -0.79937,0.271478 -0.30106,0.164822 -0.40837,0.280983 -0.26292,0.284594 0.13517,0.0033 0.28555,-0.05828 0.33416,-0.13695 z m 14.88508,-3.361987 c 0.44721,-0.0093 0.6823,-0.04834 0.52243,-0.08678 -0.15988,-0.03845 -0.35283,-0.128976 -0.42876,-0.201148 -0.18935,-0.179968 -0.84612,-0.167345 -0.73397,0.01412 0.0568,0.0919 -0.32746,0.14842 -1.04514,0.153713 -0.62424,0.0044 -1.39658,0.06801 -1.71633,0.140889 -0.42205,0.0962 -0.14702,0.113816 1.00365,0.06429 0.87176,-0.03752 1.95092,-0.0758 2.39812,-0.08507 z m 15.12912,-0.273823 c -0.11991,-0.07749 -0.15261,-0.144511 -0.0727,-0.148932 0.0799,-0.0044 -0.0361,-0.106434 -0.25778,-0.226687 -0.22172,-0.120253 -0.47651,-0.173287 -0.56619,-0.117861 -0.099,0.06117 0.0309,0.204093 0.33046,0.363703 0.51694,0.275409 0.94246,0.372937 0.56619,0.129777 z M 496.8544,-35.67747 c 0.55956,-0.150831 0.91928,-0.277811 0.79937,-0.282184 -0.28878,-0.01049 -1.89564,0.375498 -2.0008,0.480653 -0.13436,0.134397 0.1265,0.09129 1.20143,-0.198469 z m -3.612,84.62398 c -0.0548,-0.05476 -0.31084,-0.17693 -0.56925,-0.271061 -0.25828,-0.09432 -0.58483,-0.22026 -0.72563,-0.279927 -0.19766,-0.08374 -0.23536,-0.05471 -0.16549,0.127359 0.0703,0.183193 0.0301,0.212889 -0.18003,0.132996 -0.54565,-0.20745 -0.99145,-0.480049 -0.78649,-0.480911 0.38042,-0.0016 -0.0325,-0.241529 -1.51872,-0.882545 -1.40646,-0.606463 -2.91304,-1.436092 -2.61613,-1.440624 0.0799,-0.0011 0.34312,0.118395 0.58485,0.26581 0.24172,0.147426 0.69955,0.350415 1.01738,0.451099 0.31783,0.100696 0.90489,0.338572 1.30458,0.52862 0.39969,0.190036 1.37834,0.577805 2.17477,0.861681 1.32426,0.472002 1.66829,0.672925 1.67452,0.97795 0.003,0.135676 -0.0647,0.138939 -0.19427,0.0094 z m 7.92369,-0.318412 c -0.15465,-0.09804 -0.14489,-0.141691 0.0482,-0.215789 0.36264,-0.139158 0.46404,-0.108177 0.2183,0.06673 -0.16332,0.11623 -0.0722,0.134923 0.36335,0.07457 0.39945,-0.05537 0.51314,-0.03708 0.36334,0.05841 -0.26965,0.17192 -0.73549,0.179479 -0.99322,0.0161 z m 2.44664,-1.196996 c -0.84264,-0.247099 -0.87405,-0.268605 -0.29069,-0.199035 0.35971,0.0429 0.94835,0.169916 1.30807,0.282267 1.01706,0.317665 0.0915,0.241942 -1.01738,-0.08323 z m 1.85308,-3.431692 c 0.2598,-0.03224 0.68491,-0.03224 0.94471,0 0.2598,0.03224 0.0472,0.05861 -0.47236,0.05862 -0.51959,0 -0.73215,-0.02637 -0.47235,-0.05862 z m 24.23549,-2.186316 c 0.23332,-0.232581 2.45786,-1.410972 2.35771,-1.248918 -0.0499,0.08097 -0.63366,0.427644 -1.297,0.770478 -0.66333,0.342829 -1.14065,0.558129 -1.06071,0.47844 z m 8.79309,-6.615872 c 0,-0.112231 0.13983,-0.328645 0.31072,-0.480927 0.37547,-0.334601 1.8708,-2.194162 2.65879,-3.306442 0.31427,-0.443585 0.63503,-0.767182 0.71282,-0.719106 0.0809,0.04988 0.0946,0.01159 0.0321,-0.08953 -0.0602,-0.09733 -0.0125,-0.287293 0.10592,-0.42214 0.11839,-0.134863 0.42538,-0.621256 0.68215,-1.080892 0.25675,-0.459647 0.49956,-0.835705 0.53953,-0.83571 0.04,-1.1e-5 -0.12979,0.358727 -0.37723,0.79717 -0.24743,0.438449 -0.44989,0.865142 -0.44989,0.948216 0,0.365741 -1.93401,2.92572 -3.03254,4.014083 -0.49041,0.48586 -0.89166,0.95456 -0.89166,1.04155 10e-6,0.087 -0.0654,0.198567 -0.14514,0.248099 -0.0799,0.04939 -0.14534,-0.0022 -0.14534,-0.114231 z m 5.66488,-9.222432 c 0.47656,-1.058376 0.97517,-2.134511 1.10802,-2.39141 0.67696,-1.30909 2.11368,-6.339702 2.9381,-10.287538 0.26284,-1.258657 0.4047,-1.703231 0.46377,-1.453401 0.0797,0.337193 0.0922,0.34156 0.19748,0.06923 0.19764,-0.511238 0.37899,-3.4192107 0.35349,-5.6682694 -0.0218,-1.9298405 -0.0352,-2.0382923 -0.1159,-0.9447163 -0.0502,0.6794675 -0.10408,0.9737807 -0.11986,0.6540341 -0.0158,-0.3197469 -0.0674,-0.8152423 -0.11466,-1.1010962 -0.062,-0.374783 -0.0197,-0.5859351 0.1514,-0.7571135 0.47786,-0.4778568 -0.0176,-5.4519552 -0.87175,-8.7516307 -0.73834,-2.8523315 -0.7011,-2.6596363 -0.45632,-2.360912 0.11502,0.1403728 0.29085,0.6635979 0.39076,1.162724 0.0999,0.4991267 0.26896,1.2672212 0.37571,1.7068788 1.16112,4.78257416 1.37576,11.1055928 0.56488,16.6414612 -0.22482,1.534925 -0.85986,4.146199 -0.94847,3.900199 -0.0723,-0.200798 -0.14035,-0.105069 -0.2752,0.387329 -0.0985,0.359721 -0.23794,0.804272 -0.30985,0.987887 -0.0719,0.183626 -0.12566,0.47794 -0.11947,0.654034 0.007,0.200622 0.11139,0.04884 0.27943,-0.406517 0.33031,-0.895162 0.37382,-0.550806 0.0628,0.496643 -0.12535,0.422074 -0.19075,0.804564 -0.14534,0.849976 0.0455,0.04543 0.0826,-0.02258 0.0827,-0.150996 0,-0.128508 0.0593,-0.270308 0.13182,-0.3151 0.0725,-0.04482 0.061,0.149184 -0.0255,0.431088 -0.11253,0.366637 -0.19477,0.45979 -0.28889,0.327229 -0.085,-0.119708 -0.10376,-0.03093 -0.053,0.250692 0.0433,0.239815 0.0396,0.343823 -0.008,0.231125 -0.05,-0.11813 -0.26298,0.278488 -0.50293,0.936587 -0.46932,1.287292 -0.50333,1.461926 -0.18298,0.939717 0.2329,-0.379655 0.22717,-0.354348 -0.18956,0.835704 -0.22278,0.63622 -0.43127,0.873784 -0.2551,0.290683 0.0782,-0.258921 0.0609,-0.290979 -0.0833,-0.153985 -0.10016,0.09516 -0.18925,0.366697 -0.19801,0.603409 -0.009,0.236707 -0.0761,0.393383 -0.14962,0.348147 -0.0736,-0.04504 -0.0961,0.01571 -0.0502,0.135412 0.0497,0.129623 0.001,0.217629 -0.1206,0.217656 -0.2535,0 -0.26901,0.08592 0.15921,-0.882319 0.19981,-0.451897 0.36117,-0.868795 0.3585,-0.926469 -0.009,-0.189822 -0.57652,0.576762 -0.57652,0.7784 0,0.244705 -1.78713,3.951253 -2.09689,4.348992 -0.12452,0.159867 0.16354,-0.575262 0.64009,-1.633638 z m 2.80756,-5.597042 c 0.41048,-1.223846 0.5238,-1.873848 0.24269,-1.392085 -0.15264,0.261085 -0.86406,2.301536 -0.86574,2.482135 -5.5e-4,0.05994 0.0489,0.109006 0.10993,0.109006 0.061,2.2e-5 0.29192,-0.539578 0.51312,-1.199056 z m 1.52484,-6.213298 -0.002,-0.508689 -0.12025,0.581359 c -0.0661,0.319747 -0.1175,0.712168 -0.11413,0.872042 0.005,0.235091 0.0283,0.221193 0.12247,-0.07267 0.064,-0.199842 0.11536,-0.592263 0.11413,-0.872042 z m -3.84236,11.88157 c 0.39579,-0.894454 0.80731,-1.673612 0.81559,-1.54422 0.01,0.150903 -0.99851,2.307255 -1.07873,2.307255 -0.041,0 0.0774,-0.343368 0.26314,-0.763035 z m -78.06237,-3.047505 c -0.746,-1.67594 -1.0573,-2.503784 -1.0483,-2.787797 0.003,-0.088 0.42578,0.850436 0.93999,2.085396 0.51421,1.23496 0.91316,2.267149 0.88656,2.293753 -0.0266,0.02659 -0.37682,-0.689504 -0.77825,-1.591352 z M 548.60081,0.25476878 c -0.18084,-1.48543728 -0.64453,-4.00586088 -0.95366,-5.18383498 -0.16512,-0.6291993 -0.26885,-1.1753804 -0.23049,-1.2137278 0.0959,-0.095917 0.82625,2.6791985 1.02211,3.8837975 0.15526,0.9548513 0.38179,3.23892493 0.32669,3.2940215 -0.0341,0.034167 -0.10825,-0.31696181 -0.16465,-0.78025622 z m -1.0075,-3.02366368 c 0.025,-0.1605387 -0.0234,-0.3894503 -0.10757,-0.5086907 -0.12789,-0.1812198 -0.13958,-0.1750565 -0.0712,0.037519 0.045,0.1398947 0.052,0.2543449 0.0156,0.2543449 -0.0932,0 -0.50822,-1.0184686 -0.49586,-1.2168049 0.006,-0.090154 0.0664,-0.033126 0.13512,0.126755 0.11468,0.2668582 0.12593,0.260904 0.13736,-0.07267 0.01,-0.289402 0.0411,-0.3189831 0.15333,-0.1453436 0.12523,0.1937879 0.14251,0.1937879 0.15547,0 0.008,-0.1199051 0.10436,0.1417072 0.21408,0.5813655 0.24191,0.9693647 0.2491,1.0575852 0.0775,0.9515064 -0.0739,-0.045648 -0.16245,-4.339e-4 -0.19682,0.1004318 -0.0344,0.1008931 -0.042,0.05213 -0.017,-0.1084353 z m -0.3956,-1.9987488 c -0.12217,-0.1221737 -0.33944,-0.6705078 -0.48282,-1.2185238 -0.43548,-1.6644266 -2.03487,-5.7291455 -2.87976,-7.3186895 -0.75745,-1.425018 -1.65665,-2.996972 -2.07847,-3.63351 -0.1854,-0.279779 -0.38304,-0.704896 -0.43918,-0.94471 l -0.10208,-0.436022 0.29145,0.363352 c 0.4353,0.542689 1.52807,2.364218 1.35368,2.256436 -0.34417,-0.212712 -0.11529,0.26581 0.36243,0.757701 0.29988,0.308767 0.47991,0.61701 0.43252,0.740519 -0.0447,0.116362 0.022,0.325591 0.14812,0.464954 0.28547,0.31544 2.09067,4.3817077 2.52086,5.6783005 0.17509,0.527713 0.44705,1.2119269 0.60434,1.5204673 0.15731,0.308541 0.28602,0.6822635 0.28601,0.8304917 0,0.1482276 0.0696,0.3996394 0.15477,0.5586885 0.2174,0.4062097 0.10428,0.656688 -0.17188,0.3805345 z m -0.41648,-2.9052802 c -0.69486,-1.9908914 -1.75074,-4.6674411 -1.90355,-4.8252931 -0.0735,-0.07595 -0.1305,-0.239453 -0.12666,-0.363352 0.0158,-0.508454 2.28426,4.5352867 2.38268,5.2976517 0.0206,0.1598734 0.0852,0.5032409 0.14354,0.7630353 0.19458,0.8670426 -0.0218,0.486563 -0.49601,-0.8720419 z m 0.37352,-0.4935891 c -0.14741,-0.4679473 -0.30341,-0.9432887 -0.34668,-1.0563268 -0.047,-0.1227342 -0.0156,-0.1665315 0.0779,-0.1087263 0.19361,0.1196463 0.67306,1.606968 0.59425,1.8434107 -0.0316,0.094862 -0.17808,-0.2104109 -0.3255,-0.6783525 z m -2.10447,-1.0741743 c -0.24658,-0.8230087 -1.76336,-4.0948497 -2.43756,-5.2580737 -0.92196,-1.59067 -2.25533,-3.628586 -3.30788,-5.055732 -1.06614,-1.445582 -4.90988,-5.436957 -6.27226,-6.513181 -0.43648,-0.344801 -0.75507,-0.689234 -0.708,-0.765406 0.0472,-0.07615 0.14756,-0.100219 0.22328,-0.05345 0.0757,0.04682 0.10461,0.138561 0.0642,0.203912 -0.0403,0.0654 0.0362,0.207993 0.17018,0.316973 0.21527,0.175077 0.23127,0.165256 0.13749,-0.08439 -0.10052,-0.267571 -0.0917,-0.269501 0.16591,-0.03636 0.31891,0.288615 0.53021,0.324674 0.37809,0.06452 -0.0584,-0.09992 0.036,-0.05695 0.20943,0.09519 0.34806,0.305284 0.41703,0.45359 0.13399,0.288086 -0.0999,-0.05844 -0.0571,0.03581 0.0952,0.209433 0.3093,0.352627 0.51554,0.439503 0.23183,0.09765 -0.0995,-0.119907 -0.12036,-0.218007 -0.0463,-0.218008 0.23189,2e-6 1.11637,1.000501 1.13745,1.286647 0.0213,0.288978 2.63295,3.031413 2.76301,2.901356 0.042,-0.04196 -0.36229,-0.559967 -0.89837,-1.151111 l -0.97468,-1.074801 0.90999,0.872044 c 0.88278,0.845964 1.82242,1.978311 1.28175,1.544613 -0.13676,-0.109707 -0.24866,-0.13407 -0.24866,-0.05411 0,0.179272 0.36401,0.495177 0.45999,0.3992 0.0384,-0.03846 0.26134,0.141748 0.49531,0.400421 0.41203,0.455489 0.41284,0.459224 0.0258,0.118488 -0.21983,-0.193503 -0.39969,-0.309848 -0.39969,-0.258547 0,0.0513 0.53132,0.798489 1.1807,1.660416 2.10112,2.788788 4.06979,6.104238 4.64151,7.816763 0.18925,0.566885 0.21413,0.668575 0.25994,1.062292 0.0122,0.10464 0.0868,0.150294 0.16583,0.101449 0.0853,-0.05274 0.10482,0.01247 0.048,0.160603 -0.0701,0.1825937 -0.0442,0.2175357 0.0968,0.130436 0.13148,-0.08127 0.15791,-0.06302 0.0834,0.0576 -0.0599,0.09718 -0.0309,0.365511 0.0648,0.5964338 0.0956,0.2309272 0.14784,0.4980663 0.11598,0.593647 -0.0319,0.095598 -0.1427,-0.1091877 -0.24633,-0.4550492 z m 0.85647,-2.2126887 c -0.19984,-0.497326 -0.64131,-1.443673 -0.98105,-2.102992 -0.7212,-1.399623 -0.81603,-1.776559 -0.15612,-0.620531 0.80075,1.402732 1.13717,2.078629 1.13717,2.284623 0,0.11033 0.10207,0.397991 0.22683,0.639252 0.12476,0.24126 0.20652,0.498329 0.18169,0.571268 -0.0248,0.07293 -0.20868,-0.274291 -0.40852,-0.77162 z m -5.96981,-8.064779 c -0.34492,-0.459634 -0.5295,-0.756905 -0.41016,-0.660593 0.24464,0.197438 1.20083,1.496299 1.10154,1.496299 -0.0353,-4e-6 -0.34645,-0.376069 -0.69138,-0.835706 z m -66.54421,-2.282382 c 0.25565,-0.356026 0.63338,-0.797487 0.83937,-0.981047 0.33174,-0.295632 0.32533,-0.273303 -0.0561,0.195533 -0.70607,0.86773 -0.93934,1.194801 -0.93934,1.317055 2e-5,0.06369 -0.0694,0.115815 -0.15437,0.115777 -0.0849,8e-6 0.0549,-0.291285 0.31048,-0.647307 z m 64.67637,-1.717857 -0.78865,-0.904995 0.69083,0.654034 c 0.58204,0.551046 1.07876,1.171644 0.92791,1.15934 -0.0228,-0.0016 -0.39634,-0.410627 -0.83009,-0.908379 z m -51.53385,-10.364574 c 0.34132,-0.279801 1.525,-0.83642 1.60615,-0.755278 0.0307,0.03076 -0.38345,0.266891 -0.92046,0.52474 -0.53701,0.257855 -0.84557,0.361594 -0.68569,0.230538 z"
       id="path6573" /></g><g
     inkscape:groupmode="layer"
     id="layer2"
     inkscape:label="align"
     style="display:none"
     sodipodi:insensitive="true"><path
       style="display:inline;fill:#88b926;fill-opacity:0.321555;stroke:#88b926;stroke-width:0.264583;stroke-dasharray:none"
       d="M 508.00001,571.50001 V 0"
       id="path10452" /><path
       style="display:inline;fill:#88b926;fill-opacity:0.321555;stroke:#88b926;stroke-width:0.264583;stroke-dasharray:none"
       d="M 3.8888887e-6,285.75 H 1016"
       id="path10472" /></g></svg>
