<?xml version="1.0" encoding="UTF-8" standalone="no"?>
<svg
   width="3840"
   height="2160"
   viewBox="0 0 1016 571.50002"
   version="1.1"
   id="svg8"
   sodipodi:docname="enso_tn2.svg"
   inkscape:version="1.2.1 (9c6d41e410, 2022-07-14)"
   xml:space="preserve"
   inkscape:export-filename="enso_tn2.png"
   inkscape:export-xdpi="96"
   inkscape:export-ydpi="96"
   xmlns:inkscape="http://www.inkscape.org/namespaces/inkscape"
   xmlns:sodipodi="http://sodipodi.sourceforge.net/DTD/sodipodi-0.dtd"
   xmlns:xlink="http://www.w3.org/1999/xlink"
   xmlns="http://www.w3.org/2000/svg"
   xmlns:svg="http://www.w3.org/2000/svg"
   xmlns:rdf="http://www.w3.org/1999/02/22-rdf-syntax-ns#"
   xmlns:cc="http://creativecommons.org/ns#"
   xmlns:dc="http://purl.org/dc/elements/1.1/"><defs
     id="defs2"><linearGradient
       inkscape:collect="always"
       id="linearGradient2030"><stop
         style="stop-color:#73daca;stop-opacity:1;"
         offset="0.59400547"
         id="stop2026" /><stop
         style="stop-color:#bb9af7;stop-opacity:1;"
         offset="1"
         id="stop2028" /></linearGradient><linearGradient
       inkscape:collect="always"
       xlink:href="#linearGradient2030"
       id="linearGradient2032-3"
       x1="567.46613"
       y1="-109.13203"
       x2="829.02582"
       y2="-109.13203"
       gradientUnits="userSpaceOnUse"
       gradientTransform="matrix(0.32303572,0.0201523,-0.0201523,0.32303572,278.12371,26.635437)" /></defs><sodipodi:namedview
     id="base"
     pagecolor="#272822"
     bordercolor="#49483e"
     borderopacity="0.41176471"
     inkscape:pageopacity="0"
     inkscape:pageshadow="2"
     inkscape:zoom="0.61577215"
     inkscape:cx="1741.7157"
     inkscape:cy="1244.7786"
     inkscape:document-units="px"
     inkscape:current-layer="layer1"
     showgrid="false"
     showborder="true"
     inkscape:window-width="3836"
     inkscape:window-height="2113"
     inkscape:window-x="3840"
     inkscape:window-y="2160"
     inkscape:window-maximized="0"
     inkscape:document-rotation="0"
     units="mm"
     inkscape:showpageshadow="0"
     inkscape:pagecheckerboard="0"
     inkscape:deskcolor="#1d1e19" /><metadata
     id="metadata5"><rdf:RDF><cc:Work
         rdf:about=""><dc:format>image/svg+xml</dc:format><dc:type
           rdf:resource="http://purl.org/dc/dcmitype/StillImage" /></cc:Work></rdf:RDF></metadata><g
     inkscape:groupmode="layer"
     id="layer3"
     inkscape:label="bg"
     sodipodi:insensitive="true"
     style="display:inline"><rect
       style="fill:#13131a;fill-opacity:1;stroke:#121310;stroke-width:0.499999;stroke-opacity:1"
       id="rect2189"
       width="1016"
       height="571.5"
       x="8.8888892e-06"
       y="-274.5"
       transform="translate(0,274.5)" /></g><g
     inkscape:label="enso"
     inkscape:groupmode="layer"
     id="layer1"
     transform="translate(0,274.50001)"
     style="display:inline"><path
       style="fill:url(#linearGradient2032-3);fill-opacity:1;stroke-width:1"
       d="m 543.54002,23.982047 c -0.22621,0.33604 -0.77515,1.29168 -1.22003,2.12347 -0.44495,0.83174 -0.90442,1.60961 -1.02133,1.72846 -0.11902,0.12129 -0.27004,0.38991 -0.34375,0.61191 -0.0992,0.29829 -0.1721,0.40621 -0.29643,0.4384 -0.10824,0.028 -0.18468,0.12341 -0.22244,0.27793 -0.0356,0.14509 -0.27129,0.46076 -0.61562,0.8252 -0.30679,0.32457 -0.63612,0.75692 -0.73234,0.96033 -0.0956,0.20373 -0.63177,0.9369 -1.19055,1.62959 -0.55878,0.6927 -1.0703,1.37525 -1.13672,1.51674 -0.077,0.16403 -0.23468,0.3099 -0.43481,0.40257 -0.3395,0.15672 -0.74916,0.52511 -1.45578,1.30911 -0.64917,0.72016 -1.51476,1.48837 -2.4861,2.20619 -1.56237,1.15456 -2.35436,1.71742 -2.47261,1.75731 -0.0784,0.0264 -0.0915,0.0201 -0.0397,-0.0187 0.24777,-0.18584 2.02313,-1.81295 2.86692,-2.62756 0.54398,-0.52514 1.39517,-1.29629 1.89148,-1.71372 1.24535,-1.04735 2.50282,-2.4693 2.78267,-3.14659 0.21055,-0.50959 0.21055,-0.50959 -0.61602,0.37955 -3.34161,3.59456 -3.11531,3.38227 -5.64546,5.29664 -2.32368,1.75807 -4.17366,3.08086 -4.20135,3.00409 -0.009,-0.0215 0.65406,-0.63579 1.47092,-1.36463 3.97811,-3.54972 5.45682,-5.09187 7.49932,-7.82049 0.50434,-0.67382 1.04845,-1.37624 1.20907,-1.56099 0.93259,-1.07275 2.79707,-4.03924 3.92048,-6.2375 0.61361,-1.20071 1.32934,-2.59365 1.59047,-3.09544 0.30856,-0.59288 0.47952,-1.00289 0.48825,-1.17094 0.0104,-0.19898 0.0562,-0.29044 0.19897,-0.39688 0.18871,-0.14067 0.26445,-0.39779 0.13495,-0.45857 -0.10535,-0.0495 -0.41638,0.41714 -0.50427,0.75661 -0.12872,0.49728 -0.42457,0.84758 -0.52133,0.6168 -0.0744,-0.17766 -0.12415,-0.0884 -1.00964,1.81097 -2.05417,4.40579 -4.8433,8.58969 -7.66639,11.50015 -0.44608,0.45997 -0.80693,0.87289 -0.80171,0.91784 0.0286,0.24858 -5.28102,5.03354 -5.89851,5.3156 -0.11236,0.0513 -0.17199,0.0659 -0.1326,0.0324 0.91638,-0.77895 2.33551,-2.22919 3.21319,-3.28369 0.60268,-0.72363 1.60623,-1.90641 2.23067,-2.62787 4.20418,-4.85775 6.35485,-8.17592 8.03932,-12.40323 1.43294,-3.59611 1.29773,-3.50555 -0.51071,0.34205 -0.91461,1.94589 -1.70317,3.56425 -1.75235,3.59636 -0.0494,0.0317 -0.35718,0.54101 -0.68439,1.13089 -1.07133,1.93118 -2.41099,3.8488 -3.63547,5.20381 -0.76664,0.84829 -0.6728,0.6508 0.34463,-0.72593 2.568,-3.47466 4.38431,-6.66622 4.3605,-7.66211 -0.008,-0.32288 0.40963,-1.45107 1.56267,-4.22429 0.73136,-1.75903 1.00248,-2.58908 0.91995,-2.8164 -0.0278,-0.0762 -0.11661,0.0922 -0.26843,0.50918 -0.18323,0.50313 -0.26649,0.64582 -0.43175,0.74074 -0.22798,0.13081 -0.50614,0.64698 -0.41992,0.77906 0.0297,0.0472 0.12418,0.0187 0.20822,-0.0622 0.15174,-0.14585 0.15245,-0.14515 0.10661,0.10152 -0.0323,0.17277 -0.15249,0.34818 -0.39245,0.5726 -0.33417,0.31305 -0.39246,0.42629 -1.74372,3.41296 -0.7896,1.74511 -1.45282,3.1288 -1.52422,3.17992 -0.0772,0.0553 0.13093,-0.45776 0.53494,-1.31863 2.28968,-4.87839 3.592,-9.15727 4.08684,-13.42761 1.05986,-9.14638 -0.57261,-15.38513 -6.20295,-23.70543 -0.62059,-0.91707 -2.94086,-3.3262 -3.92408,-4.0744 -1.64087,-1.24862 -2.43831,-1.81761 -3.30947,-2.36138 -1.12863,-0.70453 -3.69387,-2.11116 -4.62702,-2.53721 -1.78807,-0.81645 -3.51356,-1.52487 -4.43932,-1.82259 -0.5637,-0.1813 -1.04011,-0.33674 -1.05865,-0.34545 -0.0187,-0.009 0.0625,-0.0561 0.17997,-0.1054 0.34933,-0.14619 0.24101,-0.19375 -1.40678,-0.61741 -5.16099,-1.32692 -7.37431,-1.52831 -10.89346,-0.9912 -0.39229,0.0599 -1.03293,0.15502 -1.42361,0.21143 -3.34426,0.48281 -6.03225,1.29187 -5.3704,1.61641 0.21152,0.10366 0.21152,0.10366 -0.15766,0.18479 -0.75639,0.16614 -2.15812,0.68575 -2.83981,1.05269 -0.38725,0.20846 -1.06019,0.53401 -1.49533,0.72358 -5.12449,2.23157 -8.58498,5.76272 -11.01283,11.23765 -0.55382,1.2489297 -1.09575,2.3836 -1.20427,2.52151 -0.1103,0.14097 -0.25938,0.46396 -0.33872,0.73639 -0.38141,1.31019 -0.41565,0.89399 -0.0491,-0.59607 0.40592,-1.6497403 0.41957,-1.7338303 0.27278,-1.6803003 -0.13135,0.0478 -1.55676,3.1749603 -1.70788,3.7466203 -0.0734,0.27773 -0.31928,1.184 -0.54633,2.01397 -0.54919,2.00732 -0.77507,3.70804006 -0.71381,5.37453 0.0259,0.70706 0.009,1.36663 -0.0372,1.46569 -0.0465,0.099 -0.0568,0.257 -0.0229,0.35097 0.0339,0.094 0.0335,0.23108 -10e-4,0.30462 -0.0959,0.20442 -0.0156,1.99464 0.121,2.69776 0.0668,0.34349 0.22111,1.2673395 0.34302,2.0529802 0.12191,0.7856294 0.35653,1.9174198 0.52139,2.5150898 0.16484,0.59767 0.41242,1.61322 0.55016,2.25678 0.30499,1.42498 0.49216,1.87957 1.47398,3.57966 0.42131,0.72963 1.14074,2.007 1.59867,2.83864 1.14219,2.07433 2.6838,4.34866 3.47649,5.12895 0.0528,0.0532 0.0673,0.1078 0.0308,0.12285 -0.0365,0.015 -0.48807,-0.38314 -1.00364,-0.8849 -0.5156,-0.50176 -1.0693,-1.01632 -1.23041,-1.14352 -0.16104,-0.12732 -0.7047,-0.72244 -1.20811,-1.32263 -1.02006,-1.21661 -1.03194,-1.22795 -0.93427,-0.89744 0.0692,0.23437 0.0689,0.23469 -0.0619,0.0621 -0.0723,-0.0954 -0.10769,-0.22333 -0.0796,-0.2839 0.0287,-0.0607 -0.12494,-0.43672 -0.34101,-0.83545 -1.84149,-3.3979 -2.78363,-5.72758 -3.88091,-9.5965997 -0.41113,-1.4497001 -0.47064,-1.3847704 -0.22893,0.2499697 0.52703,3.5657 2.07456,7.74084 3.7587,10.14068 2.77812,3.95887 5.65052,6.57795 8.87215,8.09002 1.26733,0.59482 1.34473,0.50406 0.16917,-0.19844 -1.47713,-0.88272 -3.69363,-2.82522 -3.3609,-2.94538 0.0736,-0.0264 1.73446,0.97244 2.76178,1.66105 2.64058,1.77015 6.2617,2.62654 8.46151,2.00118 1.03236,-0.29347 3.18599,-0.26722 3.85546,0.047 0.41973,0.19709 1.21132,0.14909 1.74295,-0.10553 0.97974,-0.46925 1.27482,-0.53715 1.79681,-0.4135 0.27121,0.0644 1.05703,0.11033 1.74614,0.10233 1.39674,-0.0162 1.54047,0.0262 2.18818,0.64422 0.37682,0.3595 0.42036,0.43942 0.3862,0.70843 -0.0895,0.70487 0.614,1.28403 2.82499,2.32586 1.74302,0.82129 1.74302,0.82129 1.99711,1.23579 0.13973,0.22795 0.38084,0.50079 0.53591,0.6062 0.32062,0.21752 0.54715,0.64792 0.60454,1.14653 0.0215,0.18737 0.10227,0.39897 0.17942,0.47019 0.21652,0.19998 0.55242,1.12257 0.5947,1.6305 0.0207,0.25131 0.0815,0.59407 0.13514,0.76162 0.0832,0.25996 0.0584,0.40783 -0.16937,1.00842 -0.47917,1.26392 -0.36105,2.62244 0.28106,3.23215 0.17488,0.16609 0.36918,0.40208 0.43179,0.52441 0.063,0.12218 0.2593,0.32066 0.43708,0.44064 0.75088,0.50671 0.77007,1.3747 0.0403,1.83273 -0.0983,0.0617 -0.22515,0.1799 -0.28193,0.26246 -0.1466,0.21398 -5.36533,2.52087 -6.41915,2.83748 -4.46602,1.34175 -11.51231,1.20507 -16.27097,-0.31562 -0.72392,-0.23133 -1.75345,-0.5421 -2.28787,-0.6906 -1.07848,-0.2997 -2.97021,-1.14252 -4.05972,-1.80873 -0.82664,-0.50552 -4.14728,-2.14876 -4.09781,-2.02787 0.0214,0.052 0.15192,0.19966 0.29,0.32827 0.39101,0.363 0.28417,0.31599 -1.35802,-0.59691 -3.36221,-1.8692 -3.53335,-1.98808 -5.48583,-3.80823 -3.11025,-2.89954 -5.01059,-5.06604 -5.88837,-6.71304 -0.27493,-0.51581 -0.69579,-1.2064 -0.93517,-1.53472 -0.40973,-0.56177 -1.18075,-1.72299 -2.60342,-3.92093 -2.81006,-4.34145 -5.68719,-17.0331197 -5.28211,-23.30062 0.18614,-2.88729998 0.33774,-4.14195994 0.50552,-4.19797992 0.0473,-0.0156 0.0643,2.61485992 0.0309,4.76439992 -0.0164,1.05435 0.0394,2.07347 0.15988,2.92473 0.10176,0.7185802 0.19968,1.6648499 0.2176,2.1028296 0.0616,1.5050604 0.77508,4.6777604 1.51262,6.7260704 0.45223,1.25591 0.79446,1.9809 0.76011,1.61029 -0.0544,-0.58815 -1.12237,-5.16738 -1.39596,-5.98586 -0.10372,-0.31022 -0.1657,-0.7199 -0.13869,-0.91649 0.0778,-0.56642 0.0501,-0.7875897 -0.22189,-1.7746604 -0.2109,-0.7652394 -0.25164,-1.1368601 -0.22917,-2.0897496 0.015,-0.63747 0.007,-1.86917 -0.0184,-2.73714 -0.031,-1.07198 0.003,-1.84508 0.10468,-2.41044 0.0827,-0.45778 0.19724,-1.19345998 0.25449,-1.63486996 0.14247,-1.09858994 0.1984,-1.36367004 0.49963,-2.36697004 0.14376,-0.47884 0.2992,-1.087 0.34541,-1.35147 0.35853,-2.05212 3.86321,-10.32922 5.22944,-12.35054 0.28509,-0.4223 0.81932,-1.37167 1.18667,-2.11007 0.50788,-1.02093 0.76657,-1.45821 1.07989,-1.82554 0.22648,-0.26573 0.72429,-0.90721 1.10591,-1.42579 0.39917,-0.54239 1.05691,-1.30145 1.54867,-1.78728 0.47009,-0.46445 0.89982,-0.94777 0.95491,-1.07403 0.32766,-0.75036 3.33439,-3.39333 5.22755,-4.59507 0.72868,-0.46254 0.9046,-0.6265 0.46927,-0.43727 -0.47185,0.20507 -0.40528,0.0817 0.14849,-0.27485 1.42943,-0.92074 2.80693,-1.67608 3.28848,-1.80328 0.37096,-0.098 0.54506,-0.18919 0.55877,-0.29279 0.0121,-0.0986 0.1283,-0.17217 0.33381,-0.21338 0.17265,-0.0346 0.33485,-0.10751 0.36043,-0.16198 0.17499,-0.37284 7.00504,-2.54647 9.29476,-2.958031 0.79997,-0.143785 1.8231,-0.348765 2.27366,-0.455514 0.45056,-0.106762 1.46493,-0.259239 2.25415,-0.338879 1.32063,-0.133229 1.8187,-0.226264 1.64584,-0.307384 -0.0372,-0.01719 -0.5059,-0.0049 -1.04157,0.02781 -1.14842,0.07023 -1.12532,0.06441 1.39497,-0.351921 3.0225,-0.499288 3.40255,-0.533829 5.41938,-0.492689 2.37553,0.04848 2.86257,0.08695 3.96805,0.313476 1.54166,0.315911 1.51357,0.315947 -4.03024,0.0042 -0.37047,-0.02091 -0.48745,0.008 -0.50277,0.123866 -0.0164,0.118404 -0.0879,0.131837 -0.33711,0.0608 -1.20039,-0.341518 -1.62782,-0.351288 -2.99546,-0.06846 -1.36642,0.282592 -1.21094,0.352196 0.52412,0.23464 1.2388,-0.08394 1.67178,-0.04893 1.49509,0.120892 -0.21346,0.205127 1.06168,0.278484 2.57162,0.147913 0.90473,-0.07826 3.13352,-0.01606 3.60757,0.100688 0.14994,0.0369 0.3131,0.02814 0.36263,-0.01941 0.11889,-0.114392 0.76397,-0.0031 2.02655,0.349482 0.56815,0.158661 1.32359,0.32203 1.67878,0.363043 0.43132,0.04981 0.98977,0.203193 1.68155,0.461835 0.56965,0.212985 1.54137,0.541842 2.15939,0.730775 3.1504,0.963118 8.31706,3.256788 10.10552,4.486218 0.37392,0.25656 1.04061,0.68341 1.48228,0.94744 0.73446,0.43964 1.79439,1.30544 1.56465,1.27838 -0.0531,-0.006 -0.67177,-0.36872 -1.37473,-0.8054 -0.70287,-0.43686 -1.50049,-0.89946 -1.77246,-1.02806 -0.27193,-0.12868 -0.9333,-0.5233 -1.46956,-0.87723 -1.22683,-0.80931 -1.76011,-1.05977 -4.10824,-1.92929 -1.04168,-0.38569 -1.96505,-0.73117 -2.05196,-0.76775 -0.17346,-0.0729 -0.11465,0.016 0.22122,0.33492 0.11859,0.11223 0.104,0.12384 -0.15039,0.11884 -0.15471,-0.003 -0.24691,0.0121 -0.20496,0.0336 0.0422,0.0213 1.32455,0.6475 2.85017,1.39127 2.97383,1.44975 3.84413,1.93539 4.76201,2.6573 0.32091,0.25247 1.16395,0.7784 1.87311,1.1692 0.81224,0.4473 1.46704,0.86244 1.76902,1.12149 0.2638,0.22611 0.62889,0.47713 0.81141,0.55768 0.19941,0.0878 0.42436,0.26859 0.56298,0.45266 0.12698,0.16859 0.28448,0.33187 0.35001,0.36282 0.0658,0.0305 0.39,0.33303 0.72148,0.67073 0.33129,0.33795 0.70341,0.67885 0.82696,0.75756 0.12372,0.0785 0.52368,0.50362 0.88921,0.94419 0.36553,0.44058 0.88266,1.00646 1.14952,1.25722 0.26648,0.2511 0.5617,0.57441 0.65589,0.71862 0.0943,0.14408 0.36966,0.46505 0.61173,0.71334 0.24205,0.24828 0.60398,0.70165 0.80416,1.00754 0.20027,0.30584 0.70481,1.0546 1.12126,1.66387 0.65138,0.95303 1.49977,2.56214 1.37491,2.6077 -0.056,0.0205 -1.14972,-1.44719 -2.00581,-2.69132 -0.51115,-0.74279 -0.78245,-1.06355 -0.97677,-1.15472 -0.16435,-0.0772 -0.36695,-0.28021 -0.52088,-0.52202 -0.13856,-0.21764 -0.36267,-0.49058 -0.49801,-0.60658 -0.1354,-0.11592 -0.32122,-0.35493 -0.41301,-0.53102 -0.16698,-0.32013 -0.16698,-0.32013 -0.27355,-0.15727 -0.11497,0.1755 -0.20125,0.15027 -0.69193,-0.20253 -0.60092,-0.43193 0.74742,1.21273 1.52221,1.85695 0.39267,0.32618 0.54313,0.51803 1.51949,1.93281 0.30831,0.44681 0.68863,0.92723 0.84513,1.06762 0.24559,0.21987 0.76318,1.0351 1.70241,2.67954 0.12913,0.22614 0.21164,0.4606 0.18326,0.52102 -0.0974,0.20743 -0.48591,-0.0206 -0.72173,-0.42352 -0.34497,-0.58977 -2.50884,-3.43771 -2.91032,-3.8305 -0.19608,-0.19189 -0.6688,-0.71494 -1.04996,-1.1628 -1.6531,-1.94064 -4.50439,-4.22843 -7.22459,-5.79693 -0.74273,-0.42826 0.27983,0.51108 1.15492,1.0608 1.0241,0.64346 3.34569,2.67122 4.46257,3.89777 0.32528,0.35788 0.61981,0.62092 0.65381,0.5852 0.0342,-0.0355 0.11069,-0.0163 0.17058,0.043 0.37562,0.37314 1.91446,2.1373 2.39742,2.74848 0.31683,0.40091 0.68982,0.83556 0.82892,0.96588 0.73135,0.68506 2.54502,3.76537 2.56879,4.3626404 0.005,0.11429 0.248,0.8951796 0.54106,1.7351196 1.48671,4.26136 2.06541,8.22800002 1.79267,12.28792 -0.14687,2.18398 -0.0518,2.72389 0.22411,1.27501 0.19567,-1.02744 0.29579,-2.13181 0.35488,-3.91429 0.0293,-0.8849 0.0674,-1.63887996 0.0846,-1.67550996 0.14069,-0.29986998 -0.85767,-5.97017004 -1.26368,-7.17690004 -0.31154,-0.926 -0.41191,-1.34724 -0.47832,-2.00767 -0.0667,-0.6636103 0.27027,-0.0698 0.66415,1.17012 0.54331,1.71034 0.65399,2.32351 1.09654,6.07481 0.15518,1.31532006 0.2596,5.13414 0.16646,6.08695 -0.0364,0.37218 -0.0445,1.15509 -0.0182,1.73979 0.0625,1.3867195 -0.0921,2.8212496 -0.49111,4.55406 -0.50339,2.18666 -0.7238,3.22057 -0.71072,3.33408 0.0172,0.15025 -0.42476,1.80272 -0.70174,2.6232 -0.12981,0.3844 -0.26117,0.93999 -0.29201,1.23463 -0.0325,0.31089 -0.20078,0.92436 -0.40089,1.46177 -0.18965,0.50933 -0.39902,1.13191 -0.46523,1.38356 -0.16597,0.63065 -1.07248,2.50271 -1.57015,3.24249 z m 1.45703,-8.35039 c 0.15874,-0.39375 0.34513,-0.9661 0.41431,-1.27183 0.0692,-0.30571 0.26899,-1.182 0.44413,-1.94727 0.1751,-0.76525 0.31379,-1.47883 0.30817,-1.58571 -0.005,-0.1069 0.0806,-0.52241 0.19159,-0.9234297 0.31961,-1.1546504 0.40337,-2.2358708 0.21389,-2.7605503 -0.0444,-0.12323 -0.0501,-0.28953 -0.0125,-0.36975 0.0378,-0.0801 0.09,-0.41844 0.11635,-0.75166 0.0258,-0.33326 0.0826,-0.67993 0.12521,-0.77049 0.0427,-0.0904 0.041,-0.40863 -0.003,-0.70686 -0.0443,-0.29821 -0.0624,-0.94702 -0.0404,-1.44179 0.0777,-1.74897 0.0465,-2.03123 -0.65491,-5.90377 -0.35031,-1.93423 -0.99418,-3.92438 -1.55042,-4.79217 -0.12021,-0.18741 -0.30996,-0.5499 -0.42188,-0.8054 -0.1457,-0.33287 -0.25615,-0.47488 -0.38925,-0.50094 -0.20367,-0.0398 -0.64399,-0.7327203 -0.71122,-1.11913 -0.0211,-0.12083 -0.12158,-0.3284 -0.22356,-0.461 -0.1018,-0.13269 -0.65289,-1.0165 -1.22455,-1.96407 -0.89754,-1.48777 -1.17548,-1.87293 -2.03675,-2.8227 -0.54878,-0.60471 -1.35815,-1.51032 -1.79901,-2.01208 -1.29833,-1.47746 -5.12806,-4.77628 -6.63541,-5.71559 -0.80725,-0.50294 -3.65336,-1.90895 -3.64062,-1.79839 0.006,0.0469 0.0911,0.12321 0.19077,0.16952 0.0994,0.0466 0.48259,0.31069 0.85184,0.58633 0.36915,0.2758 1.40443,1.01737 2.30073,1.64776 0.89623,0.63049 1.72425,1.24965 1.83997,1.37603 0.11565,0.12641 0.61067,0.51089 1.09941,0.85504 1.4195,0.99844 2.31244,1.72037 2.8129,2.2742 0.25598,0.28374 0.75324,0.79331 1.10454,1.13281 1.15935,1.12039 3.41065,4.17744 3.96839,5.38873 0.1675,0.36372 0.44107,0.82397 0.60779,1.02283 0.72656,0.8658797 2.62442,6.21247 2.87191,8.09062 0.097,0.7357 0.25424,1.89214006 0.34953,2.56987004 0.0953,0.67770998 0.16403,1.67486996 0.15276,2.21589996 -0.055,2.64066 0.0236,3.41517 0.23592,2.32386 0.11474,-0.58954 0.0605,-3.55247 -0.0884,-4.82817994 -0.17097,-1.46565006 -0.32071,-3.18427006 -0.28416,-3.26212006 0.1267,-0.26994 0.71233,2.92003006 0.74155,4.03925002 0.0113,0.43407998 0.0516,1.02765998 0.0894,1.31908998 0.0982,0.75548 0.10836,1.4449 0.0324,2.19487 -0.0363,0.35851 -0.051,1.34323 -0.0327,2.18826 0.0287,1.3278895 -0.002,1.7051902 -0.22423,2.7800396 -0.26656,1.2875004 -0.43972,2.2678604 -0.52341,2.9635004 -0.0266,0.22163 -0.12764,0.64247 -0.2245,0.93523 -0.0968,0.29274 -0.18245,0.64263 -0.19032,0.77751 -0.0131,0.226 -0.62555,1.99078 -1.27053,3.66156 -0.15636,0.40509 -0.25023,0.77504 -0.22515,0.88761 0.0439,0.19726 0.46884,-0.71526 1.34364,-2.88587 z m 0.35218,-19.46406 c -0.1047,-0.0491 -0.22696,-0.64849 -0.16099,-0.78905 0.039,-0.0842 0.25228,0.45765 0.26422,0.67195 0.007,0.12607 -0.0198,0.15629 -0.10312,0.11715 z m 1.72565,14.32471 c -0.007,-0.21439 -0.0382,-0.38064 -0.0693,-0.36941 -0.1187,0.0429 -0.18062,0.73801 -0.0704,0.78975 0.14677,0.0687 0.15503,0.0437 0.13969,-0.42037 z m -2.60746,3.75557 c -0.0326,-0.0503 -0.10751,0.0275 -0.18453,0.19163 -0.0712,0.15176 -0.0946,0.29226 -0.052,0.31227 0.0425,0.0203 0.12565,-0.0662 0.18451,-0.19161 0.0589,-0.12537 0.0823,-0.2659 0.0521,-0.31229 z m 0.89437,-4.12032 c -0.0315,-0.0477 -0.059,-0.0228 -0.0646,0.0587 -0.0118,0.15853 0.0325,0.20911 0.0852,0.0974 0.0189,-0.04 0.01,-0.11048 -0.0201,-0.1563 z m 0.37634,-2.1653698 c 0.0112,-0.4292907 -0.0586,-0.7310402 -0.13247,-0.5736107 -0.0937,0.19983 -0.1356,1.5120304 -0.0494,1.5524604 0.0934,0.0433 0.16561,-0.3462 0.18193,-0.9788397 z m 0.0414,-1.4415802 c -0.0774,-0.26621 -0.0989,-0.28757 -0.16156,-0.15956 -0.0746,0.15231 6.3e-4,0.52804 0.11667,0.5825 0.11812,0.0555 0.13575,-0.11031 0.0449,-0.42298 z m -3.2853,3.56035 c 0.10707,-0.5086797 0.18591,-1.1303304 0.17535,-1.3814501 -0.0105,-0.25113 0.0322,-0.5651997 0.0942,-0.6980197 0.25073,-0.5341107 0.25403,-4.9711802 0.005,-6.5544202 -0.56838,-3.61255 -1.07541,-5.32602 -2.37887,-8.0391 -0.88518,-1.84259 -2.3807,-4.2436 -2.59494,-4.16622 -0.0521,0.0188 0.94827,2.29926 1.78549,4.07051 2.25139,4.76311 3.25123,9.9496 2.78951,14.4701695 -0.12006,1.1761601 -0.21631,3.5155005 -0.13736,3.3582105 0.0366,-0.0743 0.15473,-0.551 0.26171,-1.05967 z m -16.3392,-30.93412 c -0.0847,-0.0157 -0.0497,0.0218 0.0774,0.0834 0.12718,0.0615 0.19638,0.0746 0.15383,0.0287 -0.0422,-0.0462 -0.14646,-0.0965 -0.23112,-0.11217 z m 1.44221,-5.44628 c -0.3519,-0.24706 -0.98834,-0.61375 -1.41421,-0.81491 -0.42581,-0.20134 -1.26435,-0.63684 -1.86328,-0.96816 -1.67169,-0.92477 -5.78628,-2.59083 -5.68141,-2.30045 0.0137,0.039 1.33956,0.67535 2.94563,1.41467 2.41995,1.11394 2.9796,1.39671 3.26753,1.64992 0.49613,0.4367 3.49082,1.75924 3.39733,1.5004 -0.006,-0.0179 -0.29957,-0.23451 -0.65162,-0.48144 z m -36.46413,70.63733 c -1.01554,-0.32427 -4.59222,-2.01425 -5.76604,-2.72448 -0.96982,-0.58675 -1.13467,-0.61401 -0.42444,-0.0701 1.75713,1.3456 6.06128,3.38779 7.48971,3.55364 0.56078,0.0651 -0.30847,-0.44255 -1.29938,-0.7588 z m 34.17234,-72.60578 c -0.68538,-0.49419 -1.93203,-1.21795 -2.14267,-1.24406 -0.35452,-0.0439 0.68665,0.73441 1.70292,1.27398 1.01292,0.53725 1.208,0.52397 0.43977,-0.03 z m -43.11862,69.7142 c -0.29716,-0.1413 -0.25631,-0.0674 0.0982,0.17733 0.20453,0.14177 0.2634,0.15938 0.20661,0.0636 -0.0433,-0.0737 -0.18064,-0.18201 -0.30458,-0.24117 z m -2.03501,-2.41959 c -0.25062,-0.0172 0.0128,0.33467 0.37062,0.49511 0.31723,0.1422 0.31723,0.1422 0.0452,-0.17149 -0.14984,-0.17238 -0.33674,-0.31814 -0.41568,-0.32361 z m -2.83869,-2.23817 c -1.26653,-1.18856 -1.61265,-1.42993 -1.08935,-0.75978 0.23386,0.29943 2.01461,1.86011 2.24692,1.96909 0.20654,0.097 -0.0396,-0.16018 -1.15749,-1.20938 z m 7.36373,-67.06654 c -0.0525,0.006 -0.22541,0.087 -0.38439,0.17989 -0.28911,0.16879 -0.28911,0.16879 0.0638,0.0563 0.32614,-0.1039 0.54031,-0.26188 0.32075,-0.23654 z m 53.31356,54.56425 c -0.25458,0.23604 -0.21849,-0.26606 0.0363,-0.51766 0.0795,-0.0783 0.16962,-0.10418 0.20015,-0.0574 0.0571,0.0873 -0.0865,0.43505 -0.23717,0.57502 z m -2.89398,4.85905 c -1.60933,2.53151 -5.20894,6.32714 -8.3205,8.77363 -1.16278,0.91425 -1.13532,0.87284 0.26316,-0.39678 2.94931,-2.67752 5.45104,-5.42726 7.78028,-8.55161 1.25417,-1.68229 1.39939,-1.59068 0.27725,0.17448 z m 0.19643,-1.58614 c -0.11402,0.16663 -0.24254,0.31561 -0.28572,0.3309 -0.13356,0.0482 0.20601,-0.55986 0.4666,-0.83559 0.29272,-0.30965 0.20049,-0.0529 -0.18113,0.50449 z m 0.51645,-2.04989 c -1.56775,2.75457 -3.06423,5.03746 -3.48555,5.31709 -0.09,0.0599 -0.0888,0.0338 0.004,-0.0928 2.29024,-3.11698 2.78516,-3.99652 4.27416,-7.59575 0.88674,-2.14343 2.44102,-6.50354 2.57113,-7.21259 0.42403,-2.3107 0.48671,-2.6866 0.4308,-2.5836 -0.0353,0.0641 -0.20484,0.64444 -0.37754,1.28908 -0.17272,0.64467 -0.38316,1.30997 -0.46766,1.47844 -0.12621,0.25173 -0.12485,0.19865 0.006,-0.29896 1.91347,-7.2533101 1.39839,-14.65493 -1.48701,-21.36786 -2.6426,-6.14807 -4.29977,-8.29939 -9.28611,-12.05508 -1.13876,-0.8577 -1.06947,-0.92338 0.22703,-0.21485 2.87259,1.56966 6.75985,5.70608 8.66916,9.22475 3.30643,6.09352 4.36143,10.42831 4.08855,16.7988702 -0.0313,0.7312397 -0.14606,0.9987694 -0.13056,0.3043297 0.004,-0.2293897 -0.0225,-0.4656497 -0.0613,-0.5251497 -0.0485,-0.0742 -0.0711,-0.0672 -0.0739,0.0242 -0.0254,1.0670894 -0.18631,2.9544798 -0.35138,4.1017598 -0.11382,0.79525 -0.2313,1.67606 -0.26097,1.95736 -0.0656,0.62217 -0.2097,1.10407 -1.17388,3.92601 -1.1305,3.30869 -2.23787,5.98375 -3.11502,7.52492 z m 5.0453,-18.68034 c -0.0182,-0.13477 -0.0266,-0.1387 -0.0753,-0.0349 -0.0304,0.0636 -0.0453,0.1845 -0.034,0.26784 0.0182,0.13475 0.0266,0.13869 0.0753,0.0349 0.0304,-0.0636 0.0453,-0.18449 0.0339,-0.26785 z m -12.62981,30.70576 c -0.23122,0.22955 -0.38662,0.163 -0.18776,-0.0805 0.22023,-0.26926 0.55108,-0.45324 0.44365,-0.24623 -0.0427,0.0826 -0.15795,0.22954 -0.25581,0.32669 z m 0.94546,-4.07334 c -0.70662,0.79678 -1.42244,1.46056 -1.40381,1.30177 0.006,-0.0546 0.23799,-0.30331 0.51439,-0.55296 0.27661,-0.24945 0.55401,-0.55821 0.61667,-0.6859 0.0627,-0.12762 0.32948,-0.42892 0.59305,-0.6694 0.63237,-0.57685 0.48929,-0.3065 -0.32035,0.60642 z m 2.18673,-5.40253 c -0.0585,0.007 -0.11692,-0.0163 -0.1296,-0.0511 -0.0338,-0.0937 0.16834,-0.26565 0.26113,-0.2221 0.1053,0.0493 0.005,0.25751 -0.13155,0.27326 z m 15.38652,-32.98324 c -0.12955,0.015 -0.29843,-0.35922 -0.22899,-0.50719 0.0715,-0.15222 0.31418,-0.1136 0.39725,0.0632 0.082,0.17377 -0.0139,0.42622 -0.1683,0.44397 z m -16.47728,34.51448 c -0.23375,0.10706 -0.24221,0.10437 -0.28553,-0.0894 -0.0484,-0.2163 0.38027,-0.52461 0.60134,-0.43257 0.15428,0.0643 -0.0486,0.39958 -0.31588,0.52184 z m 8.74195,-18.89777 c 0.30127,-3.37565 0.0378,-5.94644 -1.02868,-10.03733998 -0.17772,-0.68175996 -0.37639,-1.54126994 -0.44147,-1.91002002 -0.44236,-2.50642 -2.57531,-6.30454 -5.73711,-10.21601 -1.28663,-1.59171 -3.48293,-3.55646 -6.19612,-5.54296 -1.97786,-1.4481 -7.51206,-4.51259 -10.49755,-5.81289 -0.8125,-0.35387 -1.45301,-0.65219 -1.42334,-0.66289 0.71844,-0.25947 4.36803,1.21288 6.93133,2.79625 0.52438,0.32386 1.66015,0.98771 2.52414,1.47491 4.58773,2.58867 9.82538,7.51598 11.07238,10.41646 0.16731,0.38915 0.4691,0.92578 0.66998,1.19284 0.2011,0.26694 0.70873,1.11495 1.12799,1.88451 0.41926,0.76955 0.87657,1.60914 1.01629,1.86575 0.25949,0.47666 0.94826,2.51724 1.39505,4.13319004 0.41441,1.49892996 0.68305,3.48941996 0.79343,5.87938996 0.10386,2.2488402 0.25146,2.0888202 0.21309,-0.23111 -0.0131,-0.78655 -0.0728,-1.83104 -0.13295,-2.32112 -0.0601,-0.49006 -0.088,-0.89872 -0.0619,-0.90815 0.27657,-0.0999 0.43409,4.7586695 0.17743,5.4729902 -0.0672,0.18676 -0.1686,0.8510194 -0.22554,1.4760901 -0.0569,0.6250497 -0.13175,1.2497597 -0.16626,1.3882597 -0.0346,0.13846 -0.039,-0.0137 -0.01,-0.3384 z m 7.15099,-18.32308 c -0.0721,-0.0528 -0.10322,-0.17939 -0.0697,-0.2882 0.0686,-0.22376 0.17261,-0.12197 0.18877,0.18466 0.009,0.16759 -0.009,0.18312 -0.11891,0.10356 z m -19.15962,40.74056 c -0.18862,0.21479 -0.91585,0.3408 -1.02248,0.17749 -0.16447,-0.25184 0.18317,-0.58564 0.86037,-0.82623 0.71478,-0.25391 0.76823,-0.04 0.16209,0.64872 z m -4.48962,6.3544 c -0.22788,0.0823 -0.4864,0.0285 -0.43095,-0.0896 0.0558,-0.11887 0.33948,-0.21821 0.53772,-0.18823 0.249,0.0376 0.19912,0.16739 -0.10675,0.2778 z m 23.74016,-50.44171 c -0.0941,-0.0437 -1.02538,-1.5075 -1.07066,-1.68205 -0.0917,-0.35353 0.15197,-0.0606 0.59225,0.71193 0.48586,0.85257 0.56364,1.01016 0.47878,0.96996 z m -26.01354,51.45585 c -0.26298,0.095 -0.40011,0.0499 -0.50554,-0.16631 -0.18893,-0.38683 0.16491,-0.75033 0.55296,-0.56822 0.3967,0.18622 0.37107,0.58343 -0.0478,0.73453 z m 17.28428,-44.86321 c -0.0375,-0.0173 -0.0887,-0.11245 -0.11372,-0.21096 -0.0415,-0.16225 -0.0337,-0.16261 0.085,-0.004 0.13521,0.18083 0.1473,0.27054 0.029,0.21493 z m -0.51798,-1.06456 c -0.0779,-0.12634 -0.0943,-0.22429 -0.0366,-0.21751 0.11787,0.0139 0.26131,0.27032 0.21091,0.37754 -0.018,0.0385 -0.0965,-0.0335 -0.17459,-0.15971 z m -0.91285,-1.78302 c -0.0614,-0.0291 -0.18417,-0.21278 -0.2719,-0.4093 -0.16003,-0.3568 -0.16003,-0.3568 0.0464,-0.16136 0.23968,0.22689 0.4097,0.6571 0.22545,0.57062 z m -0.7467,-1.10726 c -0.2087,-0.0979 -1.59158,-2.50354 -1.46537,-2.54911 0.0835,-0.0301 0.39954,0.35424 0.57508,0.69985 0.0976,0.1918997 0.30846,0.5253297 0.46875,0.7408504 0.42987,0.5781296 0.67711,1.2283396 0.4216,1.1083696 z m -1.77344,-3.08168 c -0.0758,0.0274 -0.48423,-0.36893 -2.09886,-2.03611 -0.46768,-0.48292 -1.02919,-1.03254 -1.2478,-1.22134 -0.42213,-0.36423 -0.47796,-0.54533 -0.11631,-0.37553 0.95962,0.45038 3.85744,3.49053 3.46294,3.63298 z m -26.14353,39.26925 c -0.151,0.008 -0.29145,-0.0621 -0.5557,-0.27731 -0.19457,-0.15828 -0.47502,-0.34671 -0.62339,-0.41858 -0.42103,-0.20365 -0.21743,-0.55269 0.40071,-0.68596 0.60207,-0.13006 0.81069,-0.0208 1.0091,0.52864 0.18245,0.50525 0.0931,0.83623 -0.23027,0.85326 z m 20.34717,-44.71556 c -0.15116,0.0174 -0.62379,-0.30607 -0.70814,-0.48461 -0.0739,-0.15531 0.0482,-0.24279 0.22085,-0.15846 0.23959,0.11697 0.62612,0.62708 0.48735,0.64306 z m -1.49189,-2.40798 c -0.68645,-0.21432 -1.07105,-0.42558 -1.01032,-0.55498 0.0443,-0.0933 0.17237,-0.0607 0.65483,0.16689 0.71818,0.33892 0.92672,0.56641 0.35547,0.38812 z m -1.37275,0.31802 c -1.4062,-0.73851 -1.99756,-1.09361 -1.91289,-1.14895 0.10285,-0.067 1.18043,0.45108 2.02608,0.97423 1.09321,0.67628 1.02941,0.77477 -0.11309,0.17473 z m -22.23785,46.91586 c -0.35567,0.12846 -1.61303,-0.012 -1.44104,-0.16095 0.53392,-0.46235 0.71037,-0.50363 1.16977,-0.27345 0.53155,0.26638 0.56948,0.32647 0.27129,0.43439 z m 27.21285,-59.43032 c -3.39351,-1.95428 -7.98091,-3.829137 -10.91392,-4.460397 -0.51981,-0.11188 -1.28204,-0.301845 -1.69385,-0.422183 -0.51655,-0.150927 -2.02863,-0.366659 -4.87639,-0.695734 -5.15015,-0.595141 -4.87301,-0.573566 -6.98174,-0.54358 -2.67139,0.038 -2.70344,0.0156 -0.49124,-0.343133 1.98361,-0.321691 2.89088,-0.306385 6.84167,0.1154 2.99835,0.320116 3.42036,0.396698 5.05322,0.917117 0.70301,0.224083 1.85803,0.577766 2.56675,0.786024 3.25788,0.957263 7.39873,2.699546 9.68687,4.075786 1.05408,0.63405 1.65538,1.05832 0.80852,0.57085 z m -27.92131,58.12205 c -0.63371,0.08 -0.62641,0.0813 -0.54275,-0.0969 0.0979,-0.20852 0.57899,-0.31057 0.85461,-0.18122 0.3092,0.14513 0.23819,0.20839 -0.31208,0.27788 z m 22.37287,-47.10855 c -0.13028,0.015 -0.37395,-0.20927 -0.32973,-0.30353 0.0187,-0.0397 0.13856,-0.0232 0.2665,0.0369 0.22879,0.1074 0.26117,0.24381 0.0632,0.26668 z m -1.77881,-0.50809 c -0.51536,-0.23902 -0.66699,-0.33865 -0.60872,-0.40033 0.11817,-0.12553 0.94039,0.23724 1.13422,0.50027 0.15381,0.20867 0.13093,0.20428 -0.52543,-0.10009 z m -23.40877,48.94209 c -0.33139,0.1013 -0.61174,-0.16131 -0.45036,-0.42184 0.14953,-0.24067 0.5355,-0.27772 0.69322,-0.0661 0.13786,0.18477 0.0281,0.40512 -0.24289,0.48799 z m 21.88851,-49.58759 c -0.29455,-0.0213 -0.80794,-0.47424 -0.7288,-0.64284 0.0632,-0.1348 0.11549,-0.13161 0.40175,0.026 0.50888,0.28009 0.70178,0.64392 0.3271,0.61674 z m -1.62316,-0.79197 c -0.11235,0.0407 -0.90396,-0.35277 -0.86723,-0.43102 0.0477,-0.10176 0.28192,-0.067 0.62106,0.0922 0.28896,0.13557 0.39699,0.2844 0.24614,0.33888 z m -5.76258,-2.03272 c -0.96505,0.0159 -3.71455,-0.61584 -3.80815,-0.87503 -0.0982,-0.27185 1.14244,-0.0927 3.326,0.48034 1.19466,0.31352 1.27783,0.38157 0.48211,0.39475 z m -1.79636,0.79857 c -0.0942,0.004 -0.31062,-0.0306 -0.48091,-0.076 -0.17029,-0.0453 -0.49943,-0.0697 -0.73139,-0.0541 -0.23197,0.0156 -0.67515,-0.0213 -0.98487,-0.082 -0.3097,-0.0607 -0.63507,-0.12132 -0.723,-0.13481 -0.13949,-0.0215 -0.13697,-0.0654 0.0206,-0.34631 0.2867,-0.51105 1.91323,-0.55084 2.19846,-0.0538 0.0681,0.11883 0.27482,0.28033 0.48469,0.37873 0.39273,0.18423 0.49455,0.3576 0.21643,0.36816 z m -3.2199,-1.34703 c -0.47452,0.0675 -0.75395,-0.36818 -0.35602,-0.55517 0.26226,-0.12316 0.7417,0.2257 0.63185,0.45973 -0.0159,0.0328 -0.13969,0.0761 -0.27582,0.0954 z m -1.34952,0.53296 c -0.63115,0.0953 -0.79173,0.0873 -0.73345,-0.037 0.0596,-0.12707 1.30081,-0.22488 1.34379,-0.1059 0.01,0.0263 -0.26513,0.0906 -0.61033,0.14278 z m -0.95149,-0.73129 c -0.87443,0.0806 -5.13856,1.13772 -6.06872,1.50451 -0.31928,0.12588 -0.58025,0.11509 -0.51621,-0.0214 0.0159,-0.0328 0.32576,-0.14678 0.68936,-0.2525 0.36358,-0.1057 0.89245,-0.31731 1.17527,-0.47026 0.51945,-0.28085 0.52113,-0.28118 4.31788,-0.81252 0.84526,-0.11829 1.1274,-0.132 1.09032,-0.053 -0.0109,0.0244 -0.32084,0.0713 -0.6879,0.10515 z m -0.76572,0.88046 c -0.10237,0.0265 -0.14967,0.0116 -0.12548,-0.0398 0.0435,-0.0939 0.24231,-0.13391 0.27085,-0.0549 0.01,0.0289 -0.0542,0.0718 -0.1453,0.0948 z m -0.75233,0.15475 c -0.14249,0.0293 -0.26727,0.0307 -0.27718,0.003 -0.0283,-0.0794 0.40566,-0.18821 0.47436,-0.11899 0.0341,0.0343 -0.0552,0.086 -0.19715,0.11571 z m -21.14732,42.26036 c -0.81291,-0.38159 -2.34041,-3.857 -2.51437,-5.7209 -0.008,-0.0816 0.18607,0.34984 0.43047,0.95883 0.64547,1.60848 1.42114,3.35944 1.81151,4.08938 0.32196,0.60192 0.36895,0.718 0.27239,0.67269 z m -9.59662,19.70905 c -0.18452,-0.0726 -1.68883,-1.51767 -2.02632,-1.94648 -0.47613,-0.60492 -0.83673,-1.1904 -0.69082,-1.12201 0.20371,0.0956 2.89988,3.14043 2.71714,3.06848 z m -3.42935,-5.01297 c -1.86209,-2.14247 -4.82388,-7.83667 -4.88353,-9.38886 -0.0197,-0.51184 0.0668,-0.38537 0.65801,0.96157 1.15089,2.62239 3.00193,6.25956 3.98844,7.8369 0.58534,0.93592 0.62656,1.03854 0.23708,0.59041 z m 0.56896,-0.50353 c -0.17579,-0.19329 -1.23276,-1.84822 -1.21082,-1.89502 0.0439,-0.0924 1.01539,1.02769 1.2017,1.38535 0.14653,0.28125 0.15347,0.66889 0.009,0.50969 z m 25.38806,-54.65873 c -1.74437,0.55889 -4.26941,2.17305 -6.1317,3.91982 -2.8842,2.70519 -4.39861,4.36848 -5.94781,6.53233 -0.40554,0.56645 -0.40554,0.56645 -0.0684,-0.0791 1.0722,-2.05212 2.54094,-4.17745 3.45551,-5.00012 0.3614,-0.32444 1.04431,-0.97555 1.51826,-1.44613 1.16534,-1.15701 3.28683,-2.66548 3.78952,-2.69456 0.11893,-0.007 0.48249,-0.14652 0.80782,-0.31031 0.84752,-0.42676 1.75436,-0.80519 2.33054,-0.97272 0.52619,-0.15297 0.74268,-0.10811 0.24601,0.0511 z m 3.82679,-13.485296 c -0.0587,0.0067 -0.1154,-0.01211 -0.12639,-0.04185 -0.0105,-0.02997 0.0439,-0.04969 0.12156,-0.04412 0.1612,0.01167 0.16421,0.06773 0.005,0.08606 z m -20.5351,42.418026 c -0.0755,-0.0548 -0.0901,-0.23694 -0.04,-0.49867 0.0915,-0.47833 0.2047,-0.48798 0.25549,-0.0219 0.0441,0.4043 -0.053,0.63884 -0.21551,0.52056 z m 19.02386,-43.873684 c -0.69948,0.244705 -1.64668,0.518152 -2.10491,0.607636 -0.91839,0.179365 -2.69405,0.60915 -3.7801,0.91495 -0.38487,0.108401 -1.40507,0.483262 -2.26715,0.833081 -1.65106,0.669974 -2.07167,0.795844 -1.61191,0.482378 0.14222,-0.09696 1.09958,-0.492538 2.1275,-0.879067 1.02794,-0.386521 1.89803,-0.764703 1.93356,-0.840373 0.0356,-0.07645 0.29546,-0.180583 0.58289,-0.234151 0.28509,-0.05309 0.53997,-0.142664 0.56643,-0.199075 0.0392,-0.0845 4.53483,-1.05961 5.50655,-1.194758 0.57715,-0.08028 0.28296,0.07694 -0.95286,0.509379 z M 479.72631,1.825587 c -0.18794,-0.52052 0.0474,-2.80032992 0.42747,-4.14113 0.47496,-1.67537 0.52502,-1.5742 0.27443,0.55438 -0.29,2.46225002 -0.5774,3.93107 -0.70177,3.58668 z m -5.75045,-23.54834 c -0.32242,0.34878 -1.40838,1.91464 -2.4273,3.49987 -0.98357,1.5302 -1.9758,3.35729 -3.45778,6.36696 -1.24863,2.5357404 -1.24863,2.5357404 -0.94489,1.30661 0.36328,-1.47013 1.32745,-3.49815 2.58802,-5.44365 0.86259,-1.33126 0.92196,-1.44857 0.66416,-1.31294 -0.23081,0.12143 -0.21052,0.0776 0.11864,-0.25649 0.1441,-0.14623 0.43584,-0.53617 0.64834,-0.86645 0.74652,-1.16035 2.78062,-3.58614 3.10548,-3.70344 0.0918,-0.0331 0.0115,0.0782 -0.2947,0.40952 z m -9.01247,18.43679 c -0.55732,-0.0404 -0.48776,-0.6905 0.23959,-2.23613 0.79777,-1.69591 1.04237,-1.88885 0.58486,-0.46169 -0.15192,0.47393 -0.19716,0.74879 -0.14054,0.85384 0.15518,0.28787 -0.42871,1.86249 -0.68379,1.84397 z"
       id="path1591-7" /><rect
       style="display:none;fill:#88b926;fill-opacity:1;stroke:#121310;stroke-width:0.499999;stroke-opacity:1"
       id="rect2189-8"
       width="1016"
       height="19.049997"
       x="4.4444441e-06"
       y="277.95001" /><path
       style="fill:#88b926;fill-opacity:0.321555;stroke-width:0.529167"
       d="M 524.93335,-379.80418 V -78.708338"
       id="path10331" /></g><g
     inkscape:groupmode="layer"
     id="layer2"
     inkscape:label="align"
     style="display:none"
     sodipodi:insensitive="true"><path
       style="display:inline;fill:#88b926;fill-opacity:0.321555;stroke:#88b926;stroke-width:0.264583;stroke-dasharray:none"
       d="M 508.00001,297 V -274.50001"
       id="path10452"
       transform="translate(0,274.5)" /><path
       style="display:inline;fill:#88b926;fill-opacity:0.321555;stroke:#88b926;stroke-width:0.264583;stroke-dasharray:none"
       d="M 3.8888888e-6,11.249995 H 1016"
       id="path10472"
       transform="translate(0,274.5)" /></g></svg>
