<?xml version="1.0" encoding="UTF-8" standalone="no"?>
<svg
   width="3840"
   height="2160"
   viewBox="0 0 1016 571.50002"
   version="1.1"
   id="svg8"
   sodipodi:docname="enso.svg"
   inkscape:version="1.2.1 (9c6d41e410, 2022-07-14)"
   xml:space="preserve"
   inkscape:export-filename="enso.png"
   inkscape:export-xdpi="96"
   inkscape:export-ydpi="96"
   xmlns:inkscape="http://www.inkscape.org/namespaces/inkscape"
   xmlns:sodipodi="http://sodipodi.sourceforge.net/DTD/sodipodi-0.dtd"
   xmlns:xlink="http://www.w3.org/1999/xlink"
   xmlns="http://www.w3.org/2000/svg"
   xmlns:svg="http://www.w3.org/2000/svg"
   xmlns:rdf="http://www.w3.org/1999/02/22-rdf-syntax-ns#"
   xmlns:cc="http://creativecommons.org/ns#"
   xmlns:dc="http://purl.org/dc/elements/1.1/"><defs
     id="defs2"><linearGradient
       inkscape:collect="always"
       id="linearGradient1708"><stop
         style="stop-color:#528bff;stop-opacity:1;"
         offset="0"
         id="stop1704" /><stop
         style="stop-color:#ae81ff;stop-opacity:1;"
         offset="1"
         id="stop1706" /></linearGradient><linearGradient
       inkscape:collect="always"
       xlink:href="#linearGradient1708"
       id="linearGradient1710"
       x1="-3.4888103e-08"
       y1="499.99999"
       x2="991.58444"
       y2="499.99999"
       gradientUnits="userSpaceOnUse"
       gradientTransform="matrix(0.08334375,0,0,0.08334375,466.67882,-35.71355)" /></defs><sodipodi:namedview
     id="base"
     pagecolor="#272822"
     bordercolor="#49483e"
     borderopacity="0.41176471"
     inkscape:pageopacity="0"
     inkscape:pageshadow="2"
     inkscape:zoom="0.43750002"
     inkscape:cx="1494.8571"
     inkscape:cy="1049.1428"
     inkscape:document-units="px"
     inkscape:current-layer="layer2"
     showgrid="false"
     showborder="true"
     inkscape:window-width="3836"
     inkscape:window-height="2114"
     inkscape:window-x="3831"
     inkscape:window-y="2160"
     inkscape:window-maximized="0"
     inkscape:document-rotation="0"
     units="mm"
     inkscape:showpageshadow="0"
     inkscape:pagecheckerboard="0"
     inkscape:deskcolor="#1d1e19" /><metadata
     id="metadata5"><rdf:RDF><cc:Work
         rdf:about=""><dc:format>image/svg+xml</dc:format><dc:type
           rdf:resource="http://purl.org/dc/dcmitype/StillImage" /></cc:Work></rdf:RDF></metadata><g
     inkscape:label="Layer 1"
     inkscape:groupmode="layer"
     id="layer1"
     transform="translate(0,274.50001)"><rect
       style="fill:#121310;stroke-width:0.499999;fill-opacity:1;stroke:#121310;stroke-opacity:1"
       id="rect2189"
       width="1016"
       height="571.5"
       x="8.8888883e-06"
       y="-274.5" /><rect
       style="display:none;fill:#88b926;fill-opacity:1;stroke:#121310;stroke-width:0.499999;stroke-opacity:1"
       id="rect2189-8"
       width="1016"
       height="19.049997"
       x="4.4444441e-06"
       y="277.95001" /><path
       style="fill:url(#linearGradient1710);fill-opacity:1;stroke-width:0.264582"
       d="m 467.34489,16.928864 c -0.11846,-1.163521 -0.30325,-2.83972 -0.41064,-3.724895 -0.80279,-6.6161739 0.30751,-14.4899774 3.03812,-21.5453916 1.71566,-4.4329794 2.22803,-5.6118464 2.77403,-6.3824624 0.30875,-0.435759 1.00369,-1.497084 1.54434,-2.35848 0.54063,-0.861414 1.32197,-1.920375 1.73631,-2.353245 3.21867,-3.362748 8.16521,-7.638388 10.60455,-9.166317 1.08165,-0.677509 2.60288,-1.642873 3.38051,-2.145254 1.04604,-0.675782 2.18347,-1.141834 4.37207,-1.791408 1.62701,-0.482895 3.30214,-1.094358 3.72252,-1.358803 1.1587,-0.728904 4.76884,-1.94155 5.20713,-1.749076 0.20457,0.08984 0.87409,0.105232 1.48781,0.03421 0.61372,-0.07102 1.51397,-0.114887 2.00055,-0.09748 0.81829,0.02926 0.85852,0.06444 0.53594,0.468613 -0.33658,0.421713 -0.33155,0.437696 0.14382,0.457843 0.27091,0.0115 0.82709,0.09814 1.23595,0.19256 0.40887,0.09442 1.55741,0.164285 2.55232,0.155248 0.9949,-0.009 2.0336,0.0957 2.3082,0.232747 0.53634,0.267693 3.25927,0.90474 7.49774,1.754144 1.86852,0.374465 3.43727,0.918713 5.36678,1.861946 1.49957,0.733052 2.9409,1.530944 3.20296,1.773078 0.26206,0.242159 0.75759,0.52421 1.10116,0.626771 0.71387,0.213142 5.61732,3.282017 5.69401,3.563674 0.0278,0.102132 0.97462,1.041957 2.10403,2.088497 1.12941,1.046544 2.71416,2.665064 3.52165,3.596676 1.83396,2.11589 2.65996,3.589681 0.98695,1.760976 -0.64398,-0.703911 -1.26255,-1.254871 -1.37461,-1.22436 -0.33193,0.09038 -0.14929,0.410788 1.0926,1.916753 3.10957,3.770777 4.79066,6.5865187 5.91909,9.9141684 0.56986,1.680478 0.74911,2.4546692 0.55505,2.3972422 -0.15765,-0.04665 -0.47099,-0.4928242 -0.6963,-0.9914562 -0.69458,-1.537197 -4.42217,-6.9972314 -4.72142,-6.9157544 -0.19277,0.05249 1.06943,3.6498374 1.70681,4.8645184 1.97011,3.7545132 3.26097,13.340188 2.60686,19.3580976 -0.30278,2.785651 -1.09396,6.150668 -2.10152,8.93807 -1.49825,4.144884 -5.39858,10.432199 -7.86339,12.675733 -0.46708,0.425133 -1.99473,1.638689 -3.39479,2.69679 -2.58079,1.950419 -2.65553,2.393194 -0.13108,0.77656 1.53801,-0.984936 2.04136,-1.191633 1.92229,-0.789333 -0.0738,0.249573 -0.97177,1.067488 -1.74545,1.589982 -0.25287,0.170777 -0.23139,0.198054 0.0978,0.12419 0.91667,-0.20568 0.44652,0.359242 -1.25272,1.505294 -2.11862,1.428904 -4.29818,2.636332 -4.59849,2.547439 -0.11843,-0.03505 -1.41213,0.427183 -2.87487,1.02718 -2.96831,1.217516 -7.03538,2.210273 -8.68871,2.12086 -0.57112,-0.03089 -1.75346,-0.0064 -2.6274,0.05448 -0.87395,0.06082 -1.99505,-0.0407 -2.49135,-0.225646 -0.87798,-0.327181 -4.13587,-1.026951 -4.42042,-0.949476 -0.17893,0.04872 -1.69793,-0.179453 -3.39781,-0.510392 -1.64514,-0.320274 -1.75848,-0.285654 -0.86372,0.263897 0.94068,0.577746 0.55675,0.67356 -1.7912,0.447074 -3.01429,-0.290783 -5.18613,-1.081865 -10.28364,-3.745774 -2.34666,-1.226345 -2.81906,-1.364573 -1.79375,-0.524883 1.96556,1.609704 8.28468,4.489522 11.14301,5.078215 0.81843,0.16856 2.24068,0.534234 3.16056,0.81263 0.91987,0.278372 2.6115,0.573029 3.7592,0.6548 1.14769,0.08174 2.36639,0.207472 2.70822,0.279396 0.53188,0.111916 0.57045,0.168178 0.26712,0.390344 -0.45802,0.335521 -5.28983,0.03781 -7.96199,-0.490588 -2.35777,-0.466213 -5.4276,-1.404485 -7.76031,-2.371862 -3.19813,-1.326265 -7.91569,-4.213647 -9.98865,-6.113585 -0.48748,-0.446767 -0.93693,-0.72387 -0.99877,-0.61574 -0.0618,0.108118 0.0119,0.242789 0.16389,0.299267 0.15199,0.05648 0.98743,0.714781 1.85653,1.462897 1.76407,1.518494 5.41984,3.784815 8.08382,5.011402 1.71668,0.790386 5.93612,2.297808 6.21747,2.221203 0.28517,-0.07764 2.4135,0.662513 2.32915,0.809988 -0.10252,0.179212 -2.71421,-0.312765 -4.49904,-0.847508 -2.48964,-0.745922 -6.58669,-2.72681 -10.02094,-4.845079 -1.92708,-1.188622 -3.51151,-2.023136 -3.52095,-1.854443 -0.0232,0.414029 1.95641,2.108283 3.86801,3.31051 0.85798,0.539596 1.52795,1.037045 1.48882,1.105451 -0.0732,0.128029 -0.30018,-0.0045 -3.12466,-1.825114 -1.69383,-1.091783 -5.10866,-3.974038 -6.86044,-5.790481 -2.25161,-2.334743 -4.92694,-6.132203 -6.71938,-9.537736 -0.86283,-1.639332 -1.13305,-1.923827 -0.85407,-0.899188 0.61784,2.269161 4.25028,7.967478 7.18361,11.269122 0.60234,0.677979 1.07864,1.36244 1.05845,1.520999 -0.0202,0.158588 -0.10206,0.08169 -0.18193,-0.170894 -0.112,-0.354095 -0.19228,-0.376996 -0.3507,-0.100005 -0.15842,0.276967 -0.46102,0.151452 -1.3217,-0.548185 -2.67493,-2.174442 -4.50119,-4.69582 -8.47012,-11.694114 -1.48321,-2.615391 -2.85718,-6.869541 -3.15116,-9.756905 z m 2.0524,3.932408 c 0.42624,0.329007 0.39063,0.05233 -0.34358,-2.671051 -0.85394,-3.167304 -1.26669,-6.251612 -1.29049,-9.6423761 -0.009,-1.3295021 -0.11515,-2.0545308 -0.31662,-2.1697668 -0.20148,-0.1152677 -0.29285,0.407155 -0.27338,1.5633771 0.016,0.9550627 0.0167,2.0276281 0.002,2.3834828 -0.0153,0.355855 0.10768,1.646043 0.27321,2.867083 0.16552,1.221043 0.31301,2.389451 0.32776,2.596449 0.0147,0.207008 0.27865,1.35049 0.5865,2.541073 0.40552,1.568298 0.69071,2.265794 1.03519,2.531729 z m 2.79075,4.407635 c -0.003,-0.243901 -0.11692,-0.673119 -0.25458,-0.953807 -0.13762,-0.280721 -0.13566,-0.08116 0.004,0.443444 0.14002,0.524592 0.25261,0.754244 0.2502,0.510375 z m 6.0162,2.446127 c 0.0576,-0.100674 0.0101,-0.308361 -0.10548,-0.461536 -0.12774,-0.169256 -0.1688,-0.09748 -0.10469,0.183046 0.058,0.253827 0.15258,0.379165 0.21016,0.278493 z m 1.36292,2.183085 c 0.67045,1.00095 1.28845,1.617037 1.40959,1.405239 0.0323,-0.05648 -0.47141,-0.814123 -1.11937,-1.68369 -1.24845,-1.675452 -1.46184,-1.470714 -0.29022,0.278451 z m -4.00524,-46.313881 c 0.13748,-0.140918 0.71836,-0.860951 1.29085,-1.60008 2.00149,-2.584109 7.58824,-8.077136 8.45493,-8.313115 0.32687,-0.08899 1.47371,-1.189414 1.56657,-1.503154 0.1223,-0.413211 -0.81459,0.129288 -2.79039,1.615761 -2.95991,2.226889 -7.19446,6.608555 -8.36589,8.656552 -0.53309,0.931978 -0.628,1.627734 -0.15607,1.144036 z m 2.54281,-1.041733 c 0.66279,-0.769006 2.52767,-2.564645 4.14418,-3.990322 1.6165,-1.425678 2.93162,-2.619588 2.92248,-2.653164 -0.059,-0.216716 -2.47066,0.757538 -2.48444,1.003666 -0.009,0.167142 -0.96118,1.133042 -2.11515,2.146438 -2.16717,1.903186 -4.57823,4.840879 -3.99962,4.873255 0.18011,0.01011 0.86976,-0.61086 1.53255,-1.379873 z m 9.95093,38.129406 c 0.40971,0.707202 0.88677,1.624017 1.06012,2.037349 0.17337,0.413327 0.81984,1.341926 1.43659,2.063528 0.61677,0.721623 1.1526,1.426664 1.19075,1.566774 0.0381,0.140115 0.21803,0.272334 0.39972,0.293816 0.23935,0.0283 0.25348,0.06558 0.0513,0.135238 -0.15353,0.0528 -0.55651,-0.173578 -0.89558,-0.503294 -0.64322,-0.625463 -1.04864,-0.712845 -0.90782,-0.195709 0.0931,0.341908 1.3788,1.445799 4.08923,3.510944 1.02064,0.777639 1.88568,1.524 1.92232,1.658592 0.0777,0.285182 -2.71628,-0.633643 -4.18653,-1.376822 -0.555,-0.280521 -1.03276,-0.468655 -1.06169,-0.418088 -0.18388,0.321473 1.45209,2.111374 2.77904,3.040611 0.86661,0.606839 1.82248,1.372006 2.12416,1.700341 1.06144,1.155317 5.35107,2.821462 9.27409,3.602167 4.30919,0.857549 8.53493,0.707041 15.08828,-0.537431 2.016,-0.382849 1.8888,-0.330741 -1.61083,0.659752 -4.12976,1.168829 -6.49765,1.446549 -10.28643,1.206363 -2.51712,-0.159552 -2.79374,-0.0666 -0.93737,0.314942 2.29824,0.472392 6.37787,0.614109 7.66355,0.266204 0.63153,-0.171951 1.84053,-0.383672 2.68604,-0.472746 1.20653,-0.127053 1.7383,-0.29652 2.4713,-0.787458 0.51367,-0.344072 1.57811,-0.796211 2.3654,-1.004762 6.5051,-1.723173 6.75048,-1.840526 9.9404,-4.745554 5.081,-4.62753 8.73412,-11.254304 9.84649,-17.861486 0.37842,-2.247751 0.24316,-2.902682 -0.1816,-0.879271 -0.47388,2.257474 -1.56935,5.395668 -2.48484,7.118276 -0.4465,0.840159 -0.83471,1.45568 -0.86269,1.367839 -0.028,-0.08784 0.0514,-0.339647 0.17633,-0.559569 0.87792,-1.545123 2.50909,-6.615668 2.50901,-7.799297 l -5e-5,-0.639436 -0.35911,0.737225 -0.35912,0.737226 -0.0746,-0.747016 c -0.0411,-0.41086 -0.0994,-2.351694 -0.12963,-4.3129677 -0.0302,-1.9612721 -0.11542,-4.2324776 -0.18927,-5.0471053 -0.22036,-2.4304326 -1.19578,-5.58663142 -2.33807,-7.5653384 -0.56145,-0.972566 -1.26275,-2.3421862 -1.55843,-3.0436002 -0.2957,-0.701435 -0.91918,-1.740242 -1.38551,-2.308458 -0.46635,-0.568238 -1.50673,-2.0047874 -2.31196,-3.1923344 -1.58637,-2.339561 -2.98152,-3.662918 -5.1244,-4.860699 -1.56234,-0.873293 -1.66093,-0.4926 -0.19772,0.763419 0.53701,0.46096 0.95881,1.012245 0.93733,1.225071 -0.0215,0.212802 0.18281,0.528957 0.45398,0.702537 1.01169,0.647606 3.55339,3.9630917 4.2141,5.4970024 0.36528,0.848056 0.95572,1.963562 1.31211,2.478918 0.35638,0.515356 0.77441,1.4348382 0.92897,2.0432822 l 0.28103,1.10629 -0.63379,-0.914505 c -0.34858,-0.502977 -0.73201,-0.887758 -0.85207,-0.855071 -0.12005,0.03269 -0.0505,0.733141 0.15451,1.55656 0.20504,0.823416 0.25653,1.241031 0.11441,0.928025 -2.47336,-5.4477272 -6.10582,-9.5023136 -10.90303,-12.1700976 -2.46322,-1.369849 -3.41684,-1.560124 -1.20514,-0.240499 2.72835,1.627922 4.49826,3.062179 6.3107,5.1139454 1.75902,1.991291 2.58793,3.310694 2.15412,3.42881 -0.42695,0.116247 -1.08819,-0.382687 -2.92474,-2.206868 -2.50629,-2.4894124 -3.96351,-3.5374484 -6.08909,-4.3792674 -1.01968,-0.403844 -2.17701,-0.884928 -2.57185,-1.069093 -0.39484,-0.184161 -1.44523,-0.51951 -2.33421,-0.745213 -0.88898,-0.225701 -1.94165,-0.548176 -2.33927,-0.716619 -1.93972,-0.821673 -6.14025,-0.631329 -10.33554,0.468323 -2.36511,0.619913 -3.21366,0.958607 -5.00699,1.998293 -1.1876,0.688532 -2.36324,1.443553 -2.61254,1.67784 -0.9384,0.8819897 -3.61168,4.0509894 -4.59827,5.4510014 -0.56362,0.7998192 -1.30036,1.7556802 -1.63718,2.1241932 -0.67116,0.734274 -1.79563,3.33928884 -2.02532,4.6919808 -0.08,0.471243 -0.28902,1.356267 -0.46446,1.96675 -0.17545,0.610486 -0.23843,1.4128536 -0.13996,1.7830123 0.18351,0.6898527 -0.32679,3.0760022 -0.6783,3.1717082 -0.10762,0.0293 -0.28258,-0.06694 -0.38881,-0.213869 -0.1062,-0.1469407 -0.28685,0.333887 -0.40137,1.0684584 -0.11452,0.7345817 -0.31853,1.5623487 -0.45336,1.8394667 -0.3622,0.744565 -0.23216,1.833929 0.60536,5.071255 0.50987,1.970803 0.99343,3.325501 1.49786,4.196218 z m 50.59911,2.291373 c 0.10893,-0.116598 0.22895,-0.09853 0.26672,0.04018 0.0378,0.138682 -0.0385,0.281345 -0.16947,0.317005 -0.13097,0.03566 -0.25099,0.01759 -0.26672,-0.04018 -0.0157,-0.05774 0.0605,-0.200414 0.16947,-0.317012 z m -7.00042,-28.2120926 c 0.11063,0.145725 0.18357,0.41362 0.16208,0.595318 -0.0215,0.181698 -0.112,0.06247 -0.20115,-0.264956 -0.0891,-0.327427 -0.0716,-0.476088 0.0391,-0.330362 z m 3.64583,4.89327916 c 0.1376,0.280696 0.25215,0.70991488 0.25454,0.95381686 0.003,0.243876 -0.11023,0.01414 -0.25021,-0.51037598 -0.13999,-0.52459788 -0.14194,-0.72416286 -0.004,-0.44344088 z m -46.54001,-0.44016898 c 0.27066,-0.63640698 1.02482,-2.07979998 1.67591,-3.20752798 1.4556,-2.5212412 1.43106,-3.4539622 -0.0338,-1.2828562 -1.34668,1.9959592 -2.46271,4.51181118 -2.28068,5.14124416 0.12344,0.42676788 0.22392,0.32444688 0.63853,-0.65085998 z M 485.4793,-24.848973 c 0.0416,-0.105676 0.37646,-0.355264 0.7442,-0.554659 5.44173,-2.950296 7.22918,-3.688694 12.23646,-5.054845 2.51692,-0.686826 4.67739,-1.218628 4.80099,-1.182051 0.12359,0.03658 1.15374,-0.05472 2.2892,-0.202882 2.16643,-0.28269 9.12874,-0.08521 11.58871,0.328725 1.61741,0.27215 1.99551,0.124671 0.79441,-0.309888 -1.65063,-0.59718 -5.72813,-1.029725 -9.56298,-1.014454 -7.48702,0.02983 -17.07437,3.014279 -22.51846,7.009736 -0.46899,0.344213 -1.04784,0.754655 -1.28634,0.912104 -0.40012,0.264178 -0.3845,0.285271 0.20231,0.273317 0.34976,-0.0071 0.66993,-0.09943 0.71153,-0.204984 z m 19.74798,68.29587 c 0.0574,-0.01562 0.74064,0.07783 1.51841,0.2077 1.55592,0.259753 4.63352,0.501353 5.82256,0.4571 0.70208,-0.02613 0.71679,-0.04331 0.19406,-0.226667 -0.31107,-0.109126 -0.97938,-0.238608 -1.48513,-0.287737 -0.50575,-0.04911 -1.2774,-0.135383 -1.71477,-0.191714 -0.43738,-0.05633 -1.74507,-0.209054 -2.90598,-0.339386 -1.16093,-0.130345 -2.49015,-0.298257 -2.95384,-0.37313 -1.36107,-0.219843 -1.31952,-0.06338 0.0994,0.374551 0.72654,0.224221 1.3679,0.394906 1.42526,0.379288 z m 4.38239,-2.216319 c 0.26194,-0.07132 0.4498,-0.22681 0.41748,-0.345505 -0.0323,-0.118712 -0.25781,-0.101443 -0.50111,0.03836 -0.24328,0.139831 -0.43113,0.295345 -0.41749,0.345511 0.0137,0.05022 0.23918,0.03295 0.50112,-0.03837 z m -1.3608,-56.666406 c 0.62629,-0.160033 3.6742,-0.216131 4.87662,-0.08964 0.3854,0.04053 1.59059,0.241015 2.67821,0.445497 1.99061,0.374268 2.78691,0.373798 2.3853,-0.0013 -0.70874,-0.662103 -7.68267,-1.392998 -9.48283,-0.993846 -1.64512,0.364796 -1.95878,0.504829 -1.47517,0.658634 0.23103,0.07348 0.68907,0.06481 1.01787,-0.01928 z m 25.58922,49.046552 c 0.59027,-0.160717 4.46445,-3.905489 5.68176,-5.491972 0.21302,-0.277637 0.25862,-0.232427 0.23913,0.237 -0.0415,1.000666 0.56466,0.52236 2.36878,-1.868995 1.61599,-2.14195 3.36879,-5.778137 3.80472,-7.892806 0.0819,-0.397159 0.27461,-1.159176 0.42833,-1.693402 0.15371,-0.534231 0.28068,-1.259407 0.28216,-1.611507 0.003,-0.582388 -0.0425,-0.54794 -0.49815,0.381741 -0.27545,0.562057 -0.47731,1.108296 -0.44858,1.213833 0.0976,0.358428 -0.96006,3.714867 -1.52474,4.838764 -1.23342,2.454913 -1.81486,2.960221 -1.17672,1.022603 0.37671,-1.143764 0.80495,-3.613442 0.61774,-3.562472 -0.063,0.01717 -1.02317,1.645524 -2.13369,3.618566 -2.10265,3.735808 -3.70128,6.018591 -5.56436,7.9458 -1.7418,1.801755 -2.37266,2.545537 -2.32215,2.73793 0.0258,0.09848 0.13644,0.154682 0.24577,0.124917 z m 7.11775,-7.597783 c 0.29704,-0.399015 0.30775,-0.392903 0.11439,0.06544 -0.20308,0.481357 -0.36428,0.660748 -0.41765,0.464749 -0.0134,-0.04944 0.12301,-0.288015 0.30326,-0.530185 z m -21.3407,-55.913308 c 0.54851,0.120787 2.32858,0.670393 3.95572,1.221334 3.88066,1.313947 4.09073,1.340697 2.07297,0.263879 -0.93431,-0.498633 -2.22834,-1.023933 -2.87564,-1.167368 -0.64729,-0.143432 -1.73965,-0.425329 -2.42747,-0.626435 -0.68781,-0.201105 -1.65997,-0.38973 -2.16036,-0.419132 -0.9096,-0.05349 -0.90966,-0.05346 -0.23615,0.227304 0.37051,0.154444 1.12243,0.379631 1.67093,0.500418 z m 9.99124,4.640404 c 0.0884,-0.138581 -1.50781,-0.954053 -1.74181,-0.889882 -0.0778,0.02136 0.26383,0.259198 0.75921,0.528558 0.49537,0.269356 0.93754,0.431934 0.9826,0.361324 z m -48.20101,64.657958 c 0.1156,0.153176 0.16307,0.360866 0.10549,0.461533 -0.0576,0.100678 -0.15216,-0.02466 -0.21016,-0.278486 -0.0641,-0.280533 -0.023,-0.352307 0.10468,-0.183048 z m 63.27132,-55.082522 c 0.1156,0.153175 0.16306,0.360864 0.10546,0.461543 -0.0576,0.100677 -0.15216,-0.02466 -0.21017,-0.27849 -0.0641,-0.28053 -0.023,-0.352306 0.1047,-0.18305 z"
       id="path1702" /></g><g
     inkscape:groupmode="layer"
     id="layer2"
     inkscape:label="Alignment"
     style="display:none"><rect
       style="fill:none;stroke:#88b926;stroke-width:0.264583"
       id="rect924"
       width="508.00003"
       height="571.5"
       x="0"
       y="-274.5"
       rx="0.52916664"
       ry="0.52916664"
       transform="translate(0,274.5)" /><rect
       style="fill:none;stroke:#88b926;stroke-width:0.264582"
       id="rect924-82"
       width="1016"
       height="285.75"
       x="4.5776367e-05"
       y="11.25"
       rx="0.52916664"
       ry="0.52916664"
       transform="translate(0,274.5)" /><rect
       style="fill:none;stroke:#88b926;stroke-width:0.264583"
       id="rect924-8"
       width="508.00003"
       height="571.5"
       x="508.00003"
       y="-274.5"
       rx="0.52916664"
       ry="0.52916664"
       transform="translate(0,274.5)" /></g></svg>
