<?xml version="1.0" encoding="UTF-8" standalone="no"?>
<svg
   width="3840"
   height="2160"
   viewBox="0 0 1016 571.50002"
   version="1.1"
   id="svg8"
   sodipodi:docname="enso_tn2.svg"
   inkscape:version="1.2.1 (9c6d41e410, 2022-07-14)"
   xml:space="preserve"
   inkscape:export-filename="enso_tn2.png"
   inkscape:export-xdpi="96"
   inkscape:export-ydpi="96"
   xmlns:inkscape="http://www.inkscape.org/namespaces/inkscape"
   xmlns:sodipodi="http://sodipodi.sourceforge.net/DTD/sodipodi-0.dtd"
   xmlns:xlink="http://www.w3.org/1999/xlink"
   xmlns="http://www.w3.org/2000/svg"
   xmlns:svg="http://www.w3.org/2000/svg"
   xmlns:rdf="http://www.w3.org/1999/02/22-rdf-syntax-ns#"
   xmlns:cc="http://creativecommons.org/ns#"
   xmlns:dc="http://purl.org/dc/elements/1.1/"><defs
     id="defs2"><linearGradient
       inkscape:collect="always"
       id="linearGradient2030"><stop
         style="stop-color:#73daca;stop-opacity:1;"
         offset="0.59400547"
         id="stop2026" /><stop
         style="stop-color:#bb9af7;stop-opacity:1;"
         offset="1"
         id="stop2028" /></linearGradient><linearGradient
       inkscape:collect="always"
       xlink:href="#linearGradient2030"
       id="linearGradient2032-3"
       x1="567.46613"
       y1="-109.13203"
       x2="829.02582"
       y2="-109.13203"
       gradientUnits="userSpaceOnUse"
       gradientTransform="matrix(0.32254945,0.02012196,-0.02012196,0.32254945,280.58323,23.560827)" /></defs><sodipodi:namedview
     id="base"
     pagecolor="#272822"
     bordercolor="#49483e"
     borderopacity="0.41176471"
     inkscape:pageopacity="0"
     inkscape:pageshadow="2"
     inkscape:zoom="0.61448316"
     inkscape:cx="1792.5634"
     inkscape:cy="1133.4729"
     inkscape:document-units="px"
     inkscape:current-layer="layer1"
     showgrid="false"
     showborder="true"
     inkscape:window-width="1916"
     inkscape:window-height="2113"
     inkscape:window-x="1911"
     inkscape:window-y="2160"
     inkscape:window-maximized="0"
     inkscape:document-rotation="0"
     units="mm"
     inkscape:showpageshadow="0"
     inkscape:pagecheckerboard="0"
     inkscape:deskcolor="#1d1e19" /><metadata
     id="metadata5"><rdf:RDF><cc:Work
         rdf:about=""><dc:format>image/svg+xml</dc:format><dc:type
           rdf:resource="http://purl.org/dc/dcmitype/StillImage" /></cc:Work></rdf:RDF></metadata><g
     inkscape:groupmode="layer"
     id="layer3"
     inkscape:label="bg"
     sodipodi:insensitive="true"
     style="display:inline"><rect
       style="fill:#13131a;fill-opacity:1;stroke:#121310;stroke-width:0.499999;stroke-opacity:1"
       id="rect2189"
       width="1016"
       height="571.5"
       x="8.8888892e-06"
       y="-274.5"
       transform="translate(0,274.5)" /></g><g
     inkscape:label="enso"
     inkscape:groupmode="layer"
     id="layer1"
     transform="translate(0,274.50001)"
     style="display:inline"><path
       style="fill:url(#linearGradient2032-3);fill-opacity:1;stroke-width:1"
       d="m 545.60001,20.911431 c -0.22587,0.335534 -0.77398,1.289736 -1.2182,2.120274 -0.44428,0.830488 -0.90305,1.607187 -1.01979,1.725858 -0.11884,0.121107 -0.26963,0.389323 -0.34323,0.610989 -0.0991,0.297841 -0.17184,0.405598 -0.29598,0.43774 -0.10808,0.02796 -0.18441,0.123224 -0.22211,0.277511 -0.0355,0.144872 -0.27088,0.460067 -0.61469,0.823958 -0.30633,0.324082 -0.63517,0.755781 -0.73124,0.958885 -0.0955,0.203423 -0.63082,0.935489 -1.18876,1.627137 -0.55794,0.691657 -1.06869,1.373179 -1.13501,1.514456 -0.0769,0.163783 -0.23432,0.309434 -0.43415,0.401964 -0.33899,0.156484 -0.74803,0.52432 -1.45359,1.30714 -0.64819,0.719076 -1.51248,1.486129 -2.48236,2.202869 -1.56002,1.152822 -2.35081,1.714834 -2.46889,1.754664 -0.0783,0.02636 -0.0914,0.02007 -0.0396,-0.01867 0.2474,-0.185561 2.02009,-1.810221 2.86261,-2.623605 0.54316,-0.52435 1.39307,-1.294339 1.88863,-1.71114 1.24348,-1.045774 2.49905,-2.465583 2.77848,-3.141854 0.21023,-0.508823 0.21023,-0.508823 -0.61509,0.378979 -3.33658,3.589149 -3.11062,3.377178 -5.63696,5.288667 -2.32019,1.755423 -4.16738,3.076222 -4.19503,2.999568 -0.009,-0.02147 0.65308,-0.634833 1.46871,-1.362576 3.97212,-3.544377 5.4486,-5.084205 7.48803,-7.808718 0.50358,-0.672806 1.04687,-1.374168 1.20725,-1.55864 0.93118,-1.071135 2.79286,-4.03316 3.91458,-6.228111 0.61268,-1.198902 1.32734,-2.589746 1.58807,-3.09078 0.3081,-0.591988 0.4788,-1.001381 0.48752,-1.169178 0.0104,-0.19868 0.0561,-0.290002 0.19867,-0.396282 0.18842,-0.140458 0.26405,-0.397191 0.13474,-0.45788 -0.10519,-0.04943 -0.41575,0.416512 -0.50351,0.755471 -0.12852,0.496532 -0.42393,0.846304 -0.52054,0.615872 -0.0743,-0.177393 -0.12396,-0.08827 -1.00812,1.808244 -2.05108,4.399158 -4.83601,8.57676 -7.65485,11.482838 -0.44541,0.459278 -0.80572,0.871576 -0.8005,0.916459 0.0285,0.248206 -5.27307,5.025963 -5.88964,5.307598 -0.11219,0.05122 -0.17173,0.0658 -0.1324,0.03235 0.91501,-0.777777 2.332,-2.225834 3.20836,-3.278747 0.60177,-0.72254 1.60381,-1.90354 2.22731,-2.623914 4.19785,-4.850437 6.34528,-8.163613 8.02722,-12.384559 1.43078,-3.590697 1.29577,-3.500273 -0.50994,0.341535 -0.91324,1.942961 -1.70061,3.558885 -1.74972,3.590946 -0.0493,0.03165 -0.35664,0.540196 -0.68336,1.129188 -1.06971,1.928273 -2.40736,3.843006 -3.62999,5.195977 -0.76549,0.847013 -0.67179,0.64982 0.34411,-0.724838 2.56413,-3.469429 4.37771,-6.656185 4.35393,-7.650576 -0.008,-0.322394 0.40902,-1.448885 1.56032,-4.217931 0.73026,-1.756382 1.00097,-2.585183 0.91857,-2.81216 -0.0278,-0.07609 -0.11644,0.09206 -0.26803,0.508413 -0.18295,0.502373 -0.26609,0.644848 -0.4311,0.739625 -0.22764,0.130613 -0.50538,0.646006 -0.41929,0.777887 0.0297,0.04713 0.124,0.01867 0.20791,-0.06211 0.15151,-0.14563 0.15222,-0.144932 0.10645,0.101367 -0.0322,0.17251 -0.15226,0.347656 -0.39186,0.571738 -0.33367,0.312579 -0.39187,0.425649 -1.74109,3.407823 -0.78842,1.742483 -1.45064,3.12409 -1.52193,3.175133 -0.0771,0.05522 0.13073,-0.457071 0.53413,-1.316645 2.28624,-4.871047 3.5866,-9.143486 4.08069,-13.4073961 1.05827,-9.1326115 -0.57175,-15.3619706 -6.19361,-23.6697469 -0.61966,-0.91569 -2.93643,-3.321193 -3.91817,-4.068267 -1.6384,-1.246741 -2.43464,-1.814874 -3.30449,-2.357826 -1.12693,-0.703469 -3.68831,-2.107982 -4.62006,-2.53339 -1.78537,-0.815221 -3.50827,-1.522575 -4.43263,-1.819847 -0.56286,-0.181027 -1.03855,-0.336233 -1.05706,-0.34493 -0.0187,-0.009 0.0624,-0.05602 0.1797,-0.105241 0.3488,-0.14597 0.24065,-0.193458 -1.40466,-0.616481 -5.15322,-1.324922 -7.36321,-1.526009 -10.87707,-0.989708 -0.39169,0.05981 -1.03137,0.154787 -1.42146,0.211112 -3.33923,0.482083 -6.02317,1.289925 -5.36232,1.613977 0.2112,0.103504 0.2112,0.103504 -0.15742,0.184512 -0.75525,0.16589 -2.15487,0.684718 -2.83554,1.051105 -0.38666,0.208146 -1.05859,0.533206 -1.49308,0.722491 -5.11677,2.228211 -8.57205,5.754045 -10.99625,11.220734 -0.55298,1.24705 -1.0941,2.380013 -1.20245,2.517715 -0.11014,0.140758 -0.25899,0.463263 -0.33821,0.735283 -0.38084,1.3082166 -0.41503,0.8926434 -0.049,-0.595174 0.40531,-1.647258 0.41894,-1.731221 0.27237,-1.677772 -0.13115,0.04773 -1.55442,3.1701825 -1.70531,3.7409817 -0.0733,0.2773126 -0.3188,1.1822181 -0.54551,2.0109391 -0.54836,2.004298 -0.7739,3.702458 -0.71273,5.3664394 0.0259,0.70599563 0.009,1.36457277 -0.0371,1.46348366 -0.0464,0.098851 -0.0567,0.25661313 -0.0229,0.35044168 0.0339,0.0938585 0.0335,0.23073213 -10e-4,0.30416143 -0.0958,0.20411229 -0.0156,1.99163733 0.12082,2.69369893 0.0667,0.342973 0.22077,1.2654318 0.3425,2.0498899 0.12173,0.7844467 0.35599,1.9145335 0.5206,2.5113035 0.1646,0.59677 0.4118,1.6107907 0.54934,2.2533816 0.30453,1.4228351 0.49142,1.8767401 1.47176,3.5742711 0.42067,0.728532 1.13902,2.003979 1.59626,2.834367 1.14047,2.071208 2.67976,4.342114 3.47126,5.12123 0.0527,0.05312 0.0672,0.107637 0.0308,0.122665 -0.0364,0.01498 -0.48733,-0.382564 -1.00213,-0.883568 -0.51482,-0.501005 -1.06769,-1.01479 -1.22856,-1.141799 -0.16079,-0.127128 -0.70363,-0.721352 -1.20629,-1.320639 -1.01852,-1.214779 -1.03038,-1.226101 -0.93286,-0.896089 0.0691,0.234017 0.0688,0.234337 -0.0618,0.06201 -0.0722,-0.09526 -0.10752,-0.222994 -0.0795,-0.283473 0.0287,-0.06061 -0.12475,-0.436063 -0.34049,-0.834193 -1.83872,-3.392785 -2.77944,-5.718958 -3.87507,-9.5821518 -0.41051,-1.4475178 -0.46993,-1.3826858 -0.22859,0.2495935 0.52624,3.5603313 2.07144,7.7291863 3.75304,10.1254133 2.77394,3.952911 5.64202,6.568048 8.8588,8.077842 1.26542,0.593925 1.34271,0.503301 0.16891,-0.198141 -1.4749,-0.881391 -3.68807,-2.820967 -3.35584,-2.940946 0.0735,-0.02636 1.73185,0.970976 2.75763,1.658549 2.6366,1.767486 6.25227,2.622586 8.44877,1.998168 1.03081,-0.293028 3.18119,-0.266818 3.84966,0.04693 0.41909,0.196793 1.20949,0.148866 1.74032,-0.105371 0.97827,-0.468544 1.2729,-0.536341 1.79411,-0.412878 0.2708,0.0643 1.05544,0.110164 1.74351,0.102176 1.39464,-0.01618 1.53815,0.02616 2.18488,0.643251 0.37626,0.358958 0.41973,0.438758 0.38562,0.707363 -0.0894,0.703809 0.61308,1.282097 2.82074,2.322359 1.7404,0.820054 1.7404,0.820054 1.9941,1.23393 0.13952,0.227607 0.38027,0.500036 0.53511,0.605287 0.32014,0.217193 0.54632,0.646945 0.60363,1.144804 0.0215,0.187088 0.10211,0.39837 0.17915,0.469483 0.21619,0.199679 0.55159,1.12088 0.5938,1.628045 0.0207,0.250932 0.0814,0.593176 0.13494,0.760474 0.0831,0.259568 0.0583,0.407216 -0.16912,1.006902 -0.47844,1.262017 -0.3605,2.618492 0.28064,3.227284 0.17462,0.16584 0.36863,0.401475 0.43114,0.523621 0.0629,0.121996 0.25891,0.320177 0.43642,0.439977 0.74975,0.505947 0.76891,1.37263 0.0402,1.829971 -0.0982,0.06161 -0.22481,0.179629 -0.2815,0.262065 -0.14638,0.213658 -5.35726,2.517075 -6.40949,2.833208 -4.4593,1.339731 -11.49498,1.203256 -16.24648,-0.315144 -0.72283,-0.230982 -1.75081,-0.541284 -2.28442,-0.689561 -1.07686,-0.299249 -2.96574,-1.1408 -4.05361,-1.806007 -0.8254,-0.504759 -4.14104,-2.145526 -4.09164,-2.024818 0.0214,0.05192 0.15169,0.19936 0.28956,0.327776 0.39042,0.362454 0.28374,0.315515 -1.35598,-0.596011 -3.35714,-1.866386 -3.52803,-1.985088 -5.47757,-3.802498 -3.10557,-2.895175 -5.00305,-5.058414 -5.8795,-6.702934 -0.27452,-0.515034 -0.69475,-1.204584 -0.93377,-1.53241 -0.40911,-0.560925 -1.17897,-1.720397 -2.5995,-3.915028 -2.80583,-4.334915 -5.67863,-17.007478 -5.27416,-23.26554365 0.18586,-2.88295365 0.33724,-4.13572505 0.50476,-4.19166075 0.0472,-0.015576 0.0642,2.61092389 0.0309,4.757228 -0.0164,1.0527629 0.0393,2.0703488 0.15964,2.9203274 0.1016,0.7174985 0.19937,1.6623438 0.21727,2.0996642 0.0615,1.5027945 0.77391,4.6707178 1.51034,6.7159438 0.45155,1.25402 0.79327,1.977918 0.75897,1.607866 -0.0543,-0.587264 -1.12068,-5.1596009 -1.39386,-5.9768485 -0.10357,-0.3097527 -0.16545,-0.7188158 -0.13848,-0.9151098 0.0777,-0.5655671 0.05,-0.7864039 -0.22156,-1.7719887 -0.21058,-0.7640875 -0.25126,-1.1351488 -0.22882,-2.0866039 0.015,-0.6365104 0.007,-1.8663563 -0.0184,-2.7330197 -0.0309,-1.07036629 0.003,-1.84230252 0.10453,-2.4068115 0.0826,-0.4570909 0.19694,-1.1916635 0.2541,-1.632409 0.14226,-1.0969363 0.1981,-1.3616174 0.49888,-2.3634071 0.14354,-0.4781192 0.29875,-1.0853637 0.34489,-1.3494356 0.35799,-2.0490306 3.8574,-10.3136732 5.22157,-12.3319502 0.28466,-0.421664 0.81809,-1.369605 1.18488,-2.106894 0.50712,-1.019393 0.76542,-1.456015 1.07827,-1.822792 0.22614,-0.26533 0.7232,-0.905844 1.10424,-1.423643 0.39857,-0.541574 1.05532,-1.299491 1.54634,-1.78459 0.46938,-0.463751 0.89847,-0.946343 0.95347,-1.072413 0.32717,-0.749231 3.32937,-3.388222 5.21968,-4.588153 0.72759,-0.461844 0.90324,-0.625557 0.46857,-0.436612 -0.47114,0.204761 -0.40467,0.08158 0.14826,-0.274436 1.42728,-0.919354 2.80271,-1.673557 3.28353,-1.800566 0.37041,-0.09785 0.54424,-0.188905 0.55793,-0.292349 0.0121,-0.09845 0.12811,-0.171911 0.33331,-0.213059 0.17239,-0.03455 0.33435,-0.107348 0.35989,-0.161736 0.17472,-0.372279 6.99449,-2.542637 9.28077,-2.953578 0.79876,-0.143569 1.82035,-0.34824 2.27023,-0.454829 0.44989,-0.106601 1.46273,-0.258848 2.25076,-0.338368 1.31864,-0.133029 1.81596,-0.225924 1.64336,-0.306922 -0.0371,-0.01716 -0.50513,-0.0049 -1.04,0.02777 -1.14669,0.07013 -1.12362,0.06431 1.39287,-0.351391 3.01795,-0.498536 3.39743,-0.533025 5.41122,-0.491947 2.37196,0.04841 2.85826,0.08682 3.96208,0.313004 1.53934,0.315435 1.51129,0.315471 -4.02417,0.0042 -0.36992,-0.02088 -0.48672,0.008 -0.50202,0.123679 -0.0164,0.118226 -0.0878,0.131639 -0.3366,0.06071 -1.19858,-0.341004 -1.62537,-0.35076 -2.99095,-0.06836 -1.36436,0.282166 -1.20912,0.351665 0.52333,0.234286 1.23694,-0.08381 1.66927,-0.04886 1.49284,0.12071 -0.21314,0.204819 1.06008,0.278065 2.56775,0.147691 0.90337,-0.07814 3.1288,-0.01604 3.60214,0.100536 0.14971,0.03684 0.31263,0.0281 0.36208,-0.01938 0.11871,-0.114219 0.76282,-0.0031 2.0235,0.348956 0.5673,0.158423 1.3216,0.321546 1.67626,0.362497 0.43067,0.04973 0.98828,0.202887 1.67901,0.46114 0.5688,0.212664 1.53905,0.541026 2.15614,0.729675 3.14566,0.961668 8.30454,3.251885 10.09031,4.479464 0.37336,0.256174 1.03905,0.682382 1.48005,0.946014 0.73336,0.438978 1.79169,1.303475 1.5623,1.276456 -0.053,-0.006 -0.67076,-0.368165 -1.37266,-0.804188 -0.70182,-0.436202 -1.49824,-0.898106 -1.7698,-1.026512 -0.27152,-0.128486 -0.93189,-0.522512 -1.46734,-0.87591 -1.22499,-0.808091 -1.75747,-1.058174 -4.10206,-1.926385 -1.04011,-0.38511 -1.96209,-0.73007 -2.04887,-0.766595 -0.1732,-0.07279 -0.11448,0.01598 0.22089,0.334416 0.11841,0.112061 0.10384,0.123654 -0.15017,0.118661 -0.15448,-0.003 -0.24654,0.01208 -0.20465,0.03355 0.0421,0.02127 1.32256,0.646525 2.84588,1.389175 2.96935,1.447568 3.83834,1.932477 4.75484,2.6533 0.32043,0.25209 1.1622,0.777229 1.87029,1.16744 0.81102,0.446627 1.46483,0.861142 1.76636,1.119802 0.2634,0.22577 0.62794,0.476412 0.81019,0.556841 0.19911,0.08767 0.42372,0.268185 0.56213,0.451978 0.12679,0.168336 0.28405,0.331371 0.34948,0.362274 0.0657,0.03045 0.38942,0.332529 0.7204,0.66972 0.33079,0.337442 0.70235,0.677828 0.82571,0.75642 0.12354,0.07838 0.52289,0.502862 0.88787,0.942769 0.36498,0.439917 0.88134,1.004945 1.14779,1.255327 0.26608,0.250722 0.56086,0.573546 0.65491,0.717538 0.0942,0.143864 0.3691,0.46435 0.61081,0.712267 0.24168,0.247906 0.60307,0.700593 0.80294,1.006023 0.19997,0.30538 0.70375,1.053013 1.11958,1.661365 0.6504,0.951596 1.49751,2.558284 1.37284,2.603775 -0.0559,0.02047 -1.14799,-1.445012 -2.00279,-2.687269 -0.51038,-0.741672 -0.78128,-1.061949 -0.9753,-1.152982 -0.16411,-0.07708 -0.3664,-0.279788 -0.5201,-0.521234 -0.13835,-0.217312 -0.36212,-0.489841 -0.49726,-0.605667 -0.1352,-0.115745 -0.32074,-0.354395 -0.41239,-0.53022 -0.16673,-0.319648 -0.16673,-0.319648 -0.27314,-0.157034 -0.11479,0.175236 -0.20094,0.150044 -0.69088,-0.202225 -0.60002,-0.43128 0.74629,1.210905 1.51991,1.854155 0.39208,0.325689 0.54232,0.51725 1.51721,1.929901 0.30784,0.446137 0.68759,0.925834 0.84385,1.066012 0.24523,0.219539 0.76204,1.033542 1.69985,2.675507 0.12894,0.225799 0.21132,0.459907 0.18299,0.520236 -0.0973,0.207117 -0.48518,-0.02057 -0.72065,-0.422883 -0.34445,-0.588882 -2.50506,-3.432535 -2.90594,-3.824734 -0.19578,-0.191601 -0.66779,-0.713864 -1.04838,-1.161049 -1.65061,-1.937719 -4.49761,-4.222065 -7.21371,-5.788204 -0.74161,-0.427616 0.27941,0.51031 1.15318,1.059203 1.02256,0.642491 3.34065,2.667199 4.45585,3.891903 0.32479,0.357341 0.61888,0.619985 0.65283,0.584319 0.0341,-0.03545 0.11052,-0.01628 0.17032,0.04293 0.37506,0.372578 1.91158,2.134083 2.39381,2.744343 0.31636,0.400306 0.68879,0.834302 0.82768,0.964426 0.73024,0.684028 2.54118,3.759702 2.56492,4.356074 0.005,0.114118 0.24763,0.893832 0.54024,1.732509 1.48448,4.2549446 2.06231,8.2156137 1.78998,12.2694221 -0.14665,2.1806925 -0.0517,2.7197897 0.22377,1.2730908 0.19537,-1.0258934 0.29534,-2.12860094 0.35434,-3.9083977 0.0293,-0.883568 0.0673,-1.636413 0.0845,-1.6729879 0.14048,-0.2994186 -0.85638,-5.9611828 -1.26178,-7.1660965 -0.31107,-0.9246058 -0.41129,-1.3452128 -0.4776,-2.0046488 -0.0666,-0.662612 0.26986,-0.06969 0.66315,1.16836 0.54249,1.7077645 0.65301,2.3200122 1.09489,6.065665 0.15495,1.3133401 0.25921,5.1264116 0.16621,6.0777873 -0.0364,0.3716197 -0.0444,1.1533512 -0.0182,1.737171 0.0624,1.3846321 -0.092,2.8170028 -0.49037,4.5472045 -0.50264,2.1833672 -0.72272,3.2157212 -0.70966,3.3290602 0.0172,0.150023 -0.42412,1.800006 -0.70068,2.619251 -0.12961,0.383821 -0.26078,0.938575 -0.29157,1.232771 -0.0325,0.310422 -0.20048,0.922969 -0.40029,1.45957 -0.18936,0.508563 -0.39842,1.130206 -0.46453,1.381477 -0.16572,0.629701 -1.07086,2.498943 -1.56778,3.237609 z m 1.45483,-8.33782 c 0.15851,-0.393157 0.34462,-0.964646 0.41369,-1.269915 0.0691,-0.30525 0.26859,-1.180221 0.44346,-1.9443389 0.17484,-0.7640977 0.31332,-1.476603 0.30771,-1.5833221 -0.005,-0.1067391 0.0805,-0.5216233 0.1913,-0.9220393 0.31913,-1.1529123 0.40276,-2.2325051 0.21357,-2.7563948 -0.0443,-0.1230445 -0.05,-0.2890942 -0.0125,-0.3691935 0.0377,-0.079979 0.0899,-0.4178101 0.11617,-0.7505285 0.0258,-0.3327583 0.0825,-0.6789065 0.12502,-0.7693301 0.0426,-0.090264 0.0409,-0.4080149 -0.003,-0.705796 -0.0442,-0.2977611 -0.0623,-0.94559437 -0.0403,-1.43961957 0.0776,-1.74633723 0.0464,-2.02817233 -0.65393,-5.89488313 -0.34978,-1.9313183 -0.99268,-3.9184726 -1.54808,-4.7849561 -0.12003,-0.187128 -0.30949,-0.549073 -0.42125,-0.804188 -0.14548,-0.332369 -0.25576,-0.474166 -0.38866,-0.500186 -0.20336,-0.03974 -0.64302,-0.731618 -0.71015,-1.117447 -0.0211,-0.120648 -0.1214,-0.327905 -0.22322,-0.460306 -0.10165,-0.13249 -0.65191,-1.01497 -1.22271,-1.961113 -0.89619,-1.485531 -1.17371,-1.870111 -2.03368,-2.818451 -0.54796,-0.6038 -1.35611,-1.508047 -1.79631,-2.009051 -1.29637,-1.475236 -5.12034,-4.769091 -6.62542,-5.706987 -0.80603,-0.502183 -3.64786,-1.906076 -3.63514,-1.795682 0.006,0.04683 0.091,0.123024 0.19049,0.169264 0.0992,0.04653 0.48186,0.310223 0.85055,0.585448 0.3686,0.275385 1.40232,1.015838 2.29727,1.645279 0.89488,0.629541 1.72165,1.247769 1.8372,1.373959 0.11548,0.12622 0.60975,0.510121 1.09776,0.853753 1.41736,0.996937 2.30895,1.71778 2.80866,2.270777 0.2556,0.283312 0.75211,0.792115 1.10288,1.131104 1.1576,1.118704 3.40551,4.171152 3.96241,5.380619 0.16725,0.363172 0.44041,0.822729 0.60688,1.02129 0.72547,0.864576 2.62047,6.2031202 2.86759,8.0784426 0.0969,0.7345926 0.25385,1.8892919 0.349,2.5660017 0.0952,0.6766898 0.16378,1.6723488 0.15253,2.21256435 -0.0549,2.63668485 0.0236,3.41002905 0.23557,2.32036175 0.11456,-0.5886525 0.0604,-3.5471223 -0.0883,-4.820912 -0.17071,-1.4634438 -0.32023,-3.1794768 -0.28373,-3.2572096 0.12651,-0.2695336 0.71125,2.9156346 0.74043,4.0331698 0.0113,0.4334266 0.0515,1.0261131 0.0893,1.31710439 0.0981,0.75434273 0.10819,1.44272492 0.0323,2.19156591 -0.0362,0.3579703 -0.0509,1.341208 -0.0326,2.184966 0.0287,1.3258906 -0.002,1.7026234 -0.2239,2.7758548 -0.26616,1.285562 -0.43905,2.2644459 -0.52262,2.9590382 -0.0266,0.2212964 -0.12745,0.6415026 -0.22416,0.9338221 -0.0967,0.292299 -0.18218,0.641662 -0.19003,0.776339 -0.0131,0.22566 -0.62461,1.987784 -1.26862,3.656048 -0.15613,0.404481 -0.24986,0.773874 -0.22481,0.886274 0.0438,0.196963 0.46813,-0.714183 1.34161,-2.881526 z m 0.35165,-19.4347586 c -0.10454,-0.049026 -0.22661,-0.6475145 -0.16074,-0.7878629 0.0389,-0.084073 0.2519,0.4569618 0.26382,0.6709392 0.007,0.1258802 -0.0198,0.1560548 -0.10297,0.1169737 z m 1.72306,14.3031465 c -0.007,-0.2140673 -0.0381,-0.380067 -0.0692,-0.3688539 -0.11852,0.042835 -0.18035,0.7368988 -0.0703,0.7885609 0.14655,0.068597 0.15479,0.043634 0.13948,-0.4197369 z m -2.60354,3.7499151 c -0.0326,-0.05022 -0.10735,0.02746 -0.18425,0.191342 -0.0711,0.151531 -0.0945,0.29182 -0.0519,0.311799 0.0424,0.02027 0.12546,-0.0661 0.18423,-0.191321 0.0588,-0.125181 0.0822,-0.2655 0.052,-0.31182 z m 0.89303,-4.114116 c -0.0315,-0.047628 -0.0589,-0.022766 -0.0645,0.058612 -0.0118,0.1582914 0.0325,0.2087952 0.0851,0.097253 0.0189,-0.03994 0.01,-0.1103137 -0.0201,-0.1560647 z m 0.37577,-2.1621103 c 0.0112,-0.4286445 -0.0585,-0.7299397 -0.13227,-0.5727472 -0.0936,0.1995292 -0.1354,1.5097543 -0.0493,1.5501235 0.0933,0.043235 0.16536,-0.3456789 0.18166,-0.9773663 z m 0.0413,-1.4394101 c -0.0773,-0.2658093 -0.0987,-0.2871372 -0.16132,-0.1593199 -0.0745,0.1520808 6.3e-4,0.5272452 0.11649,0.5816232 0.11795,0.055416 0.13555,-0.110144 0.0448,-0.4223433 z m -3.28036,3.5549905 c 0.10691,-0.507914 0.18563,-1.1286289 0.17509,-1.3793706 -0.0105,-0.2507519 0.0322,-0.5643489 0.0941,-0.6969689 0.25035,-0.5333067 0.25364,-4.96369697 0.005,-6.5445537 -0.56753,-3.6071121 -1.07379,-5.3180024 -2.37529,-8.0269989 -0.88385,-1.839817 -2.37712,-4.237214 -2.59103,-4.15995 -0.052,0.01877 0.94684,2.2958 1.7828,4.0643841 2.248,4.7559402 3.24633,9.93462295 2.78531,14.4483875 -0.11988,1.1743896 -0.21598,3.510208 -0.13715,3.3531548 0.0365,-0.074188 0.15449,-0.5501703 0.26131,-1.0580743 z m -16.3146,-30.8875561 c -0.0846,-0.01568 -0.0496,0.02177 0.0773,0.08327 0.12699,0.06141 0.19609,0.07449 0.1536,0.02866 -0.0421,-0.04613 -0.14624,-0.09635 -0.23077,-0.112001 z m 1.44004,-5.438082 c -0.35137,-0.246688 -0.98686,-0.612826 -1.41208,-0.813683 -0.42517,-0.201037 -1.26245,-0.635881 -1.86048,-0.966703 -1.66917,-0.923378 -5.77757,-2.58693 -5.67286,-2.296987 0.0137,0.03894 1.33755,0.674334 2.9412,1.412541 2.41631,1.112263 2.97511,1.394607 3.26261,1.647436 0.49538,0.436043 3.48557,1.756592 3.39222,1.498142 -0.006,-0.01787 -0.29912,-0.234157 -0.65064,-0.480716 z m -36.40924,70.530999 c -1.01401,-0.323782 -4.58531,-2.011218 -5.75736,-2.720379 -0.96836,-0.585866 -1.13297,-0.613085 -0.4238,-0.06999 1.75448,1.343574 6.05215,3.38269 7.47843,3.548291 0.55994,0.065 -0.308,-0.441884 -1.29742,-0.757658 z m 34.1209,-72.496486 c -0.68435,-0.493446 -1.92912,-1.216116 -2.13945,-1.242187 -0.35398,-0.04383 0.68562,0.733305 1.70036,1.272062 1.01139,0.536442 1.20618,0.523182 0.43911,-0.02995 z m -43.05372,69.609259 c -0.29671,-0.141087 -0.25592,-0.0673 0.0981,0.177063 0.20422,0.141557 0.263,0.15914 0.20629,0.0635 -0.0432,-0.07359 -0.18036,-0.181736 -0.30412,-0.240807 z m -2.03194,-2.415948 c -0.25025,-0.01717 0.0128,0.334166 0.37006,0.494365 0.31675,0.141986 0.31675,0.141986 0.0451,-0.171232 -0.14961,-0.17212 -0.33623,-0.317661 -0.41505,-0.323123 z m -2.83442,-2.234801 c -1.26462,-1.186771 -1.61022,-1.427777 -1.08771,-0.758636 0.23351,0.298979 2.01158,1.85731 2.24354,1.966126 0.20623,0.09685 -0.0395,-0.159939 -1.15575,-1.20756 z m 7.35265,-66.965584 c -0.0524,0.006 -0.22508,0.08687 -0.38382,0.179619 -0.28867,0.168536 -0.28867,0.168536 0.0637,0.05622 0.32565,-0.103744 0.53949,-0.261486 0.32027,-0.236184 z m 53.2333,54.482114 c -0.25419,0.235685 -0.21816,-0.265659 0.0362,-0.516881 0.0794,-0.07818 0.16936,-0.104023 0.19985,-0.05731 0.057,0.08717 -0.0864,0.434395 -0.23682,0.574154 z m -2.88962,4.851736 c -1.60691,2.527699 -5.2011,6.317615 -8.30798,8.760423 -1.16103,0.912874 -1.13361,0.871526 0.26277,-0.396183 2.94487,-2.673489 5.44283,-5.41909 7.76857,-8.538737 1.25228,-1.679758 1.39728,-1.588286 0.27683,0.174217 z m 0.19613,-1.583753 c -0.11385,0.16638 -0.24217,0.315135 -0.28529,0.330402 -0.13336,0.04813 0.2057,-0.559017 0.4659,-0.834332 0.29228,-0.309184 0.20019,-0.05282 -0.18086,0.503731 z m 0.51568,-2.046804 c -1.56539,2.750424 -3.05962,5.029877 -3.48031,5.309086 -0.0899,0.05981 -0.0887,0.03375 0.004,-0.09266 2.28679,-3.112288 2.78096,-3.990504 4.26772,-7.584316 0.88541,-2.140204 2.43735,-6.49375 2.56726,-7.201733 0.42339,-2.307222 0.48598,-2.682556 0.43015,-2.579711 -0.0352,0.064 -0.20453,0.64347 -0.37697,1.28714 -0.17246,0.643699 -0.38258,1.307998 -0.46695,1.476214 -0.12602,0.251351 -0.12467,0.198351 0.006,-0.29851 1.91059,-7.2423898 1.39628,-14.6328678 -1.48477,-21.3356926 -2.63863,-6.1388174 -4.2933,-8.2868984 -9.27214,-12.0369354 -1.13704,-0.856409 -1.06786,-0.92199 0.22669,-0.214526 2.86827,1.567297 6.74968,5.69749 8.65611,9.210864 3.30145,6.0843484 4.35487,10.4126133 4.0824,16.7735837 -0.0313,0.730139 -0.14584,0.997266 -0.13037,0.3038716 0.004,-0.2290444 -0.0225,-0.4649487 -0.0612,-0.5243592 -0.0484,-0.074088 -0.071,-0.067099 -0.0738,0.024164 -0.0254,1.0654831 -0.18603,2.9500321 -0.35085,4.0955845 -0.11365,0.7940523 -0.23096,1.6735364 -0.26058,1.9544124 -0.0655,0.621234 -0.20939,1.102408 -1.17211,3.9201 -1.1288,3.30371 -2.2345,5.974743 -3.11033,7.513593 z m 5.0377,-18.6522186 c -0.0182,-0.1345671 -0.0266,-0.1384912 -0.0752,-0.034847 -0.0303,0.063504 -0.0452,0.1842222 -0.0339,0.2674368 0.0182,0.1345471 0.0266,0.1384812 0.0752,0.034847 0.0304,-0.063504 0.0452,-0.1842122 0.0339,-0.2674468 z M 530.30781,34.44368 c -0.23087,0.229205 -0.38604,0.162755 -0.18747,-0.08038 0.21989,-0.268854 0.55025,-0.452557 0.44298,-0.245859 -0.0426,0.08248 -0.15772,0.229194 -0.25543,0.326198 z m 0.94404,-4.067208 c -0.70556,0.79558 -1.4203,1.458361 -1.4017,1.29981 0.006,-0.05452 0.23763,-0.302853 0.51362,-0.552127 0.27619,-0.249075 0.55317,-0.55737 0.61574,-0.684868 0.0626,-0.127428 0.32898,-0.428274 0.59216,-0.668392 0.63142,-0.575982 0.48855,-0.306039 -0.31987,0.605507 z m 2.18344,-5.394398 c -0.0584,0.007 -0.11675,-0.01627 -0.12941,-0.05102 -0.0338,-0.09356 0.16809,-0.26525 0.26074,-0.221765 0.10514,0.04922 0.005,0.257122 -0.13135,0.272848 z m 15.36336,-32.9335881 c -0.12936,0.014977 -0.29798,-0.358679 -0.22865,-0.5064263 0.0714,-0.1519908 0.31371,-0.113429 0.39665,0.063105 0.0819,0.1735081 -0.0139,0.4255781 -0.16804,0.4433014 z M 532.34621,26.511009 c -0.2334,0.106899 -0.24185,0.104213 -0.2851,-0.08926 -0.0483,-0.215975 0.3797,-0.52382 0.60043,-0.431919 0.15405,0.0642 -0.0485,0.398979 -0.3154,0.521054 z M 541.075,7.6416876 c 0.30082,-3.3705683 0.0377,-5.9374885 -1.02713,-10.0222303 -0.17745,-0.6807338 -0.37582,-1.5389499 -0.44081,-1.907145 -0.44169,-2.5026466 -2.57143,-6.2950493 -5.72847,-10.2006333 -1.28469,-1.589314 -3.47769,-3.551106 -6.18679,-5.534616 -1.97489,-1.44592 -7.50076,-4.505797 -10.48175,-5.80414 -0.81128,-0.353337 -1.45082,-0.651208 -1.4212,-0.661892 0.71736,-0.259079 4.36146,1.211054 6.9209,2.792041 0.52359,0.323372 1.65765,0.986223 2.52034,1.47269 4.58082,2.584773 9.81059,7.504666 11.05571,10.400781 0.16706,0.388564 0.46839,0.924387 0.66897,1.191045 0.2008,0.266538 0.70766,1.1132711 1.12629,1.8816731 0.41863,0.7683912 0.87525,1.6067178 1.01476,1.8629415 0.2591,0.4759421 0.94684,2.5134504 1.39295,4.126968 0.41379,1.4966736 0.68203,3.48416728 0.79224,5.8705396 0.1037,2.245455 0.25108,2.0856759 0.21277,-0.2307621 -0.0131,-0.785366 -0.0727,-1.8282837 -0.13275,-2.31762595 -0.06,-0.48932229 -0.0879,-0.89736711 -0.0618,-0.90678291 0.27616,-0.0997496 0.43344,4.75150616 0.17716,5.46475156 -0.0671,0.1864789 -0.16834,0.8497383 -0.2252,1.4738681 -0.0568,0.6241088 -0.13155,1.2478781 -0.16601,1.3861696 -0.0345,0.1382513 -0.0389,-0.013679 -0.01,-0.3378906 z m 7.14023,-18.2954976 c -0.072,-0.05272 -0.10307,-0.17912 -0.0696,-0.287767 0.0685,-0.223423 0.17235,-0.121786 0.18849,0.184383 0.009,0.167338 -0.009,0.182844 -0.11873,0.103404 z m -19.13078,40.679231 c -0.18834,0.214467 -0.91447,0.340287 -1.02094,0.177223 -0.16423,-0.251461 0.18289,-0.584759 0.85907,-0.824986 0.7137,-0.253528 0.76707,-0.03994 0.16185,0.647743 z m -4.48286,6.344835 c -0.22754,0.08218 -0.48567,0.02846 -0.43031,-0.08947 0.0557,-0.118692 0.33897,-0.217882 0.53691,-0.187947 0.24863,0.03754 0.19882,0.167138 -0.10658,0.277382 z m 23.70442,-50.36578 c -0.094,-0.04363 -1.02384,-1.505231 -1.06905,-1.679518 -0.0916,-0.352998 0.15174,-0.06051 0.59136,0.710858 0.48513,0.851287 0.56279,1.00864 0.47806,0.9685 z m -25.97438,51.378393 c -0.26259,0.09486 -0.39951,0.04983 -0.50478,-0.16606 -0.18865,-0.386247 0.16466,-0.7492 0.55213,-0.567364 0.3961,0.185939 0.37051,0.582552 -0.0477,0.733424 z m 17.25826,-44.7956756 c -0.0374,-0.017274 -0.0886,-0.1122807 -0.11355,-0.2106424 -0.0414,-0.1620055 -0.0336,-0.1623649 0.0849,-0.00399 0.13501,0.1805578 0.14708,0.2701327 0.029,0.2146065 z m -0.5172,-1.0629569 c -0.0778,-0.1261498 -0.0942,-0.2239524 -0.0365,-0.2171826 0.1177,0.013879 0.26092,0.2699131 0.2106,0.3769717 -0.018,0.038442 -0.0964,-0.03345 -0.17433,-0.1594696 z m -0.91148,-1.7803355 c -0.0613,-0.02906 -0.18389,-0.21246 -0.27149,-0.408684 -0.15979,-0.356264 -0.15979,-0.356264 0.0463,-0.161117 0.23932,0.226548 0.40909,0.65611 0.22511,0.569761 z m -0.74557,-1.105595 c -0.20839,-0.09775 -1.58919,-2.499772 -1.46317,-2.545273 0.0834,-0.03005 0.39894,0.353706 0.57422,0.698796 0.0974,0.191611 0.30799,0.524539 0.46804,0.739736 0.42922,0.57726 0.67609,1.226491 0.42097,1.106701 z m -1.77077,-3.077042 c -0.0757,0.02736 -0.4835,-0.368374 -2.0957,-2.033045 -0.46698,-0.482193 -1.02764,-1.030985 -1.24593,-1.219501 -0.42149,-0.363682 -0.47724,-0.544509 -0.11613,-0.374965 0.95817,0.449702 3.85163,3.485276 3.45773,3.627511 z m -26.10418,39.210138 c -0.15077,0.008 -0.29101,-0.06201 -0.55486,-0.276893 -0.19428,-0.158041 -0.47431,-0.346188 -0.62245,-0.41795 -0.4204,-0.203343 -0.21711,-0.551858 0.4001,-0.684927 0.60117,-0.129864 0.80947,-0.02077 1.00758,0.527844 0.18218,0.50449 0.093,0.834971 -0.22992,0.851976 z m 20.31654,-44.648249 c -0.15093,0.01737 -0.62285,-0.30561 -0.70707,-0.483881 -0.0738,-0.155076 0.0481,-0.242424 0.22052,-0.158221 0.23922,0.116794 0.62517,0.626136 0.48661,0.642092 z m -1.48964,-2.404356 c -0.68542,-0.213997 -1.06944,-0.424939 -1.0088,-0.554144 0.0442,-0.09316 0.17211,-0.06061 0.65384,0.166639 0.7171,0.338409 0.92533,0.565557 0.35494,0.387535 z m -1.37069,0.317542 c -1.40408,-0.737399 -1.99455,-1.091964 -1.91001,-1.147221 0.1027,-0.0669 1.17866,0.450401 2.02303,0.972764 1.09157,0.675262 1.02786,0.773603 -0.11292,0.174467 z m -22.20437,46.845237 c -0.35514,0.128266 -1.6106,-0.01198 -1.43887,-0.160708 0.53311,-0.461654 0.7093,-0.502872 1.16801,-0.273038 0.53075,0.265979 0.56862,0.325978 0.27088,0.433736 z m 27.17188,-59.340859 c -3.3884,-1.951338 -7.96889,-3.823373 -10.89749,-4.453683 -0.51902,-0.111711 -1.28011,-0.301391 -1.6913,-0.421547 -0.51577,-0.1507 -2.02557,-0.366107 -4.86905,-0.694687 -5.14239,-0.594245 -4.86567,-0.572703 -6.97123,-0.542762 -2.66736,0.03794 -2.69937,0.01558 -0.4905,-0.342616 1.98063,-0.321207 2.88653,-0.305924 6.83137,0.115226 2.99384,0.319634 3.41522,0.396101 5.04562,0.915736 0.70195,0.223746 1.85523,0.576897 2.56288,0.784841 3.25298,0.955822 7.3876,2.695483 9.67229,4.069651 1.0525,0.633095 1.65289,1.056727 0.80731,0.569991 z m -27.87927,58.034558 c -0.63276,0.07988 -0.62547,0.08118 -0.54194,-0.09675 0.0977,-0.208206 0.57812,-0.310103 0.85333,-0.180947 0.30873,0.144911 0.23783,0.208076 -0.31161,0.277461 z m 22.33919,-47.037637 c -0.13009,0.01498 -0.37339,-0.208955 -0.32924,-0.303073 0.0187,-0.03964 0.13835,-0.02317 0.2661,0.03684 0.22845,0.107239 0.26078,0.243443 0.0631,0.266279 z m -1.77614,-0.507325 c -0.51458,-0.23866 -0.66598,-0.33814 -0.6078,-0.399727 0.11799,-0.125341 0.93898,0.236882 1.13251,0.499516 0.15358,0.208356 0.13074,0.203973 -0.52464,-0.09994 z M 501.27466,24.89873 c -0.33089,0.101147 -0.61082,-0.161067 -0.44968,-0.421205 0.14931,-0.240308 0.53469,-0.277302 0.69218,-0.066 0.13765,0.184492 0.0281,0.404511 -0.24253,0.487256 z m 21.85556,-49.512945 c -0.2941,-0.02127 -0.80672,-0.473527 -0.7277,-0.641873 0.0631,-0.134597 0.11532,-0.131412 0.40115,0.02596 0.50811,0.279669 0.70072,0.642951 0.3266,0.615812 z m -1.62071,-0.790778 c -0.11218,0.04064 -0.9026,-0.352239 -0.86593,-0.430371 0.0476,-0.101607 0.2815,-0.0669 0.62013,0.09206 0.28852,0.135366 0.39639,0.283972 0.24577,0.33837 z m -5.75391,-2.02966 c -0.9636,0.01588 -3.70896,-0.614913 -3.80242,-0.873713 -0.0981,-0.271441 1.14072,-0.09256 3.321,0.479617 1.19286,0.313048 1.2759,0.380995 0.48138,0.394156 z m -1.79365,0.797368 c -0.0941,0.004 -0.31016,-0.03055 -0.48019,-0.07589 -0.17003,-0.04523 -0.49868,-0.06959 -0.73029,-0.05402 -0.23162,0.01558 -0.67413,-0.02127 -0.98339,-0.08188 -0.30923,-0.06061 -0.63411,-0.121138 -0.72191,-0.134607 -0.13928,-0.02147 -0.13676,-0.0653 0.0206,-0.345789 0.28627,-0.510281 1.91035,-0.550011 2.19515,-0.05372 0.068,0.118651 0.27441,0.279908 0.48396,0.37816 0.39214,0.183953 0.49381,0.357062 0.21611,0.367606 z m -3.21506,-1.345003 c -0.4738,0.0674 -0.75281,-0.367626 -0.35548,-0.554334 0.26186,-0.122975 0.74058,0.22536 0.6309,0.459038 -0.0159,0.03275 -0.13948,0.07598 -0.27541,0.09526 z m -1.34749,0.532158 c -0.6302,0.09516 -0.79053,0.08717 -0.73234,-0.03694 0.0595,-0.126879 1.29885,-0.224542 1.34176,-0.105741 0.01,0.02626 -0.26473,0.09046 -0.60941,0.142565 z m -0.95005,-0.730189 c -0.87312,0.08048 -5.13083,1.136007 -6.05959,1.502245 -0.3188,0.125691 -0.57938,0.114917 -0.51543,-0.02137 0.0159,-0.03275 0.32527,-0.146559 0.68832,-0.25212 0.36303,-0.105541 0.89111,-0.316832 1.1735,-0.469552 0.51867,-0.280427 0.52035,-0.280757 4.31138,-0.811297 0.84399,-0.118112 1.1257,-0.131801 1.08868,-0.05292 -0.0109,0.02436 -0.32036,0.07119 -0.68686,0.104992 z m -0.76457,0.879134 c -0.10222,0.02646 -0.14945,0.01158 -0.12529,-0.03974 0.0434,-0.09376 0.24194,-0.133708 0.27044,-0.05482 0.01,0.02886 -0.0541,0.07169 -0.14508,0.09466 z m -0.7512,0.154517 c -0.14227,0.02926 -0.26687,0.03065 -0.27676,0.003 -0.0283,-0.07928 0.40505,-0.187927 0.47364,-0.118811 0.0341,0.03425 -0.0551,0.08587 -0.19685,0.115536 z m -21.11549,42.196746 c -0.81168,-0.381016 -2.33688,-3.851194 -2.51058,-5.7122883 -0.008,-0.081477 0.18579,0.349313 0.42982,0.9573863 0.6445,1.606059 1.419,3.354383 1.80878,4.083224 0.32148,0.601014 0.3684,0.716919 0.27198,0.671678 z m -9.58217,19.679381 c -0.18424,-0.07249 -1.68629,-1.515385 -2.02327,-1.94355 -0.47541,-0.604009 -0.83547,-1.188608 -0.68978,-1.120321 0.2034,0.09546 2.89552,3.135703 2.71305,3.063861 z m -3.42419,-5.005424 c -1.85928,-2.139245 -4.81662,-7.824873 -4.87618,-9.374726 -0.0197,-0.51107 0.0667,-0.38479 0.65702,0.960122 1.14916,2.618443 2.99741,6.250137 3.98244,7.825103 0.58446,0.934511 0.62562,1.036977 0.23672,0.589521 z m 0.56811,-0.502772 c -0.17553,-0.192999 -1.23091,-1.845438 -1.209,-1.892167 0.0438,-0.09226 1.01386,1.026143 1.19989,1.383265 0.14631,0.280826 0.15324,0.667883 0.009,0.508922 z m 25.34984,-54.576451 c -1.74175,0.558048 -4.26298,2.169779 -6.12247,3.913919 -2.87986,2.701118 -4.39199,4.361904 -5.93886,6.522497 -0.40493,0.565597 -0.40493,0.565597 -0.0683,-0.07898 1.07058,-2.049031 2.53711,-4.171162 3.4503,-4.992593 0.36086,-0.323952 1.04274,-0.974082 1.51598,-1.443953 1.16358,-1.155269 3.28188,-2.661468 3.78381,-2.690504 0.11875,-0.007 0.48177,-0.1463 0.80661,-0.309843 0.84624,-0.426118 1.75172,-0.803978 2.32703,-0.971256 0.5254,-0.15274 0.74156,-0.107947 0.24564,0.05102 z m 3.82103,-13.464997 c -0.0586,0.0067 -0.11523,-0.01209 -0.1262,-0.04179 -0.0105,-0.02993 0.0438,-0.04962 0.12138,-0.04405 0.16095,0.01165 0.16396,0.06763 0.005,0.08593 z M 482.04652,3.5339905 c -0.0754,-0.054717 -0.09,-0.2365833 -0.0399,-0.4979193 0.0914,-0.47761 0.20439,-0.4872454 0.25511,-0.021867 0.044,0.4036914 -0.0529,0.6378783 -0.21519,0.5197764 z m 18.99522,-43.8076425 c -0.69842,0.244337 -1.6442,0.517372 -2.10174,0.606722 -0.91701,0.179095 -2.68999,0.608233 -3.77441,0.913572 -0.38429,0.108238 -1.40295,0.482535 -2.26374,0.831827 -1.64857,0.668966 -2.06855,0.794646 -1.60948,0.481652 0.14201,-0.09681 1.09793,-0.491796 2.1243,-0.877743 1.02639,-0.38594 1.89517,-0.763552 1.93065,-0.839108 0.0355,-0.07634 0.29501,-0.180312 0.58201,-0.233799 0.28466,-0.05301 0.53916,-0.142449 0.56558,-0.198775 0.0391,-0.08437 4.528,-1.058015 5.49826,-1.19296 0.57628,-0.08016 0.28253,0.07682 -0.95143,0.508612 z m -19.15938,39.0619771 c -0.18766,-0.5197364 0.0473,-2.7961146 0.42682,-4.1348964 0.47425,-1.6728476 0.52423,-1.5718299 0.27402,0.5535455 -0.28956,2.4585436 -0.57653,3.92515264 -0.70071,3.581281 z m -5.7418,-23.5128941 c -0.32193,0.348255 -1.40626,1.911758 -2.42364,3.494602 -0.98209,1.527896 -1.97283,3.352236 -3.45258,6.357375 -1.24675,2.531924 -1.24675,2.531924 -0.94346,1.304643 0.36273,-1.467917 1.32545,-3.492884 2.58412,-5.435455 0.86129,-1.329256 0.92057,-1.44639 0.66316,-1.310964 -0.23046,0.121247 -0.2102,0.07748 0.11846,-0.256104 0.14388,-0.14601 0.43518,-0.535363 0.64737,-0.865145 0.74539,-1.158604 2.77643,-3.580742 3.1008,-3.697866 0.0917,-0.03305 0.0115,0.07808 -0.29426,0.408904 z m -8.9989,18.4090385 c -0.55648,-0.040339 -0.48703,-0.6894602 0.23923,-2.2327636 0.79657,-1.6933569 1.0408,-1.8860069 0.58398,-0.4609958 -0.15169,0.4732173 -0.19686,0.7476633 -0.14033,0.8525551 0.15495,0.2874367 -0.42806,1.8596864 -0.68276,1.8411943 z"
       id="path1591-7" /><rect
       style="display:none;fill:#88b926;fill-opacity:1;stroke:#121310;stroke-width:0.499999;stroke-opacity:1"
       id="rect2189-8"
       width="1016"
       height="19.049997"
       x="4.4444441e-06"
       y="277.95001" /><path
       style="fill:#88b926;fill-opacity:0.321555;stroke-width:0.529167"
       d="M 524.93335,-379.80418 V -78.708338"
       id="path10331" /></g><g
     inkscape:groupmode="layer"
     id="layer2"
     inkscape:label="align"
     style="display:none"
     sodipodi:insensitive="true"><path
       style="display:inline;fill:#88b926;fill-opacity:0.321555;stroke:#88b926;stroke-width:0.264583;stroke-dasharray:none"
       d="M 508.00001,297 V -274.50001"
       id="path10452"
       transform="translate(0,274.5)" /><path
       style="display:inline;fill:#88b926;fill-opacity:0.321555;stroke:#88b926;stroke-width:0.264583;stroke-dasharray:none"
       d="M 3.8888888e-6,11.249995 H 1016"
       id="path10472"
       transform="translate(0,274.5)" /></g></svg>
