<?xml version="1.0" encoding="UTF-8" standalone="no"?>
<svg
   width="1000"
   height="1000"
   viewBox="0 0 264.58333 264.58334"
   version="1.1"
   id="svg8"
   sodipodi:docname="enso_tn2.svg"
   inkscape:version="1.2.1 (9c6d41e410, 2022-07-14)"
   xml:space="preserve"
   inkscape:export-filename="enso_tn2.png"
   inkscape:export-xdpi="96"
   inkscape:export-ydpi="96"
   xmlns:inkscape="http://www.inkscape.org/namespaces/inkscape"
   xmlns:sodipodi="http://sodipodi.sourceforge.net/DTD/sodipodi-0.dtd"
   xmlns:xlink="http://www.w3.org/1999/xlink"
   xmlns="http://www.w3.org/2000/svg"
   xmlns:svg="http://www.w3.org/2000/svg"
   xmlns:rdf="http://www.w3.org/1999/02/22-rdf-syntax-ns#"
   xmlns:cc="http://creativecommons.org/ns#"
   xmlns:dc="http://purl.org/dc/elements/1.1/"><defs
     id="defs2"><linearGradient
       inkscape:collect="always"
       id="linearGradient2030"><stop
         style="stop-color:#73daca;stop-opacity:1;"
         offset="0.59400547"
         id="stop2026" /><stop
         style="stop-color:#bb9af7;stop-opacity:1;"
         offset="1"
         id="stop2028" /></linearGradient><linearGradient
       inkscape:collect="always"
       xlink:href="#linearGradient2030"
       id="linearGradient2032-3"
       x1="567.46613"
       y1="-109.13203"
       x2="829.02582"
       y2="-109.13203"
       gradientUnits="userSpaceOnUse"
       gradientTransform="matrix(0.98039348,0.06116099,-0.06116099,0.98039348,-179.45001,593.13483)" /></defs><sodipodi:namedview
     id="base"
     pagecolor="#272822"
     bordercolor="#49483e"
     borderopacity="0.41176471"
     inkscape:pageopacity="0"
     inkscape:pageshadow="2"
     inkscape:zoom="0.61577215"
     inkscape:cx="250.90449"
     inkscape:cy="858.27201"
     inkscape:document-units="px"
     inkscape:current-layer="layer1"
     showgrid="false"
     showborder="true"
     inkscape:window-width="3836"
     inkscape:window-height="2113"
     inkscape:window-x="3840"
     inkscape:window-y="2160"
     inkscape:window-maximized="0"
     inkscape:document-rotation="0"
     units="mm"
     inkscape:showpageshadow="0"
     inkscape:pagecheckerboard="0"
     inkscape:deskcolor="#1d1e19" /><metadata
     id="metadata5"><rdf:RDF><cc:Work
         rdf:about=""><dc:format>image/svg+xml</dc:format><dc:type
           rdf:resource="http://purl.org/dc/dcmitype/StillImage" /></cc:Work></rdf:RDF></metadata><g
     inkscape:label="enso"
     inkscape:groupmode="layer"
     id="layer1"
     transform="translate(-379.4945,-396.48337)"
     style="display:inline"><path
       style="fill:url(#linearGradient2032-3);fill-opacity:1;stroke-width:1"
       d="m 626.07211,585.08195 c -0.68653,1.01986 -2.35253,3.92017 -3.70271,6.4446 -1.3504,2.52428 -2.74486,4.88507 -3.09968,5.24577 -0.36121,0.36811 -0.81955,1.18335 -1.04326,1.85711 -0.30106,0.90529 -0.52231,1.23282 -0.89964,1.33052 -0.3285,0.085 -0.56049,0.37454 -0.67509,0.8435 -0.10805,0.44034 -0.82335,1.39838 -1.86837,2.50443 -0.93109,0.98505 -1.93059,2.2972 -2.22261,2.91454 -0.29014,0.61831 -1.91738,2.84343 -3.61324,4.94571 -1.69587,2.1023 -3.2483,4.1738 -3.44988,4.60321 -0.23369,0.49782 -0.71224,0.94053 -1.31962,1.22177 -1.03036,0.47564 -2.27366,1.59368 -4.4182,3.97307 -1.97019,2.18564 -4.59721,4.51711 -7.54516,6.69565 -4.7417,3.50402 -7.14534,5.21226 -7.50422,5.33333 -0.23794,0.0801 -0.2777,0.061 -0.12049,-0.0567 0.75197,-0.56402 6.14007,-5.5022 8.70093,-7.97449 1.65094,-1.59376 4.23425,-3.93416 5.74052,-5.20103 3.77956,-3.17864 7.5959,-7.49417 8.44523,-9.5497 0.63901,-1.54658 0.63901,-1.54658 -1.86958,1.15191 -10.14158,10.90926 -9.45477,10.26497 -17.13362,16.07497 -7.05223,5.33563 -12.6668,9.35022 -12.75084,9.11722 -0.0273,-0.0652 1.98503,-1.92958 4.46415,-4.14156 12.07332,-10.77318 16.56111,-15.45351 22.75997,-23.73471 1.53064,-2.045 3.18198,-4.1768 3.66946,-4.7375 2.83035,-3.25573 8.48893,-12.25885 11.89841,-18.93043 1.86227,-3.64408 4.03447,-7.87157 4.82698,-9.39447 0.93646,-1.79935 1.45531,-3.04371 1.48181,-3.55373 0.0316,-0.60389 0.17056,-0.88147 0.60386,-1.20451 0.57272,-0.42692 0.80259,-1.20727 0.40957,-1.39173 -0.31974,-0.15023 -1.26369,1.26599 -1.53043,2.29627 -0.39066,1.50921 -1.28855,2.57235 -1.58221,1.87195 -0.2258,-0.53919 -0.37679,-0.26829 -3.06419,5.49618 -6.23428,13.3713 -14.69912,26.06918 -23.26702,34.90224 -1.35383,1.39598 -2.44899,2.64917 -2.43314,2.78559 0.0868,0.75442 -16.02757,15.27648 -17.90162,16.13252 -0.341,0.15569 -0.52198,0.2 -0.40243,0.0983 2.78116,-2.36407 7.08813,-6.76546 9.75183,-9.9658 1.8291,-2.19617 4.87481,-5.78583 6.76995,-7.97542 12.75943,-14.74297 19.28658,-24.81341 24.39884,-37.64304 4.34888,-10.91397 3.93853,-10.63913 -1.54997,1.0381 -2.77579,5.90566 -5.16902,10.81728 -5.31828,10.91473 -0.14992,0.0962 -1.08402,1.64193 -2.07708,3.43218 -3.25142,5.86102 -7.31721,11.68087 -11.03343,15.79325 -2.3267,2.5745 -2.0419,1.97513 1.04593,-2.20316 7.79373,-10.54538 13.30611,-20.23156 13.23385,-23.25403 -0.0243,-0.97992 1.2432,-4.40391 4.74261,-12.82046 2.21963,-5.33854 3.04246,-7.8577 2.79199,-8.5476 -0.0844,-0.23126 -0.3539,0.27982 -0.81467,1.54533 -0.55609,1.52697 -0.80878,1.96003 -1.31033,2.2481 -0.69191,0.397 -1.53611,1.96355 -1.27443,2.3644 0.0901,0.14325 0.37687,0.0567 0.63193,-0.18877 0.46052,-0.44265 0.46268,-0.44052 0.32356,0.30811 -0.098,0.52434 -0.4628,1.0567 -1.19107,1.7378 -1.01418,0.95009 -1.19109,1.29377 -5.29208,10.35812 -2.39639,5.29631 -4.40922,9.49572 -4.62591,9.65087 -0.2343,0.16783 0.39736,-1.38928 1.62351,-4.00197 6.94904,-14.80561 10.9015,-27.79174 12.40331,-40.75196 3.2166,-27.7587 -1.73784,-46.69292 -18.82558,-71.94452 -1.88345,-2.78325 -8.92532,-10.09481 -11.90934,-12.36555 -4.97994,-3.78949 -7.40012,-5.51633 -10.04403,-7.16664 -3.42533,-2.13821 -11.21067,-6.40724 -14.04272,-7.70028 -5.42669,-2.47787 -10.66344,-4.62789 -13.47307,-5.53145 -1.71079,-0.55023 -3.15667,-1.02198 -3.21293,-1.04842 -0.0568,-0.0273 0.18968,-0.17026 0.54619,-0.31988 1.0602,-0.44368 0.73146,-0.58802 -4.26949,-1.8738 -15.66328,-4.02712 -22.38057,-4.63833 -33.06097,-3.00823 -1.19058,0.18179 -3.13488,0.47047 -4.32057,0.64168 -10.14963,1.46529 -18.30751,3.92074 -16.29884,4.9057 0.64195,0.3146 0.64195,0.3146 -0.47848,0.56083 -2.2956,0.50422 -6.54977,2.08121 -8.61865,3.19485 -1.17528,0.63266 -3.21761,1.62068 -4.53824,2.19602 -15.55251,6.77267 -26.05488,17.4895 -33.42326,34.10557 -1.68081,3.79043 -3.32553,7.23408 -3.65488,7.65263 -0.33476,0.42783 -0.7872,1.40809 -1.028,2.2349 -1.15755,3.97634 -1.26147,2.7132 -0.14901,-1.80904 1.23194,-5.00686 1.27337,-5.26207 0.82787,-5.09961 -0.39864,0.14507 -4.72467,9.63581 -5.18331,11.37076 -0.22277,0.8429 -0.969,3.59337 -1.65808,6.11228 -1.66676,6.09209 -2.35229,11.25367 -2.16637,16.31136 0.0786,2.14589 0.0273,4.14764 -0.1129,4.44828 -0.14112,0.30046 -0.17238,0.77998 -0.0695,1.06517 0.10289,0.28529 0.10167,0.70132 -0.003,0.92451 -0.29105,0.6204 -0.0473,6.05361 0.36722,8.18753 0.20274,1.04247 0.67106,3.8463 1.04105,6.23067 0.36999,2.38434 1.08205,5.81925 1.58239,7.63314 0.50027,1.81389 1.25166,4.89603 1.6697,6.84919 0.92562,4.32473 1.49367,5.70438 4.47344,10.86405 1.27865,2.21438 3.46207,6.09112 4.85186,8.6151 3.46648,6.29546 8.14517,13.19791 10.55093,15.56604 0.16025,0.16146 0.20425,0.32717 0.0935,0.37284 -0.11078,0.0455 -1.48126,-1.1628 -3.04599,-2.68561 -1.56481,-1.52281 -3.24526,-3.08447 -3.73421,-3.47051 -0.48875,-0.38641 -2.13873,-2.19257 -3.66654,-4.01411 -3.09582,-3.69233 -3.13188,-3.72675 -2.83546,-2.72367 0.21002,0.7113 0.20911,0.71227 -0.18786,0.18847 -0.21942,-0.28953 -0.32683,-0.67779 -0.24158,-0.86162 0.0871,-0.18422 -0.37918,-1.32542 -1.03494,-2.53554 -5.58881,-10.31242 -8.44815,-17.38285 -11.77833,-29.12509 -1.24775,-4.39975 -1.42836,-4.20269 -0.69478,0.75865 1.5995,10.82168 6.29616,23.49297 11.40742,30.77633 8.43142,12.01493 17.14898,19.96368 26.92643,24.55272 3.84626,1.80524 4.08117,1.52979 0.51342,-0.60226 -4.483,-2.679 -11.20994,-8.57437 -10.20013,-8.93904 0.22337,-0.0801 5.26398,2.95129 8.38183,5.04118 8.014,5.3723 19.00388,7.97139 25.68016,6.07346 3.13315,-0.89067 9.66929,-0.811 11.70109,0.14264 1.27385,0.59816 3.67628,0.45248 5.28974,-0.32028 2.97345,-1.42414 3.869,-1.63021 5.45321,-1.25494 0.82311,0.19545 3.20802,0.33484 5.29943,0.31056 4.23902,-0.0492 4.67523,0.0795 6.64099,1.95517 1.14362,1.09106 1.27577,1.33361 1.17209,2.15004 -0.27162,2.13924 1.86345,3.89695 8.57367,7.05884 5.28996,2.49257 5.28996,2.49257 6.06111,3.75055 0.42407,0.69181 1.15582,1.51986 1.62645,1.83978 0.97306,0.66016 1.66057,1.9664 1.83474,3.47964 0.0653,0.56866 0.31039,1.21085 0.54453,1.427 0.65713,0.60693 1.67656,3.40693 1.80488,4.94847 0.0628,0.76271 0.24735,1.80296 0.41014,2.31147 0.25251,0.78896 0.17724,1.23774 -0.51403,3.06049 -1.45425,3.83592 -1.09576,7.95894 0.853,9.80938 0.53075,0.50407 1.12044,1.22028 1.31046,1.59155 0.1912,0.37081 0.78696,0.97318 1.32651,1.33731 2.27888,1.53784 2.33712,4.17213 0.12231,5.56222 -0.29834,0.18726 -0.68332,0.54599 -0.85564,0.79655 -0.44492,0.64942 -16.28345,7.65069 -19.48173,8.61158 -13.55409,4.07213 -34.93915,3.65731 -49.38139,-0.95789 -2.19705,-0.70207 -5.32161,-1.64524 -6.94354,-2.09592 -3.27312,-0.90958 -9.0144,-3.46748 -12.321,-5.48939 -2.5088,-1.53422 -12.58674,-6.52135 -12.4366,-6.15446 0.0649,0.15782 0.46107,0.60596 0.88013,0.99628 1.18669,1.10168 0.86244,0.95901 -4.1215,-1.81158 -10.2041,-5.67291 -10.7235,-6.0337 -16.64916,-11.55775 -9.43942,-8.79992 -15.20683,-15.37511 -17.87084,-20.37366 -0.8344,-1.56545 -2.11168,-3.66135 -2.83818,-4.65778 -1.24351,-1.70493 -3.58351,-5.22917 -7.90122,-11.89978 -8.52836,-13.17603 -17.26027,-51.69446 -16.03088,-70.71594 0.56492,-8.76278 1.02502,-12.57059 1.53422,-12.74061 0.14355,-0.0473 0.19515,7.93594 0.0938,14.45966 -0.0498,3.19989 0.11958,6.29285 0.48523,8.87637 0.30883,2.18085 0.60601,5.05272 0.6604,6.38196 0.18695,4.56777 2.35232,14.19672 4.59071,20.41321 1.37249,3.81161 2.41114,6.01191 2.30689,4.88713 -0.16511,-1.785 -3.40633,-15.68268 -4.23666,-18.16672 -0.31478,-0.94149 -0.50289,-2.18485 -0.42091,-2.78149 0.23612,-1.71905 0.15205,-2.39028 -0.67343,-5.38598 -0.64006,-2.32245 -0.76371,-3.4503 -0.69551,-6.34226 0.0455,-1.93468 0.0212,-5.67282 -0.0558,-8.30705 -0.0941,-3.2534 0.009,-5.59971 0.31769,-7.31554 0.25099,-1.38933 0.59861,-3.62208 0.77236,-4.96173 0.43239,-3.33415 0.60214,-4.13865 1.51635,-7.1836 0.4363,-1.45325 0.90805,-3.29898 1.0483,-4.10163 1.08811,-6.22806 11.7246,-31.34855 15.87103,-37.48313 0.86523,-1.28165 2.48658,-4.16293 3.60147,-6.40393 1.54138,-3.09846 2.32649,-4.42558 3.2774,-5.5404 0.68735,-0.80648 2.19817,-2.75333 3.35636,-4.32719 1.21146,-1.64612 3.20766,-3.94982 4.70012,-5.42428 1.4267,-1.40958 2.7309,-2.87643 2.8981,-3.25962 0.99442,-2.27729 10.11966,-10.29854 15.86529,-13.94575 2.2115,-1.40378 2.7454,-1.90139 1.4242,-1.32709 -1.43203,0.62238 -1.23,0.24796 0.45066,-0.83415 4.33823,-2.79439 8.51886,-5.0868 9.98033,-5.47284 1.12585,-0.29743 1.65423,-0.57418 1.69584,-0.8886 0.0367,-0.29925 0.38938,-0.52253 1.01309,-0.6476 0.52398,-0.10501 1.01625,-0.32629 1.09388,-0.4916 0.53109,-1.13154 21.25987,-7.72838 28.20903,-8.97744 2.42786,-0.43638 5.53299,-1.05848 6.90041,-1.38246 1.36743,-0.32401 4.44598,-0.78677 6.84121,-1.02847 4.00803,-0.40435 5.51964,-0.6867 4.99502,-0.9329 -0.1129,-0.0522 -1.53537,-0.0149 -3.1611,0.0844 -3.48538,0.21314 -3.41528,0.19548 4.23365,-1.06806 9.1731,-1.51531 10.32653,-1.62014 16.44748,-1.49528 7.20959,0.14713 8.68773,0.26389 12.04279,0.95138 4.67884,0.95877 4.59359,0.95888 -12.23153,0.0127 -1.12435,-0.0635 -1.47938,0.0243 -1.52588,0.37593 -0.0498,0.35935 -0.26677,0.40012 -1.0231,0.18452 -3.64311,-1.03648 -4.94034,-1.06613 -9.09104,-0.20777 -4.147,0.85765 -3.67513,1.0689 1.59067,0.71212 3.75968,-0.25475 5.07375,-0.1485 4.53751,0.3669 -0.64784,0.62255 3.22213,0.84518 7.80471,0.44891 2.7458,-0.23752 9.51004,-0.0487 10.94875,0.30558 0.45506,0.11199 0.95024,0.0854 1.10056,-0.0589 0.36082,-0.34717 2.3186,-0.009 6.15045,1.06066 1.7243,0.48152 4.01702,0.97734 5.095,1.10181 1.30903,0.15117 3.00389,0.61668 5.1034,1.40164 1.72885,0.6464 4.67796,1.64446 6.55361,2.21786 9.56127,2.923 25.24177,9.88415 30.66963,13.61539 1.13483,0.77865 3.15819,2.07411 4.49863,2.87542 2.22904,1.33428 5.44586,3.96193 4.74862,3.87981 -0.16116,-0.0182 -2.03878,-1.11904 -4.17222,-2.44434 -2.13317,-1.32584 -4.5539,-2.72981 -5.37931,-3.1201 -0.82529,-0.39053 -2.83251,-1.58818 -4.46003,-2.66234 -3.72335,-2.4562 -5.34182,-3.21633 -12.46825,-5.85527 -3.16143,-1.17055 -5.96381,-2.21906 -6.22757,-2.33008 -0.52644,-0.22125 -0.34796,0.0486 0.67139,1.01646 0.35991,0.34061 0.31563,0.37585 -0.45643,0.36068 -0.46953,-0.009 -0.74935,0.0367 -0.62204,0.10197 0.12808,0.0646 4.01993,1.96512 8.65009,4.22242 9.02539,4.3999 11.6667,5.87379 14.45241,8.06474 0.97394,0.76623 3.53251,2.3624 5.68477,3.54845 2.4651,1.35753 4.45238,2.61745 5.36887,3.40365 0.80061,0.68623 1.90864,1.44806 2.46258,1.69253 0.60519,0.26646 1.2879,0.81515 1.70861,1.37379 0.38537,0.51166 0.86338,1.00721 1.06226,1.10114 0.19969,0.0926 1.18362,1.01072 2.18964,2.03562 1.00545,1.02566 2.13481,2.06027 2.50978,2.29915 0.37548,0.23824 1.58933,1.52846 2.69869,2.86556 1.10936,1.33713 2.67882,3.05454 3.48873,3.81558 0.80875,0.76208 1.70472,1.7433 1.99058,2.18097 0.2862,0.43728 1.1219,1.4114 1.85656,2.16494 0.73461,0.75352 1.83305,2.12947 2.44058,3.05783 0.60781,0.9282 2.13905,3.20064 3.40295,5.04974 1.9769,2.89239 4.55171,7.77594 4.17277,7.91421 -0.16995,0.0622 -3.48933,-4.39214 -6.08751,-8.16799 -1.55131,-2.25432 -2.37469,-3.22781 -2.96443,-3.50451 -0.4988,-0.23429 -1.11368,-0.85042 -1.58084,-1.5843 -0.42052,-0.66052 -1.10068,-1.48888 -1.51143,-1.84093 -0.41093,-0.35181 -0.97489,-1.07719 -1.25346,-1.61161 -0.50678,-0.97158 -0.50678,-0.97158 -0.83021,-0.47731 -0.34893,0.53264 -0.61078,0.45606 -2.09996,-0.61466 -1.82376,-1.31088 2.26837,3.68056 4.61981,5.63573 1.19173,0.98993 1.64836,1.57219 4.61156,5.86596 0.9357,1.35604 2.08995,2.81408 2.56491,3.24016 0.74535,0.66729 2.31621,3.14146 5.16671,8.13224 0.39191,0.68632 0.64232,1.39789 0.55619,1.58126 -0.29561,0.62954 -1.47471,-0.0625 -2.19041,-1.28536 -1.04696,-1.78991 -7.61417,-10.43324 -8.83264,-11.62533 -0.59509,-0.58237 -2.02977,-2.1698 -3.18657,-3.52903 -5.01705,-5.88972 -13.67054,-12.83302 -21.92618,-17.59332 -2.25414,-1.29974 0.84927,1.5511 3.50511,3.21946 3.10808,1.95286 10.15396,8.10699 13.54363,11.82949 0.9872,1.08615 1.88108,1.88446 1.98427,1.77605 0.10379,-0.10774 0.33594,-0.0495 0.5177,0.1305 1.13998,1.13246 5.81027,6.48658 7.27602,8.34147 0.96156,1.21674 2.09356,2.53587 2.51572,2.93139 2.2196,2.07911 7.72398,11.42766 7.79612,13.24034 0.0152,0.34686 0.75267,2.71681 1.64208,5.26598 4.51208,12.93297 6.2684,24.97147 5.44065,37.29308 -0.44574,6.62824 -0.15721,8.26684 0.68016,3.86957 0.59384,-3.11821 0.8977,-6.46991 1.07704,-11.87962 0.0889,-2.68562 0.20455,-4.9739 0.25675,-5.08507 0.42699,-0.91009 -2.60297,-18.1191 -3.83519,-21.78145 -0.9455,-2.81035 -1.25012,-4.08879 -1.45167,-6.09316 -0.20243,-2.01401 0.82025,-0.21183 2.01565,3.55125 1.64892,5.19077 1.98482,7.05171 3.32793,18.43667 0.47097,3.99192 0.78787,15.5818 0.5052,18.47352 -0.11047,1.12954 -0.13505,3.50562 -0.0552,5.28015 0.18969,4.20861 -0.27951,8.56232 -1.49048,13.82129 -1.52776,6.63638 -2.19669,9.77423 -2.157,10.11873 0.0522,0.456 -1.28912,5.47114 -2.12973,7.96125 -0.39397,1.16663 -0.79264,2.85281 -0.88624,3.74703 -0.0986,0.94353 -0.60935,2.80537 -1.21667,4.43638 -0.57558,1.54578 -1.211,3.43527 -1.41195,4.19902 -0.5037,1.91398 -3.25491,7.59557 -4.7653,9.84075 z m 4.422,-25.34292 c 0.48177,-1.195 1.04745,-2.93205 1.25741,-3.85992 0.21001,-0.92781 0.81636,-3.5873 1.3479,-5.90985 0.53142,-2.32248 0.95234,-4.48815 0.93528,-4.81253 -0.0152,-0.32443 0.24462,-1.58548 0.58146,-2.80255 0.97,-3.50429 1.22421,-6.78573 0.64915,-8.3781 -0.13475,-0.374 -0.15205,-0.87871 -0.0379,-1.12217 0.11472,-0.2431 0.27314,-1.26994 0.35311,-2.28124 0.0783,-1.01142 0.25069,-2.06355 0.38001,-2.33839 0.12959,-0.27436 0.12443,-1.24017 -0.009,-2.14528 -0.13444,-0.90505 -0.18938,-2.87414 -0.12261,-4.37574 0.23582,-5.30802 0.14113,-6.16466 -1.98761,-17.91758 -1.06317,-5.87027 -3.01727,-11.91025 -4.70543,-14.54394 -0.36483,-0.56878 -0.94071,-1.66891 -1.28038,-2.44434 -0.44219,-1.01024 -0.7774,-1.44123 -1.18135,-1.52032 -0.61812,-0.12079 -1.95447,-2.22376 -2.15851,-3.39649 -0.064,-0.36671 -0.36898,-0.99667 -0.67849,-1.39911 -0.30895,-0.4027 -1.98148,-3.08501 -3.71643,-5.96083 -2.72398,-4.51529 -3.56751,-5.68422 -6.18141,-8.56672 -1.66551,-1.83526 -4.1219,-4.58373 -5.45989,-6.10654 -3.94035,-4.484 -15.56334,-14.49571 -20.13805,-17.34646 -2.44996,-1.52639 -11.08773,-5.79355 -11.04906,-5.458 0.0182,0.14234 0.27648,0.37393 0.57897,0.51448 0.30168,0.14143 1.46463,0.94293 2.58528,1.77948 1.12035,0.83703 4.26236,3.08765 6.98258,5.00085 2.72,1.91349 5.23299,3.79261 5.58419,4.17616 0.35099,0.38365 1.85335,1.55052 3.33665,2.595 4.30809,3.0302 7.01811,5.22121 8.53697,6.90205 0.77689,0.86114 2.28604,2.40765 3.35221,3.43801 3.51856,3.40031 10.35112,12.67827 12.04382,16.35446 0.50836,1.10387 1.33862,2.5007 1.84461,3.10423 2.20506,2.62789 7.96495,18.85446 8.71607,24.55453 0.29439,2.23281 0.7716,5.74253 1.0608,7.7994 0.28923,2.05681 0.49782,5.08313 0.46362,6.72512 -0.16692,8.01424 0.0716,10.36483 0.716,7.05277 0.34823,-1.78922 0.18361,-10.78153 -0.26829,-14.65323 -0.51888,-4.44816 -0.97333,-9.66406 -0.86241,-9.90033 0.38453,-0.81925 2.16188,8.86211 2.25056,12.25887 0.0343,1.31741 0.1566,3.11889 0.27132,4.00336 0.29804,2.29283 0.32887,4.38518 0.0983,6.66129 -0.11017,1.08806 -0.15478,4.07662 -0.0992,6.64124 0.0871,4.03006 -0.006,5.17515 -0.68052,8.43725 -0.80899,3.90748 -1.33452,6.88281 -1.58852,8.99404 -0.0807,0.67263 -0.38738,1.94986 -0.68134,2.83836 -0.29378,0.88845 -0.55372,1.95035 -0.57761,2.3597 -0.0398,0.68589 -1.89851,6.04189 -3.85598,11.11261 -0.47454,1.22942 -0.75943,2.3522 -0.68332,2.69384 0.13324,0.59867 1.4229,-2.17077 4.07787,-8.75844 z m 1.06885,-59.07222 c -0.31776,-0.14901 -0.68881,-1.96812 -0.4886,-2.39472 0.11836,-0.25554 0.76565,1.38894 0.80189,2.03933 0.0213,0.38262 -0.0601,0.47433 -0.31296,0.35554 z m 5.23724,43.47461 c -0.0212,-0.65066 -0.11594,-1.15522 -0.21032,-1.12113 -0.36025,0.1302 -0.54818,2.23981 -0.21366,2.39684 0.44543,0.2085 0.4705,0.13263 0.42395,-1.2758 z m -7.91348,11.39793 c -0.0989,-0.15266 -0.32629,0.0835 -0.56004,0.58158 -0.21609,0.46058 -0.28711,0.88699 -0.15782,0.94772 0.12899,0.0616 0.38134,-0.20091 0.55998,-0.58152 0.17876,-0.38049 0.24977,-0.80699 0.15812,-0.94778 z m 2.71435,-12.50492 c -0.0956,-0.14477 -0.17906,-0.0692 -0.19605,0.17815 -0.0358,0.48113 0.0986,0.63464 0.25857,0.2956 0.0574,-0.12139 0.0303,-0.3353 -0.061,-0.47436 z m 1.14217,-6.57176 c 0.034,-1.30288 -0.17784,-2.21867 -0.40204,-1.74088 -0.28437,0.60647 -0.41153,4.58892 -0.14992,4.71162 0.28346,0.13142 0.50261,-1.05069 0.55214,-2.97071 z m 0.12565,-4.37511 c -0.23491,-0.80793 -0.30016,-0.87276 -0.49033,-0.48426 -0.2264,0.46226 0.002,1.60257 0.35409,1.76786 0.35849,0.16843 0.41199,-0.33479 0.13627,-1.28372 z m -9.97068,10.80544 c 0.32495,-1.54381 0.56422,-3.43048 0.53217,-4.19261 -0.0319,-0.76217 0.0977,-1.71535 0.28589,-2.11845 0.76095,-1.62099 0.77097,-15.08723 0.0152,-19.89226 -1.725,-10.96387 -3.2638,-16.16414 -7.21973,-24.39817 -2.68646,-5.59215 -7.22527,-12.87907 -7.87548,-12.64423 -0.15812,0.0571 2.87794,6.97812 5.41885,12.35375 6.83283,14.45575 9.86729,30.19642 8.46599,43.91607 -0.36437,3.56958 -0.65648,10.66933 -0.41687,10.19196 0.11107,-0.22549 0.46959,-1.67225 0.79427,-3.21603 z m -49.58847,-93.88314 c -0.25706,-0.0477 -0.15083,0.0662 0.23491,0.25311 0.38598,0.18665 0.596,0.22641 0.46686,0.0871 -0.12807,-0.14021 -0.4445,-0.29287 -0.70143,-0.34043 z m 4.37702,-16.52913 c -1.06799,-0.74981 -2.99955,-1.86269 -4.29204,-2.4732 -1.29231,-0.61105 -3.83722,-1.93277 -5.65494,-2.93831 -5.07348,-2.80662 -17.561,-7.863 -17.24273,-6.98172 0.0416,0.11836 4.06548,2.04965 8.93981,4.29344 7.3444,3.38074 9.0429,4.23893 9.91675,5.0074 1.50572,1.32536 10.59442,5.33919 10.31069,4.55362 -0.0182,-0.0543 -0.90918,-0.71172 -1.97763,-1.46114 z M 467.02038,646.86067 c -3.08211,-0.98414 -13.93711,-6.11313 -17.49958,-8.26863 -2.94334,-1.78075 -3.44365,-1.86348 -1.28815,-0.21275 5.33278,4.08381 18.39561,10.28173 22.73081,10.78508 1.70193,0.19757 -0.93619,-1.34311 -3.94354,-2.30291 z M 570.73132,426.50661 c -2.08009,-1.49984 -5.86359,-3.69641 -6.50287,-3.77565 -1.07595,-0.13323 2.08394,2.22889 5.16826,3.86645 3.07414,1.63052 3.6662,1.59022 1.33467,-0.091 z M 439.86897,638.0849 c -0.90186,-0.42884 -0.77789,-0.20455 0.29803,0.53819 0.62073,0.43026 0.7994,0.4837 0.62705,0.19302 -0.13142,-0.22368 -0.54823,-0.55239 -0.92438,-0.73194 z m -6.17613,-7.34331 c -0.76062,-0.0522 0.0389,1.01571 1.12481,1.50263 0.96277,0.43157 0.96277,0.43157 0.13718,-0.52046 -0.45476,-0.52316 -1.02199,-0.96553 -1.26157,-0.98214 z m -8.61525,-6.7927 c -3.84384,-3.60721 -4.89429,-4.33975 -3.30611,-2.30589 0.70975,0.90875 6.11422,5.64532 6.81926,5.97607 0.62684,0.29439 -0.12018,-0.48614 -3.51291,-3.6704 z m 22.34847,-203.54281 c -0.15934,0.0182 -0.68411,0.26404 -1.1666,0.54595 -0.87744,0.51227 -0.87744,0.51227 0.19362,0.17087 0.98982,-0.31533 1.63981,-0.79479 0.97346,-0.71788 z m 161.80336,165.59913 c -0.77263,0.71637 -0.6631,-0.80748 0.11017,-1.57107 0.24128,-0.23763 0.51479,-0.31618 0.60744,-0.1742 0.1733,0.26495 -0.26252,1.32035 -0.71979,1.74515 z m -8.78305,14.74692 c -4.88422,7.68297 -15.80881,19.20247 -25.2522,26.62742 -3.52897,2.77469 -3.44563,2.64902 0.79867,-1.2042 8.95097,-8.12611 16.54357,-16.4714 23.61267,-25.95361 3.80633,-5.10565 4.24706,-4.82761 0.84144,0.52954 z m 0.59615,-4.81384 c -0.34604,0.50571 -0.73609,0.95786 -0.86714,1.00426 -0.40535,0.14629 0.62523,-1.69914 1.4161,-2.53596 0.88839,-0.93977 0.60848,-0.16055 -0.54972,1.53109 z m 1.5674,-6.22129 c -4.75803,8.35995 -9.29975,15.28838 -10.57843,16.13704 -0.27315,0.18179 -0.2695,0.10258 0.0121,-0.28164 6.95073,-9.45984 8.45279,-12.12919 12.97181,-23.05263 2.6912,-6.50518 7.40834,-19.73785 7.80322,-21.88977 1.28691,-7.01283 1.47713,-8.15367 1.30745,-7.84107 -0.10713,0.19454 -0.62168,1.95584 -1.14581,3.91228 -0.52419,1.95654 -1.16287,3.97568 -1.41932,4.48698 -0.38304,0.76398 -0.37891,0.60289 0.0182,-0.90733 5.80726,-22.01335 4.24403,-44.47681 -4.51298,-64.85014 -8.02013,-18.65901 -13.04954,-25.18813 -28.18277,-36.58642 -3.45607,-2.60307 -3.24578,-2.8024 0.68902,-0.65206 8.71813,4.76383 20.51573,17.3176 26.31036,27.99655 10.03482,18.49346 13.23668,31.64928 12.4085,50.98354 -0.095,2.21926 -0.44328,3.0312 -0.39624,0.92362 0.0121,-0.69619 -0.0683,-1.41322 -0.18604,-1.5938 -0.1472,-0.22519 -0.21579,-0.20395 -0.22428,0.0734 -0.0771,3.23855 -0.56544,8.96666 -1.06642,12.44859 -0.34544,2.41353 -0.70198,5.08674 -0.79203,5.94046 -0.19909,1.88825 -0.63642,3.35079 -3.56265,11.9152 -3.431,10.04167 -6.7918,18.16031 -9.45389,22.83767 z m 15.31217,-56.69368 c -0.0552,-0.40902 -0.0807,-0.42094 -0.22853,-0.10592 -0.0923,0.19302 -0.13748,0.55995 -0.10319,0.81288 0.0552,0.40896 0.0807,0.42092 0.22853,0.10592 0.0923,-0.19302 0.13749,-0.55992 0.10289,-0.81291 z m -38.33069,93.19009 c -0.70174,0.69667 -1.17337,0.49469 -0.56984,-0.24432 0.66838,-0.81719 1.67249,-1.37555 1.34645,-0.74729 -0.12959,0.25069 -0.47937,0.69664 -0.77637,0.99148 z m 2.86941,-12.36234 c -2.14455,2.41818 -4.31702,4.43271 -4.26048,3.95079 0.0182,-0.16571 0.72229,-0.92052 1.56114,-1.6782 0.8395,-0.75706 1.68139,-1.69413 1.87156,-2.08166 0.19029,-0.38732 0.99995,-1.30175 1.79987,-2.03159 1.9192,-1.7507 1.48497,-0.93021 -0.97224,1.84045 z m 6.63659,-16.39634 c -0.17754,0.0212 -0.35484,-0.0495 -0.39333,-0.15509 -0.10258,-0.28437 0.5109,-0.80623 0.79252,-0.67406 0.31957,0.14962 0.0152,0.78153 -0.39925,0.82933 z m 46.69714,-100.1021 c -0.39318,0.0455 -0.90572,-1.09021 -0.69497,-1.53929 0.217,-0.46198 0.95352,-0.34477 1.20563,0.19181 0.24886,0.52738 -0.0422,1.29355 -0.51078,1.34742 z m -50.00753,104.74932 c -0.70942,0.32492 -0.73509,0.31675 -0.86656,-0.27133 -0.1469,-0.65645 1.15409,-1.59216 1.82502,-1.31282 0.46824,0.19515 -0.14749,1.2127 -0.95867,1.58375 z m 26.53128,-57.35357 c 0.91434,-10.24489 0.11472,-18.04708 -3.12198,-30.46271 -0.53937,-2.0691 -1.14232,-4.67766 -1.33983,-5.79679 -1.34254,-7.60683 -7.81591,-19.13389 -17.41178,-31.00496 -3.90484,-4.83074 -10.57048,-10.79364 -18.80484,-16.82254 -6.00268,-4.3949 -22.79864,-13.69543 -31.85942,-17.64176 -2.46589,-1.07398 -4.40979,-1.97936 -4.31975,-2.01183 2.18042,-0.78748 13.2567,3.68101 21.03616,8.48644 1.59146,0.9829 5.03845,2.99764 7.66061,4.47626 13.92348,7.85646 29.81942,22.81054 33.60399,31.61332 0.50778,1.18104 1.42369,2.80968 2.03335,3.62019 0.61033,0.81015 2.15095,3.38381 3.42338,5.71937 1.27243,2.33554 2.66033,4.88364 3.08438,5.66244 0.78753,1.44663 2.87791,7.63967 4.23389,12.54398 1.25771,4.54916 2.07301,10.59017 2.40801,17.84358 0.31521,6.82509 0.76316,6.33944 0.64671,-0.7014 -0.0397,-2.38713 -0.22094,-5.5571 -0.40349,-7.04446 -0.1824,-1.4873 -0.26708,-2.72756 -0.18786,-2.75618 0.83937,-0.30319 1.31743,14.44227 0.53848,16.61019 -0.20394,0.5668 -0.51169,2.58279 -0.6845,4.47984 -0.17268,1.89699 -0.39985,3.79295 -0.50458,4.21328 -0.10501,0.42022 -0.11837,-0.0416 -0.0303,-1.02702 z m 21.70281,-55.60942 c -0.21882,-0.16024 -0.31326,-0.54443 -0.21153,-0.87467 0.20819,-0.67909 0.52386,-0.37017 0.5729,0.56044 0.0273,0.50862 -0.0273,0.55575 -0.36088,0.31429 z m -58.14826,123.64509 c -0.57245,0.65187 -2.77955,1.03431 -3.10316,0.53867 -0.49916,-0.76432 0.5559,-1.77738 2.61116,-2.50756 2.16932,-0.7706 2.33154,-0.12139 0.49194,1.96883 z m -13.62572,19.28521 c -0.6916,0.24977 -1.47619,0.0865 -1.30791,-0.27193 0.16935,-0.36077 1.0303,-0.66226 1.63195,-0.57127 0.7557,0.11411 0.60432,0.50802 -0.32398,0.84311 z m 72.04992,-153.08748 c -0.28559,-0.13262 -3.11197,-4.57517 -3.24939,-5.10491 -0.2783,-1.07295 0.46122,-0.18392 1.79745,2.16066 1.47455,2.5875 1.71061,3.06577 1.45306,2.94377 z m -78.94949,156.16533 c -0.79813,0.28832 -1.21431,0.15144 -1.53428,-0.50474 -0.57339,-1.17401 0.50049,-2.27721 1.6782,-1.72451 1.20396,0.56516 1.12617,1.77067 -0.14507,2.22925 z m 52.45672,-136.15707 c -0.11381,-0.0525 -0.26919,-0.34128 -0.34513,-0.64025 -0.12595,-0.49242 -0.10228,-0.49351 0.25797,-0.0121 0.41035,0.54881 0.44705,0.82107 0.088,0.6523 z m -1.57203,-3.23087 c -0.23642,-0.38344 -0.2862,-0.68071 -0.11108,-0.66013 0.35773,0.0422 0.79306,0.8204 0.6401,1.14581 -0.0546,0.11684 -0.29287,-0.10167 -0.52987,-0.48471 z m -2.77045,-5.41136 c -0.18634,-0.0883 -0.55894,-0.64577 -0.8252,-1.2422 -0.48568,-1.08287 -0.48568,-1.08287 0.14083,-0.48972 0.72741,0.6886 1.24341,1.99426 0.68422,1.7318 z m -2.26618,-3.36047 c -0.6334,-0.29712 -4.83035,-7.59809 -4.44731,-7.73639 0.25341,-0.0914 1.21258,1.0751 1.74533,2.124 0.29621,0.58241 0.93616,1.59435 1.42263,2.24844 1.30463,1.75459 2.05498,3.72793 1.27953,3.36383 z m -5.38229,-9.3527 c -0.23004,0.0832 -1.4696,-1.11968 -6.36991,-6.17947 -1.41938,-1.46564 -3.12352,-3.1337 -3.78699,-3.70669 -1.28114,-1.10542 -1.45058,-1.65505 -0.353,-1.13971 2.91239,1.36687 11.7071,10.59354 10.50981,11.02587 z m -79.344,119.17975 c -0.45827,0.0243 -0.88453,-0.18847 -1.68651,-0.84162 -0.59051,-0.48037 -1.44166,-1.05225 -1.89195,-1.27037 -1.2778,-0.61806 -0.65989,-1.67738 1.21613,-2.08184 1.82724,-0.39473 2.46039,-0.0631 3.06255,1.60439 0.55373,1.5334 0.28256,2.5379 -0.69885,2.58959 z m 61.75241,-135.70897 c -0.45876,0.0528 -1.89316,-0.9289 -2.14916,-1.47076 -0.22428,-0.47136 0.14628,-0.73685 0.67026,-0.48092 0.72715,0.355 1.90024,1.90315 1.47908,1.95165 z m -4.52779,-7.30807 c -2.08334,-0.65045 -3.25058,-1.29161 -3.06626,-1.68433 0.13444,-0.28316 0.52313,-0.18422 1.98736,0.5065 2.17964,1.0286 2.81254,1.71902 1.07883,1.17792 z m -4.16622,0.96517 c -4.26773,-2.24133 -6.06247,-3.31904 -5.8055,-3.48699 0.31214,-0.20334 3.58253,1.369 6.14903,2.95673 3.31782,2.05246 3.12419,2.35138 -0.34322,0.53029 z m -67.4905,142.38674 c -1.07944,0.38987 -4.89545,-0.0364 -4.37347,-0.48847 1.62042,-1.40321 2.15593,-1.52849 3.55018,-0.82991 1.61322,0.80845 1.72834,0.99082 0.82335,1.31835 z m 82.58932,-180.36735 c -10.29909,-5.93112 -24.22157,-11.6212 -33.12307,-13.53703 -1.57759,-0.33955 -3.89091,-0.91608 -5.14073,-1.2813 -1.5677,-0.45806 -6.15677,-1.11279 -14.79955,-2.11151 -15.63038,-1.80622 -14.78928,-1.74074 -21.18915,-1.64973 -8.1075,0.11532 -8.20477,0.0473 -1.49088,-1.04139 6.02014,-0.97631 8.77364,-0.92986 20.76405,0.35023 9.09981,0.97153 10.38058,1.20395 15.33621,2.78339 2.13359,0.68008 5.63901,1.75349 7.78993,2.38554 9.88746,2.90523 22.45469,8.19295 29.39905,12.36976 3.19907,1.9243 5.02398,3.21193 2.45381,1.73249 z m -84.73945,176.39683 c -1.92327,0.2428 -1.90112,0.24674 -1.64721,-0.29408 0.29712,-0.63285 1.75719,-0.94256 2.59368,-0.55 0.93841,0.44047 0.7229,0.63246 -0.94714,0.84335 z M 567.78737,450.2072 c -0.39539,0.0455 -1.13492,-0.63512 -1.00071,-0.9212 0.0567,-0.12048 0.42052,-0.0704 0.80881,0.11199 0.69436,0.32596 0.79263,0.73995 0.19181,0.80936 z m -5.39858,-1.54202 c -1.56409,-0.72541 -2.02427,-1.02778 -1.84743,-1.21498 0.35864,-0.38097 2.85403,0.72001 3.44229,1.51829 0.4668,0.6333 0.39736,0.61998 -1.59465,-0.30377 z M 491.34462,597.2014 c -1.00575,0.30744 -1.8566,-0.48956 -1.36682,-1.28026 0.45382,-0.73042 1.62521,-0.84286 2.10388,-0.20061 0.4184,0.56077 0.0853,1.22952 -0.73715,1.48102 z m 66.43027,-150.49527 c -0.89394,-0.0647 -2.45204,-1.43929 -2.21186,-1.95098 0.19181,-0.40911 0.35051,-0.39943 1.21929,0.0789 1.54442,0.85006 2.12986,1.95426 0.99273,1.87177 z m -4.92619,-2.40358 c -0.34097,0.12352 -2.74346,-1.07064 -2.63199,-1.30812 0.14477,-0.30884 0.85561,-0.20334 1.88488,0.27982 0.87698,0.41144 1.20484,0.86313 0.74702,1.02848 z m -17.48907,-6.16918 c -2.92887,0.0483 -11.27343,-1.86904 -11.5575,-2.65567 -0.29803,-0.82504 3.46723,-0.28134 10.0942,1.45781 3.62572,0.95151 3.87814,1.15804 1.46318,1.19804 z m -5.45184,2.42361 c -0.28589,0.0121 -0.94271,-0.0929 -1.45953,-0.23066 -0.51682,-0.13748 -1.51574,-0.21153 -2.21973,-0.16419 -0.70401,0.0473 -2.04904,-0.0646 -2.98902,-0.24886 -0.93992,-0.18423 -1.9274,-0.3682 -2.19426,-0.40914 -0.42334,-0.0653 -0.41569,-0.19849 0.0625,-1.05103 0.87012,-1.55101 5.80654,-1.67177 6.67219,-0.16328 0.20668,0.36064 0.83406,0.85078 1.47101,1.14942 1.19191,0.55913 1.50093,1.08529 0.65685,1.11734 z m -9.7722,-4.08816 c -1.44014,0.20486 -2.28819,-1.1174 -1.0805,-1.6849 0.79594,-0.37379 2.25101,0.68498 1.91763,1.39525 -0.0483,0.0995 -0.42395,0.23096 -0.8371,0.28953 z m -4.09571,1.6175 c -1.9155,0.28923 -2.40285,0.26495 -2.22598,-0.11229 0.18089,-0.38565 3.94788,-0.6825 4.07832,-0.3214 0.0303,0.0798 -0.80465,0.27497 -1.85231,0.43333 z m -2.88771,-2.21942 c -2.65384,0.24462 -15.59522,3.45291 -18.41819,4.5661 -0.969,0.38204 -1.76103,0.34929 -1.56667,-0.065 0.0483,-0.0995 0.98866,-0.44547 2.09217,-0.76632 1.10344,-0.32079 2.70853,-0.96302 3.56687,-1.42721 1.5765,-0.85236 1.58159,-0.85336 13.1045,-2.46595 2.56531,-0.359 3.42159,-0.40061 3.30905,-0.16085 -0.0331,0.074 -0.97373,0.21639 -2.08773,0.31912 z m -2.32392,2.67215 c -0.31068,0.0804 -0.45424,0.0352 -0.38082,-0.12079 0.13202,-0.28499 0.7354,-0.40641 0.82201,-0.16662 0.0303,0.0877 -0.16449,0.21791 -0.44097,0.28771 z m -2.28327,0.46965 c -0.43245,0.0889 -0.81115,0.0932 -0.84123,0.009 -0.0859,-0.24098 1.23116,-0.57121 1.43966,-0.36113 0.10349,0.1041 -0.16753,0.261 -0.59834,0.35117 z m -64.18081,128.25759 c -2.46713,-1.15811 -7.103,-11.70576 -7.63096,-17.36258 -0.0243,-0.24765 0.56471,1.06174 1.30645,2.90999 1.95896,4.88164 4.31307,10.19569 5.49782,12.41101 0.97713,1.82679 1.11974,2.17909 0.82669,2.04158 z m -29.12515,59.81574 c -0.56001,-0.22033 -5.1255,-4.60603 -6.14976,-5.90744 -1.44502,-1.8359 -2.53942,-3.61279 -2.09659,-3.40523 0.61824,0.29014 8.80095,9.53101 8.24635,9.31264 z m -10.40787,-15.21405 c -5.65133,-6.50226 -14.64018,-23.78381 -14.82121,-28.49461 -0.0598,-1.5534 0.20273,-1.16957 1.99702,2.91831 3.49288,7.95879 9.11067,18.99738 12.10467,23.78451 1.77647,2.84046 1.90157,3.1519 0.71952,1.79185 z m 1.72676,-1.52818 c -0.53351,-0.58662 -3.74135,-5.60923 -3.67476,-5.75127 0.13323,-0.28043 3.08164,3.11898 3.64708,4.20445 0.44471,0.85358 0.46577,2.03004 0.0273,1.54688 z m 77.0512,-165.88587 c -5.29406,1.69619 -12.9574,6.59507 -18.60934,11.89641 -8.75336,8.21008 -13.34951,13.25807 -18.05123,19.82522 -1.23079,1.71914 -1.23079,1.71914 -0.20759,-0.24007 3.25406,-6.22805 7.71159,-12.6783 10.48726,-15.17505 1.09682,-0.98466 3.16941,-2.96074 4.60782,-4.38892 3.53674,-3.51145 9.97533,-8.08956 11.50096,-8.17782 0.36095,-0.0212 1.46433,-0.44468 2.45169,-0.94177 2.57217,-1.29519 5.32437,-2.4437 7.07304,-2.95215 1.59696,-0.46425 2.25399,-0.3281 0.74663,0.15509 z m 11.61407,-40.92704 c -0.17815,0.0203 -0.35023,-0.0368 -0.38359,-0.12702 -0.0319,-0.0909 0.13324,-0.1508 0.36893,-0.1339 0.48923,0.0354 0.49837,0.20556 0.0152,0.26119 z m -62.32276,128.73609 c -0.22914,-0.16632 -0.27345,-0.7191 -0.1214,-1.51343 0.2777,-1.45171 0.62125,-1.48099 0.77539,-0.0665 0.13385,1.22702 -0.16085,1.93884 -0.65405,1.57986 z m 57.73624,-133.15393 c -2.12288,0.74267 -4.99757,1.57256 -6.38827,1.84414 -2.78726,0.54436 -8.17628,1.84873 -11.47237,2.77682 -1.16806,0.32899 -4.26431,1.46667 -6.88067,2.52835 -5.01086,2.03333 -6.28739,2.41534 -4.89204,1.46399 0.43163,-0.29427 3.33715,-1.49483 6.45683,-2.66792 3.11973,-1.17307 5.7604,-2.32082 5.86823,-2.55048 0.10805,-0.23202 0.89671,-0.54806 1.76904,-0.71063 0.86523,-0.16113 1.63877,-0.43298 1.71908,-0.60418 0.11897,-0.25645 13.76293,-3.21585 16.71204,-3.62602 1.75161,-0.24364 0.85876,0.23351 -2.89187,1.54593 z m -58.23522,118.72941 c -0.57038,-1.57974 0.14386,-8.49883 1.29735,-12.56807 1.44147,-5.08465 1.5934,-4.7776 0.83287,1.68251 -0.88013,7.47277 -1.75237,11.93055 -2.12982,10.88535 z M 414.94918,446.3707 c -0.97852,1.05853 -4.27435,5.81082 -7.3667,10.62189 -2.98508,4.64407 -5.99644,10.18917 -10.49415,19.32333 -3.78952,7.69582 -3.78952,7.69582 -2.86769,3.96548 1.10254,-4.46175 4.02873,-10.61666 7.85448,-16.52114 2.61791,-4.04029 2.7981,-4.39632 2.01569,-3.98469 -0.7005,0.36853 -0.63892,0.23551 0.36006,-0.77843 0.43734,-0.4438 1.32275,-1.62724 1.96768,-2.62962 2.26564,-3.52159 8.43901,-10.88372 9.42494,-11.23971 0.2786,-0.10046 0.0349,0.23733 -0.8944,1.24286 z m -27.35229,55.95452 c -1.69143,-0.12261 -1.48032,-2.09562 0.72714,-6.78651 2.42118,-5.14698 3.16353,-5.73255 1.77502,-1.4012 -0.46107,1.43835 -0.59837,2.27253 -0.42653,2.59135 0.47096,0.87367 -1.30111,5.65254 -2.07527,5.59633 z"
       id="path1591-7" /><rect
       style="display:none;fill:#88b926;fill-opacity:1;stroke:#121310;stroke-width:0.499999;stroke-opacity:1"
       id="rect2189-8"
       width="1016"
       height="19.049997"
       x="4.4444441e-06"
       y="277.95001" /><path
       style="fill:#88b926;fill-opacity:0.321555;stroke-width:0.529167"
       d="M 524.93335,-379.80418 V -78.708338"
       id="path10331" /></g></svg>
