<?xml version="1.0" encoding="UTF-8" standalone="no"?>
<svg
   width="1000"
   height="1000"
   viewBox="0 0 264.58333 264.58334"
   version="1.1"
   id="svg8"
   sodipodi:docname="enso_tn.svg"
   inkscape:version="1.2.1 (9c6d41e410, 2022-07-14)"
   xml:space="preserve"
   inkscape:export-filename="enso_tn.png"
   inkscape:export-xdpi="96"
   inkscape:export-ydpi="96"
   xmlns:inkscape="http://www.inkscape.org/namespaces/inkscape"
   xmlns:sodipodi="http://sodipodi.sourceforge.net/DTD/sodipodi-0.dtd"
   xmlns:xlink="http://www.w3.org/1999/xlink"
   xmlns="http://www.w3.org/2000/svg"
   xmlns:svg="http://www.w3.org/2000/svg"
   xmlns:rdf="http://www.w3.org/1999/02/22-rdf-syntax-ns#"
   xmlns:cc="http://creativecommons.org/ns#"
   xmlns:dc="http://purl.org/dc/elements/1.1/"><defs
     id="defs2"><linearGradient
       inkscape:collect="always"
       xlink:href="#linearGradient6579"
       id="linearGradient6581"
       x1="530.92749"
       y1="143.38309"
       x2="687.55719"
       y2="143.38309"
       gradientUnits="userSpaceOnUse"
       gradientTransform="matrix(1.4258851,0.82323512,-0.82323512,1.4258851,-241.88267,-173.45719)" /><linearGradient
       inkscape:collect="always"
       id="linearGradient6579"><stop
         style="stop-color:#fe5e78;stop-opacity:1;"
         offset="0.40768597"
         id="stop6575" /><stop
         style="stop-color:#f7b273;stop-opacity:1;"
         offset="1"
         id="stop6577" /></linearGradient></defs><sodipodi:namedview
     id="base"
     pagecolor="#272822"
     bordercolor="#49483e"
     borderopacity="0.41176471"
     inkscape:pageopacity="0"
     inkscape:pageshadow="2"
     inkscape:zoom="0.61577215"
     inkscape:cx="218.42495"
     inkscape:cy="395.43848"
     inkscape:document-units="px"
     inkscape:current-layer="layer1"
     showgrid="false"
     showborder="true"
     inkscape:window-width="3836"
     inkscape:window-height="2113"
     inkscape:window-x="3840"
     inkscape:window-y="2160"
     inkscape:window-maximized="0"
     inkscape:document-rotation="0"
     units="mm"
     inkscape:showpageshadow="0"
     inkscape:pagecheckerboard="0"
     inkscape:deskcolor="#1d1e19" /><metadata
     id="metadata5"><rdf:RDF><cc:Work
         rdf:about=""><dc:format>image/svg+xml</dc:format><dc:type
           rdf:resource="http://purl.org/dc/dcmitype/StillImage" /></cc:Work></rdf:RDF></metadata><g
     inkscape:label="enso"
     inkscape:groupmode="layer"
     id="layer1"
     transform="translate(-379.4945,-396.48337)"
     style="display:inline"><rect
       style="display:none;fill:#88b926;fill-opacity:1;stroke:#121310;stroke-width:0.499999;stroke-opacity:1"
       id="rect2189-8"
       width="1016"
       height="19.049997"
       x="4.4444441e-06"
       y="277.95001" /><path
       style="fill:#88b926;fill-opacity:0.321555;stroke-width:0.529167"
       d="M 524.93335,-379.80418 V -78.708338"
       id="path10331" /><path
       style="display:inline;fill:url(#linearGradient6581);fill-opacity:1;stroke-width:0.999999"
       d="m 500.37599,660.69069 c -3.04508,-0.38974 -3.41779,-0.65216 -1.52299,-1.07217 l 1.43094,-0.31717 -1.30685,-0.59197 c -1.02619,-0.4647 -1.11718,-0.59613 -0.42367,-0.61154 0.48578,-0.012 1.36231,0.31589 1.94786,0.72601 l 1.06458,0.74564 -1.07657,0.29997 c -0.79378,0.2212 -0.50439,0.31315 1.10157,0.35011 1.19799,0.027 2.4722,0.24008 2.83158,0.47235 0.77375,0.50015 -0.13098,0.49974 -4.04639,-10e-4 z m -10.98277,-2.42401 c -1.61456,-0.62862 -3.11342,-0.93234 -3.92065,-0.79444 -0.87806,0.14987 -1.11535,0.0911 -0.72319,-0.17983 0.41153,-0.28415 -0.29523,-0.62833 -2.39595,-1.16676 -1.6388,-0.42007 -3.76383,-1.02682 -4.72219,-1.3484 -3.87997,-1.30173 -8.09622,-2.39065 -8.43824,-2.17928 -0.19992,0.12349 -1.12738,-0.16785 -2.0613,-0.64732 -0.9732,-0.49971 -2.11676,-0.76896 -2.67896,-0.63088 -1.20899,0.29704 -4.28123,-1.19868 -5.77131,-2.80982 -0.59904,-0.64765 -3.24547,-2.21416 -5.88106,-3.48118 -5.28187,-2.53916 -11.65527,-6.19869 -13.17599,-7.56552 -0.53816,-0.4837 -1.08733,-0.77054 -1.22041,-0.63746 -0.13308,0.13308 0.50328,0.8714 1.41407,1.64075 1.42387,1.20272 1.50333,1.35613 0.56697,1.09401 -1.39321,-0.38992 -4.01126,-1.94668 -6.64337,-3.95017 -1.13807,-0.86631 -2.06925,-1.40466 -2.06925,-1.19631 0,0.43098 3.65668,3.20864 7.84133,5.95641 1.5574,1.02256 4.27449,2.86767 6.03807,4.10016 1.76358,1.23246 3.42987,2.33304 3.70286,2.44574 0.35282,0.14567 0.33288,0.32011 -0.0689,0.60321 -0.45748,0.32248 -0.44549,0.49767 0.0629,0.91972 0.34556,0.28684 0.88501,0.46551 1.19883,0.3972 0.31385,-0.0683 0.57953,0.15346 0.59038,0.49294 0.012,0.33944 0.29223,0.70793 0.62499,0.81886 0.39169,0.13068 0.48835,0.012 0.27396,-0.3339 -0.25717,-0.41633 -0.12529,-0.4255 0.5928,-0.0411 1.22419,0.65509 1.16521,0.78793 -0.27425,0.61747 -2.87609,-0.34052 -3.37376,-0.46638 -3.3345,-0.84326 0.0881,-0.84431 -7.40876,-5.81084 -7.95163,-5.26791 -0.1112,0.1112 0.69193,0.84416 1.78469,1.62892 2.05147,1.47326 2.27399,1.71478 1.57978,1.71478 -0.54149,0 -8.19312,-5.12889 -8.57611,-5.74858 -0.33417,-0.54065 0.19302,-0.27785 2.12197,1.05784 2.25927,1.56432 1.19475,0.44147 -2.83158,-2.98675 -2.21627,-1.88707 -4.72906,-4.1171 -5.58407,-4.95568 -0.85498,-0.83859 -3.33821,-3.05791 -5.51836,-4.93182 -4.4521,-3.82675 -9.53327,-9.32679 -9.04588,-9.79164 0.17624,-0.16815 0.54254,0.0791 0.81397,0.54961 0.72394,1.25494 5.13303,5.89683 5.60109,5.89683 0.2206,-3e-5 -0.006,-0.51649 -0.50193,-1.14782 -0.49659,-0.63129 -0.90287,-1.3549 -0.90287,-1.60796 -6e-5,-0.25297 0.30638,-0.0794 0.6808,0.38549 0.37446,0.46506 0.61949,0.62499 0.54452,0.35542 -0.12708,-0.45643 -2.53392,-3.32011 -5.93954,-7.06632 -1.32924,-1.46218 -1.38505,-1.48531 -0.68602,-0.28475 0.42804,0.73518 -0.27126,0.16366 -1.59852,-1.30688 -1.29771,-1.43756 -3.65062,-3.88798 -5.22873,-5.44535 -2.42446,-2.39256 -9.66558,-12.58605 -11.69613,-16.46489 -0.48898,-0.93405 -0.46635,-0.96438 0.34265,-0.45916 0.47645,0.29764 1.08358,1.01798 1.34917,1.60095 0.26557,0.58295 0.57827,0.96459 0.69478,0.84809 0.33192,-0.33183 -2.11978,-4.66197 -2.50485,-4.42402 -0.18883,0.1166 -0.2188,-0.113 -0.0656,-0.51152 0.25567,-0.66654 0.30921,-0.66756 0.67527,-0.012 0.2185,0.39067 0.58144,0.59656 0.80618,0.45787 0.2248,-0.13907 0.4252,-0.0941 0.44516,0.0998 0.021,0.19393 0.0833,0.77028 0.14117,1.28099 0.12769,1.13022 2.98169,5.57579 4.67843,7.28734 0.67928,0.68524 1.15486,1.37564 1.05688,1.53422 -0.0974,0.15886 0.68785,1.15624 1.74641,2.21699 1.05852,1.06074 1.92456,2.17382 1.92459,2.47349 0,1.56204 4.14815,6.25174 5.52981,6.25174 0.34122,0 0.51779,0.16605 0.39244,0.36879 -0.29254,0.47351 2.27543,3.11617 3.02823,3.11617 0.31355,6e-5 1.00374,0.53904 1.53366,1.198 l 0.96351,1.19796 -0.31171,-1.30689 -0.31172,-1.30688 1.41874,1.30688 1.41871,1.30689 -0.97265,-1.2857 c -0.53493,-0.70712 -2.62861,-3.01513 -4.65265,-5.12892 -2.02402,-2.11378 -3.68003,-3.95784 -3.68006,-4.09791 -6e-5,-0.13997 -0.95269,-1.45863 -2.11714,-2.93019 -2.20842,-2.79091 -3.47361,-4.77194 -9.47939,-14.84311 -3.65224,-6.12448 -8.50406,-16.85293 -9.07598,-20.06894 -0.17054,-0.95836 -0.60761,-2.42863 -0.9716,-3.26721 -1.0258,-2.36337 -1.28998,-3.11794 -1.83018,-5.22753 -1.77665,-6.93801 -2.72188,-11.49948 -2.93379,-14.15794 -0.13368,-1.67717 -0.4175,-3.63752 -0.63066,-4.3563 -0.53742,-1.81226 -0.52981,-23.62092 0.009,-27.88021 0.24278,-1.91677 0.5247,-4.85724 0.62646,-6.53441 0.10191,-1.6772 0.39223,-3.5834 0.64547,-4.23603 0.25327,-0.65266 0.54479,-2.22091 0.64796,-3.48502 0.1034,-1.26414 0.3244,-2.6905 0.49159,-3.16968 0.16724,-0.47921 0.47615,-1.36134 0.68659,-1.96035 0.21041,-0.59898 0.70472,-2.54031 1.09833,-4.31399 0.3936,-1.77374 0.99022,-3.88213 1.32582,-4.68532 0.33558,-0.80319 0.91616,-2.78251 1.29019,-4.39854 0.37404,-1.61599 0.93426,-3.23226 1.24493,-3.59166 0.3107,-0.35935 0.69304,-1.36965 0.84971,-2.24501 0.81152,-4.53447 11.636,-23.49324 16.54879,-28.98477 1.03119,-1.15268 2.13353,-2.58587 2.44963,-3.18485 0.8774,-1.6626 4.89426,-6.08374 5.29974,-5.83316 0.19722,0.12139 0.3582,-0.0609 0.35817,-0.40602 3e-5,-0.34508 3.08752,-3.61858 6.86119,-7.27442 5.50673,-5.33489 6.25989,-6.19305 3.81532,-4.34728 -1.67519,1.26489 -3.27641,2.61517 -3.5583,3.00065 -0.28175,0.38552 -0.66373,0.54968 -0.84857,0.36487 -0.18493,-0.18494 0.10431,-0.64454 0.64265,-1.02157 0.53829,-0.377 2.19271,-1.71194 3.67655,-2.96646 3.24662,-2.74493 7.28248,-5.61086 7.53941,-5.35393 0.10221,0.10221 -0.60221,0.70742 -1.56549,1.34489 -1.95715,1.29516 -2.42661,2.02237 -0.55345,0.85714 1.87017,-1.16326 2.72182,-1.97331 2.48225,-2.36092 -0.1211,-0.19572 1.20689,-1.31102 2.95075,-2.47853 3.86553,-2.58793 4.25976,-2.82331 4.25976,-2.5436 0,0.12109 -1.07855,0.93612 -2.39676,1.81109 -1.31821,0.875 -2.52469,1.7979 -2.68108,2.05094 -0.34811,0.5634 -0.46459,0.63345 6.3847,-3.84305 4.61812,-3.01823 6.65113,-4.1373 7.84133,-4.31618 0.11989,-0.018 0.7079,-0.35137 1.30688,-0.74078 0.59901,-0.38944 2.26527,-1.30607 3.70283,-2.03697 3.61229,-1.83656 2.32001,-1.71098 -1.82727,0.17744 -1.87014,0.85163 -3.19368,1.34097 -2.94119,1.08742 1.77362,-1.78099 19.16867,-8.226 27.63898,-10.24051 2.75536,-0.6553 5.2148,-1.35949 5.46543,-1.5649 0.25057,-0.20531 0.83873,-0.38916 1.30688,-0.40835 0.46815,-0.018 3.10557,-0.20112 5.86093,-0.40466 7.94227,-0.58628 15.52356,-0.91283 12.09024,-0.52078 -1.61639,0.18463 -3.02976,0.42645 -3.14078,0.53747 -0.1109,0.1109 3.26981,0.24009 7.51303,0.28684 8.61508,0.0947 15.7676,0.48071 16.42746,0.88616 0.23948,0.14716 1.21975,0.4132 2.17814,0.59115 1.26495,0.23499 1.02618,0.26407 -0.87126,0.10641 -11.73116,-0.97404 -14.27057,-1.04519 -21.42363,-0.6003 -4.1768,0.25986 -8.41636,0.6502 -9.42132,0.8676 -1.64333,0.35554 -1.5642,0.37427 0.78658,0.18613 4.59028,-0.36744 16.89102,-0.23169 19.82112,0.2188 1.55734,0.23949 3.89793,0.43932 5.20131,0.44414 2.47922,0.009 7.02951,0.72976 8.52097,1.34939 0.47917,0.19902 2.53754,0.68188 4.57412,1.07291 5.20388,0.99912 6.2437,1.24793 10.67291,2.55388 6.52908,1.92514 13.74538,4.82718 14.27833,5.74208 0.18583,0.31936 0.63708,0.46596 1.00236,0.32581 0.36522,-0.14028 1.09518,0.13937 1.62205,0.62137 0.52689,0.4819 2.2421,1.48849 3.81151,2.23685 1.56948,0.74837 3.57926,2.04515 4.46622,2.88176 0.88699,0.83661 2.01404,1.52113 2.50455,1.52113 1.33185,0 3.53975,1.26486 3.19152,1.82835 -0.17774,0.28834 -0.1019,0.36226 0.18823,0.18284 0.42469,-0.26256 4.00323,1.71374 4.00323,2.21069 3e-5,0.20711 -0.479,-0.0504 -2.39595,-1.28794 -1.15663,-0.74669 -1.11982,-0.66325 0.32032,0.72487 1.4661,1.41328 3.39798,2.21524 2.72907,1.13291 -0.43823,-0.70907 0.0617,-0.4965 0.70901,0.30147 0.5147,0.63453 0.50697,0.69076 -0.0555,0.4041 -1.25044,-0.63717 1.73874,1.71766 3.1516,2.48275 1.37361,0.74381 1.3859,0.74345 0.35707,-0.012 -1.61302,-1.18291 -2.93966,-2.41477 -2.20178,-2.04451 0.96582,0.48466 5.66316,4.10912 5.66316,4.36967 0,0.12319 -0.51311,-0.17954 -1.14027,-0.67298 -1.19646,-0.94116 -2.13426,-0.81701 -1.73274,0.22929 0.12979,0.33795 -0.86909,-0.20172 -2.21956,-1.19943 -1.43693,-1.06152 -2.19441,-1.44128 -1.82619,-0.91561 0.34606,0.49407 1.89228,1.84714 3.43607,3.0068 4.46241,3.35209 13.28875,11.68689 15.98979,15.09938 1.3615,1.72003 3.57989,4.4016 4.92976,5.95897 7.79885,8.99765 15.32016,22.56164 19.70611,35.53828 0.9981,2.95306 1.89097,5.29299 1.98415,5.1998 0.0932,-0.0932 -0.35542,-1.74532 -0.9969,-3.67145 -0.64145,-1.92616 -1.02924,-3.72382 -0.86175,-3.9948 0.45463,-0.73581 1.10555,0.50136 0.79242,1.50626 -0.16425,0.528 -0.0857,0.71258 0.2227,0.52192 0.30897,-0.19093 0.37614,-0.0312 0.19033,0.45253 -0.20561,0.53604 -0.12948,0.65027 0.26946,0.40371 0.41683,-0.25777 0.47831,-0.098 0.24518,0.63654 -0.19722,0.62173 -0.14957,0.88048 0.13068,0.70739 0.26167,-0.16186 0.35434,0.0608 0.2272,0.54671 -0.1178,0.45079 0.39046,2.92947 1.12968,5.50817 0.73922,2.5787 1.34405,5.05875 1.34405,5.51125 0,0.45245 0.29403,0.93549 0.65344,1.07343 0.35941,0.13787 0.65347,0.53538 0.65344,0.8833 0,0.3479 -0.19602,0.5114 -0.43562,0.36331 -0.23949,-0.14807 -0.43563,-0.0555 -0.43563,0.20561 -6e-5,0.26136 0.26826,0.57794 0.59601,0.70374 0.35356,0.13577 0.82723,1.58029 1.16433,3.55102 0.4035,2.35896 0.66393,3.07817 0.89805,2.4803 0.37545,-0.95881 0.44864,-0.6539 0.58136,2.4252 0.0465,1.07816 0.34106,5.78296 0.65452,10.45507 0.57617,8.58643 0.51197,10.42548 -0.84125,24.10531 -0.52105,5.26722 -3.08761,17.00807 -4.87244,22.28913 -2.54273,7.52362 -7.1078,18.00917 -7.61833,17.49864 -0.12709,-0.12709 0.0875,-0.78365 0.47669,-1.45912 2.57986,-4.47839 8.45967,-23.62686 10.02096,-32.63767 1.99965,-11.54096 3.10653,-26.94934 2.06481,-28.74391 -0.377,-0.64949 -0.48739,0.23829 -0.4977,4.00299 -0.024,9.13646 -1.56771,22.95159 -3.35137,30.01272 -1.76919,7.00358 -6.5025,20.35503 -9.65236,27.22679 -7.07306,15.43065 -20.53241,31.88152 -32.75052,40.02965 -1.47551,0.98404 -1.46853,0.96663 0.2179,-0.54023 0.95842,-0.85636 1.54652,-1.55234 1.30692,-1.54658 -0.74426,0.018 -6.97008,4.53192 -6.97008,5.05372 6e-5,0.27155 -0.17834,0.65704 -0.39651,0.85672 -0.23049,0.21101 -0.26526,0.13488 -0.083,-0.18134 0.17234,-0.29943 0.19722,-0.54452 0.0551,-0.54452 -0.40368,0 -4.22548,2.03694 -5.67443,3.02434 -1.53813,1.04818 -1.15687,1.17905 0.67508,0.23169 0.70688,-0.36555 1.28524,-0.56559 1.28524,-0.4445 6e-5,0.27575 -2.91745,1.76028 -4.30194,2.18896 -0.70496,0.2182 -0.9407,0.16815 -0.73973,-0.15676 0.18403,-0.29913 0.0429,-0.38066 -0.37856,-0.2188 -0.37047,0.14207 -0.54638,0.46425 -0.391,0.71575 0.15676,0.25327 0.0758,0.32938 -0.18073,0.17085 -0.60939,-0.37655 -1.91225,0.13308 -1.6062,0.62817 0.13098,0.21161 -0.024,0.28505 -0.34181,0.16246 -0.31888,-0.12229 -1.73349,0.17444 -3.14351,0.65955 -1.41005,0.48515 -2.6316,0.81419 -2.71451,0.73128 -0.15825,-0.15825 1.02172,-0.69168 6.39253,-2.88859 4.17131,-1.70627 7.51264,-3.55494 7.74811,-4.28683 0.10101,-0.31441 -1.5904,0.31946 -3.75903,1.40859 -3.60705,1.81157 -12.70062,5.501 -13.46811,5.46429 -0.17744,-0.009 0.16695,-0.29584 0.76647,-0.63801 0.59898,-0.34241 0.93957,-0.62952 0.75682,-0.638 -0.4671,-0.021 -5.9568,1.54151 -7.40015,2.10719 -0.6589,0.25837 -1.198,0.30072 -1.198,0.0944 0,-0.50363 1.93156,-1.36856 7.40568,-3.31624 2.51575,-0.89512 4.96616,-1.92022 5.44537,-2.27807 l 0.87126,-0.65056 -0.87126,0.33503 c -5.34377,2.0548 -10.78797,3.72397 -12.77596,3.91703 -1.34537,0.13068 -3.52992,0.51517 -4.85455,0.8545 -11.35717,2.90915 -20.61253,3.87746 -33.99149,3.55612 -5.87007,-0.14088 -11.45701,-0.43968 -12.41539,-0.66373 -0.95839,-0.22419 -3.70284,-0.7998 -6.09879,-1.27945 -2.39599,-0.47963 -4.94438,-1.00308 -5.66319,-1.1632 l -1.30686,-0.29104 1.41578,0.9488 c 1.51513,1.01543 1.8232,1.42788 0.76236,1.02079 -0.35943,-0.13787 -0.65344,-0.0815 -0.65344,0.12499 0,0.65056 2.55052,1.53698 3.5845,1.24583 0.77259,-0.21761 0.84629,-0.17834 0.33612,0.17894 -0.57308,0.40124 -0.56769,0.45831 0.0438,0.46419 0.38356,0.003 1.62718,0.50097 2.76351,1.10519 1.13637,0.60414 3.07685,1.25881 4.31228,1.45474 2.00426,0.31784 2.11975,0.39163 1.07213,0.68519 -0.64571,0.18103 -2.18137,0.11299 -3.41251,-0.15107 -1.23118,-0.26406 -2.44328,-0.35347 -2.69362,-0.19872 -0.64688,0.39978 0.36507,0.87108 2.69658,1.25587 3.70835,0.61199 5.4666,2.7978 2.2966,2.85502 -1.31096,0.024 -1.46155,0.10341 -0.76237,0.40454 0.47918,0.20622 1.45936,0.51128 2.17814,0.67769 0.76734,0.17774 1.05484,0.39442 0.69639,0.52504 -0.4415,0.16096 -0.32089,0.38812 0.4356,0.82111 l 1.0463,0.59838 -1.19796,-0.26855 c -0.71657,-0.16066 -1.19796,-0.0848 -1.19799,0.18853 6e-5,0.25147 0.83319,0.64376 1.85143,0.87182 1.01827,0.2281 1.45933,0.43347 0.98015,0.45658 -0.47918,0.024 -1.85141,-0.24848 -3.0494,-0.60363 -2.16848,-0.64274 -2.17343,-0.64193 -1.11158,0.18074 0.58661,0.45442 1.78631,0.94136 2.6661,1.082 0.87974,0.14057 1.84502,0.55159 2.14511,0.91312 0.46231,0.55705 0.37454,0.65731 -0.57545,0.65731 -1.84406,3e-5 -5.66508,-0.91166 -6.7778,-1.61713 -0.57194,-0.36256 -2.72826,-0.8254 -4.7919,-1.02838 -2.06361,-0.20291 -4.68323,-0.50043 -5.82133,-0.66093 -3.25201,-0.45871 -2.46642,0.44792 1.17356,1.35436 1.78352,0.44411 3.15026,0.95719 3.0372,1.14011 -0.33885,0.54833 1.33221,1.21949 4.84499,1.94594 3.44081,0.71162 4.87837,0.56568 2.31838,-0.23529 -1.44536,-0.45223 -1.44054,-0.4552 0.38776,-0.23738 2.08291,0.24787 5.77538,1.39848 6.40382,1.9953 0.74948,0.71168 -2.44445,0.42774 -8.75326,-0.77819 -4.55254,-0.87024 -6.10433,-1.32604 -5.94325,-1.74581 0.11989,-0.31238 9.8e-4,-0.56805 -0.26437,-0.56805 -0.26526,9e-5 -0.48223,0.21881 -0.48223,0.48644 3e-5,0.28444 -0.45394,0.39963 -1.09288,0.27755 -0.84829,-0.16216 -0.98989,-0.0848 -0.63264,0.34568 0.47858,0.57665 0.27635,0.65041 -3.63126,1.32378 -1.99626,0.34397 -1.90469,0.49729 0.60066,1.00524 1.05847,0.2146 3.94826,0.80294 6.42172,1.30739 4.92423,1.00428 6.95266,1.15582 4.21534,0.31493 -1.69953,-0.5221 -1.71379,-0.54272 -0.57914,-0.83739 0.63987,-0.16605 1.522,-0.18823 1.96036,-0.0491 0.71183,0.22599 0.70391,0.17324 -0.0743,-0.49465 -0.77789,-0.66753 -0.78551,-0.71788 -0.0707,-0.47025 0.44024,0.15257 1.54142,0.39586 2.44703,0.54069 0.90563,0.14477 2.21173,0.74495 2.9024,1.33359 l 1.25581,1.0703 -2.39595,-0.25567 c -2.83176,-0.30218 -2.19334,0.4436 0.76236,0.89059 2.12053,0.32068 2.49804,0.86143 0.54455,0.78008 -0.71881,-0.03 -2.14004,-0.0821 -3.15831,-0.1157 -1.27931,-0.0423 -1.66042,-0.18193 -1.23333,-0.45235 0.43335,-0.27425 -0.024,-0.46971 -1.5247,-0.65365 -2.15563,-0.26406 -8.20781,-1.49733 -9.22174,-1.87928 -0.29943,-0.1127 -0.54458,-0.003 -0.54458,0.24518 0,0.24758 0.34307,0.54641 0.76237,0.6639 0.41929,0.1175 -0.31583,0.10761 -1.63362,-0.021 -2.80808,-0.27635 -2.5719,0.2233 0.65344,1.38242 1.19799,0.4305 2.36439,0.95299 2.59201,1.16109 0.63012,0.57605 -0.1151,0.39391 -3.02761,-0.74012 z m 2.35936,-11.79645 c -6.07637,-1.50524 -7.40223,-1.72195 -6.69388,-1.09398 0.2275,0.20171 2.57022,0.87608 5.20578,1.4985 6.14821,1.45183 6.4566,1.50767 6.93344,1.25482 0.21941,-0.1163 -2.23092,-0.86308 -5.44534,-1.65934 z m -0.39903,-2.38153 c 0,-0.21251 0.34301,-0.40215 0.76233,-0.42157 0.50079,-0.024 0.32871,-0.2269 -0.50151,-0.59329 -1.11589,-0.49255 -1.38191,-0.45523 -2.27219,0.31885 -0.55456,0.48218 -0.92563,1.01054 -0.82459,1.17405 0.26076,0.42204 2.83593,-0.012 2.83593,-0.47807 z m 46.89223,-8.6706 c 7.73688,-1.2211 17.94784,-3.69135 17.42397,-4.21522 -0.12199,-0.12199 -1.65556,0.0842 -3.40844,0.45754 -10.63286,2.26533 -19.10486,3.48811 -19.73831,2.84884 -0.29583,-0.29823 -0.19002,-0.34781 0.32416,-0.15196 0.4193,0.15945 0.76237,0.1088 0.76234,-0.113 3e-5,-0.23349 -2.61278,-0.35677 -6.20768,-0.29284 l -6.20771,0.1103 5.22756,-0.58057 c 6.28687,-0.69819 13.49622,-2.0709 16.77167,-3.19339 1.31779,-0.4516 3.60935,-1.08649 5.09241,-1.41077 1.48304,-0.32434 2.61638,-0.71926 2.51851,-0.87758 -0.22569,-0.3654 1.76562,-1.28656 2.78141,-1.28656 0.42211,0 1.14803,-0.31004 1.61312,-0.68899 0.83379,-0.67943 0.83346,-0.68506 -0.027,-0.40553 -0.47918,0.15586 -2.83158,0.7745 -5.22753,1.37465 -2.39595,0.60012 -5.14043,1.34429 -6.09879,1.65364 -0.95839,0.30941 -2.33064,0.68761 -3.04942,0.84044 l -1.30689,0.27785 1.0891,-0.60087 c 0.59895,-0.33048 3.73551,-1.32522 6.97005,-2.21051 13.92171,-3.81037 24.21468,-7.90837 30.93289,-12.31558 18.0329,-11.82962 29.50627,-28.08519 38.98203,-55.22982 1.6701,-4.78427 1.64558,-3.49504 -0.0486,2.55522 -0.59481,2.12416 -0.99984,3.94376 -0.90003,4.04354 0.5462,0.54623 3.32314,-9.4988 5.79843,-20.97448 0.86865,-4.02723 1.07247,-6.49509 1.27721,-15.46481 0.13518,-5.91803 0.0597,-11.93445 -0.16964,-13.50452 l -0.41309,-2.83159 3.6e-4,4.48969 c 1.8e-4,2.46933 -0.10071,4.59061 -0.2239,4.71395 -0.12349,0.12319 -0.35839,-1.50495 -0.52237,-3.61846 -0.44669,-5.75755 -1.85506,-15.2072 -2.78018,-18.65404 -1.7524,-6.52917 -5.39493,-16.14763 -8.33058,-21.99755 -1.20086,-2.39304 -2.2742,-5.06007 -2.38516,-5.92677 -0.2143,-1.67424 -0.89059,-2.78531 -1.69857,-2.79082 -0.55738,-0.003 -2.45152,-3.12268 -2.45152,-4.03659 0,-0.33006 -0.47708,-1.0483 -1.06018,-1.59609 -0.58312,-0.54781 -1.8891,-2.19924 -2.90222,-3.66986 l -1.84205,-2.6739 1.68529,1.5247 c 1.59348,1.44164 1.42575,0.89176 -0.34817,-1.14143 -0.44321,-0.50801 -0.83484,-1.30847 -0.87026,-1.77881 -0.0752,-0.99858 -1.0472,-1.14737 -1.40499,-0.21491 -0.20591,0.53694 -0.39501,0.50769 -1.17242,-0.18163 -0.81905,-0.72613 0.38338,1.07585 3.15804,4.73259 0.49995,0.65892 0.81911,1.19799 0.70928,1.19799 -0.1097,0 -1.44709,-1.61726 -2.97161,-3.59392 -3.20085,-4.15015 -11.8929,-12.95997 -12.7867,-12.95997 -0.33291,0 -0.99873,-0.50013 -1.47955,-1.11143 -1.02071,-1.29762 -8.76639,-7.1571 -9.46764,-7.16211 -0.26226,-0.002 -0.83292,-0.39663 -1.26792,-0.87731 -0.72894,-0.80549 -6.49947,-4.35361 -7.08052,-4.35361 -0.13968,0 -0.56364,-0.26646 -0.9419,-0.59175 -0.37826,-0.32551 -1.34672,-0.81299 -2.15213,-1.08338 -1.24091,-0.41656 -1.38724,-0.39867 -0.95901,0.1175 0.38461,0.46338 0.38012,0.68635 -0.018,0.93285 -0.35116,0.217 -0.41,0.13937 -0.17834,-0.23559 0.2317,-0.37496 0.14627,-0.48772 -0.25956,-0.34196 -0.33285,0.11959 -0.95665,-0.089 -1.38628,-0.4636 -0.71198,-0.62083 -0.75661,-0.61726 -0.5043,0.0405 0.27246,0.7103 1.44335,1.28005 2.89884,1.41059 0.40814,0.0366 0.6416,-0.0959 0.51877,-0.29464 -0.38698,-0.62616 0.14178,-0.4055 2.89594,1.20869 1.90601,1.11716 2.54416,1.70481 2.21185,2.03712 -0.53016,0.53016 0.14178,1.6302 0.98138,1.60655 0.27006,-0.009 0.13638,-0.28294 -0.29733,-0.61163 -0.49827,-0.37775 -0.6185,-0.7028 -0.32674,-0.88312 0.63696,-0.39364 1.41362,0.15436 1.05077,0.74147 -0.18314,0.29733 -0.0501,0.38503 0.35089,0.23109 0.37182,-0.14267 0.87177,0.1112 1.17479,0.59632 0.29014,0.46458 0.68827,0.74537 0.88472,0.62391 0.19662,-0.12139 0.69243,0.024 1.10213,0.32395 0.63076,0.46123 0.46878,0.51836 -1.05732,0.37284 -0.99745,-0.095 -1.90536,-0.44073 -2.03325,-0.77397 -0.12709,-0.33117 -0.39924,-0.49815 -0.60483,-0.37109 -0.20561,0.12708 -1.13849,-0.25178 -2.07311,-0.84173 -3.25693,-2.056 -14.30909,-7.55359 -16.6587,-8.28643 -1.30173,-0.40599 -2.70444,-0.92206 -3.1172,-1.14683 -1.03517,-0.5637 -11.26964,-3.13482 -11.51227,-2.89213 -0.20292,0.20292 6.52,2.47604 7.32301,2.47601 0.24847,3e-5 1.16754,0.32006 2.04233,0.7112 5.1826,2.31737 9.36471,4.00862 10.52091,4.2547 0.59901,0.12739 2.16067,0.92464 3.47034,1.77141 1.3097,0.84683 2.51485,1.53965 2.67818,1.53959 0.98851,0 10.42842,6.27072 14.65377,9.73413 2.69002,2.2049 3.07832,2.68971 2.6138,3.26361 -0.30015,0.37067 -0.34937,0.55705 -0.1097,0.41408 0.23978,-0.14298 1.02388,0.23378 1.74251,0.83723 0.71866,0.60345 0.96204,0.98243 0.5408,0.84212 -0.42118,-0.14027 1.03752,1.60167 3.24158,3.87105 2.20413,2.26937 4.1072,4.12614 4.22911,4.12614 0.12199,0 -0.012,-0.23529 -0.30108,-0.52276 -0.28744,-0.28744 -0.5165,-0.72858 -0.50889,-0.98014 0.009,-0.25148 0.29524,-0.0854 0.63948,0.36911 0.34412,0.4546 0.53987,0.96531 0.43497,1.13499 -0.27815,0.44909 2.83778,3.96753 3.27449,3.69762 0.20292,-0.12559 0.51074,10e-4 0.68413,0.28205 0.19693,0.31855 0.12649,0.39336 -0.18763,0.19932 -0.89131,-0.55085 -0.53891,0.20292 0.96462,2.06322 0.80715,0.99873 1.99429,2.69799 2.63811,3.77618 1.03832,1.73888 1.05712,1.83312 0.16605,0.83412 -0.55246,-0.61939 -2.24054,-2.71067 -3.75124,-4.64726 -1.5107,-1.93658 -3.70443,-4.56632 -4.8749,-5.84386 -1.17051,-1.27754 -2.34359,-2.56782 -2.60691,-2.86731 -0.75619,-0.86017 -1.513,-0.66022 -0.82438,0.2179 0.5394,0.68782 0.52468,0.70503 -0.15046,0.17594 -0.41165,-0.32248 -0.73149,-0.71452 -0.71078,-0.87125 0.14507,-1.09663 -0.30039,-1.75046 -1.96347,-2.88263 -1.04282,-0.70997 -2.07156,-1.69012 -2.2861,-2.17817 -0.21461,-0.48802 -0.61874,-0.88732 -0.89826,-0.88732 -0.27965,0 -0.65527,-0.14716 -0.83496,-0.32673 -0.53433,-0.5343 -1.12945,-0.37092 -0.7933,0.2179 0.17115,0.29943 -0.30752,-0.0312 -1.06338,-0.73494 -0.75583,-0.70373 -1.37423,-1.37498 -1.37423,-1.49175 -9e-5,-0.1169 0.49009,0.24817 1.08907,0.81089 0.59898,0.56274 1.0891,0.81038 1.08907,0.5503 0,-0.60485 -2.50788,-2.72844 -3.22219,-2.72844 -0.29793,0 -1.20027,-0.58807 -2.00535,-1.30689 -1.51984,-1.35687 -2.69076,-1.79598 -1.74251,-0.65344 0.65533,0.78964 -0.015,0.87333 -0.87206,0.1088 -0.52162,-0.46512 -0.52414,-0.43047 -0.018,0.23769 0.32632,0.4302 0.87189,0.67529 1.21235,0.54461 0.34049,-0.13068 1.03881,0.0564 1.55185,0.41582 0.64269,0.45016 0.73326,0.65766 0.29134,0.6672 -0.46767,0.009 -0.40541,0.19062 0.22989,0.66689 0.47918,0.35914 1.45936,1.1914 2.17814,1.84943 0.71879,0.65806 3.10919,2.72562 5.312,4.59462 3.79563,3.22045 11.40476,11.44891 12.48418,13.50036 0.27515,0.52287 0.97181,1.63406 1.54822,2.46929 1.62667,2.35708 0.018,0.62653 -3.65173,-3.92679 -5.9319,-7.36152 -14.19578,-15.30464 -19.6578,-18.89481 -4.25281,-2.79537 -9.13091,-5.37839 -9.5024,-5.03163 -0.2263,0.21131 -0.66402,0.0492 -1.01246,-0.37502 -0.33761,-0.41093 -0.48967,-0.50214 -0.33791,-0.20262 0.15166,0.29943 0.11719,0.54323 -0.0767,0.54167 -0.6045,-0.006 -2.76819,-1.5746 -2.5169,-1.82592 0.13128,-0.13128 -1.70771,-1.06953 -4.08643,-2.08525 -3.55732,-1.51895 -4.46885,-1.75705 -5.13581,-1.34151 -0.77058,0.48014 -0.76758,0.49453 0.0602,0.28984 0.47918,-0.11839 1.45939,0.0525 2.17814,0.37946 0.71878,0.3271 1.01285,0.6176 0.65344,0.64553 -0.41587,0.0324 -0.25747,0.27725 0.43563,0.6734 0.74932,0.42844 0.86793,0.62737 0.38006,0.63801 -0.86502,0.018 -1.80201,-1.02058 -1.35646,-1.50477 0.17774,-0.19302 -0.11839,-0.24218 -0.65782,-0.1094 -0.53942,0.13278 -0.88378,0.0845 -0.76521,-0.1073 0.11839,-0.19183 -0.2242,-0.36744 -0.76176,-0.39031 -6.0654,-0.25807 -7.51553,-0.48658 -8.71634,-1.37438 -0.79527,-0.58798 -1.67171,-0.86445 -2.33699,-0.73728 -0.58549,0.1121 -2.24414,-0.0426 -3.68581,-0.34352 -2.66235,-0.55558 -3.80747,-1.08082 -2.35639,-1.08082 0.43925,0 0.69927,-0.0992 0.57782,-0.22091 -0.38851,-0.38851 -2.96967,0.31067 -2.7083,0.73359 0.15376,0.24878 -1.32781,0.28864 -3.81883,0.10251 -2.2386,-0.16725 -4.36422,-0.25867 -4.7236,-0.20292 -0.35938,0.0557 -2.80724,0.16366 -5.43968,0.23949 -16.93736,0.48784 -32.94981,4.21681 -45.31107,10.55203 -7.83252,4.01422 -13.13076,7.48534 -18.47315,12.10247 -2.21782,1.91677 -4.27295,3.43605 -4.56696,3.37622 -0.29403,-0.06 -1.69935,1.1964 -3.12294,2.79172 -1.42363,1.59528 -3.32353,3.72453 -4.22203,4.73162 -0.8985,1.0071 -1.63359,1.93156 -1.63359,2.05433 0,0.12288 -0.71432,0.98296 -1.58716,1.91161 -1.84046,1.95781 -1.5589,1.30934 0.79725,-1.83623 0.91364,-1.21975 1.66116,-2.38019 1.6611,-2.57876 0,-0.48239 8.18222,-8.14382 9.29514,-8.70353 0.48134,-0.24219 1.1843,-0.96675 1.56211,-1.61036 0.37742,-0.64382 1.82616,-2.08547 3.21856,-3.20409 1.39246,-1.11862 2.43042,-2.13516 2.3066,-2.25897 -0.81487,-0.81488 -17.02548,15.02729 -20.16029,19.70212 -3.29766,4.91768 -6.47633,10.45471 -8.53713,14.87138 -2.09625,4.49245 -2.45784,5.68223 -1.55775,5.12596 0.31411,-0.19423 0.38458,-0.11929 0.18763,0.19932 -0.17325,0.28055 -0.47573,0.41084 -0.67194,0.28954 -0.57632,-0.35611 -3.16365,6.80075 -3.31426,9.16763 -0.0315,0.49624 -0.37173,2.26054 -0.75589,3.92068 -1.85698,8.02516 -2.9417,15.94259 -2.86054,20.87917 0.0537,3.26337 0.27366,2.47787 0.79267,-2.83158 0.54422,-5.56677 1.61096,-12.45978 2.25838,-14.59356 0.29073,-0.95841 0.54562,-1.93856 0.56628,-2.17817 0.021,-0.23948 0.49533,-1.76786 1.05487,-3.39615 0.5595,-1.62831 0.9062,-3.40313 0.77045,-3.94406 -0.16845,-0.67142 0.0381,-1.22736 0.65099,-1.75222 0.66528,-0.56961 0.8277,-1.07135 0.62706,-1.93694 -0.20232,-0.87219 -0.15886,-1.00263 0.17145,-0.51479 0.32323,0.47765 0.44399,0.50001 0.44887,0.083 0.003,-0.3136 0.20052,-0.45049 0.43731,-0.30407 0.23828,0.14687 0.32464,-0.009 0.19362,-0.35203 -0.29613,-0.77139 4.15175,-10.28893 5.34386,-11.43507 1.10679,-1.0641 2.703,-3.53139 2.0073,-3.10271 -0.28595,0.17594 -0.024,-0.56748 0.58288,-1.65245 0.60644,-1.08496 1.25911,-1.87589 1.45045,-1.75764 0.19153,0.11809 0.61514,-0.1145 0.94182,-0.51725 0.32661,-0.40275 0.371,-0.59883 0.0986,-0.43563 -0.60093,0.36001 0.92134,-2.71726 1.66689,-3.36962 0.29583,-0.25867 0.27065,-0.12199 -0.0567,0.31025 -0.32206,0.42511 -0.47555,0.88294 -0.34101,1.01746 0.13458,0.13458 0.46342,-0.16425 0.73087,-0.66396 0.26736,-0.49971 0.37436,-0.9086 0.23768,-0.90857 -0.13667,-3e-5 -0.0357,-0.39753 0.2245,-0.88343 0.25987,-0.48592 0.6369,-0.78208 0.83739,-0.65817 0.20082,0.12349 0.3377,-0.1109 0.305,-0.52171 -0.0327,-0.41093 0.16905,-0.75191 0.44876,-0.75754 0.27965,-0.006 0.6716,-0.18913 0.87125,-0.40706 0.21491,-0.23469 0.1136,-0.25178 -0.24877,-0.0414 -0.41483,0.24069 -0.51035,0.19063 -0.29614,-0.15586 0.17325,-0.28054 0.46776,-0.41578 0.65413,-0.30063 0.18644,0.1151 0.88894,-0.36471 1.56127,-1.06647 0.67232,-0.70172 1.36221,-1.18948 1.53312,-1.08385 0.17055,0.1061 0.68,-0.24428 1.13133,-0.77783 l 0.82054,-0.96987 -0.98012,0.82984 c -0.53912,0.45646 -0.98017,0.61037 -0.98017,0.34205 -6e-5,-0.26826 0.39153,-0.69792 0.87125,-0.95407 0.47915,-0.25657 0.87126,-0.33099 0.87126,-0.16575 -6e-5,0.16545 0.42825,-0.0728 0.95173,-0.52921 0.72598,-0.633 0.65437,-0.41647 -0.3018,0.91265 l -1.25356,1.74251 2.05816,-1.95571 c 1.13202,-1.07564 1.85359,-2.02392 1.60349,-2.10728 -0.24997,-0.0833 0.52054,-1.04708 1.71254,-2.14157 1.19197,-1.09453 2.06187,-2.16043 1.93314,-2.36871 -0.12888,-0.20831 -0.0725,-0.32724 0.12499,-0.26436 0.45094,0.14357 4.03751,-2.4036 6.40634,-4.54969 2.20547,-1.99812 4.48339,-3.52858 7.4057,-4.97576 1.22635,-0.60729 2.91581,-1.48906 3.75439,-1.95952 0.83859,-0.47042 2.21081,-1.16016 3.04939,-1.53276 0.83859,-0.37256 1.62271,-0.81173 1.74252,-0.97592 0.11989,-0.16425 3.25632,-1.21645 6.97007,-2.3384 7.89264,-2.38448 15.5084,-4.0097 23.0883,-4.92712 1.07819,-0.13068 2.20538,-0.31609 2.50487,-0.41246 0.29943,-0.0962 0.54452,0.015 0.54452,0.24668 6e-5,0.23199 -0.53909,0.45134 -1.19796,0.48724 l -1.19796,0.065 1.19994,0.18164 c 0.7192,0.1088 1.47344,-0.0917 1.88255,-0.50091 0.70547,-0.70547 4.10534,-0.97244 4.10534,-0.32239 6e-5,0.19812 -0.56487,0.27725 -1.25527,0.17594 -0.69043,-0.1013 -1.38811,0.0306 -1.55038,0.29314 -0.20712,0.3354 1.30223,0.49458 5.06702,0.53487 2.94917,0.0315 4.67603,0.17864 3.83745,0.3267 -1.29103,0.2281 -0.92389,0.3577 2.39595,0.84566 7.2868,1.07103 11.31802,1.82467 13.28671,2.48399 1.07813,0.36108 1.37222,0.54718 0.65341,0.41353 -0.71878,-0.13368 -2.28706,-0.35757 -3.48502,-0.49767 -1.198,-0.13997 -2.40093,-0.43152 -2.67315,-0.64751 -0.27215,-0.2161 -2.03657,-0.34966 -3.92071,-0.29703 -1.88407,0.0528 -6.36608,0.0393 -9.96003,-0.03 -7.10534,-0.13698 -10.80614,0.14057 -11.03495,0.82686 -0.0803,0.24129 -0.60096,0.4386 -1.15681,0.4386 -0.55588,0 -2.84294,0.37226 -5.08237,0.82726 -2.23941,0.45502 -4.65979,0.94642 -5.37857,1.09209 -1.20992,0.24518 -1.18573,0.20532 0.32635,-0.53559 3.35781,-1.64686 2.60609,-1.7194 -2.72176,-0.26256 -6.74156,1.84325 -8.17661,2.43594 -7.95451,3.28528 0.15616,0.59685 -0.018,0.8215 -0.6321,0.8215 -0.46584,3e-5 -2.05303,0.49009 -3.52717,1.08907 -3.03431,1.23297 -3.73346,1.35068 -2.50538,0.42178 1.33883,-1.01264 0.4415,-0.75151 -2.49163,0.72451 -3.79413,1.90958 -9.7049,5.47292 -12.33368,7.43537 -1.21975,0.91058 -2.50547,1.65562 -2.85724,1.65562 -0.86928,0 -2.3307,1.11284 -2.3307,1.7748 0,0.29613 -0.36687,0.59196 -0.81529,0.65775 -0.4484,0.0659 -1.34133,0.62362 -1.98419,1.23951 -0.64289,0.61594 -1.37171,1.11985 -1.61962,1.11985 -0.24788,3e-5 -0.67406,0.49009 -0.94703,1.0891 -0.27305,0.59892 -0.79452,1.08901 -1.15896,1.08907 -0.41039,-3e-5 -0.6628,0.40071 -0.66277,1.05244 0,1.04018 -2.79669,3.73943 -3.87446,3.73943 -0.26496,3e-5 -0.48181,0.19213 -0.48181,0.42697 -3e-5,0.23469 -1.17627,1.7248 -2.61377,3.31112 -2.40267,2.65123 -3.34319,4.16981 -2.11088,3.4082 0.31412,-0.19423 0.38458,-0.11929 0.18763,0.19932 -0.17324,0.28055 -0.48274,0.40652 -0.68743,0.27995 -0.59296,-0.36651 -1.78648,1.49247 -5.97299,9.30314 -2.7006,5.03858 -1.26273,3.154 1.95427,-2.5614 1.73747,-3.0868 3.34954,-5.73009 3.58228,-5.87397 0.61646,-0.38098 0.006,1.14782 -0.87284,2.17964 -0.40727,0.47921 -1.19859,1.85144 -1.75861,3.04931 -0.55989,1.19796 -1.40591,2.71103 -1.88008,3.36243 -0.47415,0.65134 -0.91154,1.63149 -0.97188,2.17814 -0.0602,0.54662 -0.12619,1.15243 -0.14597,1.3463 -0.021,0.19392 -0.20292,0.24967 -0.40628,0.12378 -0.4008,-0.24847 -0.68267,0.27725 -2.38489,4.44782 -0.61637,1.51025 -0.99952,3.06165 -0.85142,3.44758 0.17924,0.46716 0.0989,0.59641 -0.24038,0.38672 -0.28475,-0.17595 -0.53811,-0.0633 -0.57417,0.25537 -0.0354,0.31363 -0.0959,0.8643 -0.13457,1.2237 -0.0387,0.35941 -0.27546,1.1435 -0.52639,1.74252 -0.25087,0.59898 -0.5801,1.3831 -0.73149,1.74251 -0.15136,0.35943 -0.15676,-0.0327 -0.012,-0.87126 0.14507,-0.83858 0.11599,-1.38352 -0.0647,-1.21097 -0.18074,0.17265 -0.39627,1.34876 -0.4793,2.61377 -0.20861,3.18088 -0.38392,4.30703 -1.40843,9.0523 -0.49138,2.27615 -1.12345,6.68689 -1.40457,9.80162 -0.43739,4.84589 -0.40712,6.42418 0.20951,10.93625 0.39643,2.90019 1.10085,6.60219 1.56538,8.22664 0.8705,3.04393 1.59474,4.41376 1.20968,2.28802 -0.18554,-1.02505 -0.12229,-1.12273 0.4302,-0.66412 0.56769,0.47112 0.60872,0.14807 0.33174,-2.60996 -0.2203,-2.19267 -0.17055,-3.14761 0.16395,-3.14761 0.26406,-9e-5 0.47987,-0.29404 0.47978,-0.6535 0,-0.35938 -0.29404,-0.65345 -0.65344,-0.65345 -0.51952,0 -0.63732,-0.55806 -0.57494,-2.72268 0.0755,-2.62696 0.0845,-2.64608 0.24398,-0.54449 0.0911,1.19799 0.37523,2.37419 0.63165,2.61376 0.32871,0.30711 0.38665,-0.0782 0.19662,-1.30688 -0.14837,-0.95839 -0.27185,-2.29318 -0.27455,-2.96619 -0.003,-0.67304 -0.18494,-1.11239 -0.40497,-0.97637 -0.44579,0.27545 -1.13984,-2.28613 -0.73035,-2.69559 0.14267,-0.14267 0.25927,0.0674 0.25927,0.46677 0,0.3993 0.19602,0.72603 0.43562,0.72603 0.23949,-6e-5 0.43566,-0.98014 0.43563,-2.17814 0,-1.19799 0.19603,-2.17813 0.43563,-2.17813 0.23948,-6e-5 0.4326,-0.44109 0.429,-0.98015 -0.006,-0.79261 -0.0875,-0.85513 -0.42897,-0.32677 -0.31424,0.48637 -0.43716,0.20802 -0.48047,-1.08907 -0.0573,-1.71502 -0.0641,-1.72189 -0.42582,-0.43559 -0.25328,0.90101 -0.28625,0.56283 -0.10611,-1.08907 0.14387,-1.3178 0.29823,-2.78806 0.34325,-3.26721 0.045,-0.47921 0.29763,-1.38508 0.56125,-2.01308 0.26376,-0.62796 0.45957,-2.19624 0.43539,-3.48502 -0.03,-1.53177 0.37517,-3.55006 1.16627,-5.82825 1.1962,-3.44483 2.2763,-5.77502 1.8173,-3.92065 -1.20066,4.85041 -1.5636,6.55099 -1.99905,9.36602 -0.27785,1.79695 -0.60986,3.6348 -0.73752,4.0841 -0.14986,0.52752 -0.0611,0.71129 0.25028,0.51883 0.30524,-0.18853 0.48226,0.11629 0.48229,0.83037 0,0.62065 -0.29403,1.2413 -0.65347,1.37918 -0.44309,0.16995 -0.64361,0.83184 -0.62284,2.05555 0.024,1.47077 0.10701,1.64357 0.44318,0.93357 0.27486,-0.58058 0.31691,0.2188 0.12589,2.39598 -0.57704,6.5786 -0.21221,11.1993 1.5559,19.70264 0.62664,3.01376 1.71077,6.55663 2.23575,7.30631 0.36216,0.51718 0.40253,0.4567 0.19362,-0.29014 -0.14537,-0.51895 -0.0602,-1.06959 0.18943,-1.22368 0.27725,-0.17144 0.46509,0.27995 0.48397,1.16134 0.0345,1.62247 0.75553,3.77822 0.81003,2.42164 0.0321,-0.79839 0.86193,-1.08194 0.95634,-0.32671 0.0716,0.57222 0.18194,0.95122 0.50742,1.74251 0.14776,0.35938 0.58537,1.63359 0.97226,2.83158 0.38689,1.19796 1.03311,2.78953 1.4361,3.53679 2.26988,4.20944 2.77715,5.01895 3.00317,4.79289 0.13728,-0.13727 0.06,-0.49929 -0.17174,-0.80456 -0.40587,-0.53475 -2.7523,-5.86054 -2.7523,-6.24695 -3e-5,-0.104 0.19602,-0.18913 0.4356,-0.18913 0.23948,-3e-5 0.43547,0.25717 0.43565,0.57069 0,0.52797 2.38106,5.4826 3.59874,7.48846 2.32888,3.83627 4.81367,7.40842 6.81808,9.80162 4.43376,5.29383 4.54241,5.15638 0.31787,-0.40206 -1.35176,-1.77848 -2.4577,-3.43937 -2.4577,-3.69085 -6e-5,-0.25147 0.33048,0.027 0.73437,0.61988 3.33078,4.88539 11.18173,12.32193 12.07034,11.43329 0.43821,-0.43823 0.29763,-0.99016 -0.25237,-0.99019 -0.68773,0 -2.53293,-1.75791 -2.53293,-2.41312 3e-5,-0.28535 -0.40632,-1.03527 -0.90288,-1.66659 -0.49659,-0.63129 -0.76662,-1.14782 -0.60012,-1.14782 0.16635,-3e-5 0.0579,-0.34304 -0.24128,-0.76233 -0.29913,-0.4193 0.2158,0.0737 1.14467,1.09578 1.58875,1.74818 2.78947,2.50362 2.06646,1.30011 -0.26107,-0.43434 -0.19183,-0.43509 0.34109,-0.003 0.36756,0.29733 0.76902,0.44022 0.89281,0.31622 0.12348,-0.12349 0.47252,0.0743 0.77525,0.44 0.30306,0.36519 0.72867,0.66396 0.94577,0.6639 0.217,3e-5 1.02591,0.59614 1.79808,1.32379 0.77186,0.72805 3.07802,2.63936 5.12478,4.24736 6.1276,4.81399 8.25796,6.79551 8.2582,7.68121 1.2e-4,0.46036 0.34328,1.22401 0.76254,1.69701 0.74324,0.83844 0.735,0.84701 -0.32674,0.33975 -0.86556,-0.41363 -0.77962,-0.24788 0.41918,0.80783 0.82953,0.7305 1.29462,1.32819 1.0335,1.32819 -0.26107,0 -0.71876,-0.29403 -1.01708,-0.65338 -0.29823,-0.35944 -0.75355,-0.65344 -1.01171,-0.6535 -0.30584,3e-5 -0.28714,0.18224 0.0533,0.52276 0.63058,0.63054 0.70254,1.81789 0.0869,1.43753 -0.74124,-0.45816 -0.48413,0.21251 0.65344,1.70382 1.49113,1.95499 1.38418,2.43468 -0.5429,2.43468 h -1.63197 l 2.45667,2.34185 c 1.35122,1.28797 2.57442,2.71265 2.71826,3.16587 0.14387,0.45319 1.13229,1.29969 2.19651,1.88107 1.06425,0.58136 1.92448,1.16601 1.91156,1.2993 -0.012,0.13309 0.015,0.34032 0.0614,0.46012 0.0468,0.11989 0.14897,0.51188 0.2272,0.87126 0.0782,0.35937 0.27095,0.97247 0.42843,1.36239 0.2224,0.55105 -0.0593,0.77378 -1.26483,0.99993 -0.85291,0.16005 -2.28592,0.17264 -3.18442,0.027 -1.30952,-0.21041 -1.48055,-0.16575 -0.86209,0.2248 0.45541,0.28774 0.6339,0.69957 0.43563,1.00524 -0.18463,0.28504 -0.33588,1.20401 -0.33588,2.0426 0,1.46112 -0.0716,1.53054 -1.71859,1.66497 -1.65724,0.13548 -3.53043,1.51606 -3.06917,2.26236 0.1121,0.18164 -0.18584,0.43182 -0.6625,0.55645 -1.1289,0.29523 -1.10885,1.04369 0.0378,1.40762 0.49728,0.15796 0.8081,0.38291 0.69073,0.50031 -0.1172,0.1175 -0.62404,-0.006 -1.12603,-0.27515 -0.78721,-0.42145 -0.96807,-0.34283 -1.31563,0.57138 -0.70425,1.85227 -0.1166,2.79525 2.2275,3.57383 1.18846,0.39471 2.27876,0.59967 2.42299,0.4555 0.14417,-0.14417 8.1e-4,-0.26227 -0.31868,-0.26227 -0.31945,-3e-5 -0.48193,-0.0989 -0.36102,-0.2197 0.12079,-0.12079 0.85855,0.003 1.63928,0.27515 1.06863,0.37254 1.27446,0.59551 0.83298,0.90177 -0.41821,0.29014 -0.33015,0.33573 0.30705,0.15826 0.96528,-0.26826 7.17802,1.72519 9.98068,3.2022 0.94913,0.50025 2.12536,0.91834 2.6138,0.92913 0.48844,0.012 1.47614,0.3024 2.19495,0.64799 l 1.30691,0.62829 -1.30691,-0.21341 c -0.71875,-0.11749 -1.87029,-0.0584 -2.55892,0.13098 -1.0233,0.28175 -0.14806,0.55879 4.79191,1.51703 15.43907,2.99493 28.86113,3.36669 42.69895,1.18267 z m -32.73427,-1.30898 c -0.75194,-0.19692 0.26556,-0.24188 2.39592,-0.1064 2.03658,0.12948 3.78454,0.30674 3.88435,0.3936 0.3425,0.29823 -4.97312,0.0552 -6.2803,-0.28714 z m 8.3761,0.13068 c 0.77337,-0.0962 2.14556,-0.0977 3.0494,-0.003 0.90384,0.0944 0.27096,0.17354 -1.40606,0.17504 -1.67717,0.002 -2.41667,-0.0752 -1.64334,-0.17145 z m -27.23521,-5.40362 c -1.0282,-0.50903 -1.79191,-1.00302 -1.69716,-1.09773 0.0947,-0.0947 1.16966,0.0414 2.38864,0.30294 1.62996,0.34957 2.15305,0.64007 1.97732,1.09806 -0.31067,0.80942 -0.45404,0.79296 -2.6688,-0.30327 z m -4.92741,-3.45586 c -3.89973,-1.40408 -6.23361,-2.55379 -5.88727,-2.90013 0.13637,-0.13637 0.50774,-0.0321 0.82548,0.23169 0.31775,0.26377 1.05763,0.37266 1.64414,0.24219 0.76527,-0.17025 0.89793,-0.1181 0.46977,0.18523 -0.45571,0.32263 -0.24998,0.53001 0.87126,0.87791 2.73728,0.84934 4.43025,1.08178 4.11046,0.56433 -0.32997,-0.53391 1.37538,-0.66828 2.58587,-0.20382 0.57877,0.2221 0.60806,0.353 0.14447,0.64679 -0.43048,0.27276 -0.35527,0.37368 0.29013,0.3889 0.47921,0.012 1.20087,0.27096 1.60374,0.57737 1.41476,1.07552 -3.13395,0.65866 -6.65814,-0.61022 z m 78.02226,-5.25622 c 0.59898,-0.27934 2.80437,-1.36164 4.90092,-2.40482 2.09652,-1.04321 3.90983,-1.89681 4.02954,-1.89693 0.11989,-1.2e-4 0.49776,-2.1e-4 0.84005,-1.8e-4 0.34226,0 0.88139,-0.24488 1.19796,-0.54455 0.55888,-0.52867 3.40725,-1.70732 3.40725,-1.40993 3e-5,0.29373 -4.63572,2.74601 -7.40568,3.91765 -1.55736,0.65872 -3.41971,1.4515 -4.13849,1.76178 -0.71878,0.31028 -1.89498,0.68135 -2.61377,0.82459 -1.27804,0.25477 -1.28284,0.24938 -0.2179,-0.24758 z m -72.53217,-4.17688 c -0.47918,-0.1154 -1.06728,-0.40044 -1.30685,-0.63378 -0.28355,-0.27606 0.021,-0.31211 0.87122,-0.10311 1.18379,0.29074 1.2506,0.25237 0.70905,-0.40482 -0.80202,-0.97346 -0.2221,-0.91996 1.07333,0.0992 0.87605,0.68905 0.93525,0.86826 0.35983,1.08907 -0.3788,0.14537 -0.72169,0.24159 -0.76204,0.21371 -0.0408,-0.027 -0.46533,-0.14477 -0.94451,-0.26016 z m 87.9454,-2.84148 c 6.95536,-4.67312 15.4204,-12.06416 14.85846,-12.97336 -0.14567,-0.23559 0.009,-0.42844 0.34259,-0.42841 0.73204,0 5.711,-6.16026 9.27587,-11.4766 4.9121,-7.32556 5.77535,-8.79591 7.39797,-12.60096 0.89616,-2.10144 1.7087,-3.7415 1.80566,-3.64451 0.27845,0.27845 -3.1299,8.21878 -4.37312,10.18816 -1.11898,1.77248 -1.91998,4.02945 -1.43013,4.02945 0.14177,9e-5 0.75448,-0.98012 1.36152,-2.17811 1.07792,-2.12715 1.77501,-2.93705 1.21853,-1.41577 -0.31223,0.8536 -4.31033,7.53284 -5.97851,9.98778 -0.59535,0.87615 -0.97856,1.76113 -0.85153,1.96665 0.12678,0.20562 0.006,0.31976 -0.27216,0.25387 -0.27665,-0.0659 -0.82369,0.37038 -1.21555,0.96939 -0.69619,1.06425 -0.69244,1.0742 0.16395,0.43563 0.48202,-0.35941 -0.21071,0.36807 -1.5395,1.61662 -2.44625,2.29857 -3.89737,3.11393 -2.37453,1.33419 1.159,-1.35451 -3.13655,2.30355 -7.02162,5.97956 -2.93011,2.77247 -8.25625,6.64597 -10.78366,7.84253 -0.77208,0.36555 -1.03491,0.4168 -0.58409,0.11389 z m -21.9873,-4.23995 c 4.15912,-1.43007 8.91949,-3.27728 10.57856,-4.10489 1.65906,-0.82759 2.81068,-1.25677 2.55915,-0.95371 -0.25147,0.30305 -0.35473,0.65362 -0.22929,0.77903 0.12528,0.12558 -0.41534,0.49518 -1.20177,0.82165 -1.41368,0.58693 -1.60191,0.63437 -3.03225,0.76419 -0.40218,0.0366 -0.9943,0.32943 -1.31588,0.65095 -0.94483,0.94487 -2.5097,1.65559 -2.9907,1.35835 -0.24548,-0.15107 -0.68216,-0.0899 -0.97116,0.13697 -0.79293,0.62236 -8.76339,3.14765 -9.9347,3.14765 -0.5632,0 2.3789,-1.17009 6.53804,-2.60016 z m 16.15785,-0.42085 c 0.59901,-0.48415 1.2339,-0.88465 1.41089,-0.88999 0.43737,-0.012 7.39341,-4.92714 10.35112,-7.31236 l 2.39595,-1.93224 -2.39598,2.26398 c -3.09828,2.92761 -9.07394,7.24705 -11.19294,8.09073 l -1.65811,0.66016 z m 10.89075,-2.80679 c 0,-0.38866 0.2323,-0.70662 0.51614,-0.70665 0.7585,0 8.67506,-8.32557 12.15726,-12.78543 9.09142,-11.6438 15.72771,-26.44378 18.92253,-42.20002 1.79428,-8.84918 2.42305,-14.5162 2.40183,-21.64756 -0.009,-2.97425 0.0983,-5.29336 0.23799,-5.15353 0.43736,0.4373 0.60093,12.67139 0.18793,14.04631 -0.21611,0.71875 -0.71881,3.75727 -1.1174,6.75223 -1.50407,11.3015 -6.39711,27.00901 -10.98091,35.25051 -2.87924,5.17661 -7.57013,12.39893 -9.92604,15.28243 -3.74576,4.58443 -12.39939,12.37427 -12.39939,11.16168 z m -19.45176,-1.41038 c 1.16148,-0.60432 2.20697,-1.00365 2.32324,-0.88738 0.20501,0.20501 -3.61801,2.04724 -4.16373,2.00645 -0.14897,-0.012 0.67895,-0.51473 1.84049,-1.11907 z m 6.16509,-0.0644 c 0.23978,-0.21971 1.21975,-0.85229 2.17814,-1.40598 1.48783,-0.85956 1.61515,-0.88129 0.87125,-0.14896 -0.47918,0.47186 -1.45935,1.10453 -2.17814,1.40594 -0.71878,0.30147 -1.11086,0.36843 -0.87125,0.14897 z m 4.57409,-0.20532 c 0.11989,-0.13308 1.78606,-1.41098 3.70284,-2.8397 1.91677,-1.42867 4.32642,-3.40952 5.35482,-4.40184 1.02835,-0.99234 1.95949,-1.80425 2.06925,-1.80425 0.66342,0 -0.12259,0.91363 -2.40105,2.79078 -1.42683,1.17557 -2.50823,2.27654 -2.40311,2.44667 0.1049,0.17025 -0.24548,0.6785 -0.77876,1.12983 l -0.96987,0.82057 0.82983,-0.98014 c 0.45649,-0.53907 0.63381,-0.98021 0.39424,-0.98018 -0.56754,0 -1.94816,1.52664 -1.65017,1.8247 0.12619,0.12618 -0.11869,0.50228 -0.54359,0.83585 -0.70277,0.55163 -0.71866,0.53748 -0.17504,-0.15586 0.77411,-0.9871 0.27425,-0.97124 -1.18408,0.0375 -1.36111,0.94148 -2.55478,1.6198 -2.2454,1.27595 z m -6.97004,-1.45234 c 6e-5,-0.21161 4.23866,-2.80155 4.58482,-2.80155 0.9238,0 -2.19172,2.54726 -3.31768,2.7125 -0.69694,0.10221 -1.26714,0.14237 -1.26714,0.089 z m 11.32632,-4.01162 c 3e-5,-0.20322 0.58612,-0.93087 1.30238,-1.61716 1.73952,-1.66659 1.25231,-2.03181 -0.54452,-0.4083 l -1.41124,1.27512 1.20407,-1.33707 c 0.66223,-0.73542 1.10331,-1.47054 0.98024,-1.63356 -0.12319,-0.16305 -0.0896,-0.19512 0.074,-0.071 0.16395,0.12408 0.99666,-0.4151 1.85051,-1.198 l 1.55245,-1.42344 -1.27424,1.41125 c -0.7008,0.77618 -1.14386,1.5416 -0.98408,1.70117 0.42448,0.42454 6.87527,-7.03295 6.69696,-7.74203 -0.0441,-0.17504 0.31193,-0.6371 0.79117,-1.0266 0.85288,-0.69325 0.85054,-0.69819 -0.1088,-0.23319 -1.25524,0.6083 -1.3243,-0.14087 -0.10881,-1.18145 0.47918,-0.4103 0.87126,-0.92245 0.87126,-1.13813 0,-0.21581 -0.29404,-0.14807 -0.65344,0.15016 -0.99879,0.82891 -0.78269,0.10041 0.56277,-1.89717 1.88704,-2.80173 2.03064,-3.06822 1.46481,-2.71858 -0.27665,0.17084 -0.50294,0.11 -0.50291,-0.13518 3e-5,-0.47645 1.75195,-1.59154 2.27135,-1.44569 0.17115,0.048 0.21431,-0.16455 0.0962,-0.47234 -0.11809,-0.3078 0.30162,-1.53063 0.93273,-2.71745 1.68991,-3.17794 6.35102,-15.03473 6.13506,-15.60625 -0.10221,-0.27036 -0.33309,-0.0995 -0.51299,0.37955 -2.83095,7.53818 -7.41253,17.11995 -7.93577,16.59668 -0.083,-0.0827 0.25747,-0.84263 0.75628,-1.68823 0.49944,-0.8453 1.27775,-2.58559 1.73076,-3.86664 0.45298,-1.28107 1.32981,-3.46844 1.94851,-4.86084 1.34972,-3.03759 4.71047,-14.15679 5.64209,-18.66707 0.36714,-1.77752 0.89287,-4.98817 1.16826,-7.13481 0.84782,-6.60803 1.14533,-8.33723 1.21058,-7.03562 0.0336,0.67301 0.21191,1.13058 0.39606,1.0168 0.18404,-0.1139 0.27066,0.60977 0.19213,1.6079 -0.10341,1.31819 -0.024,1.63944 0.29494,1.17396 0.67697,-0.99109 1.05571,-0.21791 0.40631,0.82953 -0.48062,0.77513 -0.47471,0.98917 0.0363,1.30721 0.59427,0.36972 0.40011,2.68196 -0.70656,8.41466 -0.12738,0.65886 -0.0426,1.19796 0.18823,1.19793 0.4261,0 1.671,-7.1239 2.2838,-13.06886 0.29134,-2.82718 0.34448,-2.97387 0.3939,-1.08904 0.0315,1.19799 -0.34993,4.82457 -0.84751,8.05911 -0.49756,3.23457 -0.98414,6.86115 -1.08131,8.05914 l -0.17684,2.17814 0.86604,-2.61377 c 1.22904,-3.70931 3.05683,-17.11602 3.04736,-22.35168 -0.002,-1.29351 0.17204,-2.20388 0.39552,-2.06571 0.50717,0.31352 0.23619,9.27971 -0.37442,12.38818 -0.25358,1.29054 -0.46093,3.39792 -0.46096,4.68298 3e-5,1.28506 -0.14717,2.33649 -0.32715,2.33649 -0.17984,-9e-5 -0.3857,1.12054 -0.45715,2.49009 -0.17325,3.31924 0.19392,2.78623 0.98584,-1.43163 1.26669,-6.74509 2.0399,-15.3276 2.1166,-23.49338 0.0734,-7.81274 0.10011,-8.05705 0.47639,-4.35628 0.56353,5.54282 -0.33452,22.10438 -1.54726,28.53368 -0.5197,2.75536 -0.96399,5.53248 -0.98722,6.17141 -0.024,0.63893 -0.13158,1.07237 -0.24069,0.96321 -0.30018,-0.30009 -2.18206,6.83397 -2.19744,8.33019 -0.012,1.04717 -0.1061,1.17701 -0.48014,0.65347 -0.37463,-0.52446 -0.42411,-0.45918 -0.25087,0.33085 0.25477,1.161 -1.56714,6.06767 -4.27994,11.52714 -4.33916,8.73245 -9.50929,16.1285 -14.8545,21.24978 -3.06165,2.9334 -3.05233,2.53251 0.021,-0.86394 0.9717,-1.07414 1.22839,-1.48178 0.57036,-0.9059 -2.44775,2.14265 -1.5452,0.41125 2.72442,-5.22637 5.89573,-7.78468 11.0613,-16.49897 10.25695,-17.3033 -0.11899,-0.11929 -0.42667,0.33597 -0.68339,1.01141 -0.25686,0.67532 -0.93653,1.69755 -1.51052,2.2716 -0.57401,0.57401 -0.94624,1.29753 -0.82716,1.60784 0.11899,0.31031 -0.089,0.68134 -0.46254,0.82423 -0.37317,0.14327 -0.67847,0.59232 -0.67853,0.99807 0,0.93623 -2.07959,4.51714 -2.62321,4.51717 -0.2245,0 -0.8281,0.83313 -1.34105,1.8514 -1.32748,2.63526 -3.45691,5.21237 -7.93269,9.60045 -3.80358,3.72903 -5.52813,5.07907 -5.52813,4.32762 z m 24.81861,-51.82897 c 0.78412,-5.63774 0.39975,-5.30504 -0.88232,0.76362 -1.46897,6.95338 -1.5118,7.44107 -0.40421,4.60434 0.46125,-1.18133 1.04021,-3.59691 1.28653,-5.36796 z M 484.3835,596.12901 c -1.42273,-1.27035 -1.43732,-1.30841 -0.2179,-0.56895 2.53667,1.53813 3.06117,1.96674 2.38399,1.94807 -0.35281,-0.009 -1.32756,-0.63036 -2.16615,-1.37918 z m 102.42914,-1.48711 c 2.11567,-2.26164 7.20506,-9.242 9.49038,-13.01653 5.09928,-8.42224 9.79168,-20.30051 11.87423,-30.05837 1.07573,-5.04012 2.9605,-17.00393 2.9682,-18.84095 0.003,-0.7787 0.2227,-1.41577 0.48736,-1.41577 0.31601,-9e-5 0.39358,0.63605 0.2257,1.8514 -0.14058,1.01827 -0.44141,3.41968 -0.66861,5.33645 -1.7497,14.76195 -5.64485,28.39122 -10.73259,37.55361 -0.63791,1.14871 -1.86015,3.36279 -2.71612,4.92013 -1.96845,3.58141 -3.61538,6.03584 -6.36354,9.48289 -1.1973,1.50183 -2.22328,3.0467 -2.27999,3.43305 -0.0566,0.38632 -0.32434,0.92185 -0.59469,1.19008 -0.36402,0.36111 -0.41636,0.28984 -0.20142,-0.27486 0.16815,-0.44174 0.0875,-0.76236 -0.19213,-0.76236 -0.26526,6e-5 -0.48226,0.17354 -0.48223,0.38551 0,0.21191 -0.5391,0.7276 -1.19799,1.14566 -1.04214,0.66124 -0.99232,0.54024 0.38317,-0.93006 z m -12.25405,1.00095 c -9e-5,-0.0773 1.32322,-1.28611 2.94051,-2.68636 l 2.9405,-2.54588 -2.60016,2.68633 c -2.23125,2.30522 -3.28085,3.11971 -3.28085,2.54591 z m 8.11163,-6.28507 c 1.1063,-2.27022 1.60221,-2.69835 2.13231,-1.84062 0.15166,0.24548 0.018,0.39253 -0.30099,0.32671 -0.31729,-0.0659 -0.5378,0.0956 -0.49003,0.35878 0.0477,0.26316 -0.4852,1.1453 -1.18447,1.96032 l -1.27131,1.48184 z m -7.82832,-2.39595 c 6.23528,-6.66031 12.32598,-16.81906 15.60563,-26.02881 2.16447,-6.07822 2.48053,-6.74566 2.23254,-4.71478 -0.21161,1.73289 -3.65368,10.33595 -6.24374,15.60548 -2.29998,4.67938 -6.31639,10.46109 -9.53909,13.73174 -2.8219,2.86386 -4.48558,4.00224 -2.05534,1.40637 z m 7.7536,-2.28707 c 0.43494,-0.71884 1.13543,-1.69896 1.55659,-2.17813 0.42097,-0.47924 1.47928,-1.99845 2.35165,-3.37613 0.87239,-1.37768 1.68415,-2.50488 1.80395,-2.50488 0.1199,-3e-5 -0.50025,1.1272 -1.37777,2.50488 -2.40053,3.76862 -6.20225,8.64023 -4.33442,5.55426 z m -3.24497,0.42571 c 0,-0.39399 6.44168,-9.94912 7.59306,-11.26299 0.60414,-0.68941 1.48918,-2.29782 1.9668,-3.57422 0.47756,-1.2764 1.6359,-3.84886 2.57408,-5.71657 0.93822,-1.86774 2.14065,-4.73157 2.67207,-6.36414 0.53142,-1.6326 1.04689,-2.88766 1.14545,-2.78911 0.0986,0.0986 -0.61415,2.51252 -1.5839,5.3643 -1.78645,5.2537 -5.96927,14.01808 -8.39987,17.60042 -3.21896,4.74434 -5.96766,7.84984 -5.96766,6.74234 z m 32.04103,-19.59336 c 1.63431,-5.62908 2.15931,-7.18785 2.42095,-7.18785 0.37019,0 -0.94364,4.39299 -1.9543,6.53441 -0.39577,0.83859 -0.60582,1.13262 -0.46662,0.65344 z m 2.53616,-8.82147 c 0.85313,-2.93976 1.38787,-5.38828 2.25958,-10.34618 0.54761,-3.11473 1.01078,-5.15838 1.02927,-4.54142 0.0767,2.56644 -2.67677,15.64993 -3.29385,15.64993 -0.11869,3e-5 -0.1166,-0.34304 0.006,-0.76233 z M 436.10558,551.2723 c -0.5283,-1.46835 -0.88603,-2.74421 -0.79494,-2.83527 0.0911,-0.0911 0.61025,1.02334 1.15372,2.47649 0.54344,1.45319 0.90117,2.72908 0.79491,2.8353 -0.1061,0.10611 -0.62535,-1.0082 -1.15369,-2.47652 z M 617.5808,533.92401 c 0.12439,-2.75533 0.29704,-5.09139 0.38348,-5.19123 0.31061,-0.35857 0.0992,6.75361 -0.25147,8.45847 -0.2254,1.09542 -0.27426,-0.11779 -0.13189,-3.26724 z m -21.6825,-0.12888 0.21161,-2.70258 0.13997,2.34923 c 0.077,1.29207 -0.018,2.50826 -0.21161,2.7026 -0.19332,0.19423 -0.25627,-0.86283 -0.13997,-2.34925 z m 5.51491,-1.50462 c -0.14087,-0.41932 -0.49512,-1.08865 -0.78742,-1.48744 -0.40104,-0.54715 -0.41141,-0.97481 -0.0423,-1.74254 0.46497,-0.96672 0.49111,-0.94151 0.52549,0.50733 0.027,1.15081 0.13967,1.36446 0.45843,0.87125 0.31412,-0.48607 0.42403,-0.23499 0.42898,0.98015 0.006,1.77719 -0.18344,2.06208 -0.58328,0.87128 z m -172.5156,-4.13846 c -0.14447,-0.53909 -0.25297,-1.66629 -0.24098,-2.50487 0.018,-1.25503 0.086,-1.36549 0.38614,-0.62434 0.3345,0.82638 0.52708,4.10939 0.24099,4.10939 -0.068,0 -0.24159,-0.44109 -0.38615,-0.98018 z m 171.53662,-0.66462 c -0.27065,-0.17804 -0.59955,-2.40435 -0.75436,-5.10746 -0.15106,-2.63559 -0.37274,-5.96811 -0.4929,-7.40567 -0.17385,-2.07707 -0.13908,-2.3007 0.16845,-1.08907 0.2128,0.83855 0.48655,2.30879 0.60848,3.2672 0.12169,0.95839 0.45103,3.33876 0.73134,5.28973 0.56367,3.92299 0.48044,5.53269 -0.26077,5.04527 z m 11.1021,-1.2957 c -0.16965,-5.46675 -0.3095,-8.04113 -0.55118,-10.14824 -0.22419,-1.95406 -0.18673,-2.18266 0.21071,-1.28704 0.52123,1.17494 1.13101,13.06889 0.66999,13.06889 -0.15316,-6e-5 -0.30156,-0.73514 -0.32946,-1.63361 z m 5.98408,-9.23691 c -0.14867,-0.7299 -0.39046,-1.91521 -0.53748,-2.63397 -0.15496,-0.75783 -0.0842,-1.30691 0.16755,-1.30691 0.23919,6e-5 0.57165,1.09471 0.73881,2.43267 0.32832,2.62776 0.0719,3.67472 -0.36897,1.50821 z m -187.84886,-4.117 c 0.33198,-3.36852 1.11976,-7.38457 1.3947,-7.10966 0.28115,0.28115 -0.99543,9.47111 -1.3632,9.81281 -0.18044,0.16754 -0.19453,-1.04888 -0.0315,-2.70315 z m 165.42686,-1.04753 c -0.036,-0.55321 -0.26137,-0.88471 -0.50088,-0.73664 -0.27126,0.16784 -0.41941,-0.60279 -0.39256,-2.0435 l 0.0432,-2.31278 0.62179,1.96035 c 0.34197,1.07816 0.548,2.45042 0.45784,3.04937 -0.15556,1.03341 -0.16725,1.03766 -0.22929,0.083 z m 6.36015,-1.17224 c -0.15226,-0.47921 -0.37925,-1.85146 -0.5042,-3.04943 l -0.2272,-2.17813 0.63231,2.39595 c 0.61508,2.33082 0.69867,4.71715 0.0992,2.83158 z m 4.5535,-6.78274 c -0.79009,-3.56811 -1.84247,-7.52035 -2.33867,-8.78276 -1.42615,-3.6285 -6.01666,-14.40844 -6.52168,-15.31492 -2.5002,-4.48773 -4.0772,-6.99114 -6.93911,-11.01556 -2.66328,-3.74506 -3.60821,-5.32111 -2.17469,-3.62724 5.75398,6.79917 12.72435,19.24918 15.24337,27.22679 0.52956,1.67717 1.12387,3.44147 1.32058,3.92068 0.5373,1.30862 2.03733,7.44758 2.63928,10.80138 0.94816,5.28271 0.24428,3.445 -1.22908,-3.20837 z m -3.71644,2.16914 c -0.43818,-2.01484 -0.90678,-4.15345 -1.04144,-4.75243 -0.13458,-0.59898 -0.13278,-0.988 0.006,-0.86445 0.48931,0.4403 2.09248,7.12971 1.96404,8.19525 -0.0752,0.62428 -0.46899,-0.47043 -0.92739,-2.5784 z m 7.24118,0.25927 c -0.28505,-1.66338 -0.44741,-3.09495 -0.36103,-3.18134 0.25867,-0.25866 1.17887,4.64885 1.02316,5.45746 -0.0794,0.4115 -0.37721,-0.61274 -0.66213,-2.27612 z m 2.1092,-3.98383 c -0.52423,-2.07024 -0.87204,-3.84509 -0.77292,-3.94418 0.0992,-0.0992 0.41771,0.81011 0.70806,2.02048 0.29044,1.21037 0.68398,2.10422 0.8747,1.98637 0.36789,-0.2275 0.89442,0.81425 0.84308,1.66773 -0.018,0.27995 -0.21491,0.11689 -0.4403,-0.36238 -0.3048,-0.64822 -0.34766,-0.4531 -0.16755,0.76234 0.40724,2.7464 -0.0423,1.83 -1.04516,-2.13036 z m -12.3541,-7.13592 c -0.38194,-1.19424 -0.52153,-2.06451 -0.31028,-1.93392 0.42241,0.26107 1.43634,3.67359 1.17048,3.93942 -0.0911,0.0911 -0.47831,-0.81125 -0.8602,-2.0055 z m -170.80162,0.006 c -0.19273,-0.72247 -0.0755,-1.24517 0.35059,-1.56388 0.35192,-0.26316 0.53188,-0.58669 0.39975,-0.71878 -0.13218,-0.13218 -0.0312,-0.36924 0.2245,-0.52719 0.62665,-0.38728 0.5581,0.9776 -0.13008,2.59197 l -0.55549,1.30299 z m 180.31416,-2.44604 c -0.83799,-2.45944 -0.82828,-2.34194 -0.19423,-2.34194 0.27965,0 0.3925,0.11569 0.25118,0.25717 -0.14148,0.14147 0.024,1.05418 0.36768,2.02827 0.3437,0.97409 0.54679,1.84912 0.45142,1.94456 -0.0956,0.0956 -0.48958,-0.75424 -0.87593,-1.88809 z m -10.96371,-6.57131 c -2.07422,-4.54922 -2.18368,-4.83936 -1.60928,-4.2654 0.57665,0.57623 3.72163,7.64069 3.5001,7.86219 -0.0947,0.095 -0.94565,-1.52377 -1.89082,-3.59679 z m -15.38479,-3.08899 c -0.74959,-1.16817 -1.36293,-2.43687 -1.36293,-2.81929 3e-5,-0.38246 -0.98015,-1.91669 -2.17811,-3.40937 -2.25945,-2.81534 -2.45563,-3.21958 -1.76862,-3.64418 1.00773,-0.62284 6.1249,5.5046 6.1249,7.33409 0,0.40677 0.32059,1.22884 0.71246,1.82689 0.39183,0.59805 0.61022,1.18954 0.48532,1.31446 -0.12499,0.12499 -0.65758,-0.46931 -1.18363,-1.32049 -1.39303,-2.254 -1.58986,-1.89531 -0.26317,0.47879 1.52308,2.72515 1.13412,2.88919 -0.56652,0.23889 z m 19.21504,-1.26025 c -0.47462,-0.67268 -1.38598,-2.30124 -2.02528,-3.619 l -1.16238,-2.39595 1.08739,1.29004 c 1.32978,1.57766 3.47001,5.44118 3.17666,5.73449 -0.11719,0.1175 -0.60177,-0.33698 -1.07639,-1.00958 z m 2.29458,-1.0008 c -0.43329,-0.96081 -0.95407,-1.74694 -1.15725,-1.74694 -0.20322,0 -0.36948,-0.37239 -0.36948,-0.8275 0,-0.45511 -0.68611,-1.84703 -1.52467,-3.09318 -0.83861,-1.24613 -1.52475,-2.3965 -1.52475,-2.5564 -3e-5,-0.15976 -0.51578,-1.04984 -1.14623,-1.97762 -0.63042,-0.92779 -0.93597,-1.55692 -0.67895,-1.39806 0.25717,0.15886 1.16679,1.44032 2.02174,2.84767 0.85492,1.40736 1.84655,2.67093 2.20364,2.80794 0.35704,0.13697 0.64922,0.75693 0.64922,1.37759 0,0.77947 0.16845,1.03155 0.54455,0.81508 0.29943,-0.17234 0.40922,-0.16305 0.24398,0.021 -0.16545,0.18374 0.18044,1.42156 0.768,2.7506 0.58777,1.329 0.99876,2.48626 0.91334,2.57165 -0.0854,0.0854 -0.50979,-0.63081 -0.94302,-1.59166 z m -176.21379,0.4621 c 0,-0.7597 1.4103,-3.0803 1.87197,-3.08033 0.20741,3e-5 -0.0647,0.73515 -0.60522,1.63362 -1.25533,2.08738 -1.26672,2.10048 -1.26678,1.44671 z m 9.16563,0.26286 c -0.027,-0.58157 3.2967,-6.04583 4.65583,-7.65151 1.18981,-1.4057 1.24871,-1.42665 1.22488,-0.43566 -0.024,0.98986 -2.4131,5.0069 -2.41307,4.05709 -9e-5,-0.24938 0.28774,-0.834 0.63959,-1.29912 0.72268,-0.95536 0.87,-1.67579 0.26676,-1.30284 -0.32299,0.19962 -2.64871,4.02811 -2.64871,4.36018 -6e-5,0.0498 0.26676,0.0905 0.59292,0.0905 0.32611,6e-5 0.57117,-0.30563 0.54464,-0.67921 -0.027,-0.37359 0.18644,-0.68396 0.47352,-0.68977 0.75304,-0.015 4.07914,-4.61699 3.75193,-5.191 -0.15136,-0.26556 -0.1127,-0.33522 0.0857,-0.15496 0.19872,0.18014 0.75388,-0.015 1.23381,-0.43563 1.13166,-0.98992 0.64046,-0.074 -1.22598,2.28613 -0.75793,0.95836 -2.0094,2.67114 -2.78105,3.80607 -0.77163,1.13496 -1.57754,2.01709 -1.79089,1.96032 -0.21341,-0.057 -0.70652,0.28894 -1.09605,0.76803 -0.68875,0.84734 -0.69463,0.84332 -0.21341,-0.14627 0.72148,-1.48309 0.17714,-1.67747 -0.61316,-0.2191 -0.36851,0.68012 -0.6779,1.07468 -0.68761,0.87683 z m 154.0929,-2.14526 c -0.57635,-1.01827 -1.77533,-2.9786 -2.66442,-4.35628 -0.88903,-1.37767 -1.50845,-2.50487 -1.37648,-2.50487 0.28414,0 3.71024,5.2647 4.74877,7.29678 1.05403,2.06244 0.52009,1.73382 -0.70787,-0.43563 z m 15.46667,-2.17814 c -0.757,-1.49745 -2.07967,-3.99687 -2.93927,-5.55427 -0.8596,-1.55736 -1.25401,-2.4395 -0.8765,-1.96032 0.37751,0.47921 0.81595,0.87126 0.9743,0.87126 0.15826,0 0.31442,0.29403 0.34676,0.65344 0.0875,0.9734 3.11767,6.23786 3.34523,5.81215 0.1073,-0.20201 0.13637,-0.12169 0.0635,0.17774 -0.0731,0.29943 0.009,0.5447 0.18044,0.54485 0.17204,1.8e-4 0.34133,0.49027 0.37586,1.0891 0.0345,0.5988 0.027,1.08874 -0.015,1.08874 -0.0429,0 -0.69762,-1.2252 -1.45462,-2.72269 z m -14.69337,-2.09805 c -0.87287,-1.48933 -2.76501,-4.36536 -4.20482,-6.39123 -2.90459,-4.087 -2.78326,-4.52931 0.17564,-0.6399 2.26854,2.98205 6.09555,9.2596 5.81564,9.53954 -0.10971,0.10971 -0.91358,-1.01911 -1.78643,-2.50841 z m 6.24737,0.13788 c -0.027,-0.17984 -0.027,-0.47375 0,-0.65347 0.027,-0.17984 -0.13938,-0.32671 -0.37287,-0.32671 -0.23349,0 -0.73173,-0.63711 -1.10729,-1.4158 l -0.68287,-1.41578 1.25251,1.42126 c 0.6889,0.7817 1.25251,1.71287 1.25251,2.06925 0,0.66738 -0.25027,0.90243 -0.34196,0.32128 z M 440.73351,472.4131 c 0.28744,-0.28744 0.52279,-0.71878 0.52273,-0.95839 0,-0.24188 -0.2323,-0.20321 -0.52276,0.0872 -0.28745,0.28745 -0.71705,0.52276 -0.95452,0.52276 -0.23739,-3e-5 -0.0534,-0.27665 0.40898,-0.61486 0.46245,-0.33816 0.96441,-0.53841 1.1155,-0.44507 0.15107,0.0929 1.22653,-1.05122 2.38993,-2.54348 2.33685,-2.99754 2.12377,-2.75164 5.22618,-6.03153 1.21994,-1.28968 2.26545,-2.54093 2.32336,-2.78054 0.0579,-0.23948 0.21851,-0.53364 0.35674,-0.65338 0.13818,-0.11989 0.1103,0.027 -0.062,0.32674 -0.50805,0.88282 0.15766,0.62994 1.8535,-0.70419 0.87305,-0.6868 2.07746,-1.39689 2.67647,-1.57802 1.41622,-0.42819 2.22966,-1.09374 1.92978,-1.57892 -0.13128,-0.2125 0.0785,-0.38626 0.46617,-0.38626 0.38764,0 0.58376,0.19602 0.43557,0.43572 -0.40011,0.6476 -0.003,0.53664 1.72129,-0.48083 2.34638,-1.38439 1.56525,-0.0456 -1.55929,2.67114 -1.43235,1.2458 -2.50118,2.36822 -2.37515,2.49426 0.12589,0.12589 0.96945,-0.43808 1.87424,-1.25362 2.04647,-1.84445 7.93446,-5.782 8.21965,-5.49681 0.116,0.11599 -0.79027,0.85327 -2.01382,1.63844 -1.34163,0.86092 -2.02957,1.5482 -1.7331,1.73142 0.3122,0.19363 0.0456,0.59101 -0.7323,1.09189 l -1.22398,0.78802 0.87125,-1.00236 c 1.30794,-1.50464 0.1193,-0.90296 -2.57402,1.30311 -2.4071,1.97157 -3.08806,2.95516 -1.67336,2.41702 0.41932,-0.15945 -0.012,0.50562 -0.95965,1.47806 -1.20299,1.23519 -2.08927,1.76808 -2.9405,1.76808 -0.80376,0 -1.21846,0.2269 -1.21846,0.66711 0,0.36693 -0.34304,0.78679 -0.76234,0.93303 -0.41929,0.14627 -1.59552,1.06308 -2.61379,2.03736 -2.69883,2.58226 -2.26536,1.52373 0.61085,-1.4917 1.35424,-1.41979 2.35683,-2.58143 2.22795,-2.58143 -0.8566,3e-5 -2.85634,1.59268 -5.76585,4.59202 -2.95662,3.04798 -3.25174,3.25648 -2.44112,1.72462 l 0.92206,-1.74257 -1.79742,2.06924 c -0.98857,1.13808 -2.01224,2.06925 -2.27483,2.06925 -0.32101,6e-5 -0.30624,-0.17115 0.0453,-0.52276 z m 143.03864,-5.24932 c -0.29943,-0.29943 -0.69061,-0.54452 -0.86916,-0.54452 -0.17864,0 -3.15826,-2.83311 -6.62158,-6.29577 -3.46332,-3.46267 -5.2873,-5.47014 -4.05337,-4.46104 1.23396,1.00907 3.86628,3.54815 5.84957,5.6423 1.98328,2.09419 3.81613,3.77172 4.07306,3.72784 0.25687,-0.0438 0.92305,0.49521 1.48036,1.19799 1.03788,1.30874 1.11446,1.70654 0.14118,0.7332 z m -17.61154,-6.29305 c -1.62394,-1.33733 -2.85379,-2.53035 -2.733,-2.65114 0.20801,-0.20801 5.90342,4.56891 5.90342,4.95148 9e-5,0.29988 -0.1085,0.2209 -3.17042,-2.30034 z m 17.5462,-0.35143 c -4.43076,-5.11675 -12.6428,-12.06576 -18.51421,-15.66665 -1.91678,-1.17555 -4.07312,-2.56932 -4.79191,-3.09729 -0.71881,-0.52798 -2.53212,-1.57248 -4.02957,-2.32114 -2.96907,-1.48436 -3.68006,-2.19598 -1.12914,-1.13017 7.13259,2.98022 16.61053,9.71009 24.46712,17.37308 3.93743,3.84038 7.34722,7.69452 6.76098,7.64198 -0.20202,-0.018 -1.44551,-1.27802 -2.76327,-2.79984 z m 10.58823,-2.48314 c -1.87019,-1.96537 -5.18431,-5.44493 -7.36473,-7.73241 -3.44141,-3.61037 -5.46417,-6.31226 -4.08975,-5.46282 0.23678,0.14656 0.43062,0.50882 0.43062,0.80546 0,0.76383 3.16869,3.76554 3.97502,3.76554 0.65689,0 3.43065,3.07457 3.43065,3.80268 3e-5,0.20291 0.60318,1.04743 1.34036,1.87694 0.93591,1.05313 1.26471,1.24535 1.08955,0.63704 -0.18643,-0.64774 0.0327,-0.536 0.85444,0.43566 1.56241,1.84745 4.15708,5.44535 3.92701,5.44535 -0.10611,-3e-5 -1.723,-1.60802 -3.59323,-3.57338 z m -27.03323,-5.61506 c -1.25787,-0.95302 -2.28703,-1.83609 -2.28703,-1.96239 0,-0.29823 3.81668,2.44151 4.4293,3.17969 0.73266,0.88279 0.32071,0.6487 -2.14227,-1.2173 z m 14.9203,-5.46486 c -2.50643,-2.38852 -2.97785,-2.94772 -1.30691,-1.55032 2.53655,2.12122 5.8156,5.32644 5.42193,5.29974 -0.107,-0.006 -1.95867,-1.6945 -4.11502,-3.74942 z m -104.76868,-0.49209 c 0,-0.48497 8.24413,-3.32902 8.60471,-2.96844 0.12888,0.12888 -0.23559,0.43784 -0.80906,0.68728 -0.87168,0.37838 -0.76048,0.40988 0.67565,0.19153 0.94547,-0.14387 2.59773,-0.34391 3.67169,-0.44459 1.07397,-0.10071 2.6528,-0.37754 3.50849,-0.61523 1.97484,-0.54862 2.64494,-0.54898 2.64491,-0.001 6e-5,0.23949 -0.34301,0.4374 -0.76233,0.43953 -0.41929,0.002 -2.72269,0.68419 -5.11864,1.51567 -4.87919,1.69327 -5.67114,1.80189 -6.57161,0.90144 -0.54746,-0.54746 -0.52942,-0.68605 0.13997,-1.07582 0.42262,-0.24608 0.65182,-0.4534 0.50933,-0.46069 -0.28444,-0.015 -4.51528,1.41161 -5.73078,1.93185 -0.42963,0.18374 -0.76236,0.13968 -0.76236,-0.101 z m 82.00544,-2.90334 c -1.73802,-1.01654 -3.30627,-2.01143 -3.48503,-2.21084 -0.49698,-0.55429 5.68385,2.86182 6.41159,3.54368 0.93837,0.87914 0.56256,0.70799 -2.92656,-1.33284 z m 21.36605,0.62847 c -0.12469,-0.47651 -0.36271,-0.7822 -0.52915,-0.67936 -0.44252,0.27365 -2.8656,-1.76116 -2.86557,-2.40624 -3e-5,-0.30225 -0.27245,-0.64031 -0.60518,-0.75127 -0.40883,-0.13638 -0.49066,-0.015 -0.25207,0.36951 0.19422,0.31414 -0.36669,0.021 -1.24625,-0.64865 -0.87962,-0.67089 -1.59927,-1.28455 -1.59927,-1.36368 0,-0.2278 3.20912,1.1622 3.80696,1.64902 0.29673,0.24159 0.4406,0.59991 0.31942,0.79597 -0.26226,0.42465 1.5396,1.77266 1.99405,1.49178 0.17354,-0.1073 0.50309,0.048 0.73263,0.34487 0.55678,0.72001 1.02304,2.06445 0.71596,2.06445 -0.13458,3e-5 -0.34684,-0.38986 -0.47147,-0.86637 z m -28.98792,-1.3397 c -1.37765,-0.71111 -2.50484,-1.37201 -2.50484,-1.46871 0,-0.34472 3.28651,1.12384 4.35627,1.94657 1.48517,1.14221 1.0894,1.04006 -1.85143,-0.47786 z m -50.6418,0.55549 c 0.23948,-0.22839 1.70984,-0.52276 3.26721,-0.65404 3.0434,-0.25657 2.06292,0.2239 -1.53327,0.75124 -1.37975,0.20232 -2.01098,0.16695 -1.73394,-0.0971 z m -13.04033,-0.57374 c 0.10551,-0.16965 2.39604,-1.00077 5.09104,-1.84604 7.78165,-2.44073 12.16868,-2.73666 26.46347,-1.78519 3.19075,0.2125 11.75119,1.7658 12.15298,2.20535 0.14447,0.15796 -1.01174,0.14957 -2.56911,-0.018 -1.5574,-0.16815 -5.08597,-0.48236 -7.84133,-0.69801 -2.75533,-0.21551 -6.60329,-0.52393 -8.55106,-0.68501 -3.88348,-0.32116 -15.46547,0.94625 -21.5886,2.36241 -1.84166,0.42595 -3.26247,0.63531 -3.15742,0.46525 z m 60.52384,-2.6406 c -1.91677,-0.71611 -5.78841,-2.09553 -8.60369,-3.06528 -2.81524,-0.96977 -5.11861,-1.95555 -5.11861,-2.19066 6e-5,-0.23649 0.34037,-0.28684 0.76233,-0.1127 0.41933,0.17324 1.49808,0.48931 2.3973,0.70257 2.33358,0.55342 12.61975,4.60895 13.63275,5.37497 1.1111,0.84026 1.02007,0.81922 -3.07008,-0.70896 z m -64.36413,195.35099 c -1.60086,-0.6568 -2.16777,-1.40651 -1.08907,-1.44032 0.83205,-0.027 -2.52025,-1.54499 -3.70284,-1.67768 -0.40535,-0.0456 -0.39201,-0.15766 0.0522,-0.4392 0.48145,-0.305 0.43928,-0.4662 -0.21791,-0.83393 -0.44788,-0.25088 -0.78754,-0.61667 -0.75436,-0.81323 0.0818,-0.4853 -5.03181,-2.5011 -5.40302,-2.12988 -0.16246,0.16245 -0.0492,0.44722 0.25147,0.63303 0.30645,0.19032 0.42061,0.6663 0.25957,1.08634 -0.18134,0.47225 0.015,0.9907 0.52974,1.40498 0.77372,0.62182 0.76665,0.63219 -0.13458,0.19693 -1.20249,-0.58094 -1.88005,-0.58565 -1.88005,-0.012 3e-5,0.24547 0.58492,0.56352 1.29977,0.70652 0.71492,0.14297 1.2033,0.41617 1.08524,0.60716 -0.1178,0.19093 0.42427,0.48374 1.20509,0.65069 0.7808,0.16695 1.64321,0.48316 1.91654,0.70271 0.27335,0.21971 1.15549,0.48386 1.96032,0.58736 0.80487,0.1034 2.24753,0.47552 3.20591,0.82671 2.31194,0.84722 3.50214,0.801 1.41581,-0.0548 z m 2.62588,-3.67043 c -0.37233,-0.23619 -0.19603,-0.35986 0.53244,-0.3732 1.02121,-0.018 1.03622,-0.0507 0.24098,-0.51191 -0.63474,-0.36824 -0.89044,-0.36483 -1.01645,0.012 -0.25057,0.75116 -1.14688,0.61406 -2.3928,-0.366 -0.60926,-0.47915 -1.23069,-0.87119 -1.38098,-0.87128 -0.15046,-9e-5 -0.0635,0.39204 0.19303,0.87128 0.25657,0.47918 0.765,0.87123 1.1301,0.87123 0.36513,0 0.57371,0.14687 0.46356,0.32676 -0.1097,0.18014 0.47184,0.34164 1.29328,0.35992 0.92047,0.021 1.27994,-0.10251 0.9369,-0.32005 z m -5.81303,-0.8489 c -0.20322,-0.32856 0.015,-0.38311 0.68231,-0.17114 0.66782,0.2119 0.88534,0.15735 0.68227,-0.17115 -0.3595,-0.58163 -2.27411,-0.64295 -2.61964,-0.0839 -0.13578,0.21881 3e-5,0.49771 0.30102,0.61904 0.93348,0.3764 1.26447,0.30944 0.95404,-0.19273 z m 104.68724,-6.99084 c 6.02464,-4.05628 11.07018,-8.40171 15.34897,-13.21924 l 1.93455,-2.17814 -1.89165,1.74254 c -1.04046,0.95836 -2.8951,2.7146 -4.12144,3.90279 -2.10012,2.03465 -4.98317,4.19445 -11.59578,8.68669 -2.89914,1.96952 -5.17125,4.15252 -3.7573,3.60994 0.38788,-0.14896 2.22505,-1.2939 4.08265,-2.54458 z m 41.92394,-95.51674 c 0.003,-3.09477 -0.1013,-5.51893 -0.23319,-5.38705 -0.13188,0.13189 -0.32523,2.95807 -0.42963,6.28031 -0.12559,3.99825 -0.0468,5.81956 0.23319,5.38705 0.23259,-0.35941 0.42598,-3.18553 0.42963,-6.28031 z M 421.43598,510.83552 c 1.55146,-9.00347 2.06946,-11.28073 3.5673,-15.68263 0.85606,-2.51575 1.72704,-4.90502 1.93554,-5.30945 0.29403,-0.5705 0.19422,-0.72142 -0.44519,-0.67325 -0.45334,0.0342 -0.73623,0.29134 -0.62863,0.57189 0.10761,0.28024 -0.29793,1.72449 -0.90122,3.20915 -1.30137,3.20267 -2.87517,8.77421 -2.87517,10.17853 0,0.54839 -0.17354,1.18331 -0.38545,1.41092 -1.07687,1.15621 -2.56362,20.94979 -1.90236,25.32639 0.2281,1.51031 0.40137,-0.27845 0.6194,-6.39834 0.16635,-4.67208 0.62358,-10.35706 1.01578,-12.63321 z m 204.32206,9.14818 c -0.11929,-0.83858 -0.3288,-3.19095 -0.46584,-5.22753 -0.71905,-10.6846 -4.78921,-26.94597 -8.50484,-33.97902 -1.05568,-1.99821 -1.08619,-0.8837 -0.0333,1.21531 0.92206,1.83828 3.48814,9.9312 4.79436,15.12076 1.46203,5.8085 3.16033,16.69119 3.43308,21.99926 0.19483,3.79027 0.34697,4.69158 0.6253,3.70284 0.20232,-0.71882 0.27035,-1.993 0.15106,-2.83162 z m 9.39588,-1.33529 c -0.69348,-2.31473 -1.06698,-1.94123 -0.67469,0.67469 0.21161,1.41131 0.44381,1.89405 0.75928,1.57862 0.3154,-0.31547 0.28953,-1.00452 -0.0845,-2.25331 z m -8.12772,-6.42825 c -0.69888,-6.64091 -1.93587,-12.54506 -4.16571,-19.88278 -2.09331,-6.88861 -3.5117,-10.86147 -5.00318,-14.01424 -1.82392,-3.85546 -1.67972,-2.36913 0.20171,2.07761 3.47262,8.20802 7.38071,22.16162 7.58369,27.07702 0.0563,1.36353 0.22599,2.48077 0.3773,2.48281 0.15106,0.002 0.41599,1.88545 0.58843,4.1854 0.17264,2.29992 0.46407,4.01522 0.64813,3.81173 0.18404,-0.20352 0.0806,-2.78536 -0.23019,-5.73755 z m -3.67718,-0.75691 c 0,-0.92266 -0.17624,-1.44137 -0.43566,-1.28117 -0.7222,0.44633 -0.47756,2.83158 0.29044,2.83158 0.0797,0 0.14537,-0.69768 0.14537,-1.55041 z m 8.90861,-7.00326 c -1.04984,-5.83068 -1.31758,-4.72326 -0.34979,1.44695 0.44393,2.8305 0.87099,4.58887 0.94898,3.90746 0.0779,-0.68143 -0.19153,-3.0909 -0.59919,-5.35441 z m -2.97284,4.14455 c -0.13788,-0.68974 -0.10131,-1.25404 0.0809,-1.25404 0.4377,0 -0.1106,-4.3849 -0.92607,-7.4057 -1.43595,-5.31952 -2.02282,-7.34144 -3.09639,-10.66761 -1.29814,-4.02201 -1.46188,-5.49528 -0.2227,-2.00471 0.95557,2.692 1.49169,3.49123 1.04842,1.56288 -0.56817,-2.47136 -4.2458,-11.31631 -4.90589,-11.79899 -0.40266,-0.29434 -0.52354,-0.70572 -0.30932,-1.05236 0.2245,-0.36243 0.18074,-0.46332 -0.11989,-0.27755 -0.49189,0.30399 -1.22033,-1.26791 -1.0347,-2.23281 0.14147,-0.73481 -1.31144,-3.16014 -1.73583,-2.89785 -0.18343,0.1133 -0.57182,-0.24038 -0.86265,-0.78604 -0.49417,-0.92736 -0.47723,-0.94981 0.25836,-0.34262 0.68591,0.56607 0.66699,0.4139 -0.14686,-1.18136 -0.51383,-1.00712 -1.31959,-2.19021 -1.79068,-2.62908 -0.47106,-0.43886 -1.40202,-1.86915 -2.06886,-3.17846 -1.19367,-2.34374 -5.7154,-9.1257 -6.0844,-9.1257 -0.2227,0 0.13698,0.65006 1.2505,2.25931 0.44534,0.64361 1.47989,2.52621 2.29896,4.18357 0.81908,1.65733 1.99084,3.60944 2.60388,4.33802 0.61307,0.72856 1.11464,1.53903 1.11467,1.80108 -3e-5,0.42583 3.90878,8.86917 4.86381,10.50632 0.85099,1.45879 1.75228,3.69381 1.84669,4.57955 0.0552,0.5176 0.53997,1.65238 1.07726,2.52175 0.5373,0.86936 1.07253,2.10797 1.18939,2.75245 0.1169,0.64448 0.37329,1.4845 0.56982,1.86672 0.33018,0.64217 1.48447,4.92357 1.59678,5.92251 0.0602,0.53628 0.54953,1.8684 1.14467,3.11678 0.24608,0.51622 0.32041,1.14431 0.16485,1.39575 -0.33704,0.5453 0.15047,2.74502 0.55298,2.49597 0.15406,-0.0953 0.26466,0.8926 0.24577,2.19544 -0.021,1.4491 0.1103,2.15182 0.3387,1.80995 0.23679,-0.35425 0.34019,-8.7e-4 0.28294,0.96591 -0.16784,2.8335 0.0432,4.42201 0.54584,4.11134 0.27276,-0.16845 0.37125,-0.83736 0.2287,-1.55042 z m -7.01027,-4.63017 c -0.38099,-2.07323 -1.10364,-2.89599 -1.10364,-1.25647 0,1.1991 0.67451,2.89006 1.15285,2.89006 0.13788,3e-5 0.116,-0.73512 -0.0491,-1.63359 z m 8.03417,-4.32172 c -0.86034,-4.18414 -3.40853,-12.60545 -5.07152,-16.76043 -1.71568,-4.28662 -2.48932,-5.04131 -0.99229,-0.96797 1.99468,5.42739 4.35194,13.12524 4.7846,15.6246 0.47911,2.76794 1.27502,5.1695 1.60409,4.84043 0.1085,-0.1085 -0.0378,-1.33998 -0.32488,-2.73663 z m -9.79838,-2.91997 c -0.40988,-1.46787 -1.02994,-3.22321 -1.37789,-3.90072 -0.564,-1.09803 -0.78065,-2.04107 -0.96795,-4.21351 -0.0501,-0.58082 -0.10341,-0.58082 -0.47864,0 -0.37149,0.57497 -0.4231,0.57182 -0.42894,-0.027 -0.003,-0.37349 -0.29134,-1.0596 -0.639,-1.5247 -0.3478,-0.46509 0.3607,2.19292 1.57442,5.90664 2.89678,8.86373 2.64048,8.21704 2.87046,7.24297 0.1061,-0.44893 -0.14267,-2.01715 -0.55246,-3.48505 z M 419.30394,485.38886 c 0.34002,-0.93771 0.83559,-1.96689 1.10133,-2.28706 0.34784,-0.41906 0.34937,-0.58211 0.006,-0.58214 -0.26286,0 -0.77918,0.58282 -1.14758,1.29525 -0.80067,1.5482 -2.84809,7.14488 -2.81248,7.68784 0.0306,0.46389 1.99368,-3.74261 2.8534,-6.11389 z m 6.88525,-7.58986 c 1.95334,-3.58157 7.86921,-11.97674 11.10132,-15.75387 3.54386,-4.1415 11.18643,-11.47949 16.70006,-16.03452 1.61297,-1.33251 2.84288,-2.51251 2.73321,-2.62222 -0.1097,-0.1097 -0.48964,0.0414 -0.84434,0.33576 -0.35473,0.29434 -0.82798,0.42208 -1.05173,0.28385 -1.03844,-0.64176 -13.23203,10.02711 -18.12554,15.85905 -3.95141,4.70918 -9.99681,14.14579 -12.51308,19.53242 -1.19343,2.55472 -2.64434,5.64467 -3.22425,6.86652 -0.57995,1.22185 -1.04253,2.5941 -1.02805,3.04939 0.015,0.45532 1.24889,-1.62256 2.74298,-4.61755 1.49416,-2.99494 3.07337,-6.09939 3.50933,-6.8988 z m 3.49396,5.08531 c 0.14926,-0.55995 -0.31283,0.0602 -1.02715,1.37786 -0.71426,1.31779 -1.29672,2.78803 -1.2942,3.26724 0.006,0.87878 1.81306,-2.74007 2.32135,-4.6451 z m 186.05162,1.05112 c -0.16605,-0.41929 -0.37113,-1.28137 -0.45592,-1.91575 -0.27815,-2.08091 -8.10515,-16.80614 -9.33818,-17.56823 -0.59212,-0.36594 1.29591,3.31966 2.53047,4.93979 0.61405,0.80586 1.12527,1.89459 1.13603,2.41945 0.024,1.16245 5.53188,12.88132 6.05602,12.88471 0.20532,10e-4 0.23769,-0.34064 0.0716,-0.75997 z m -193.07265,-6.3166 c 1.08175,-2.21626 2.57153,-4.70195 3.31049,-5.52378 0.73895,-0.82183 1.3436,-1.66656 1.3436,-1.87715 6e-5,-0.21041 0.18253,-0.27006 0.40553,-0.13218 0.2227,0.13817 0.54734,0.021 0.72073,-0.25957 0.19723,-0.31837 0.12649,-0.39331 -0.18763,-0.19932 -1.26675,0.78292 -0.31873,-0.68453 1.23957,-1.91875 0.95835,-0.75904 1.74251,-1.58138 1.74251,-1.82737 0,-0.24608 -0.40314,0.015 -0.89587,0.58112 l -0.89586,1.02843 0.51811,-1.08904 c 0.7924,-1.66587 1.37577,-2.28211 1.68584,-1.78048 0.15196,0.24607 0.53459,0.018 0.87077,-0.52393 0.54767,-0.87941 0.5373,-0.91079 -0.12379,-0.36492 -1.03293,0.85369 -0.89844,-0.0866 0.14777,-1.0335 0.47921,-0.43365 0.87123,-0.62968 0.87123,-0.43563 -3e-5,0.19392 0.3921,-0.002 0.87128,-0.4356 0.47918,-0.43368 0.87126,-1.12617 0.87135,-1.53884 -3e-5,-0.41273 0.34304,-1.01944 0.76299,-1.34792 0.69094,-0.54185 0.70634,-0.52644 0.16425,0.16455 -0.37085,0.47283 -0.41806,0.76234 -0.12409,0.76237 0.26047,0 0.70053,-0.44109 0.97781,-0.98018 0.27725,-0.53913 0.99172,-1.50333 1.58761,-2.14271 0.5959,-0.63945 0.96786,-1.34969 0.82651,-1.57841 -0.31942,-0.5168 4.23366,-4.88251 5.09208,-4.88251 0.34442,0 0.89527,-0.32518 1.22407,-0.72259 0.3289,-0.39739 2.16615,-1.97274 4.08293,-3.50073 1.91674,-1.528 4.21312,-3.4082 5.10299,-4.17824 0.8899,-0.77004 2.75221,-2.02228 4.13849,-2.78272 1.38626,-0.76048 3.44459,-1.8874 4.57407,-2.50431 1.12947,-0.61687 2.26359,-1.51393 2.52019,-1.99344 0.61816,-1.15501 -0.18793,-1.17081 -1.17075,-0.024 -0.39978,0.46689 -0.90096,0.74132 -1.11377,0.6098 -0.21251,-0.13218 -0.62227,0.0827 -0.90989,0.47609 -0.28744,0.3934 -0.93411,0.95209 -1.43666,1.24163 -3.02992,1.74563 -4.54538,2.4803 -4.91198,2.3813 -0.77483,-0.20921 -11.85277,8.38189 -11.53089,8.94245 0.16695,0.29103 0.14447,0.38461 -0.0504,0.20831 -0.96073,-0.86982 -13.38562,12.71695 -17.42349,19.05279 -3.26221,5.11876 -5.54639,9.16104 -5.66167,10.01941 -0.0644,0.47921 -0.43398,1.45939 -0.82138,2.17817 -0.69393,1.28755 -0.87758,1.96032 -0.53507,1.96032 0.0959,9e-5 1.06005,-1.81306 2.14145,-4.02954 z m 191.30951,-3.21047 c -1.68873,-3.26085 -3.36545,-5.87414 -2.76159,-4.30412 0.62257,1.61857 4.39141,8.5462 4.55854,8.3791 0.11359,-0.11359 -0.69505,-1.94731 -1.79695,-4.07498 z m 3.96957,-7.06158 c -0.61055,-1.20482 -1.33958,-2.33247 -1.62007,-2.5058 -0.28055,-0.17325 0.14867,0.88282 0.95362,2.34709 1.74206,3.16878 2.25349,3.29059 0.66645,0.15886 z m -7.86839,0.0348 c -0.62314,-1.13807 -1.54077,-2.55934 -2.03922,-3.15829 l -0.90623,-1.08907 0.79179,1.30686 c 0.43551,0.71878 1.25965,2.14001 1.83148,3.15831 0.57179,1.01828 1.13313,1.85144 1.24738,1.85144 0.1142,0 -0.30207,-0.93117 -0.9252,-2.06925 z m -168.05388,-1.81454 c -0.0602,-0.36893 0.12589,-0.6752 0.4136,-0.6805 0.28744,-0.006 0.77759,-0.28355 1.08907,-0.61823 0.32835,-0.35269 0.35302,-0.48895 0.059,-0.324 -0.27905,0.15645 -0.58648,0.0467 -0.6832,-0.24339 -0.2248,-0.67436 -2.28158,2.07084 -2.28895,3.05509 -0.003,0.40266 -0.25058,0.75718 -0.55007,0.78772 -0.96824,0.0989 -1.03613,0.15706 -0.74027,0.63585 0.39391,0.63738 2.84417,-1.7328 2.7009,-2.6126 z m 173.00656,-3.41299 c -2.01281,-3.32521 -5.09928,-7.77575 -5.7901,-8.34904 -0.39178,-0.32518 0.86067,1.78792 2.78332,4.69572 1.92256,2.9078 3.60812,5.28691 3.74564,5.28691 0.13758,0 -0.19512,-0.73512 -0.73886,-1.63359 z m -10.296,0.61405 c 0.26046,0.16096 0.15106,-0.16784 -0.24338,-0.73104 -0.75191,-1.07342 -2.80239,-1.76963 -2.22538,-0.75559 0.6889,1.21067 1.68769,2.11589 1.83777,1.66563 0.0863,-0.25956 0.37043,-0.34001 0.63099,-0.17894 z m -7.70085,-8.53508 c 0.40551,0.33654 0.61825,0.35371 0.61825,0.0498 0,-0.74425 -0.86055,-1.06587 -1.47889,-0.5527 -0.43758,0.36319 -1.08862,-0.12439 -2.8112,-2.10476 -1.23297,-1.41755 -2.0248,-2.64971 -1.75963,-2.7381 0.30036,-0.10011 0.21791,-0.38005 -0.2191,-0.74264 -0.5866,-0.48682 -0.70281,-0.48421 -0.71093,0.015 -0.006,0.3437 -0.36327,0.13757 -0.84143,-0.48469 -0.45748,-0.59539 -0.93102,-0.98333 -1.0523,-0.86206 -0.12139,0.12139 1.38455,2.00592 3.34634,4.18804 2.70012,3.00348 3.65476,3.81571 3.92871,3.34277 0.28205,-0.48667 0.49854,-0.51134 0.98018,-0.1115 z m 2.55028,-1.42531 c -0.9428,-0.99864 -1.95924,-2.08723 -2.25873,-2.41906 -0.29943,-0.33183 -0.54455,-0.47744 -0.54452,-0.32353 0,0.45469 4.10303,4.97277 4.31944,4.75639 0.1088,-0.1091 -0.57335,-1.01513 -1.51619,-2.0138 z m -159.17904,-5.44136 c 1.30958,-1.36467 1.98898,-2.20838 1.5098,-1.87493 -2.14976,1.49589 -4.78579,4.35613 -4.01468,4.35613 0.068,9e-5 1.19527,-1.11656 2.50488,-2.4812 z m 0.61837,-1.67801 c 1.66608,-1.54597 2.79942,-2.81087 2.51857,-2.81087 -0.28085,0 -0.39792,-0.29403 -0.25986,-0.65344 0.38938,-1.01467 0.018,-0.78934 -1.60842,0.97604 -0.82566,0.8962 -0.99852,1.19026 -0.3847,0.65312 0.61445,-0.53685 1.30056,-0.97434 1.5247,-0.97224 0.2242,0.002 -0.96468,1.26723 -2.64182,2.81141 -1.6772,1.54421 -2.8534,2.80736 -2.6138,2.80706 0.23948,-2.7e-4 1.79877,-1.26546 3.46485,-2.81141 z m 135.60231,-0.95221 c -0.87851,-0.87851 -1.75085,-1.44182 -1.93854,-1.25179 -0.18763,0.19003 0.4383,1.00164 1.39108,1.80353 2.24228,1.88725 2.61293,1.51373 0.54746,-0.55174 z m -2.64278,-1.66152 c 0,-0.61682 -2.02144,-2.07075 -9.85087,-7.08532 -1.54451,-0.98923 -2.9004,-1.7064 -3.0131,-1.5937 -0.1127,0.1127 -0.12319,0.26077 -0.024,0.3286 0.0998,0.068 2.77754,1.85958 5.95048,3.98119 3.17295,2.12164 5.99038,4.12432 6.26107,4.45042 0.62155,0.74897 0.67577,0.74247 0.67577,-0.0812 z m -106.37029,-2.80404 c 0.14567,-0.23589 0.89244,-0.61019 1.65936,-0.83196 0.85127,-0.24608 1.05502,-0.41144 0.52306,-0.42427 -0.47918,-0.012 -1.55737,0.35458 -2.39595,0.81371 -0.90237,0.49402 -1.22401,0.84218 -0.78805,0.853 0.40514,0.009 0.85588,-0.17474 1.00158,-0.41048 z m 44.61506,-10.07689 c 1.34043,-0.027 2.04506,-0.14477 1.56588,-0.26017 -0.4792,-0.1151 -1.05753,-0.38656 -1.28512,-0.60288 -0.56754,-0.53942 -2.53608,-0.5016 -2.19993,0.0423 0.17025,0.27546 -0.98149,0.44486 -3.1326,0.46072 -1.87103,0.012 -4.18597,0.20382 -5.14435,0.42229 -1.26502,0.28834 -0.44067,0.34112 3.00824,0.19273 2.61292,-0.1124 5.84749,-0.2272 7.18788,-0.25507 z m 45.34653,-0.82073 c -0.3594,-0.23229 -0.45742,-0.43314 -0.2179,-0.44638 0.23948,-0.012 -0.1082,-0.31901 -0.77265,-0.67946 -0.66456,-0.36043 -1.42824,-0.51937 -1.69704,-0.35326 -0.29673,0.18343 0.0926,0.61172 0.99049,1.09012 1.54943,0.82548 2.82484,1.11781 1.69704,0.38898 z m -76.01719,-26.9796 c 1.67717,-0.45208 2.75536,-0.83268 2.39595,-0.84578 -0.86556,-0.0315 -5.6818,1.12546 -5.997,1.44065 -0.40271,0.40284 0.37916,0.27366 3.60105,-0.59487 z M 470.72564,656.0369 c -0.16425,-0.16426 -0.93168,-0.53032 -1.70621,-0.81245 -0.77415,-0.28265 -1.75292,-0.66019 -2.17494,-0.83904 -0.59244,-0.25087 -0.70544,-0.16395 -0.49602,0.38174 0.21071,0.54908 0.0902,0.6381 -0.5396,0.39864 -1.63548,-0.62179 -2.97168,-1.43885 -2.35735,-1.44143 1.14023,-0.006 -0.0974,-0.72394 -4.55206,-2.64527 -4.21559,-1.81774 -8.73126,-4.30439 -7.84133,-4.31797 0.23948,-0.003 1.02843,0.35485 1.75297,0.79671 0.72451,0.44186 2.09676,1.05029 3.04939,1.35208 0.95264,0.3018 2.71223,1.0148 3.91022,1.58444 1.198,0.56957 4.1313,1.73184 6.51844,2.58271 3.96921,1.41473 5.00037,2.01695 5.01905,2.93121 0.009,0.40665 -0.19393,0.41645 -0.58229,0.027 z m 23.74968,-0.95437 c -0.46353,-0.29374 -0.43427,-0.42469 0.14447,-0.64679 1.08695,-0.41711 1.39087,-0.32425 0.65432,0.19992 -0.48952,0.34837 -0.21641,0.40439 1.08906,0.2236 1.19728,-0.16605 1.53804,-0.1112 1.08904,0.17504 -0.80822,0.5153 -2.20448,0.53796 -2.97698,0.0483 z m 7.33332,-3.58777 c -2.52564,-0.74064 -2.61979,-0.80508 -0.87128,-0.59656 1.07815,0.12859 2.84249,0.50928 3.92068,0.84602 3.04843,0.95215 0.27425,0.7252 -3.0494,-0.24937 z m 5.55424,-10.28581 c 0.7787,-0.0965 2.05288,-0.0965 2.83158,0 0.7787,0.0965 0.14147,0.17564 -1.4158,0.17564 -1.55737,0 -2.19448,-0.0791 -1.41578,-0.17564 z m 72.64106,-6.55306 c 0.69933,-0.69711 7.36695,-4.2291 7.06677,-3.74336 -0.14957,0.24278 -1.89927,1.28177 -3.8875,2.30933 -1.9882,1.02757 -3.41887,1.67288 -3.17927,1.43403 z m 26.35554,-19.82976 c 0,-0.33638 0.41911,-0.98503 0.93132,-1.44149 1.1254,-1.00289 5.60735,-6.57656 7.96919,-9.91039 0.94197,-1.32955 1.90338,-2.29947 2.13654,-2.15536 0.24248,0.14956 0.28355,0.0348 0.0962,-0.26826 -0.18043,-0.29164 -0.0375,-0.86113 0.31748,-1.26528 0.35485,-0.40425 1.27499,-1.86211 2.04461,-3.23975 0.76955,-1.37771 1.49733,-2.50488 1.61713,-2.50488 0.11989,-6e-5 -0.38902,1.07519 -1.13067,2.38936 -0.74162,1.31414 -1.34846,2.59308 -1.34846,2.84207 0,1.09623 -5.79681,8.76926 -9.08943,12.03141 -1.46991,1.45627 -2.67258,2.8611 -2.67258,3.12184 3e-5,0.26076 -0.19602,0.59517 -0.43502,0.74363 -0.23949,0.14806 -0.43563,-0.006 -0.43563,-0.34239 z m 16.97935,-27.64239 c 1.42839,-3.17229 2.92288,-6.39777 3.32107,-7.16778 2.02905,-3.92374 6.33534,-19.00199 8.80637,-30.83486 0.78781,-3.77255 1.21301,-5.10509 1.39006,-4.35627 0.23888,1.01066 0.27635,1.02376 0.59191,0.20741 0.59238,-1.53234 1.13594,-10.2484 1.05951,-16.98951 -0.0653,-5.78431 -0.1055,-6.10937 -0.34739,-2.83158 -0.15046,2.03654 -0.31195,2.91871 -0.35925,1.96032 -0.0474,-0.95838 -0.20202,-2.44352 -0.34367,-3.30033 -0.18584,-1.12332 -0.0591,-1.7562 0.45379,-2.26928 1.43229,-1.43229 -0.0528,-16.34117 -2.6129,-26.23127 -2.21303,-8.54929 -2.10141,-7.97174 -1.36773,-7.07636 0.34475,0.42073 0.87177,1.98898 1.17123,3.48502 0.29943,1.49604 0.80615,3.79824 1.12611,5.11603 3.48023,14.33481 4.12357,33.2868 1.69312,49.87947 -0.67385,4.60065 -2.57726,12.42741 -2.84285,11.69007 -0.21671,-0.60185 -0.42067,-0.31492 -0.82486,1.16095 -0.29523,1.07819 -0.71318,2.41064 -0.92871,2.961 -0.21551,0.55037 -0.37664,1.43253 -0.35809,1.96033 0.021,0.60132 0.33387,0.14627 0.83754,-1.21846 0.99004,-2.68307 1.12045,-1.65092 0.18823,1.4886 -0.37571,1.26508 -0.57174,2.41151 -0.43563,2.54762 0.13638,0.13608 0.24758,-0.0677 0.24788,-0.45256 0,-0.38518 0.17774,-0.8102 0.3951,-0.94445 0.2173,-0.13428 0.18284,0.44714 -0.0764,1.29208 -0.33729,1.09893 -0.58378,1.37812 -0.86589,0.9808 -0.25477,-0.3588 -0.311,-0.0926 -0.15886,0.7514 0.12979,0.71881 0.1187,1.03056 -0.024,0.69276 -0.14986,-0.35407 -0.78823,0.83472 -1.50743,2.80724 -1.40669,3.8584 -1.50863,4.38182 -0.54845,2.8166 0.69808,-1.13793 0.6809,-1.06207 -0.56816,2.50487 -0.66774,1.90695 -1.29265,2.61898 -0.76461,0.87126 0.23438,-0.77606 0.18253,-0.87216 -0.24968,-0.46153 -0.30021,0.28535 -0.56724,1.09908 -0.5935,1.8086 -0.027,0.70947 -0.22809,1.17908 -0.44845,1.04349 -0.2206,-0.13488 -0.28804,0.047 -0.15047,0.40586 0.14897,0.38854 0.003,0.6523 -0.36147,0.65239 -0.75982,0 -0.8063,0.25747 0.4772,-2.64458 0.59889,-1.35448 1.08253,-2.60402 1.07453,-2.77691 -0.027,-0.56894 -1.728,1.72873 -1.728,2.3331 0,0.73347 -5.35657,11.84312 -6.28501,13.03524 -0.37323,0.47917 0.49018,-1.72423 1.91854,-4.89649 z m 8.4151,-16.77602 c 1.23034,-3.66825 1.56999,-5.61649 0.72742,-4.17251 -0.45751,0.78256 -2.58985,6.89841 -2.59489,7.43972 -0.002,0.17954 0.14657,0.3267 0.3295,0.3267 0.18283,9e-5 0.87497,-1.61725 1.53797,-3.59391 z m 4.57041,-18.62313 -0.006,-1.5247 -0.36042,1.74251 c -0.19812,0.95839 -0.35219,2.13459 -0.34208,2.61377 0.015,0.70464 0.0848,0.663 0.36707,-0.2179 0.19183,-0.59898 0.34577,-1.77518 0.34209,-2.61377 z m -11.51671,35.61264 c 1.1863,-2.68093 2.41975,-5.01631 2.44457,-4.62849 0.03,0.45229 -2.99284,6.91555 -3.23328,6.91555 -0.12289,0 0.23199,-1.02918 0.78871,-2.28706 z M 390.8312,578.26296 c -2.23599,-5.0233 -3.16905,-7.50461 -3.14207,-8.35588 0.009,-0.26376 1.27619,2.549 2.81743,6.25054 1.54124,3.70155 2.73702,6.79533 2.65729,6.87509 -0.0797,0.0797 -1.12944,-2.06667 -2.33265,-4.76975 z m 245.82026,-68.16987 c -0.54203,-4.45231 -1.93185,-12.00677 -2.8584,-15.53753 -0.49492,-1.8859 -0.80583,-3.52297 -0.69085,-3.63788 0.28744,-0.28744 2.47652,8.03034 3.06357,11.64089 0.46536,2.86197 1.14434,9.70804 0.97919,9.8732 -0.10221,0.1025 -0.32446,-0.95006 -0.49351,-2.33868 z m -3.01978,-9.06282 c 0.0749,-0.48119 -0.0701,-1.16733 -0.32242,-1.52473 -0.38332,-0.54317 -0.41836,-0.52467 -0.21341,0.1124 0.13488,0.41933 0.15586,0.76237 0.0468,0.76237 -0.27935,0 -1.52329,-3.05266 -1.48624,-3.64715 0.018,-0.27006 0.19902,-0.0992 0.405,0.37994 0.34373,0.79986 0.37745,0.78199 0.41171,-0.21791 0.03,-0.86741 0.12318,-0.95607 0.45957,-0.43565 0.37535,0.58084 0.42715,0.58084 0.46599,0 0.024,-0.35938 0.3128,0.42474 0.64166,1.74254 0.72508,2.90546 0.74663,3.16991 0.23229,2.85196 -0.2215,-0.13698 -0.48691,-10e-4 -0.58992,0.30102 -0.10311,0.3024 -0.12589,0.15616 -0.051,-0.32503 z m -1.18573,-5.99085 c -0.36618,-0.36621 -1.0174,-2.00972 -1.44716,-3.65231 -1.30526,-4.98876 -6.09912,-17.17195 -8.6315,-21.93631 -2.27031,-4.27119 -4.96548,-8.98282 -6.22981,-10.89073 -0.5557,-0.83858 -1.14808,-2.11276 -1.31635,-2.83158 l -0.30596,-1.30688 0.87356,1.08907 c 1.30472,1.6266 4.58008,7.08628 4.05739,6.76323 -1.03159,-0.63756 -0.34556,0.79671 1.08631,2.27105 0.89883,0.92548 1.43843,1.84937 1.29639,2.21957 -0.13398,0.34876 0.0659,0.97589 0.44396,1.39359 0.85564,0.94547 6.26637,13.13331 7.55578,17.01958 0.52479,1.58173 1.33994,3.63251 1.81139,4.5573 0.4715,0.92479 0.85728,2.04494 0.85725,2.48923 0,0.44429 0.20862,1.19784 0.4639,1.67456 0.65161,1.21754 0.31255,1.9683 -0.51518,1.1406 z m -1.24832,-8.708 c -2.0827,-5.96733 -5.24749,-13.98976 -5.70551,-14.46288 -0.2203,-0.22779 -0.39115,-0.7177 -0.37964,-1.08907 0.0474,-1.52398 6.84662,13.59363 7.14161,15.87865 0.0618,0.47921 0.25537,1.50836 0.43024,2.28706 0.58321,2.59878 -0.0654,1.45837 -1.4867,-2.61376 z m 1.11956,-1.47944 c -0.44184,-1.40259 -0.90942,-2.82733 -1.03911,-3.16614 -0.14087,-0.36786 -0.0468,-0.49914 0.23349,-0.3259 0.58031,0.35863 2.01736,4.81658 1.78115,5.52526 -0.0947,0.28444 -0.53376,-0.63066 -0.97562,-2.03322 z m -6.30773,-3.21964 c -0.73908,-2.46681 -5.28533,-12.2735 -7.30611,-15.76002 -2.76339,-4.76772 -6.7599,-10.87598 -9.91471,-15.15355 -3.19554,-4.33283 -14.71639,-16.2962 -18.79985,-19.52196 -1.30826,-1.03347 -2.26317,-2.06586 -2.12209,-2.29416 0.14147,-0.2284 0.44228,-0.30039 0.66924,-0.16006 0.22689,0.14028 0.31355,0.41531 0.19242,0.61118 -0.12079,0.19603 0.10851,0.62344 0.51009,0.95009 0.64522,0.52473 0.69318,0.4953 0.41209,-0.25298 -0.30128,-0.80198 -0.27485,-0.80777 0.49729,-0.1091 0.95587,0.86508 1.5892,0.97317 1.13325,0.19333 -0.17505,-0.29943 0.1079,-0.17085 0.62772,0.28534 1.04324,0.91502 1.24997,1.35955 0.40161,0.86346 -0.29943,-0.17504 -0.17115,0.10731 0.28534,0.62773 0.92707,1.05694 1.54523,1.31734 0.69487,0.29254 -0.29823,-0.35938 -0.36076,-0.65342 -0.13878,-0.65342 0.69505,0 3.3461,2.9988 3.40928,3.85645 0.0638,0.86616 7.89175,9.08608 8.28157,8.69625 0.12589,-0.12589 -1.08589,-1.6784 -2.69268,-3.45022 l -2.92141,-3.2215 2.72751,2.61376 c 2.64596,2.5356 5.46235,5.9296 3.84179,4.62967 -0.40991,-0.32881 -0.7453,-0.40185 -0.7453,-0.16216 0,0.53736 1.09104,1.48421 1.37872,1.19652 0.1151,-0.11539 0.78332,0.42487 1.4846,1.20021 1.23498,1.36521 1.2374,1.37642 0.0773,0.35512 -0.6589,-0.57997 -1.19799,-0.92868 -1.19799,-0.77492 0,0.15376 1.59252,2.39332 3.53891,4.97675 6.29769,8.35884 12.19839,18.29625 13.912,23.42921 0.56724,1.69911 0.64182,2.00391 0.77912,3.18401 0.0366,0.31363 0.26017,0.45046 0.49704,0.30407 0.25567,-0.15795 0.31418,0.0375 0.14387,0.48137 -0.21011,0.54728 -0.13248,0.652 0.29014,0.39097 0.39409,-0.24368 0.47331,-0.18883 0.24998,0.17264 -0.17954,0.29134 -0.0926,1.09555 0.19422,1.78768 0.28655,0.69217 0.44312,1.49287 0.34763,1.77935 -0.0956,0.28654 -0.42771,-0.32727 -0.73832,-1.36392 z m 2.56709,-6.6321 c -0.59898,-1.49062 -1.9222,-4.32711 -2.9405,-6.30329 -2.16165,-4.19509 -2.44589,-5.32489 -0.46794,-1.85992 2.40009,4.2044 3.40844,6.23028 3.40844,6.84769 0,0.3307 0.30594,1.19293 0.67988,1.91606 0.37395,0.72313 0.619,1.49364 0.54458,1.71224 -0.0743,0.2185 -0.62548,-0.82213 -1.22446,-2.31278 z M 610.68324,450.8277 c -1.03383,-1.37768 -1.58708,-2.26869 -1.22938,-1.98002 0.73326,0.59179 3.59925,4.48486 3.30165,4.48486 -0.1058,0 -1.03842,-1.12719 -2.07227,-2.50484 z M 411.2302,443.98666 c 0.76626,-1.0671 1.89843,-2.39029 2.51585,-2.94048 0.99432,-0.88612 0.97511,-0.81919 -0.16815,0.58607 -2.11631,2.60084 -2.81549,3.58117 -2.81549,3.94759 6e-5,0.19093 -0.20801,0.34715 -0.46269,0.34703 -0.25447,3e-5 0.16455,-0.87305 0.9306,-1.94018 z m 193.85456,-5.14892 -2.36382,-2.71256 2.07062,1.96033 c 1.74455,1.65166 3.23337,3.51179 2.78123,3.47492 -0.0683,-0.006 -1.18795,-1.23078 -2.48803,-2.72269 z M 450.62229,407.77198 c 1.02304,-0.83865 4.57089,-2.50701 4.81412,-2.26381 0.092,0.0923 -1.14932,0.79998 -2.7589,1.57281 -1.60958,0.77288 -2.53443,1.08382 -2.05522,0.691 z"
       id="path6573" /></g></svg>
