<?xml version="1.0" encoding="UTF-8" standalone="no"?>
<svg
   width="991.58447"
   height="1000"
   version="1.1"
   id="svg4"
   sodipodi:docname="enso.svg"
   inkscape:version="1.2.1 (9c6d41e410, 2022-07-14)"
   inkscape:export-filename="enso.png"
   inkscape:export-xdpi="96"
   inkscape:export-ydpi="96"
   xml:space="preserve"
   xmlns:inkscape="http://www.inkscape.org/namespaces/inkscape"
   xmlns:sodipodi="http://sodipodi.sourceforge.net/DTD/sodipodi-0.dtd"
   xmlns:xlink="http://www.w3.org/1999/xlink"
   xmlns="http://www.w3.org/2000/svg"
   xmlns:svg="http://www.w3.org/2000/svg"><defs
     id="defs8"><linearGradient
       inkscape:collect="always"
       id="linearGradient1708"><stop
         style="stop-color:#528bff;stop-opacity:1;"
         offset="0"
         id="stop1704" /><stop
         style="stop-color:#ae81ff;stop-opacity:1;"
         offset="1"
         id="stop1706" /></linearGradient><linearGradient
       inkscape:collect="always"
       xlink:href="#linearGradient1708"
       id="linearGradient1710"
       x1="-3.4888103e-08"
       y1="499.99999"
       x2="991.58444"
       y2="499.99999"
       gradientUnits="userSpaceOnUse" /></defs><sodipodi:namedview
     id="namedview6"
     pagecolor="#505050"
     bordercolor="#eeeeee"
     borderopacity="1"
     inkscape:showpageshadow="0"
     inkscape:pageopacity="0"
     inkscape:pagecheckerboard="0"
     inkscape:deskcolor="#505050"
     showgrid="false"
     inkscape:zoom="0.86886094"
     inkscape:cx="242.84669"
     inkscape:cy="455.76914"
     inkscape:window-width="3840"
     inkscape:window-height="2054"
     inkscape:window-x="3829"
     inkscape:window-y="2149"
     inkscape:window-maximized="1"
     inkscape:current-layer="svg4" /><path
     style="fill:url(#linearGradient1710);stroke-width:0.999996;fill-opacity:1"
     d="m 7.9918624,631.63007 c -1.42136,-13.96051 -3.638642,-34.07243 -4.927145,-44.69319 -9.632215,-79.38425 3.689725,-173.85812 36.4529036,-258.51251 20.585359,-53.18903 26.732999,-67.33366 33.284207,-76.57992 3.70451,-5.22844 12.042819,-17.96273 18.52979,-28.29817 6.486768,-10.33567 15.861632,-23.04162 20.833122,-28.23542 38.61921,-40.34791 97.97019,-91.6492 127.2387,-109.982065 12.97812,-8.129071 31.23057,-19.711988 40.56098,-25.739811 12.5509,-8.108383 26.19841,-13.700305 52.4583,-21.494235 19.52168,-5.794002 39.62078,-13.130619 44.66467,-16.303587 13.90262,-8.745744 57.21894,-23.2956743 62.47778,-20.98626425 2.45454,1.07790995 10.48768,1.26262995 17.85143,0.41049995 7.36375,-0.85213995 18.16537,-1.37848995 24.00366,-1.16966995 9.81819,0.35116 10.30089,0.77322 6.43048,5.62264995 -4.03844,5.0599203 -3.97818,5.2516903 1.72562,5.4934403 3.25047,0.13781 9.92383,1.17749 14.82955,2.31041 4.90579,1.13294 18.68658,1.97117 30.62397,1.86276 11.93738,-0.10841 24.40008,1.1483 27.69489,2.792612 6.4353,3.211908 39.10636,10.855514 89.9617,21.047098 22.41937,4.493008 41.24204,11.023181 64.39333,22.340566 17.99256,8.795531 35.28636,18.369006 38.43062,21.274261 3.14434,2.90554 9.08994,6.289755 13.21237,7.520313 8.56536,2.557388 67.3994,39.379282 68.31953,42.758752 0.33366,1.22542 11.69398,12.50191 25.24518,25.05884 13.55121,12.55695 32.56583,31.97674 42.25458,43.1547 22.00471,25.3875 31.91547,43.07078 11.8419,21.12906 -7.72676,-8.44585 -15.14873,-15.05656 -16.49328,-14.69046 -3.98271,1.08437 -1.79123,4.92883 13.10958,22.99816 37.31018,45.24361 57.48067,79.02824 71.02017,118.95506 6.83749,20.16319 8.98827,29.45236 6.65977,28.76329 -1.89153,-0.55975 -5.65112,-5.91313 -8.35451,-11.89599 -8.33397,-18.44406 -53.05948,-83.95621 -56.64995,-82.97864 -2.31293,0.62976 12.83154,43.79256 20.47912,58.3669 23.63838,45.04853 39.12669,160.06226 31.27837,232.26825 -3.63288,33.42365 -13.12589,73.79883 -25.2151,107.24347 -17.97673,49.73239 -64.77476,125.1707 -94.34886,152.08973 -5.60419,5.10095 -23.93376,19.66179 -40.73236,32.35741 -30.96557,23.4021 -31.86235,28.71473 -1.57272,9.31755 18.4538,-11.81775 24.49324,-14.2978 23.06461,-9.4708 -0.88611,2.9945 -11.65979,12.80824 -20.94284,19.07738 -3.03408,2.04907 -2.7764,2.37636 1.17297,1.4901 10.99866,-2.46785 5.35761,4.31036 -15.03078,18.06127 -25.4202,17.1447 -51.57167,31.63203 -55.17493,30.56545 -1.42095,-0.42061 -16.94341,5.12555 -34.49422,12.32461 -35.61519,14.60837 -84.41388,26.51997 -104.2514,25.44714 -6.85261,-0.37062 -21.03887,-0.0764 -31.52484,0.65372 -10.48618,0.72979 -23.9377,-0.48832 -29.89249,-2.70742 -10.53446,-3.92568 -49.62431,-12.32186 -53.03843,-11.39228 -2.14693,0.58455 -20.37266,-2.15317 -40.76858,-6.12394 -19.73927,-3.84281 -21.09915,-3.42742 -10.36339,3.16637 11.28677,6.93208 6.68019,8.0817 -21.4917,5.36422 -36.1669,-3.48896 -62.22572,-12.98076 -123.38818,-44.94367 -28.1565,-14.7143 -33.8246,-16.37283 -21.52239,-6.29781 23.58378,19.31403 99.40378,53.86752 133.69946,60.93096 9.81993,2.02247 26.88472,6.41 37.92188,9.75034 11.03706,3.34004 31.33417,6.87549 45.10485,7.85661 13.77055,0.98076 28.39308,2.48936 32.49454,3.35234 6.38179,1.34283 6.84453,2.01788 3.20507,4.68354 -5.49556,4.02575 -63.47008,0.45365 -95.53196,-5.88632 -28.28977,-5.59385 -65.12309,-16.85171 -93.11207,-28.45878 -38.37276,-15.9132 -94.97646,-50.55744 -119.84884,-73.35385 -5.84899,-5.36054 -11.2417,-8.68535 -11.98368,-7.38796 -0.74198,1.29726 0.14295,2.9131 1.96645,3.59076 1.82361,0.67772 11.84767,8.57629 22.2755,17.55256 21.16614,18.21966 65.03,45.41211 96.99368,60.12931 20.5976,9.48345 71.22455,27.57025 74.60033,26.6511 3.42167,-0.9316 28.95844,7.94917 27.94636,9.71864 -1.23008,2.15029 -32.5665,-3.7527 -53.98173,-10.16882 -29.87202,-8.94994 -79.0304,-32.71763 -120.2363,-58.13368 -23.12209,-14.26168 -42.13284,-24.27459 -42.24612,-22.25053 -0.27805,4.96772 23.47396,25.29623 46.41038,39.72115 10.29447,6.47434 18.33311,12.44298 17.86357,13.26376 -0.87862,1.53615 -3.60173,-0.0545 -37.49129,-21.89864 C 223.64428,926.983 182.67147,892.40026 161.65277,870.60568 134.63682,842.59228 102.53692,797.02848 81.030323,756.16722 70.677638,736.4977 67.435427,733.08419 70.782761,745.37832 c 7.4131,27.22651 50.996969,95.59773 86.192569,135.21248 7.22712,8.13473 12.94203,16.34723 12.69976,18.24971 -0.24226,1.90281 -1.22457,0.98012 -2.18292,-2.05048 -1.34376,-4.24861 -2.307,-4.52339 -4.20779,-1.19991 -1.9009,3.32319 -5.53158,1.8172 -15.85847,-6.5774 C 115.33079,862.92269 93.418388,832.66996 45.7972,748.70098 28.000827,717.32021 11.515287,666.27679 7.9879884,631.63273 Z m 24.6257356,47.18299 c 5.114145,3.94759 4.686921,0.62786 -4.122557,-32.0486 C 18.24911,608.76155 13.29678,571.75445 13.011182,531.07032 12.899023,515.11825 11.629485,506.419 9.2121524,505.03632 c -2.417434,-1.38304 -3.513738,4.88527 -3.280141,18.75821 0.192506,11.45935 0.200255,24.32854 0.01733,28.59826 -0.183227,4.26972 1.29197,19.75006 3.278102,34.40073 1.9859276,14.65071 3.7555936,28.66983 3.9326006,31.15353 0.176905,2.48377 3.34346,16.20386 7.037163,30.48906 4.86556,18.81723 8.287429,27.18613 12.420693,30.37695 z m 33.484768,52.88501 c -0.02855,-2.92645 -1.402906,-8.07642 -3.0546,-11.44425 -1.651185,-3.36824 -1.627733,-0.97375 0.052,5.32066 1.68004,6.29432 3.030944,9.0498 3.002089,6.12373 z m 72.185334,29.34985 c 0.6909,-1.20794 0.12144,-3.69987 -1.26556,-5.53774 -1.53271,-2.03081 -2.02539,-1.16966 -1.25618,2.19627 0.696,3.04555 1.83074,4.54941 2.52164,3.3415 z m 16.35309,26.19372 c 8.04435,12.00989 15.45939,19.40201 16.91287,16.86076 0.38756,-0.67762 -5.65618,-9.76825 -13.43074,-20.20174 -14.97945,-20.1029 -17.53983,-17.64636 -3.48213,3.34098 z M 106.58382,231.5445 c 1.64955,-1.69081 8.61931,-10.3301 15.48834,-19.19855 24.01487,-31.00542 91.04742,-96.91352 101.4464,-99.74489 3.922,-1.06779 17.68238,-14.27121 18.79652,-18.035624 1.46735,-4.957897 -9.77384,1.551292 -33.48048,19.386724 -35.51444,26.71932 -86.32278,79.29275 -100.37814,103.86563 -6.39632,11.18234 -7.53504,19.53037 -1.87264,13.72671 z m 30.5099,-12.49923 c 7.95248,-9.22692 30.3283,-30.77189 49.72396,-47.87786 19.39566,-17.10602 35.17511,-31.43114 35.0654,-31.83398 -0.70803,-2.60031 -29.64424,9.08929 -29.80952,12.04245 -0.11237,2.00548 -11.5327,13.59483 -25.37863,25.75406 -26.00285,22.83537 -54.93192,58.08327 -47.98948,58.47175 2.161,0.12121 10.43578,-7.32943 18.38827,-16.55642 z m 119.39633,457.49575 c 4.91582,8.48535 10.63981,19.48576 12.71985,24.44512 2.08014,4.95931 9.83675,16.10111 17.2369,24.75925 7.40025,8.65839 13.82941,17.11782 14.28722,18.79894 0.45771,1.68116 2.61596,3.26759 4.79603,3.52535 2.87178,0.33954 3.04134,0.78685 0.61524,1.62265 -1.84206,0.63347 -6.67724,-2.08268 -10.74565,-6.03877 -7.71756,-7.50462 -12.582,-8.55308 -10.89248,-2.34821 1.1168,4.10237 16.54356,17.3474 49.06468,42.12603 12.24613,9.3305 22.62533,18.2857 23.06499,19.9006 0.93163,3.42176 -32.59127,-7.60276 -50.23215,-16.51978 -6.65908,-3.36583 -12.39153,-5.62316 -12.73871,-5.01643 -2.20617,3.85719 17.42298,25.33331 33.34436,36.48275 10.39806,7.28115 21.86703,16.46201 25.48671,20.40153 12.73576,13.86206 64.20482,33.85329 111.2752,43.22057 51.70377,10.28931 102.4063,8.48344 181.03671,-6.44836 24.18901,-4.59361 22.66276,-3.96839 -19.32749,7.91604 -49.55097,14.02419 -77.9621,17.35641 -123.42174,14.47454 -30.20173,-1.91439 -33.52072,-0.79915 -11.24706,3.77883 27.5754,5.668 76.52484,7.36839 91.95106,3.19405 7.57746,-2.06315 22.08358,-4.60349 32.22853,-5.67224 14.47651,-1.52445 20.85695,-3.55779 29.65183,-9.44832 6.16331,-4.12835 18.93495,-9.55333 28.38123,-12.05563 78.05154,-20.67548 80.99565,-22.08354 119.26998,-56.9395 60.96432,-55.52339 104.79631,-135.03472 118.14302,-214.31103 4.54049,-26.96965 2.91754,-34.82782 -2.17889,-10.54992 -5.68587,27.08632 -18.82985,64.73995 -29.81435,85.40866 -5.35736,10.08065 -10.0153,17.46597 -10.35094,16.41202 -0.33577,-1.05389 0.61641,-4.07526 2.11563,-6.71399 10.5337,-18.53917 30.10527,-79.37813 30.10433,-93.57989 l -5.2e-4,-7.6723 -4.3088,8.84561 -4.30886,8.84563 -0.8956,-8.96309 c -0.4926,-4.92969 -1.19249,-28.21682 -1.55535,-51.74917 -0.36286,-23.53235 -1.38488,-50.78346 -2.27105,-60.55779 -2.64391,-29.16156 -14.34748,-67.0312 -28.05323,-90.7727 -6.7366,-11.66933 -15.15112,-28.10273 -18.69892,-36.51865 -3.5479,-8.41617 -11.0287,-20.88028 -16.62405,-27.69802 -5.59542,-6.818 -18.0784,-24.05443 -27.74002,-38.30322 -19.03398,-28.07119 -35.77371,-43.94946 -61.48512,-58.32102 -18.74568,-10.4782 -19.92867,-5.91047 -2.3723,9.15989 6.44324,5.53081 11.50421,12.14539 11.24652,14.69898 -0.25776,2.55329 2.19348,6.34665 5.44714,8.42938 12.1387,7.7703 42.63534,47.55108 50.56279,65.95574 4.38282,10.1754 11.46731,23.55977 15.74334,29.74327 4.27606,6.1835 9.29186,17.2159 11.14633,24.51633 l 3.37193,13.27381 -7.60452,-10.97266 c -4.18245,-6.03498 -8.78308,-10.65177 -10.22355,-10.25957 -1.44051,0.39221 -0.60625,8.79657 1.85387,18.67636 2.46014,9.87979 3.07789,14.8905 1.37277,11.1349 -29.67669,-65.36453 -73.26066,-114.01348 -130.82007,-146.02284 -29.55494,-16.43611 -40.99686,-18.71911 -14.45992,-2.88561 32.73621,19.53259 53.97246,36.7415 75.71901,61.35961 21.10565,23.8925 31.05129,39.72336 25.84625,41.14055 -5.12283,1.39481 -13.05664,-4.59165 -35.09251,-26.47909 -30.07169,-29.86919 -47.55622,-42.44407 -73.05993,-52.54461 -12.2347,-4.84552 -26.12095,-10.61779 -30.85837,-12.82748 -4.73746,-2.20966 -17.34062,-6.23335 -28.00704,-8.94143 -10.66642,-2.70806 -23.29687,-6.5773 -28.06771,-8.59835 -23.2737,-9.85883 -73.67377,-7.57499 -124.01104,5.61918 -28.37766,7.438 -38.55904,11.50181 -60.07634,23.97647 -14.2494,8.26133 -28.35533,17.32047 -31.34651,20.13157 -11.25944,10.5825 -43.33478,48.60576 -55.17234,65.4038 -6.76268,9.59663 -15.60244,21.06552 -19.64374,25.48713 -8.05291,8.81019 -21.54493,40.06648 -24.30078,56.29676 -0.95998,5.6542 -3.46785,16.27316 -5.57287,23.59803 -2.10513,7.32492 -2.86077,16.95213 -1.67923,21.39349 2.20179,8.27721 -3.92108,36.90746 -8.13866,38.05579 -1.29126,0.35155 -3.39047,-0.80321 -4.6651,-2.56609 -1.27423,-1.7631 -3.44176,4.00613 -4.81581,12.8199 -1.37415,8.81388 -3.82187,18.74587 -5.43961,22.07086 -4.34585,8.93368 -2.78562,22.0044 7.26342,60.84748 6.11756,23.64669 11.91965,39.90104 17.97206,50.34834 z m 607.11331,27.49303 c 1.30703,-1.399 2.74708,-1.18222 3.20025,0.48213 0.45305,1.66398 -0.46193,3.37573 -2.03337,3.80359 -1.57145,0.42786 -3.01152,0.21107 -3.20023,-0.48205 -0.18864,-0.69281 0.72631,-2.40467 2.03335,-3.80367 z M 779.60879,365.5311 c 1.32743,1.74849 2.20261,4.96282 1.94483,7.14293 -0.25778,2.18012 -1.34389,0.74953 -2.41354,-3.17908 -1.06966,-3.92861 -0.85872,-5.71233 0.46871,-3.96385 z m 43.74453,58.71202 c 1.65108,3.36795 3.0254,8.51793 3.05407,11.44437 0.0285,2.92616 -1.32252,0.16982 -3.00202,-6.12373 -1.67977,-6.2944 -1.70319,-8.6889 -0.052,-5.32064 z m -558.41026,-5.28136 c 3.24752,-7.63595 12.2963,-24.9545 20.10838,-38.48552 17.4651,-30.25111 17.17053,-41.44239 -0.4051,-15.39237 -16.15813,23.94852 -29.5488,54.13496 -27.36466,61.68723 1.48112,5.12057 2.68662,3.89286 7.66138,-7.80934 z M 225.57749,130.35861 c 0.4988,-1.26794 4.51705,-4.2626 8.92939,-6.65505 65.29255,-35.399136 86.73919,-44.2588 146.81911,-60.650555 30.19922,-8.240904 56.12171,-14.621712 57.60466,-14.182833 1.48295,0.438908 13.84318,-0.656498 27.46703,-2.434289 25.99387,-3.391862 109.53112,-1.022391 139.04704,3.944194 19.40658,3.265387 23.94322,1.495875 9.53172,-3.718163 C 595.17142,39.496625 546.2475,34.306721 500.23514,34.489948 410.40209,34.848052 295.36823,70.656775 230.04733,118.5963 c -5.62722,4.13003 -12.57251,9.05472 -15.4341,10.94388 -4.80091,3.16972 -4.6134,3.42281 2.42743,3.27936 4.19648,-0.0853 8.03813,-1.193 8.53724,-2.45949 z m 236.94622,819.448 c 0.68825,-0.18738 8.88656,0.93389 18.2186,2.49208 18.66866,3.11665 55.59529,6.01549 69.862,5.48452 8.42385,-0.31356 8.60035,-0.5196 2.32846,-2.71967 -3.7324,-1.30934 -11.7511,-2.86293 -17.81935,-3.45241 -6.06822,-0.58925 -15.32691,-1.62439 -20.57473,-2.30028 -5.24782,-0.67589 -20.93817,-2.50833 -34.8674,-4.07212 -13.92943,-1.56395 -29.87804,-3.57864 -35.44164,-4.477 -16.33076,-2.63779 -15.83226,-0.76044 1.19297,4.49405 8.7173,2.69032 16.41274,4.73828 17.10088,4.55089 z m 52.58201,-26.59251 c 3.14293,-0.85575 5.39701,-2.72138 5.00922,-4.14554 -0.3878,-1.42436 -3.09338,-1.21717 -6.01263,0.46028 -2.91902,1.67777 -5.17289,3.5437 -5.00916,4.14562 0.16407,0.60258 2.86973,0.39533 6.01257,-0.46036 z M 498.77829,243.30223 c 7.5145,-1.92015 44.08479,-2.59324 58.51211,-1.07551 4.62411,0.48631 19.08464,2.89176 32.13449,5.34525 23.88434,4.49066 33.43866,4.48502 28.61995,-0.0165 -8.50375,-7.94424 -92.18042,-16.71387 -113.7797,-11.92464 -19.73899,4.37699 -23.50244,6.05719 -17.69984,7.90259 2.77196,0.88164 8.26785,0.77766 12.21299,-0.23113 z M 805.8104,831.78731 c 7.08244,-1.92836 53.56674,-46.85998 68.17266,-65.89539 2.55591,-3.33122 3.10309,-2.78877 2.86916,2.84365 -0.49855,12.00648 6.77515,6.26753 28.42182,-22.42512 19.38943,-25.70019 40.4205,-69.32898 45.65101,-94.70183 0.9822,-4.76532 3.29489,-13.90836 5.13922,-20.31831 1.84432,-6.40994 3.36781,-15.11099 3.38555,-19.33567 0.0294,-6.98778 -0.51022,-6.57447 -5.977,4.58034 -3.30507,6.74384 -5.72709,13.29788 -5.38232,14.56418 1.17094,4.3006 -11.51926,44.57283 -18.29462,58.0579 -14.7992,29.45528 -21.77554,35.51822 -14.11884,12.26971 4.51986,-13.72346 9.65812,-43.35589 7.41198,-42.74433 -0.75616,0.20588 -12.27658,19.74383 -25.60109,43.41737 -25.22865,44.82409 -44.4098,72.21405 -66.76401,95.33765 -20.89905,21.61834 -28.46833,30.54261 -27.86236,32.85104 0.30947,1.18161 1.63713,1.85594 2.94884,1.49881 z m 85.4024,-91.16194 c 3.56407,-4.78758 3.69258,-4.71425 1.3725,0.78513 -2.4367,5.77555 -4.37087,7.92798 -5.01118,5.57629 -0.1615,-0.59315 1.47592,-3.45576 3.63868,-6.36142 z M 635.15645,69.749469 c 6.58125,1.449258 27.93947,8.043729 47.46266,14.654167 46.56205,15.765424 49.08262,16.086384 24.87257,3.166167 -11.21035,-5.982826 -26.73683,-12.285674 -34.50342,-14.006652 -7.76655,-1.720988 -20.87325,-5.103327 -29.12596,-7.516285 -8.25271,-2.412948 -19.91724,-4.676175 -25.92109,-5.028956 -10.91391,-0.641865 -10.91455,-0.641376 -2.83342,2.72731 4.4455,1.853081 13.4674,4.555002 20.04866,6.004249 z m 119.87987,55.677881 c 1.06057,-1.66274 -18.09146,-11.4472 -20.89908,-10.67724 -0.93362,0.25632 3.1655,3.11 9.10928,6.34189 5.94377,3.23189 11.24912,5.18259 11.7898,4.33535 z M 176.69655,901.22586 c 1.387,1.83788 1.95657,4.32985 1.26567,5.5377 -0.6909,1.20799 -1.82575,-0.2959 -2.52164,-3.34142 -0.76911,-3.36597 -0.27642,-4.22715 1.25608,-2.1963 z m 759.1609,-660.90761 c 1.38697,1.83786 1.95642,4.32982 1.26534,5.53779 -0.6909,1.20795 -1.82571,-0.29594 -2.52167,-3.34145 -0.76915,-3.36595 -0.27642,-4.22713 1.25619,-2.19631 z"
     id="path1702" /></svg>
